<svg width="16" height="16" viewBox="0 0 16 16" fill="none" xmlns="http://www.w3.org/2000/svg">
<mask id="path-1-inside-1_84_1805" fill="white">
<path d="M8 14.6666C11.6774 14.6666 14.6667 11.6773 14.6667 7.99992C14.6667 4.3225 11.6774 1.33325 8 1.33325C4.32258 1.33325 1.33333 4.3225 1.33333 7.99992C1.33333 11.6773 4.32258 14.6666 8 14.6666ZM2.8387 10.6558L5.54838 10.6343C5.84946 11.7203 6.35483 12.7741 7.04301 13.7203C5.2043 13.4193 3.66666 12.2472 2.8387 10.6558ZM6.23655 6.17196H9.6129C9.86021 7.35476 9.86021 8.56981 9.6344 9.75261L6.23655 9.77411C5.98924 8.58056 5.98924 7.35476 6.23655 6.17196ZM7.92473 13.473C7.24731 12.6021 6.75268 11.6451 6.45161 10.6343L9.4086 10.6128C9.09677 11.6236 8.60215 12.5913 7.92473 13.473ZM8.78494 13.7526C9.49462 12.7849 10 11.7203 10.3011 10.6021L13.1935 10.5806C12.3548 12.2687 10.7204 13.4838 8.78494 13.7526ZM13.8064 7.99992C13.8064 8.60207 13.7097 9.18271 13.5484 9.72035L10.5054 9.74185C10.7204 8.55906 10.7097 7.35476 10.4839 6.17196H13.5054C13.6989 6.74185 13.8064 7.36551 13.8064 7.99992ZM13.1398 5.31175H10.2796C9.96774 4.23648 9.47311 3.19347 8.78494 2.24723C10.6882 2.5053 12.2903 3.67734 13.1398 5.31175ZM9.38709 5.31175H6.46236C6.77419 4.3225 7.25806 3.38702 7.92473 2.5268C8.59139 3.38702 9.07526 4.3225 9.38709 5.31175ZM7.04301 2.27949C6.36559 3.21497 5.87096 4.23648 5.56989 5.31175H2.86021C3.68817 3.7311 5.21505 2.58056 7.04301 2.27949ZM5.36559 6.17196C5.13978 7.36551 5.13978 8.58056 5.35483 9.77411L2.48387 9.79562C2.29032 9.22572 2.19354 8.62357 2.19354 7.99992C2.19354 7.36551 2.30107 6.74185 2.49462 6.17196H5.36559Z"/>
</mask>
<path d="M8 14.6666C11.6774 14.6666 14.6667 11.6773 14.6667 7.99992C14.6667 4.3225 11.6774 1.33325 8 1.33325C4.32258 1.33325 1.33333 4.3225 1.33333 7.99992C1.33333 11.6773 4.32258 14.6666 8 14.6666ZM2.8387 10.6558L5.54838 10.6343C5.84946 11.7203 6.35483 12.7741 7.04301 13.7203C5.2043 13.4193 3.66666 12.2472 2.8387 10.6558ZM6.23655 6.17196H9.6129C9.86021 7.35476 9.86021 8.56981 9.6344 9.75261L6.23655 9.77411C5.98924 8.58056 5.98924 7.35476 6.23655 6.17196ZM7.92473 13.473C7.24731 12.6021 6.75268 11.6451 6.45161 10.6343L9.4086 10.6128C9.09677 11.6236 8.60215 12.5913 7.92473 13.473ZM8.78494 13.7526C9.49462 12.7849 10 11.7203 10.3011 10.6021L13.1935 10.5806C12.3548 12.2687 10.7204 13.4838 8.78494 13.7526ZM13.8064 7.99992C13.8064 8.60207 13.7097 9.18271 13.5484 9.72035L10.5054 9.74185C10.7204 8.55906 10.7097 7.35476 10.4839 6.17196H13.5054C13.6989 6.74185 13.8064 7.36551 13.8064 7.99992ZM13.1398 5.31175H10.2796C9.96774 4.23648 9.47311 3.19347 8.78494 2.24723C10.6882 2.5053 12.2903 3.67734 13.1398 5.31175ZM9.38709 5.31175H6.46236C6.77419 4.3225 7.25806 3.38702 7.92473 2.5268C8.59139 3.38702 9.07526 4.3225 9.38709 5.31175ZM7.04301 2.27949C6.36559 3.21497 5.87096 4.23648 5.56989 5.31175H2.86021C3.68817 3.7311 5.21505 2.58056 7.04301 2.27949ZM5.36559 6.17196C5.13978 7.36551 5.13978 8.58056 5.35483 9.77411L2.48387 9.79562C2.29032 9.22572 2.19354 8.62357 2.19354 7.99992C2.19354 7.36551 2.30107 6.74185 2.49462 6.17196H5.36559Z" fill="#223369"/>
<path d="M2.8387 10.6558L2.8268 9.15588L0.377569 9.17532L1.50803 11.3481L2.8387 10.6558ZM5.54838 10.6343L6.99386 10.2336L6.6866 9.12525L5.53648 9.13437L5.54838 10.6343ZM7.04301 13.7203L6.80062 15.2006L10.4034 15.7906L8.25611 12.8381L7.04301 13.7203ZM6.23655 6.17196V4.67196H5.01775L4.76831 5.86496L6.23655 6.17196ZM9.6129 6.17196L11.0811 5.86496L10.8317 4.67196H9.6129V6.17196ZM9.6344 9.75261L9.6439 11.2526L10.8766 11.2448L11.1078 10.0339L9.6344 9.75261ZM6.23655 9.77411L4.76775 10.0785L5.01711 11.2819L6.24605 11.2741L6.23655 9.77411ZM7.92473 13.473L6.7407 14.3939L7.93201 15.9256L9.1142 14.3869L7.92473 13.473ZM6.45161 10.6343L6.4407 9.13437L4.444 9.14889L5.01403 11.0625L6.45161 10.6343ZM9.4086 10.6128L10.8419 11.055L11.4457 9.09797L9.39769 9.11286L9.4086 10.6128ZM8.78494 13.7526L7.57533 12.8656L5.4774 15.7264L8.99129 15.2383L8.78494 13.7526ZM10.3011 10.6021L10.2899 9.10211L9.14921 9.11059L8.85265 10.2121L10.3011 10.6021ZM13.1935 10.5806L14.5369 11.248L15.6227 9.06246L13.1824 9.08061L13.1935 10.5806ZM13.5484 9.72035L13.559 11.2203L14.6668 11.2125L14.9851 10.1514L13.5484 9.72035ZM10.5054 9.74185L9.02957 9.47353L8.70573 11.2546L10.516 11.2418L10.5054 9.74185ZM10.4839 6.17196V4.67196H8.67041L9.01048 6.45325L10.4839 6.17196ZM13.5054 6.17196L14.9257 5.68959L14.5801 4.67196H13.5054V6.17196ZM13.1398 5.31175V6.81175H15.6099L14.4707 4.61999L13.1398 5.31175ZM10.2796 5.31175L8.83892 5.72953L9.15276 6.81175H10.2796V5.31175ZM8.78494 2.24723L8.98649 0.760832L5.50595 0.288895L7.57184 3.12949L8.78494 2.24723ZM9.38709 5.31175V6.81175H11.4327L10.8177 4.86079L9.38709 5.31175ZM6.46236 5.31175L5.03175 4.86079L4.41678 6.81175H6.46236V5.31175ZM7.92473 2.5268L9.11035 1.60794L7.92473 0.0781072L6.7391 1.60794L7.92473 2.5268ZM7.04301 2.27949L8.25792 3.15925L10.3957 0.207069L6.79923 0.79943L7.04301 2.27949ZM5.56989 5.31175V6.81175H6.70758L7.01433 5.71619L5.56989 5.31175ZM2.86021 5.31175L1.53146 4.61574L0.381172 6.81175H2.86021V5.31175ZM5.36559 6.17196L6.83944 6.4508L7.17598 4.67196H5.36559V6.17196ZM5.35483 9.77411L5.36607 11.2741L7.14685 11.2607L6.83106 9.50813L5.35483 9.77411ZM2.48387 9.79562L1.06354 10.278L1.41189 11.3037L2.4951 11.2956L2.48387 9.79562ZM2.49462 6.17196V4.67196H1.41991L1.0743 5.68959L2.49462 6.17196ZM8 16.1666C12.5058 16.1666 16.1667 12.5058 16.1667 7.99992H13.1667C13.1667 10.8489 10.849 13.1666 8 13.1666V16.1666ZM16.1667 7.99992C16.1667 3.49407 12.5058 -0.166748 8 -0.166748V2.83325C10.849 2.83325 13.1667 5.15093 13.1667 7.99992H16.1667ZM8 -0.166748C3.49415 -0.166748 -0.166672 3.49407 -0.166672 7.99992H2.83333C2.83333 5.15093 5.151 2.83325 8 2.83325V-0.166748ZM-0.166672 7.99992C-0.166672 12.5058 3.49415 16.1666 8 16.1666V13.1666C5.151 13.1666 2.83333 10.8489 2.83333 7.99992H-0.166672ZM2.85061 12.1558L5.56029 12.1343L5.53648 9.13437L2.8268 9.15588L2.85061 12.1558ZM4.1029 11.0351C4.45221 12.2951 5.03658 13.5118 5.8299 14.6026L8.25611 12.8381C7.67309 12.0364 7.24671 11.1456 6.99386 10.2336L4.1029 11.0351ZM7.28539 12.2401C5.93303 12.0186 4.78843 11.1534 4.16938 9.96352L1.50803 11.3481C2.5449 13.3411 4.47557 14.8199 6.80062 15.2006L7.28539 12.2401ZM6.23655 7.67196H9.6129V4.67196H6.23655V7.67196ZM8.14465 6.47896C8.34968 7.45951 8.35133 8.47442 8.16101 9.47132L11.1078 10.0339C11.3691 8.6652 11.3707 7.25 11.0811 5.86496L8.14465 6.47896ZM9.62491 8.25264L6.22706 8.27414L6.24605 11.2741L9.6439 11.2526L9.62491 8.25264ZM7.70535 9.46977C7.49945 8.47607 7.50002 7.45837 7.7048 6.47896L4.76831 5.86496C4.47847 7.25114 4.47903 8.68506 4.76775 10.0785L7.70535 9.46977ZM9.10875 12.5521C8.54194 11.8234 8.13535 11.0325 7.88919 10.2061L5.01403 11.0625C5.37002 12.2576 5.95267 13.3808 6.7407 14.3939L9.10875 12.5521ZM6.46252 12.1343L9.41951 12.1128L9.39769 9.11286L6.4407 9.13437L6.46252 12.1343ZM7.97526 10.1706C7.71594 11.0112 7.30381 11.8191 6.73525 12.5592L9.1142 14.3869C9.90048 13.3635 10.4776 12.236 10.8419 11.055L7.97526 10.1706ZM9.99455 14.6397C10.8147 13.5213 11.4006 12.288 11.7495 10.992L8.85265 10.2121C8.59941 11.1527 8.17455 12.0485 7.57533 12.8656L9.99455 14.6397ZM10.3122 12.102L13.2047 12.0805L13.1824 9.08061L10.2899 9.10211L10.3122 12.102ZM11.8502 9.91317C11.2279 11.1658 10.014 12.0675 8.57859 12.2669L8.99129 15.2383C11.4268 14.9001 13.4818 13.3717 14.5369 11.248L11.8502 9.91317ZM12.3064 7.99992C12.3064 8.44175 12.2353 8.87709 12.1116 9.28933L14.9851 10.1514C15.184 9.48834 15.3064 8.76239 15.3064 7.99992H12.3064ZM13.5378 8.22039L10.4948 8.24189L10.516 11.2418L13.559 11.2203L13.5378 8.22039ZM11.9812 10.0102C12.2301 8.6409 12.2168 7.25021 11.9573 5.89068L9.01048 6.45325C9.20254 7.4593 9.21071 8.47722 9.02957 9.47353L11.9812 10.0102ZM10.4839 7.67196H13.5054V4.67196H10.4839V7.67196ZM12.085 6.65434C12.2268 7.07167 12.3064 7.5325 12.3064 7.99992H15.3064C15.3064 7.19852 15.1711 6.41204 14.9257 5.68959L12.085 6.65434ZM13.1398 3.81175H10.2796V6.81175H13.1398V3.81175ZM11.7202 4.89396C11.3626 3.6608 10.7937 2.45902 9.99805 1.36497L7.57184 3.12949C8.15251 3.92791 8.57288 4.81216 8.83892 5.72953L11.7202 4.89396ZM8.5834 3.73363C9.99209 3.92464 11.179 4.79164 11.8088 6.0035L14.4707 4.61999C13.4017 2.56303 11.3842 1.08595 8.98649 0.760832L8.5834 3.73363ZM9.38709 3.81175H6.46236V6.81175H9.38709V3.81175ZM7.89297 5.7627C8.15167 4.94198 8.55283 4.16504 9.11035 3.44566L6.7391 1.60794C5.96329 2.60899 5.3967 3.70302 5.03175 4.86079L7.89297 5.7627ZM6.7391 3.44566C7.29663 4.16504 7.69778 4.94198 7.95648 5.7627L10.8177 4.86079C10.4527 3.70302 9.88616 2.60899 9.11035 1.60794L6.7391 3.44566ZM5.82809 1.39972C5.0491 2.47547 4.47544 3.65732 4.12544 4.9073L7.01433 5.71619C7.26649 4.81564 7.68207 3.95447 8.25792 3.15925L5.82809 1.39972ZM5.56989 3.81175H2.86021V6.81175H5.56989V3.81175ZM4.18896 6.00776C4.80517 4.83135 5.93774 3.98174 7.28678 3.75955L6.79923 0.79943C4.49235 1.17939 2.57116 2.63086 1.53146 4.61574L4.18896 6.00776ZM3.89173 5.89312C3.63108 7.27083 3.63185 8.6706 3.87861 10.0401L6.83106 9.50813C6.64771 8.49053 6.64848 7.46019 6.83944 6.4508L3.89173 5.89312ZM5.3436 8.27415L2.47263 8.29566L2.4951 11.2956L5.36607 11.2741L5.3436 8.27415ZM3.90419 9.31324C3.76575 8.90562 3.69354 8.46698 3.69354 7.99992H0.693543C0.693543 8.78017 0.814884 9.54583 1.06354 10.278L3.90419 9.31324ZM3.69354 7.99992C3.69354 7.5325 3.77321 7.07167 3.91494 6.65434L1.0743 5.68959C0.828935 6.41204 0.693543 7.19852 0.693543 7.99992H3.69354ZM2.49462 7.67196H5.36559V4.67196H2.49462V7.67196Z" fill="white" mask="url(#path-1-inside-1_84_1805)"/>
</svg>
