<svg width="16" height="16" viewBox="0 0 16 16" fill="none" xmlns="http://www.w3.org/2000/svg">
<mask id="path-1-inside-1_84_1811" fill="white">
<path fill-rule="evenodd" clip-rule="evenodd" d="M15.0156 3.54367L9.09719 8.336C8.92901 8.47224 8.71746 8.5468 8.49906 8.5468C8.28066 8.5468 8.06911 8.47224 7.90094 8.336L1.98531 3.54367C1.95357 3.63709 1.93743 3.73489 1.9375 3.83333V11.1667C1.9375 11.4098 2.03627 11.6429 2.21209 11.8148C2.3879 11.9868 2.62636 12.0833 2.875 12.0833H14.125C14.3736 12.0833 14.6121 11.9868 14.7879 11.8148C14.9637 11.6429 15.0625 11.4098 15.0625 11.1667V3.83333C15.0629 3.73494 15.047 3.63714 15.0156 3.54367ZM2.875 2H14.125C14.6223 2 15.0992 2.19315 15.4508 2.53697C15.8025 2.88079 16 3.3471 16 3.83333V11.1667C16 11.6529 15.8025 12.1192 15.4508 12.463C15.0992 12.8068 14.6223 13 14.125 13H2.875C2.37772 13 1.90081 12.8068 1.54917 12.463C1.19754 12.1192 1 11.6529 1 11.1667V3.83333C1 3.3471 1.19754 2.88079 1.54917 2.53697C1.90081 2.19315 2.37772 2 2.875 2ZM2.67812 2.91667L7.90563 7.13608C8.07305 7.2713 8.28329 7.34549 8.50043 7.34599C8.71758 7.34649 8.92817 7.27327 9.09625 7.13883L14.3762 2.91667H2.67812Z"/>
</mask>
<path fill-rule="evenodd" clip-rule="evenodd" d="M15.0156 3.54367L9.09719 8.336C8.92901 8.47224 8.71746 8.5468 8.49906 8.5468C8.28066 8.5468 8.06911 8.47224 7.90094 8.336L1.98531 3.54367C1.95357 3.63709 1.93743 3.73489 1.9375 3.83333V11.1667C1.9375 11.4098 2.03627 11.6429 2.21209 11.8148C2.3879 11.9868 2.62636 12.0833 2.875 12.0833H14.125C14.3736 12.0833 14.6121 11.9868 14.7879 11.8148C14.9637 11.6429 15.0625 11.4098 15.0625 11.1667V3.83333C15.0629 3.73494 15.047 3.63714 15.0156 3.54367ZM2.875 2H14.125C14.6223 2 15.0992 2.19315 15.4508 2.53697C15.8025 2.88079 16 3.3471 16 3.83333V11.1667C16 11.6529 15.8025 12.1192 15.4508 12.463C15.0992 12.8068 14.6223 13 14.125 13H2.875C2.37772 13 1.90081 12.8068 1.54917 12.463C1.19754 12.1192 1 11.6529 1 11.1667V3.83333C1 3.3471 1.19754 2.88079 1.54917 2.53697C1.90081 2.19315 2.37772 2 2.875 2ZM2.67812 2.91667L7.90563 7.13608C8.07305 7.2713 8.28329 7.34549 8.50043 7.34599C8.71758 7.34649 8.92817 7.27327 9.09625 7.13883L14.3762 2.91667H2.67812Z" fill="#223369"/>
<path d="M15.0156 3.54367L16.4374 3.06568L15.7495 1.01934L14.0717 2.37792L15.0156 3.54367ZM9.09719 8.336L8.15325 7.17025L8.15297 7.17047L9.09719 8.336ZM7.90094 8.336L8.84515 7.17047L8.84515 7.17047L7.90094 8.336ZM1.98531 3.54367L2.92953 2.37814L1.25737 1.0235L0.565054 3.0611L1.98531 3.54367ZM1.9375 3.83333H3.4375L3.4375 3.83222L1.9375 3.83333ZM1.9375 11.1667H0.4375H1.9375ZM15.0625 3.83333L13.5625 3.82761V3.83333H15.0625ZM2.875 2V0.5V2ZM14.125 2V0.5V2ZM1 11.1667H-0.5H1ZM1 3.83333H-0.5H1ZM2.67812 2.91667V1.41667H-1.56846L1.736 4.08388L2.67812 2.91667ZM7.90563 7.13608L8.84807 5.96912L8.84775 5.96887L7.90563 7.13608ZM9.09625 7.13883L8.15946 5.96733L8.1593 5.96745L9.09625 7.13883ZM14.3762 2.91667L15.313 4.08817L18.6539 1.41667H14.3762V2.91667ZM14.0717 2.37792L8.15325 7.17025L10.0411 9.50175L15.9596 4.70942L14.0717 2.37792ZM8.15297 7.17047C8.25453 7.08819 8.37709 7.0468 8.49906 7.0468V10.0468C9.05783 10.0468 9.60349 9.85629 10.0414 9.50153L8.15297 7.17047ZM8.49906 7.0468C8.62103 7.0468 8.74359 7.08819 8.84515 7.17047L6.95672 9.50153C7.39464 9.85629 7.94029 10.0468 8.49906 10.0468V7.0468ZM8.84515 7.17047L2.92953 2.37814L1.0411 4.7092L6.95672 9.50153L8.84515 7.17047ZM0.565054 3.0611C0.480513 3.30992 0.437306 3.57112 0.4375 3.83444L3.4375 3.83222C3.43755 3.89867 3.42663 3.96425 3.40557 4.02623L0.565054 3.0611ZM0.4375 3.83333V11.1667H3.4375V3.83333H0.4375ZM0.4375 11.1667C0.4375 11.8186 0.70269 12.4369 1.16341 12.8874L3.26076 10.7423C3.36985 10.849 3.4375 11.0009 3.4375 11.1667H0.4375ZM1.16341 12.8874C1.62299 13.3367 2.23928 13.5833 2.875 13.5833V10.5833C3.01344 10.5833 3.15282 10.6368 3.26076 10.7423L1.16341 12.8874ZM2.875 13.5833H14.125V10.5833H2.875V13.5833ZM14.125 13.5833C14.7607 13.5833 15.377 13.3367 15.8366 12.8874L13.7392 10.7423C13.8472 10.6368 13.9866 10.5833 14.125 10.5833V13.5833ZM15.8366 12.8874C16.2973 12.4369 16.5625 11.8186 16.5625 11.1667H13.5625C13.5625 11.0009 13.6301 10.849 13.7392 10.7423L15.8366 12.8874ZM16.5625 11.1667V3.83333H13.5625V11.1667H16.5625ZM16.5625 3.83905C16.5635 3.57586 16.5211 3.31466 16.4374 3.06568L13.5938 4.02165C13.573 3.95962 13.5623 3.89403 13.5625 3.82761L16.5625 3.83905ZM2.875 3.5H14.125V0.5H2.875V3.5ZM14.125 3.5C14.2352 3.5 14.3343 3.54312 14.4021 3.60948L16.4995 1.46446C15.8641 0.843189 15.0094 0.5 14.125 0.5V3.5ZM14.4021 3.60948C14.4689 3.67472 14.5 3.75594 14.5 3.83333H17.5C17.5 2.93826 17.136 2.08685 16.4995 1.46446L14.4021 3.60948ZM14.5 3.83333V11.1667H17.5V3.83333H14.5ZM14.5 11.1667C14.5 11.2441 14.4689 11.3253 14.4021 11.3905L16.4995 13.5355C17.136 12.9131 17.5 12.0617 17.5 11.1667H14.5ZM14.4021 11.3905C14.3343 11.4569 14.2352 11.5 14.125 11.5V14.5C15.0094 14.5 15.8641 14.1568 16.4995 13.5355L14.4021 11.3905ZM14.125 11.5H2.875V14.5H14.125V11.5ZM2.875 11.5C2.7648 11.5 2.66572 11.4569 2.59785 11.3905L0.500498 13.5355C1.13589 14.1568 1.99063 14.5 2.875 14.5V11.5ZM2.59785 11.3905C2.53113 11.3253 2.5 11.2441 2.5 11.1667H-0.5C-0.5 12.0617 -0.136038 12.9131 0.500498 13.5355L2.59785 11.3905ZM2.5 11.1667V3.83333H-0.5V11.1667H2.5ZM2.5 3.83333C2.5 3.75594 2.53113 3.67472 2.59785 3.60948L0.500498 1.46446C-0.136038 2.08685 -0.5 2.93826 -0.5 3.83333H2.5ZM2.59785 3.60948C2.66572 3.54312 2.7648 3.5 2.875 3.5V0.5C1.99064 0.5 1.13589 0.843189 0.500498 1.46446L2.59785 3.60948ZM1.736 4.08388L6.9635 8.3033L8.84775 5.96887L3.62025 1.74945L1.736 4.08388ZM6.96318 8.30304C7.39912 8.65511 7.94139 8.8447 8.49697 8.84599L8.5039 5.84599C8.62518 5.84627 8.74698 5.88748 8.84807 5.96912L6.96318 8.30304ZM8.49697 8.84599C9.05255 8.84727 9.59566 8.66019 10.0332 8.31021L8.1593 5.96745C8.26069 5.88636 8.38262 5.84571 8.5039 5.84599L8.49697 8.84599ZM10.033 8.31034L15.313 4.08817L13.4395 1.74517L8.15946 5.96733L10.033 8.31034ZM14.3762 1.41667H2.67812V4.41667H14.3762V1.41667Z" fill="white" mask="url(#path-1-inside-1_84_1811)"/>
</svg>
