<svg width="16" height="16" viewBox="0 0 16 16" fill="none" xmlns="http://www.w3.org/2000/svg">
<path d="M12.9806 9.22708L13.0854 9.33182L13.1471 9.39325C13.3658 9.61051 13.6234 9.86643 13.7766 10.1694C14.0745 10.7582 14.0745 11.4536 13.7766 12.0425C13.6234 12.3455 13.3658 12.6014 13.1471 12.8186L13.0853 12.8801L12.9514 13.0141C12.7145 13.2517 12.4795 13.4873 12.1628 13.6652C11.7976 13.8704 11.2944 14.0012 10.8755 14C10.5138 13.9989 10.2423 13.9216 9.97114 13.8443L9.92845 13.8322C8.13824 13.3241 6.44921 12.3651 5.04207 10.9579C3.63493 9.55079 2.67594 7.86176 2.16782 6.07155L2.15568 6.02885C2.07844 5.75772 2.00108 5.48617 2.00001 5.12447C1.99876 4.70563 2.12963 4.20239 2.33476 3.83722C2.5127 3.52047 2.74829 3.28554 2.98591 3.04858L3.11993 2.91465L3.18137 2.85294C3.39863 2.63424 3.65454 2.37662 3.95753 2.22337C4.54637 1.92554 5.24175 1.92554 5.83058 2.22337C6.13358 2.37662 6.38949 2.63424 6.60675 2.85294L6.66819 2.91465L6.77292 3.01939L6.8136 3.05995C6.95752 3.20324 7.12614 3.37112 7.24748 3.55774C7.69462 4.24547 7.69463 5.13208 7.24748 5.81981C7.16234 5.95076 7.05392 6.07248 6.94709 6.18295C7.25985 6.77564 7.66598 7.33293 8.16653 7.83347C8.66707 8.33402 9.22436 8.74015 9.81705 9.05291C9.92752 8.94608 10.0492 8.83766 10.1802 8.75252C10.8679 8.30538 11.7545 8.30538 12.4423 8.75252C12.6289 8.87385 12.7968 9.04249 12.9401 9.1864L12.9806 9.22708Z" stroke="white" stroke-width="1.5" stroke-linecap="round" stroke-linejoin="round"/>
</svg>
