<svg width="25" height="24" viewBox="0 0 25 24" fill="none" xmlns="http://www.w3.org/2000/svg">
<path d="M5.5627 19.5882L5.9032 18.92H5.9032L5.5627 19.5882ZM3.91175 17.9373L3.2435 18.2778L3.91175 17.9373ZM20.0882 17.9373L19.42 17.5968L20.0882 17.9373ZM18.4373 19.5882L18.7778 20.2565L18.4373 19.5882ZM7.47222 20C7.47222 20.4142 7.80801 20.75 8.22222 20.75C8.63644 20.75 8.97222 20.4142 8.97222 20H7.47222ZM15.0278 20C15.0278 20.4142 15.3636 20.75 15.7778 20.75C16.192 20.75 16.5278 20.4142 16.5278 20H15.0278ZM9.16667 7.72222L8.43123 7.57513L8.41667 7.64796V7.72222H9.16667ZM3.52303 8.08521L2.77909 8.18035V8.18035L3.52303 8.08521ZM14.8333 7.72222H15.5833V7.64796L15.5688 7.57513L14.8333 7.72222ZM20.4654 8.16642L19.7245 8.04977V8.04977L20.4654 8.16642ZM3.6351 7.38447L4.33146 7.66302H4.33146L3.6351 7.38447ZM4.91394 4.18737L5.6103 4.46592L4.91394 4.18737ZM18.661 4.04415L17.9901 4.37956L17.9901 4.37956L18.661 4.04415ZM20.3006 7.32339L20.9714 6.98798V6.98798L20.3006 7.32339ZM19.75 7.72231V13.9556H21.25V7.72231H19.75ZM14.4556 19.25H9.54444V20.75H14.4556V19.25ZM4.25 13.9556V7.72231H2.75V13.9556H4.25ZM9.54444 19.25C8.47419 19.25 7.71661 19.2494 7.12428 19.201C6.54071 19.1533 6.1839 19.063 5.9032 18.92L5.22221 20.2565C5.74962 20.5252 6.3258 20.6408 7.00213 20.696C7.66971 20.7506 8.49894 20.75 9.54444 20.75V19.25ZM2.75 13.9556C2.75 15.0011 2.74942 15.8303 2.80396 16.4979C2.85922 17.1742 2.97477 17.7504 3.2435 18.2778L4.58001 17.5968C4.43698 17.3161 4.34666 16.9593 4.29898 16.3757C4.25058 15.7834 4.25 15.0258 4.25 13.9556H2.75ZM5.9032 18.92C5.33348 18.6297 4.87029 18.1665 4.58001 17.5968L3.2435 18.2778C3.67759 19.1297 4.37025 19.8224 5.22221 20.2565L5.9032 18.92ZM19.75 13.9556C19.75 15.0258 19.7494 15.7834 19.701 16.3757C19.6533 16.9593 19.563 17.3161 19.42 17.5968L20.7565 18.2778C21.0252 17.7504 21.1408 17.1742 21.196 16.4979C21.2506 15.8303 21.25 15.0011 21.25 13.9556H19.75ZM14.4556 20.75C15.5011 20.75 16.3303 20.7506 16.9979 20.696C17.6742 20.6408 18.2504 20.5252 18.7778 20.2565L18.0968 18.92C17.8161 19.063 17.4593 19.1533 16.8757 19.201C16.2834 19.2494 15.5258 19.25 14.4556 19.25V20.75ZM19.42 17.5968C19.1297 18.1665 18.6665 18.6297 18.0968 18.92L18.7778 20.2565C19.6297 19.8224 20.3224 19.1297 20.7565 18.2778L19.42 17.5968ZM8.97222 20V16.2222H7.47222V20H8.97222ZM10.1111 15.0833H13.8889V13.5833H10.1111V15.0833ZM15.0278 16.2222V20H16.5278V16.2222H15.0278ZM13.8889 15.0833C14.5179 15.0833 15.0278 15.5932 15.0278 16.2222H16.5278C16.5278 14.7648 15.3463 13.5833 13.8889 13.5833V15.0833ZM8.97222 16.2222C8.97222 15.5932 9.48212 15.0833 10.1111 15.0833V13.5833C8.65369 13.5833 7.47222 14.7648 7.47222 16.2222H8.97222ZM8.41667 7.72222C8.41667 8.87282 7.48393 9.80556 6.33333 9.80556V11.3056C8.31235 11.3056 9.91667 9.70124 9.91667 7.72222H8.41667ZM6.33333 9.80556C5.27375 9.80556 4.3979 9.01386 4.26698 7.99007L2.77909 8.18035C3.00455 9.94332 4.50927 11.3056 6.33333 11.3056V9.80556ZM14.0833 7.72222C14.0833 8.87282 13.1506 9.80556 12 9.80556V11.3056C13.979 11.3056 15.5833 9.70124 15.5833 7.72222H14.0833ZM12 9.80556C10.8494 9.80556 9.91667 8.87282 9.91667 7.72222H8.41667C8.41667 9.70124 10.021 11.3056 12 11.3056V9.80556ZM19.7245 8.04977C19.5679 9.04457 18.7054 9.80556 17.6667 9.80556V11.3056C19.4553 11.3056 20.9366 9.99586 21.2063 8.28308L19.7245 8.04977ZM17.6667 9.80556C16.5161 9.80556 15.5833 8.87282 15.5833 7.72222H14.0833C14.0833 9.70124 15.6876 11.3056 17.6667 11.3056V9.80556ZM4.33146 7.66302L5.6103 4.46592L4.21758 3.90883L2.93874 7.10593L4.33146 7.66302ZM17.9901 4.37956L19.6298 7.6588L20.9714 6.98798L19.3318 3.70874L17.9901 4.37956ZM6.66773 3.75H10.1111V2.25H6.66773V3.75ZM9.9021 7.86931L10.8465 3.14709L9.37568 2.85291L8.43123 7.57513L9.9021 7.86931ZM10.1111 3.75H13.8889V2.25H10.1111V3.75ZM13.8889 3.75H16.9715V2.25H13.8889V3.75ZM15.5688 7.57513L14.6243 2.85291L13.1535 3.14709L14.0979 7.86931L15.5688 7.57513ZM19.3318 3.70874C18.8848 2.81473 17.971 2.25 16.9715 2.25V3.75C17.4029 3.75 17.7972 3.99373 17.9901 4.37956L19.3318 3.70874ZM21.2063 8.28308C21.2848 7.78422 21.1426 7.33035 20.9714 6.98798L19.6298 7.6588C19.7209 7.841 19.7372 7.96928 19.7245 8.04977L21.2063 8.28308ZM5.6103 4.46592C5.78325 4.03353 6.20203 3.75 6.66773 3.75V2.25C5.58867 2.25 4.61833 2.90695 4.21758 3.90883L5.6103 4.46592ZM4.26698 7.99007C4.25833 7.92248 4.26973 7.81734 4.33146 7.66302L2.93874 7.10593C2.82198 7.39783 2.72677 7.77122 2.77909 8.18035L4.26698 7.99007Z" fill="white"/>
</svg>
