<svg width="24" height="23" viewBox="0 0 24 23" fill="none" xmlns="http://www.w3.org/2000/svg">
<path fill-rule="evenodd" clip-rule="evenodd" d="M15.68 13.6083L23.32 20.8663L21.3333 22.7536L13.6933 15.4956C12.2667 16.4709 10.5467 17.0663 8.66667 17.0663C3.88 17.0663 0 13.3803 0 8.83294C0 4.28561 3.88 0.599609 8.66667 0.599609C13.4533 0.599609 17.3333 4.28561 17.3333 8.83294C17.3333 10.6189 16.7067 12.2529 15.68 13.6083ZM8.66667 3.13294C5.34667 3.13294 2.66667 5.67894 2.66667 8.83294C2.66667 11.9869 5.34667 14.5329 8.66667 14.5329C11.9867 14.5329 14.6667 11.9869 14.6667 8.83294C14.6667 5.67894 11.9867 3.13294 8.66667 3.13294Z" fill="#D3D6E1"/>
</svg>
