<?xml version="1.0" encoding="UTF-8"?>
<svg version="1.1" xmlns="http://www.w3.org/2000/svg" width="264" height="124">
<path d="M0 0 C87.12 0 174.24 0 264 0 C264 40.92 264 81.84 264 124 C176.88 124 89.76 124 0 124 C0 83.08 0 42.16 0 0 Z " fill="#CCCCCC" transform="translate(0,0)"/>
<path d="M0 0 C4.89717298 2.05613012 7.64862216 5.28357352 10 10 C10.81163116 15.43281039 10.82361492 20.38327442 8.3125 25.3125 C7.549375 26.199375 6.78625 27.08625 6 28 C5.09030937 29.19793563 4.19478006 30.40673538 3.3125 31.625 C2.68794922 32.44871094 2.68794922 32.44871094 2.05078125 33.2890625 C-0.94428843 38.16579306 -0.67991828 44.49953749 0 50 C1.53762429 53.67498585 3.8089781 56.6609051 6.4453125 59.625 C10.33340567 64.24627645 10.69076145 68.20868281 10.421875 74.19140625 C9.6512381 79.32185009 7.19009494 81.89916218 3.5 85.3125 C-0.94356909 88.31190914 -5.69454322 88.83618612 -11 88 C-16.0690579 85.95217407 -19.96982591 82.91327469 -22.37109375 77.94921875 C-23.81506314 73.47381052 -24.03978175 69.25854233 -22.046875 64.9296875 C-20.77897324 62.88339035 -19.41454329 60.94739293 -18 59 C-17.07157266 57.57006759 -16.15454319 56.13265938 -15.25 54.6875 C-14.84265625 54.05199219 -14.4353125 53.41648438 -14.015625 52.76171875 C-11.48115966 48.36539618 -11.43060519 43.92406219 -12 39 C-13.78088523 33.56575593 -17.22904392 29.11397457 -20.73046875 24.6640625 C-23.73987353 20.71942731 -23.43684804 16.78914892 -23 12 C-19.25814322 1.19019153 -10.50110764 -1.19513885 0 0 Z " fill="#FEFEFE" transform="translate(118,18)"/>
<path d="M0 0 C4.75099056 2.67302252 7.52363919 6.36129306 9.6875 11.3125 C10.72493962 17.73014977 9.38969741 23.01162643 5.6875 28.3125 C1.63390922 32.26215256 -2.06056106 34.10398713 -7.6875 34.625 C-13.90671567 34.08886072 -18.84952102 31.65150735 -23.3125 27.3125 C-26.82794831 22.22116107 -27.00647903 17.29440378 -26.3125 11.3125 C-24.53234261 5.8673127 -20.924239 2.53023607 -16.3125 -0.6875 C-10.73836747 -2.54554418 -5.36974432 -2.49381384 0 0 Z " fill="#FEFEFE" transform="translate(160.3125,18.6875)"/>
<path d="M0 0 C2.59592206 3.51212985 3.20154977 5.51166325 3.125 9.875 C1.14561533 13.62169241 -0.34516053 15.52177369 -3.875 17.875 C-8.85009769 18.44591285 -10.91225016 18.41764082 -15.3125 15.9375 C-18.18979321 12.49878372 -18.95931921 10.49767653 -19.1796875 6.09765625 C-18.634412 2.11994136 -16.84671159 0.51652141 -13.875 -2.125 C-9.21181535 -4.45659233 -3.9909166 -2.94980792 0 0 Z " fill="#FDFDFD" transform="translate(143.875,54.125)"/>
</svg>
