<svg width="46" height="46" viewBox="0 0 46 46" fill="none" xmlns="http://www.w3.org/2000/svg">
<rect x="0.5" y="0.5" width="45" height="45" rx="22.5" fill="white"/>
<rect x="0.5" y="0.5" width="45" height="45" rx="22.5" stroke="#D3D6E1"/>
<g clip-path="url(#clip0_3_265)">
<path d="M19.3591 11.7894C16.9611 12.6213 14.8931 14.2002 13.4588 16.2943C12.0245 18.3884 11.2996 20.8872 11.3904 23.4237C11.4813 25.9603 12.3831 28.4008 13.9635 30.3869C15.544 32.373 17.7196 33.8 20.171 34.4582C22.1583 34.971 24.2405 34.9935 26.2385 34.5238C28.0484 34.1173 29.7218 33.2476 31.0947 32.0001C32.5236 30.662 33.5608 28.9597 34.0947 27.0763C34.6751 25.0282 34.7783 22.8743 34.3966 20.7801H23.2366V25.4094H29.6997C29.5705 26.1478 29.2937 26.8525 28.8859 27.4814C28.478 28.1102 27.9474 28.6504 27.326 29.0694C26.5367 29.5915 25.6471 29.9428 24.7141 30.1007C23.7784 30.2747 22.8186 30.2747 21.8828 30.1007C20.9344 29.9046 20.0373 29.5132 19.2485 28.9513C17.9812 28.0543 17.0297 26.7799 16.5297 25.3101C16.0212 23.8127 16.0212 22.1893 16.5297 20.6919C16.8856 19.6423 17.474 18.6867 18.251 17.8963C19.1401 16.9752 20.2657 16.3168 21.5044 15.9933C22.743 15.6698 24.0469 15.6938 25.2728 16.0626C26.2305 16.3565 27.1063 16.8702 27.8303 17.5626C28.5591 16.8376 29.2866 16.1107 30.0128 15.3819C30.3878 14.9901 30.7966 14.6169 31.166 14.2157C30.0608 13.1872 28.7635 12.3869 27.3485 11.8607C24.7717 10.925 21.9522 10.8999 19.3591 11.7894Z" fill="white"/>
<path d="M19.3588 11.7894C21.9516 10.8992 24.7711 10.9237 27.3481 11.8587C28.7634 12.3885 30.0601 13.1927 31.1637 14.225C30.7887 14.6262 30.3931 15.0012 30.0106 15.3912C29.2831 16.1175 28.5562 16.8412 27.83 17.5625C27.106 16.8701 26.2302 16.3565 25.2725 16.0625C24.047 15.6924 22.7432 15.6671 21.5042 15.9893C20.2652 16.3114 19.1388 16.9686 18.2487 17.8887C17.4718 18.6791 16.8834 19.6348 16.5275 20.6844L12.6406 17.675C14.0319 14.916 16.4408 12.8057 19.3588 11.7894Z" fill="#E33629"/>
<path d="M11.6112 20.6563C11.8202 19.6209 12.167 18.6182 12.6425 17.675L16.5294 20.6919C16.0209 22.1893 16.0209 23.8127 16.5294 25.31C15.2344 26.3101 13.9387 27.3151 12.6425 28.3251C11.4522 25.9556 11.0891 23.256 11.6112 20.6563Z" fill="#F8BD00"/>
<path d="M23.2391 20.7783H34.3991C34.7809 22.8726 34.6776 25.0264 34.0972 27.0746C33.5633 28.958 32.5261 30.6602 31.0972 31.9983C29.8429 31.0196 28.5829 30.0483 27.3285 29.0696C27.9504 28.6501 28.4812 28.1094 28.8891 27.4798C29.297 26.8503 29.5735 26.1448 29.7022 25.4058H23.2391C23.2372 23.8646 23.2391 22.3214 23.2391 20.7783Z" fill="#587DBD"/>
<path d="M12.6406 28.3251C13.9369 27.3251 15.2325 26.3201 16.5275 25.3101C17.0285 26.7804 17.9814 28.0549 19.25 28.9513C20.0413 29.5106 20.9404 29.8988 21.89 30.0913C22.8257 30.2653 23.7855 30.2653 24.7213 30.0913C25.6542 29.9334 26.5439 29.5821 27.3331 29.0601C28.5875 30.0388 29.8475 31.0101 31.1019 31.9888C29.7292 33.237 28.0558 34.1073 26.2456 34.5144C24.2476 34.9841 22.1655 34.9616 20.1781 34.4488C18.6063 34.0291 17.1381 33.2893 15.8656 32.2757C14.5187 31.2063 13.4187 29.8588 12.6406 28.3251Z" fill="#319F43"/>
</g>
<defs>
<clipPath id="clip0_3_265">
<rect width="24" height="24" fill="white" transform="translate(11 11)"/>
</clipPath>
</defs>
</svg>
