<?xml version="1.0" encoding="UTF-8"?>
<svg id="Layer_2" xmlns="http://www.w3.org/2000/svg" viewBox="0 0 358.92 425.67">
  <defs>
    <style>
      .cls-1 {
        fill: #fff;
        fill-rule: evenodd;
      }
    </style>
  </defs>
  <g id="Layer_1-2" data-name="Layer_1">
    <g>
      <path class="cls-1" d="M358.92,85.54c0,47.24-38.67,85.54-86.38,85.54s-86.38-38.3-86.38-85.54S224.84,0,272.54,0s86.38,38.3,86.38,85.54Z"/>
      <path class="cls-1" d="M247.04,214.06c0,28.12-23.02,50.92-51.42,50.92s-51.41-22.8-51.41-50.92,23.02-50.92,51.41-50.92,51.42,22.8,51.42,50.92Z"/>
      <path class="cls-1" d="M161.34,345.79c0,44.11-36.12,79.88-80.67,79.88S0,389.9,0,345.79c0-23.45,3.04-35.88,26.5-59.18,0,0,15.16-15.26,22.96-35.63,7.8-20.36,7.8-38.13,7.8-38.13,0,0,0-17.81-7.8-38.18-7.8-20.32-22.96-35.57-22.96-35.57C6.83,118.38,0,103.39,0,79.88,0,35.77,36.12,0,80.67,0s80.67,35.77,80.67,79.88c0,23.5-11.22,42.1-26.5,59.23,0,0-13.74,15.55-22.96,35.57-9.12,19.81-7.8,38.18-7.8,38.18,0,0-.52,17.97,7.8,38.13,9.28,22.47,22.96,35.63,22.96,35.63,15.28,17.28,26.5,35.72,26.5,59.18Z"/>
    </g>
  </g>
</svg>