<svg width="60" height="12" viewBox="0 0 60 12" fill="none" xmlns="http://www.w3.org/2000/svg">
<path d="M4.99736 9.79434L8.03543 0.616967H10.2327L6.09201 11.8458H4.60867L4.99736 9.79434ZM2.18932 0.616967L5.2036 9.79434L5.61608 11.8458H4.1248L0 0.616967H2.18932Z" fill="#D3E5F8"/>
<path d="M10.6055 7.76607V7.58869C10.6055 6.98715 10.6954 6.42931 10.8752 5.91517C11.055 5.39589 11.3141 4.94602 11.6526 4.56555C11.9963 4.17995 12.4141 3.88175 12.9059 3.67095C13.403 3.45501 13.9635 3.34704 14.5875 3.34704C15.2168 3.34704 15.7774 3.45501 16.2692 3.67095C16.7663 3.88175 17.1867 4.17995 17.5304 4.56555C17.8741 4.94602 18.1359 5.39589 18.3157 5.91517C18.4955 6.42931 18.5854 6.98715 18.5854 7.58869V7.76607C18.5854 8.36761 18.4955 8.92545 18.3157 9.43959C18.1359 9.95373 17.8741 10.4036 17.5304 10.7892C17.1867 11.1697 16.7689 11.4679 16.2771 11.6838C15.7853 11.8946 15.2274 12 14.6034 12C13.9741 12 13.4109 11.8946 12.9138 11.6838C12.422 11.4679 12.0042 11.1697 11.6605 10.7892C11.3168 10.4036 11.055 9.95373 10.8752 9.43959C10.6954 8.92545 10.6055 8.36761 10.6055 7.76607ZM12.5172 7.58869V7.76607C12.5172 8.14139 12.5568 8.49614 12.6362 8.83033C12.7155 9.16453 12.8398 9.45758 13.009 9.70951C13.1782 9.96144 13.395 10.1594 13.6594 10.3033C13.9239 10.4473 14.2385 10.5193 14.6034 10.5193C14.9577 10.5193 15.2644 10.4473 15.5235 10.3033C15.7879 10.1594 16.0048 9.96144 16.174 9.70951C16.3432 9.45758 16.4675 9.16453 16.5468 8.83033C16.6314 8.49614 16.6737 8.14139 16.6737 7.76607V7.58869C16.6737 7.21851 16.6314 6.86889 16.5468 6.53985C16.4675 6.20566 16.3406 5.91003 16.166 5.65296C15.9968 5.39589 15.78 5.19537 15.5156 5.05141C15.2565 4.90231 14.9471 4.82776 14.5875 4.82776C14.2279 4.82776 13.9159 4.90231 13.6515 5.05141C13.3924 5.19537 13.1782 5.39589 13.009 5.65296C12.8398 5.91003 12.7155 6.20566 12.6362 6.53985C12.5568 6.86889 12.5172 7.21851 12.5172 7.58869Z" fill="#D3E5F8"/>
<path d="M25.3517 9.87918V3.50129H27.2713V11.8458H25.4627L25.3517 9.87918ZM25.6214 8.14396L26.2639 8.12854C26.2639 8.68895 26.2004 9.20566 26.0735 9.67866C25.9466 10.1465 25.7509 10.5553 25.4865 10.9049C25.2221 11.2494 24.8837 11.5193 24.4712 11.7147C24.0587 11.9049 23.5643 12 22.9878 12C22.5701 12 22.1867 11.9409 21.8377 11.8226C21.4886 11.7044 21.1872 11.5219 20.9334 11.2751C20.6848 11.0283 20.4918 10.7069 20.3543 10.3111C20.2168 9.91517 20.1481 9.44216 20.1481 8.89203V3.50129H22.0598V8.90746C22.0598 9.2108 22.0968 9.4653 22.1708 9.67095C22.2448 9.87147 22.3453 10.0334 22.4722 10.1568C22.5992 10.2802 22.7472 10.3676 22.9164 10.419C23.0857 10.4704 23.2655 10.4961 23.4558 10.4961C24.0005 10.4961 24.4289 10.3933 24.7409 10.1877C25.0582 9.97686 25.2829 9.69409 25.4151 9.33933C25.5526 8.98458 25.6214 8.58612 25.6214 8.14396Z" fill="#D3E5F8"/>
<path d="M32.7366 10.5193C33.0487 10.5193 33.3289 10.4602 33.5775 10.3419C33.8313 10.2185 34.0349 10.0488 34.1883 9.8329C34.3469 9.61697 34.4342 9.36761 34.45 9.08483H36.2507C36.2401 9.62468 36.0761 10.1157 35.7589 10.5578C35.4416 11 35.0212 11.3522 34.4976 11.6144C33.9741 11.8715 33.395 12 32.7604 12C32.1047 12 31.5336 11.892 31.0471 11.6761C30.5606 11.455 30.156 11.1517 29.8334 10.7661C29.5108 10.3805 29.2676 9.93573 29.1036 9.43188C28.945 8.92802 28.8657 8.38818 28.8657 7.81234V7.54242C28.8657 6.96658 28.945 6.42674 29.1036 5.92288C29.2676 5.41388 29.5108 4.96658 29.8334 4.58098C30.156 4.19537 30.5606 3.8946 31.0471 3.67866C31.5336 3.45758 32.1021 3.34704 32.7525 3.34704C33.44 3.34704 34.0428 3.48072 34.5611 3.74807C35.0793 4.01028 35.4865 4.37789 35.7827 4.8509C36.0841 5.31877 36.2401 5.86375 36.2507 6.48586H34.45C34.4342 6.17738 34.3548 5.89974 34.2121 5.65296C34.0746 5.40103 33.8789 5.20051 33.6251 5.05141C33.3765 4.90231 33.0777 4.82776 32.7287 4.82776C32.3427 4.82776 32.0227 4.90488 31.7689 5.05913C31.5151 5.20823 31.3168 5.41388 31.174 5.67609C31.0312 5.93316 30.9281 6.22365 30.8646 6.54756C30.8065 6.86632 30.7774 7.19794 30.7774 7.54242V7.81234C30.7774 8.15681 30.8065 8.491 30.8646 8.81491C30.9228 9.13882 31.0233 9.42931 31.166 9.68638C31.3141 9.9383 31.5151 10.1414 31.7689 10.2956C32.0227 10.4447 32.3453 10.5193 32.7366 10.5193Z" fill="#D3E5F8"/>
<path d="M39.606 0V11.8458H37.7023V0H39.606ZM39.2729 7.36504L38.6542 7.35733C38.6594 6.78149 38.7414 6.24936 38.9001 5.76093C39.064 5.27249 39.2914 4.84833 39.5822 4.48843C39.8784 4.12339 40.2327 3.84319 40.6452 3.64781C41.0576 3.4473 41.5151 3.34704 42.0175 3.34704C42.4405 3.34704 42.8213 3.4036 43.1597 3.51671C43.5034 3.62982 43.7996 3.81234 44.0481 4.06427C44.2967 4.31105 44.4844 4.63496 44.6113 5.03599C44.7435 5.43188 44.8096 5.91517 44.8096 6.48586V11.8458H42.89V6.47044C42.89 6.06941 42.8292 5.75064 42.7076 5.51414C42.5912 5.27764 42.4194 5.10797 42.192 5.00514C41.9646 4.89717 41.6869 4.84319 41.3591 4.84319C41.0153 4.84319 40.7113 4.91003 40.4469 5.0437C40.1877 5.17738 39.9709 5.3599 39.7964 5.59126C39.6219 5.82262 39.4897 6.08997 39.3998 6.39332C39.3152 6.69666 39.2729 7.02057 39.2729 7.36504Z" fill="#D3E5F8"/>
<path d="M50.5288 12C49.8942 12 49.3205 11.8997 48.8075 11.6992C48.2998 11.4936 47.8662 11.2082 47.5066 10.8432C47.1523 10.4781 46.88 10.0488 46.6896 9.55527C46.4992 9.0617 46.404 8.52956 46.404 7.95887V7.65039C46.404 6.99743 46.5019 6.40617 46.6975 5.87661C46.8932 5.34704 47.1655 4.8946 47.5145 4.51928C47.8636 4.13882 48.276 3.84833 48.752 3.64781C49.2279 3.4473 49.7435 3.34704 50.2988 3.34704C50.9122 3.34704 51.449 3.4473 51.909 3.64781C52.3691 3.84833 52.7499 4.13111 53.0513 4.49614C53.358 4.85604 53.5854 5.28535 53.7335 5.78406C53.8868 6.28278 53.9635 6.83291 53.9635 7.43445V8.22879H47.3321V6.8946H52.0756V6.74807C52.065 6.41388 51.9963 6.10026 51.8694 5.8072C51.7478 5.51414 51.56 5.27764 51.3062 5.09769C51.0524 4.91774 50.7139 4.82776 50.2909 4.82776C49.9736 4.82776 49.6906 4.8946 49.4421 5.02828C49.1988 5.15681 48.9952 5.34447 48.8313 5.59126C48.6674 5.83805 48.5405 6.13625 48.4506 6.48586C48.3659 6.83033 48.3236 7.21851 48.3236 7.65039V7.95887C48.3236 8.32391 48.3739 8.66324 48.4744 8.97686C48.5801 9.28535 48.7335 9.55527 48.9344 9.78663C49.1354 10.018 49.3786 10.2005 49.6642 10.3342C49.9498 10.4627 50.275 10.527 50.6399 10.527C51.0999 10.527 51.5098 10.437 51.8694 10.2571C52.229 10.0771 52.541 9.82262 52.8054 9.49357L53.8128 10.4422C53.6277 10.7044 53.3871 10.9563 53.091 11.1979C52.7948 11.4344 52.4326 11.6272 52.0042 11.7764C51.5812 11.9255 51.0894 12 50.5288 12Z" fill="#D3E5F8"/>
<path d="M57.3744 5.08997V11.8458H55.4627V3.50129H57.2872L57.3744 5.08997ZM60 3.4473L59.9841 5.17481C59.8678 5.15424 59.7409 5.13882 59.6034 5.12853C59.4712 5.11825 59.339 5.11311 59.2068 5.11311C58.8789 5.11311 58.5907 5.15938 58.3421 5.25193C58.0936 5.33933 57.8847 5.46787 57.7155 5.63753C57.5516 5.80206 57.4246 6.00257 57.3347 6.23907C57.2448 6.47558 57.192 6.74036 57.1761 7.03342L56.7398 7.06427C56.7398 6.53985 56.7927 6.05398 56.8985 5.60668C57.0042 5.15938 57.1629 4.76607 57.3744 4.42674C57.5912 4.0874 57.8609 3.82262 58.1835 3.63239C58.5114 3.44216 58.8895 3.34704 59.3178 3.34704C59.4342 3.34704 59.5584 3.35733 59.6906 3.37789C59.8281 3.39846 59.9313 3.42159 60 3.4473Z" fill="#D3E5F8"/>
</svg>
