<svg width="60" height="32" viewBox="0 0 60 32" fill="none" xmlns="http://www.w3.org/2000/svg">
<path fill-rule="evenodd" clip-rule="evenodd" d="M2 0C0.89543 0 0 0.895431 0 2V10.4292C0 11.2967 0.729248 11.9725 1.53073 12.3045C2.01604 12.5055 2.45699 12.8001 2.82843 13.1716C3.19986 13.543 3.4945 13.984 3.69552 14.4693C3.89654 14.9546 4 15.4747 4 16C4 16.5253 3.89654 17.0454 3.69552 17.5307C3.4945 18.016 3.19986 18.457 2.82843 18.8284C2.45699 19.1999 2.01604 19.4945 1.53073 19.6955C0.729249 20.0275 0 20.7033 0 21.5708V30C0 31.1046 0.895431 32 2 32H20.8251C21.5318 32 22.1644 31.5616 22.4125 30.8999C22.9626 29.4331 25.0374 29.4331 25.5875 30.8999C25.8356 31.5616 26.4682 32 27.1749 32H58C59.1046 32 60 31.1046 60 30V21.5708C60 20.7033 59.2708 20.0275 58.4693 19.6955C57.984 19.4945 57.543 19.1999 57.1716 18.8284C56.8001 18.457 56.5055 18.016 56.3045 17.5307C56.1035 17.0454 56 16.5253 56 16C56 15.4747 56.1035 14.9546 56.3045 14.4693C56.5055 13.984 56.8001 13.543 57.1716 13.1716C57.543 12.8001 57.984 12.5055 58.4693 12.3045C59.2708 11.9725 60 11.2967 60 10.4292V2C60 0.895431 59.1046 0 58 0H27.1749C26.4682 0 25.8356 0.438386 25.5875 1.10011C25.0374 2.56692 22.9626 2.56692 22.4125 1.10011C22.1644 0.438386 21.5318 0 20.8251 0H2ZM24.5 4C24.5 3.72386 24.2761 3.5 24 3.5C23.7239 3.5 23.5 3.72386 23.5 4V5C23.5 5.27614 23.7239 5.5 24 5.5C24.2761 5.5 24.5 5.27614 24.5 5V4ZM24.5 7C24.5 6.72386 24.2761 6.5 24 6.5C23.7239 6.5 23.5 6.72386 23.5 7V9C23.5 9.27614 23.7239 9.5 24 9.5C24.2761 9.5 24.5 9.27614 24.5 9V7ZM24.5 11C24.5 10.7239 24.2761 10.5 24 10.5C23.7239 10.5 23.5 10.7239 23.5 11V13C23.5 13.2761 23.7239 13.5 24 13.5C24.2761 13.5 24.5 13.2761 24.5 13V11ZM24.5 15C24.5 14.7239 24.2761 14.5 24 14.5C23.7239 14.5 23.5 14.7239 23.5 15V17C23.5 17.2761 23.7239 17.5 24 17.5C24.2761 17.5 24.5 17.2761 24.5 17V15ZM24.5 19C24.5 18.7239 24.2761 18.5 24 18.5C23.7239 18.5 23.5 18.7239 23.5 19V21C23.5 21.2761 23.7239 21.5 24 21.5C24.2761 21.5 24.5 21.2761 24.5 21V19ZM24.5 23C24.5 22.7239 24.2761 22.5 24 22.5C23.7239 22.5 23.5 22.7239 23.5 23V25C23.5 25.2761 23.7239 25.5 24 25.5C24.2761 25.5 24.5 25.2761 24.5 25V23ZM24.5 27C24.5 26.7239 24.2761 26.5 24 26.5C23.7239 26.5 23.5 26.7239 23.5 27V28C23.5 28.2761 23.7239 28.5 24 28.5C24.2761 28.5 24.5 28.2761 24.5 28V27ZM42 6L44.3607 13.6393H52L45.8197 18.3607L48.1803 26L42 21.2786L35.8197 26L38.1803 18.3607L32 13.6393H39.6393L42 6ZM6 6C5.44772 6 5 6.44772 5 7C5 7.55228 5.44772 8 6 8H21C21.5523 8 22 7.55228 22 7C22 6.44772 21.5523 6 21 6H6ZM5.5 12C5.5 11.7239 5.72386 11.5 6 11.5H14C14.2761 11.5 14.5 11.7239 14.5 12C14.5 12.2761 14.2761 12.5 14 12.5H6C5.72386 12.5 5.5 12.2761 5.5 12ZM5.9997 14.5078C5.72356 14.508 5.49983 14.732 5.5 15.0081C5.50017 15.2843 5.72416 15.508 6.0003 15.5078L19.0003 15.5C19.2764 15.4998 19.5002 15.2758 19.5 14.9997C19.4998 14.7236 19.2758 14.4998 18.9997 14.5L5.9997 14.5078ZM5.5 18C5.5 17.7239 5.72386 17.5 6 17.5H17C17.2761 17.5 17.5 17.7239 17.5 18C17.5 18.2761 17.2761 18.5 17 18.5H6C5.72386 18.5 5.5 18.2761 5.5 18ZM6 20.5C5.72386 20.5 5.5 20.7239 5.5 21C5.5 21.2761 5.72386 21.5 6 21.5H12C12.2761 21.5 12.5 21.2761 12.5 21C12.5 20.7239 12.2761 20.5 12 20.5H6ZM5.5 24C5.5 23.7239 5.72386 23.5 6 23.5H16C16.2761 23.5 16.5 23.7239 16.5 24C16.5 24.2761 16.2761 24.5 16 24.5H6C5.72386 24.5 5.5 24.2761 5.5 24ZM6 26.5C5.72386 26.5 5.5 26.7239 5.5 27C5.5 27.2761 5.72386 27.5 6 27.5H21C21.2761 27.5 21.5 27.2761 21.5 27C21.5 26.7239 21.2761 26.5 21 26.5H6Z" fill="#D3E5F8"/>
</svg>
