<svg width="174" height="198" viewBox="0 0 174 198" fill="none" xmlns="http://www.w3.org/2000/svg">
<g style="mix-blend-mode:multiply" opacity="0.2">
<path d="M81.4165 134.404C110.183 134.404 133.503 133.883 133.503 133.24C133.503 132.597 110.183 132.076 81.4165 132.076C52.65 132.076 29.3301 132.597 29.3301 133.24C29.3301 133.883 52.65 134.404 81.4165 134.404Z" fill="#223369"/>
</g>
<g style="mix-blend-mode:multiply" opacity="0.2">
<path d="M163.009 129.753C163.009 130.395 153.026 130.917 140.714 130.917C128.403 130.917 118.42 130.395 118.42 129.753C118.42 129.111 128.403 128.589 140.714 128.589C153.026 128.589 163.009 129.111 163.009 129.753Z" fill="#223369"/>
</g>
<path d="M62.6152 33.7764H114.512C118.019 33.7764 120.901 36.9501 120.952 40.9137C120.952 40.9691 120.952 41.0292 120.952 41.0893V90.196V91.0321C120.952 96.3586 124.643 98.5529 124.643 98.5529H72.7461C69.2398 98.5529 66.3571 95.3792 66.3063 91.4156C66.3063 91.3601 66.3063 91.3001 66.3063 91.24V42.1333V41.2971C66.3063 35.9707 62.6152 33.7764 62.6152 33.7764Z" fill="url(#paint0_linear_4685_29652)"/>
<path d="M114.669 33.7764C114.669 33.7764 110.983 35.9753 110.983 41.3018V100.036C110.932 104.004 108.049 107.173 104.543 107.173H52.6504C52.6504 107.173 56.3415 104.979 56.3415 99.6524V98.8162V41.0893C56.3415 41.0292 56.3415 40.9738 56.3415 40.9183C56.3877 36.9501 59.2703 33.7764 62.7766 33.7764H114.669Z" fill="#223369"/>
<path d="M103.055 33.7764H92.5918V107.173H103.055V33.7764Z" fill="url(#paint1_linear_4685_29652)"/>
<path d="M41.7529 29.2119H93.6499C97.1562 29.2119 100.039 32.3856 100.09 36.3493C100.09 36.4047 100.09 36.4647 100.09 36.5248V98.8114V99.6475C100.09 104.974 103.781 107.168 103.781 107.168H51.8838C48.3775 107.168 45.4948 103.995 45.444 100.031C45.444 99.9755 45.444 99.9155 45.444 99.8554V37.5688V36.7327C45.444 31.4062 41.7529 29.2119 41.7529 29.2119Z" fill="url(#paint2_linear_4685_29652)"/>
<path d="M91.968 29.2168C91.968 29.2168 87.8565 31.4111 87.8565 36.7376V115.479H87.6856L85.1725 118.357L82.6595 115.479H82.6271L80.114 118.357L77.601 115.479H77.5686L75.0555 118.357L72.5425 115.479H72.5101L69.997 118.357L67.4839 115.479H67.447L64.9339 118.357L62.4208 115.479H62.3839L59.8708 118.357L57.3577 115.479H57.3254L54.8123 118.357L52.2992 115.479H52.2622L49.7492 118.357L47.2361 115.479H47.1991L44.686 118.357L42.173 115.479H42.136L39.6229 118.357L37.1098 115.479H37.0729L34.5598 118.357L32.0467 115.479H32.0098L29.4967 118.357L26.9836 115.479H26.9697V36.3541C27.0252 32.3859 30.2358 29.2168 34.144 29.2168H91.9588H91.968Z" fill="#223369"/>
<path opacity="0.4" d="M79.8598 42.6735H35.0956C34.4211 42.6735 33.876 42.1284 33.876 41.454C33.876 40.7795 34.4211 40.2344 35.0956 40.2344H79.8598C80.5343 40.2344 81.0794 40.7795 81.0794 41.454C81.0794 42.1284 80.5343 42.6735 79.8598 42.6735ZM81.0794 50.2867C81.0794 49.6122 80.5343 49.0671 79.8598 49.0671H35.0956C34.4211 49.0671 33.876 49.6122 33.876 50.2867C33.876 50.9612 34.4211 51.5063 35.0956 51.5063H79.8598C80.5343 51.5063 81.0794 50.9612 81.0794 50.2867ZM81.0794 59.1241C81.0794 58.4496 80.5343 57.9045 79.8598 57.9045H35.0956C34.4211 57.9045 33.876 58.4496 33.876 59.1241C33.876 59.7985 34.4211 60.3437 35.0956 60.3437H79.8598C80.5343 60.3437 81.0794 59.7985 81.0794 59.1241ZM81.0794 67.9614C81.0794 67.287 80.5343 66.7418 79.8598 66.7418H35.0956C34.4211 66.7418 33.876 67.287 33.876 67.9614C33.876 68.6359 34.4211 69.181 35.0956 69.181H79.8598C80.5343 69.181 81.0794 68.6359 81.0794 67.9614ZM81.0794 76.7988C81.0794 76.1243 80.5343 75.5792 79.8598 75.5792H35.0956C34.4211 75.5792 33.876 76.1243 33.876 76.7988C33.876 77.4733 34.4211 78.0184 35.0956 78.0184H79.8598C80.5343 78.0184 81.0794 77.4733 81.0794 76.7988ZM81.0794 85.6362C81.0794 84.9617 80.5343 84.4166 79.8598 84.4166H35.0956C34.4211 84.4166 33.876 84.9617 33.876 85.6362C33.876 86.3106 34.4211 86.8557 35.0956 86.8557H79.8598C80.5343 86.8557 81.0794 86.3106 81.0794 85.6362Z" fill="url(#paint3_linear_4685_29652)"/>
<path d="M50.4606 29.2168C47.8459 40.521 38.4865 49.2383 26.8496 50.9014V36.3541C26.905 32.3859 30.1157 29.2168 34.0239 29.2168H50.4606Z" fill="url(#paint4_linear_4685_29652)"/>
<path d="M40.4355 74.873H9.13281V136.494H40.4355V74.873Z" fill="#3F9AF7"/>
<path d="M36.4491 74.873H5.14648V136.494H36.4491V74.873Z" fill="#EAF2FC"/>
<path style="mix-blend-mode:multiply" opacity="0.4" d="M36.4491 136.378H5.14648V197.999H36.4491V136.378Z" fill="url(#paint5_linear_4685_29652)"/>
<path d="M8.54631 76.209H33.0535C33.0535 77.3316 33.9636 78.2416 35.0861 78.2416V133.118C33.9636 133.118 33.0535 134.028 33.0535 135.151H8.54631C8.54631 134.028 7.63624 133.118 6.51367 133.118V78.2416C7.63624 78.2416 8.54631 77.3316 8.54631 76.209Z" stroke="url(#paint6_linear_4685_29652)" stroke-width="0.33663" stroke-miterlimit="10"/>
<path d="M20.7977 116.265C26.6403 116.265 31.3767 111.529 31.3767 105.686C31.3767 99.8438 26.6403 95.1074 20.7977 95.1074C14.9551 95.1074 10.2188 99.8438 10.2188 105.686C10.2188 111.529 14.9551 116.265 20.7977 116.265Z" fill="#223369"/>
<g opacity="0.8">
<path d="M27.4323 106.283C27.2244 108.565 25.9724 110.21 23.8567 110.21V107.927C24.7944 107.853 25.4828 107.327 25.6722 106.278H21.5561C21.0895 108.149 20.5629 110.205 17.925 110.205C15.8277 110.205 14.391 108.597 14.1831 106.278H12.6494V105.063H14.1647C14.3494 102.91 15.5321 101.451 17.6432 101.284V103.566C16.8949 103.64 16.2019 104.167 15.9802 105.063H20.0177C20.4658 103.192 20.974 101.15 23.6072 101.15C25.4227 101.15 27.1828 102.536 27.4045 105.063H28.9383V106.278H27.423L27.4323 106.283ZM19.7082 106.283H15.9294C16.0587 107.313 16.6777 108.043 17.8188 108.043C18.9598 108.043 19.3895 107.295 19.7082 106.283ZM21.8795 105.068H25.6768C25.4874 103.945 24.7021 103.308 23.7319 103.308C22.6648 103.308 22.1982 104.056 21.8795 105.068Z" fill="#3F9AF7"/>
</g>
<path style="mix-blend-mode:multiply" opacity="0.4" d="M72.5745 150.591L72.2603 149.774H70.9992L71.2994 148.988V145.533H71.2948L70.9807 144.715H51.6244L51.3103 145.533H51.3056V145.561H38.0796V145.025H38.075L37.7563 144.207H18.4L18.0858 145.025H18.0812V148.48H18.0858L18.3954 149.293H17.9103L17.5915 150.111H17.5869V153.566H17.5915L17.9103 154.393H18.8435L18.5339 155.202H18.5247V158.657H18.5293L18.8481 159.484H34.6195V160.011H34.6241L34.9383 160.824H33.7695L33.4554 161.642H33.4461V165.097H33.4507L33.7695 165.924H34.4671L34.1576 166.728H34.1529V170.183L34.4717 171.01H53.828L54.1467 170.183H54.1513V166.728H54.1421L53.828 165.91H53.1304L53.4445 165.097V161.642H53.4399L53.1304 160.838H54.2992L54.6179 160.011V156.555H54.6133L54.2992 155.733H53.366L53.6755 154.925H53.6801V154.874H72.2603L72.5791 154.047V150.591H72.5745Z" fill="url(#paint7_linear_4685_29652)"/>
<path d="M38.0795 139.976H18.0811V143.431H38.0795V139.976Z" fill="#223369"/>
<path d="M38.0795 143.417H18.0811L18.3998 144.249H37.7561L38.0795 143.417Z" fill="#91BDEC"/>
<path d="M38.0795 139.985H18.0811L18.3998 139.148H37.7561L38.0795 139.985Z" fill="#91BDEC"/>
<path d="M18.7374 140.002H18.5342V143.397H18.7374V140.002Z" fill="#91BDEC"/>
<path d="M18.9455 140.002H18.7422V143.397H18.9455V140.002Z" fill="#91BDEC"/>
<path d="M19.9015 140.002H19.6982V143.397H19.9015V140.002Z" fill="#91BDEC"/>
<path d="M20.1046 140.002H19.9014V143.397H20.1046V140.002Z" fill="#91BDEC"/>
<path d="M21.0607 140.002H20.8574V143.397H21.0607V140.002Z" fill="#91BDEC"/>
<path d="M21.2687 140.002H21.0654V143.397H21.2687V140.002Z" fill="#91BDEC"/>
<path d="M22.2247 140.002H22.0215V143.397H22.2247V140.002Z" fill="#91BDEC"/>
<path d="M22.4279 140.002H22.2246V143.397H22.4279V140.002Z" fill="#91BDEC"/>
<path d="M23.3849 140.002H23.1816V143.397H23.3849V140.002Z" fill="#91BDEC"/>
<path d="M23.5929 140.002H23.3896V143.397H23.5929V140.002Z" fill="#91BDEC"/>
<path d="M24.549 140.002H24.3457V143.397H24.549V140.002Z" fill="#91BDEC"/>
<path d="M24.7521 140.002H24.5488V143.397H24.7521V140.002Z" fill="#91BDEC"/>
<path d="M25.7081 140.002H25.5049V143.397H25.7081V140.002Z" fill="#91BDEC"/>
<path d="M25.9162 140.002H25.7129V143.397H25.9162V140.002Z" fill="#91BDEC"/>
<path d="M26.8722 140.002H26.6689V143.397H26.8722V140.002Z" fill="#91BDEC"/>
<path d="M27.0753 140.002H26.8721V143.397H27.0753V140.002Z" fill="#91BDEC"/>
<path d="M28.0324 140.002H27.8291V143.397H28.0324V140.002Z" fill="#91BDEC"/>
<path d="M28.2404 140.002H28.0371V143.397H28.2404V140.002Z" fill="#91BDEC"/>
<path d="M29.1964 140.002H28.9932V143.397H29.1964V140.002Z" fill="#91BDEC"/>
<path d="M29.3995 140.002H29.1963V143.397H29.3995V140.002Z" fill="#91BDEC"/>
<path d="M30.3556 140.002H30.1523V143.397H30.3556V140.002Z" fill="#91BDEC"/>
<path d="M30.5636 140.002H30.3604V143.397H30.5636V140.002Z" fill="#91BDEC"/>
<path d="M31.5197 140.002H31.3164V143.397H31.5197V140.002Z" fill="#91BDEC"/>
<path d="M31.7228 140.002H31.5195V143.397H31.7228V140.002Z" fill="#91BDEC"/>
<path d="M32.6798 140.002H32.4766V143.397H32.6798V140.002Z" fill="#91BDEC"/>
<path d="M32.8878 140.002H32.6846V143.397H32.8878V140.002Z" fill="#91BDEC"/>
<path d="M33.8439 140.002H33.6406V143.397H33.8439V140.002Z" fill="#91BDEC"/>
<path d="M34.047 140.002H33.8438V143.397H34.047V140.002Z" fill="#91BDEC"/>
<path d="M35.0031 140.002H34.7998V143.397H35.0031V140.002Z" fill="#91BDEC"/>
<path d="M35.2111 140.002H35.0078V143.397H35.2111V140.002Z" fill="#91BDEC"/>
<path d="M36.1671 140.002H35.9639V143.397H36.1671V140.002Z" fill="#91BDEC"/>
<path d="M36.3703 140.002H36.167V143.397H36.3703V140.002Z" fill="#91BDEC"/>
<path d="M37.3263 140.002H37.123V143.397H37.3263V140.002Z" fill="#91BDEC"/>
<path d="M37.5343 140.002H37.3311V143.397H37.5343V140.002Z" fill="#91BDEC"/>
<path d="M37.5853 134.891H17.5869V138.346H37.5853V134.891Z" fill="#223369"/>
<path d="M37.5853 138.331H17.5869L17.9103 139.163H37.2666L37.5853 138.331Z" fill="#91BDEC"/>
<path d="M37.5853 134.894H17.5869L17.9103 134.062H37.2666L37.5853 134.894Z" fill="#91BDEC"/>
<path d="M18.2472 134.915H18.0439V138.31H18.2472V134.915Z" fill="#91BDEC"/>
<path d="M18.4503 134.915H18.2471V138.31H18.4503V134.915Z" fill="#91BDEC"/>
<path d="M19.4074 134.915H19.2041V138.31H19.4074V134.915Z" fill="#91BDEC"/>
<path d="M19.6154 134.915H19.4121V138.31H19.6154V134.915Z" fill="#91BDEC"/>
<path d="M20.5714 134.915H20.3682V138.31H20.5714V134.915Z" fill="#91BDEC"/>
<path d="M20.7746 134.915H20.5713V138.31H20.7746V134.915Z" fill="#91BDEC"/>
<path d="M21.7306 134.915H21.5273V138.31H21.7306V134.915Z" fill="#91BDEC"/>
<path d="M21.9386 134.915H21.7354V138.31H21.9386V134.915Z" fill="#91BDEC"/>
<path d="M22.8956 134.915H22.6924V138.31H22.8956V134.915Z" fill="#91BDEC"/>
<path d="M23.0988 134.915H22.8955V138.31H23.0988V134.915Z" fill="#91BDEC"/>
<path d="M24.0548 134.915H23.8516V138.31H24.0548V134.915Z" fill="#91BDEC"/>
<path d="M24.2628 134.915H24.0596V138.31H24.2628V134.915Z" fill="#91BDEC"/>
<path d="M25.2189 134.915H25.0156V138.31H25.2189V134.915Z" fill="#91BDEC"/>
<path d="M25.422 134.915H25.2188V138.31H25.422V134.915Z" fill="#91BDEC"/>
<path d="M26.3781 134.915H26.1748V138.31H26.3781V134.915Z" fill="#91BDEC"/>
<path d="M26.5861 134.915H26.3828V138.31H26.5861V134.915Z" fill="#91BDEC"/>
<path d="M27.5431 134.915H27.3398V138.31H27.5431V134.915Z" fill="#91BDEC"/>
<path d="M27.7462 134.915H27.543V138.31H27.7462V134.915Z" fill="#91BDEC"/>
<path d="M28.7013 134.915H28.498V138.31H28.7013V134.915Z" fill="#91BDEC"/>
<path d="M28.9093 134.915H28.7061V138.31H28.9093V134.915Z" fill="#91BDEC"/>
<path d="M29.8664 134.915H29.6631V138.31H29.8664V134.915Z" fill="#91BDEC"/>
<path d="M30.0695 134.915H29.8662V138.31H30.0695V134.915Z" fill="#91BDEC"/>
<path d="M31.0255 134.915H30.8223V138.31H31.0255V134.915Z" fill="#91BDEC"/>
<path d="M31.2335 134.915H31.0303V138.31H31.2335V134.915Z" fill="#91BDEC"/>
<path d="M32.1896 134.915H31.9863V138.31H32.1896V134.915Z" fill="#91BDEC"/>
<path d="M32.3927 134.915H32.1895V138.31H32.3927V134.915Z" fill="#91BDEC"/>
<path d="M33.3488 134.915H33.1455V138.31H33.3488V134.915Z" fill="#91BDEC"/>
<path d="M33.5568 134.915H33.3535V138.31H33.5568V134.915Z" fill="#91BDEC"/>
<path d="M34.5128 134.915H34.3096V138.31H34.5128V134.915Z" fill="#91BDEC"/>
<path d="M34.716 134.915H34.5127V138.31H34.716V134.915Z" fill="#91BDEC"/>
<path d="M35.673 134.915H35.4697V138.31H35.673V134.915Z" fill="#91BDEC"/>
<path d="M35.881 134.915H35.6777V138.31H35.881V134.915Z" fill="#91BDEC"/>
<path d="M36.8371 134.915H36.6338V138.31H36.8371V134.915Z" fill="#91BDEC"/>
<path d="M37.0402 134.915H36.8369V138.31H37.0402V134.915Z" fill="#91BDEC"/>
<path d="M38.5228 129.803H18.5244V133.258H38.5228V129.803Z" fill="#223369"/>
<path d="M38.5228 133.245H18.5244L18.8478 134.077H38.2041L38.5228 133.245Z" fill="#91BDEC"/>
<path d="M38.5228 129.808H18.5244L18.8478 128.977H38.2041L38.5228 129.808Z" fill="#91BDEC"/>
<path d="M19.1847 129.829H18.9814V133.225H19.1847V129.829Z" fill="#91BDEC"/>
<path d="M19.3878 129.829H19.1846V133.225H19.3878V129.829Z" fill="#91BDEC"/>
<path d="M20.3449 129.829H20.1416V133.225H20.3449V129.829Z" fill="#91BDEC"/>
<path d="M20.5529 129.829H20.3496V133.225H20.5529V129.829Z" fill="#91BDEC"/>
<path d="M21.5089 129.829H21.3057V133.225H21.5089V129.829Z" fill="#91BDEC"/>
<path d="M21.7121 129.829H21.5088V133.225H21.7121V129.829Z" fill="#91BDEC"/>
<path d="M22.6681 129.829H22.4648V133.225H22.6681V129.829Z" fill="#91BDEC"/>
<path d="M22.8761 129.829H22.6729V133.225H22.8761V129.829Z" fill="#91BDEC"/>
<path d="M23.8331 129.829H23.6299V133.225H23.8331V129.829Z" fill="#91BDEC"/>
<path d="M24.0363 129.829H23.833V133.225H24.0363V129.829Z" fill="#91BDEC"/>
<path d="M24.9923 129.829H24.7891V133.225H24.9923V129.829Z" fill="#91BDEC"/>
<path d="M25.2003 129.829H24.9971V133.225H25.2003V129.829Z" fill="#91BDEC"/>
<path d="M26.1564 129.829H25.9531V133.225H26.1564V129.829Z" fill="#91BDEC"/>
<path d="M26.3595 129.829H26.1562V133.225H26.3595V129.829Z" fill="#91BDEC"/>
<path d="M27.3156 129.829H27.1123V133.225H27.3156V129.829Z" fill="#91BDEC"/>
<path d="M27.5236 129.829H27.3203V133.225H27.5236V129.829Z" fill="#91BDEC"/>
<path d="M28.4796 129.829H28.2764V133.225H28.4796V129.829Z" fill="#91BDEC"/>
<path d="M28.6828 129.829H28.4795V133.225H28.6828V129.829Z" fill="#91BDEC"/>
<path d="M29.6398 129.829H29.4365V133.225H29.6398V129.829Z" fill="#91BDEC"/>
<path d="M29.8478 129.829H29.6445V133.225H29.8478V129.829Z" fill="#91BDEC"/>
<path d="M30.8039 129.829H30.6006V133.225H30.8039V129.829Z" fill="#91BDEC"/>
<path d="M31.007 129.829H30.8037V133.225H31.007V129.829Z" fill="#91BDEC"/>
<path d="M31.963 129.829H31.7598V133.225H31.963V129.829Z" fill="#91BDEC"/>
<path d="M32.171 129.829H31.9678V133.225H32.171V129.829Z" fill="#91BDEC"/>
<path d="M33.1281 129.829H32.9248V133.225H33.1281V129.829Z" fill="#91BDEC"/>
<path d="M33.3312 129.829H33.1279V133.225H33.3312V129.829Z" fill="#91BDEC"/>
<path d="M34.2863 129.829H34.083V133.225H34.2863V129.829Z" fill="#91BDEC"/>
<path d="M34.4943 129.829H34.291V133.225H34.4943V129.829Z" fill="#91BDEC"/>
<path d="M35.4513 129.829H35.248V133.225H35.4513V129.829Z" fill="#91BDEC"/>
<path d="M35.6544 129.829H35.4512V133.225H35.6544V129.829Z" fill="#91BDEC"/>
<path d="M36.6105 129.829H36.4072V133.225H36.6105V129.829Z" fill="#91BDEC"/>
<path d="M36.8185 129.829H36.6152V133.225H36.8185V129.829Z" fill="#91BDEC"/>
<path d="M37.7746 129.829H37.5713V133.225H37.7746V129.829Z" fill="#91BDEC"/>
<path d="M37.9777 129.829H37.7744V133.225H37.9777V129.829Z" fill="#91BDEC"/>
<path d="M71.3041 140.456H51.3057V143.912H71.3041V140.456Z" fill="#223369"/>
<path d="M71.2995 143.897H51.3057L51.6244 144.729H70.9807L71.2995 143.897Z" fill="#91BDEC"/>
<path d="M71.2995 140.46H51.3057L51.6244 139.629H70.9807L71.2995 140.46Z" fill="#91BDEC"/>
<path d="M51.9621 140.482H51.7588V143.878H51.9621V140.482Z" fill="#91BDEC"/>
<path d="M52.1701 140.482H51.9668V143.878H52.1701V140.482Z" fill="#91BDEC"/>
<path d="M53.1251 140.482H52.9219V143.878H53.1251V140.482Z" fill="#91BDEC"/>
<path d="M53.3283 140.482H53.125V143.878H53.3283V140.482Z" fill="#91BDEC"/>
<path d="M54.2853 140.482H54.082V143.878H54.2853V140.482Z" fill="#91BDEC"/>
<path d="M54.4933 140.482H54.29V143.878H54.4933V140.482Z" fill="#91BDEC"/>
<path d="M55.4494 140.482H55.2461V143.878H55.4494V140.482Z" fill="#91BDEC"/>
<path d="M55.6525 140.482H55.4492V143.878H55.6525V140.482Z" fill="#91BDEC"/>
<path d="M56.6095 140.482H56.4062V143.878H56.6095V140.482Z" fill="#91BDEC"/>
<path d="M56.8175 140.482H56.6143V143.878H56.8175V140.482Z" fill="#91BDEC"/>
<path d="M57.7726 140.482H57.5693V143.878H57.7726V140.482Z" fill="#91BDEC"/>
<path d="M57.9757 140.482H57.7725V143.878H57.9757V140.482Z" fill="#91BDEC"/>
<path d="M58.9328 140.482H58.7295V143.878H58.9328V140.482Z" fill="#91BDEC"/>
<path d="M59.1408 140.482H58.9375V143.878H59.1408V140.482Z" fill="#91BDEC"/>
<path d="M60.0968 140.482H59.8936V143.878H60.0968V140.482Z" fill="#91BDEC"/>
<path d="M60.2999 140.482H60.0967V143.878H60.2999V140.482Z" fill="#91BDEC"/>
<path d="M61.256 140.482H61.0527V143.878H61.256V140.482Z" fill="#91BDEC"/>
<path d="M61.464 140.482H61.2607V143.878H61.464V140.482Z" fill="#91BDEC"/>
<path d="M62.4201 140.482H62.2168V143.878H62.4201V140.482Z" fill="#91BDEC"/>
<path d="M62.6232 140.482H62.4199V143.878H62.6232V140.482Z" fill="#91BDEC"/>
<path d="M63.5802 140.482H63.377V143.878H63.5802V140.482Z" fill="#91BDEC"/>
<path d="M63.7882 140.482H63.585V143.878H63.7882V140.482Z" fill="#91BDEC"/>
<path d="M64.7433 140.482H64.54V143.878H64.7433V140.482Z" fill="#91BDEC"/>
<path d="M64.9464 140.482H64.7432V143.878H64.9464V140.482Z" fill="#91BDEC"/>
<path d="M65.9035 140.482H65.7002V143.878H65.9035V140.482Z" fill="#91BDEC"/>
<path d="M66.1115 140.482H65.9082V143.878H66.1115V140.482Z" fill="#91BDEC"/>
<path d="M67.0675 140.482H66.8643V143.878H67.0675V140.482Z" fill="#91BDEC"/>
<path d="M67.2706 140.482H67.0674V143.878H67.2706V140.482Z" fill="#91BDEC"/>
<path d="M68.2277 140.482H68.0244V143.878H68.2277V140.482Z" fill="#91BDEC"/>
<path d="M68.4357 140.482H68.2324V143.878H68.4357V140.482Z" fill="#91BDEC"/>
<path d="M69.3917 140.482H69.1885V143.878H69.3917V140.482Z" fill="#91BDEC"/>
<path d="M69.5949 140.482H69.3916V143.878H69.5949V140.482Z" fill="#91BDEC"/>
<path d="M70.5509 140.482H70.3477V143.878H70.5509V140.482Z" fill="#91BDEC"/>
<path d="M70.7589 140.482H70.5557V143.878H70.7589V140.482Z" fill="#91BDEC"/>
<path d="M72.5785 135.398H52.5801V138.854H72.5785V135.398Z" fill="#223369"/>
<path d="M72.5785 138.839H52.5801L52.9035 139.67H72.2597L72.5785 138.839Z" fill="#91BDEC"/>
<path d="M72.5785 135.406H52.5801L52.9035 134.57H72.2597L72.5785 135.406Z" fill="#91BDEC"/>
<path d="M53.2404 135.425H53.0371V138.82H53.2404V135.425Z" fill="#91BDEC"/>
<path d="M53.4435 135.425H53.2402V138.82H53.4435V135.425Z" fill="#91BDEC"/>
<path d="M54.4005 135.425H54.1973V138.82H54.4005V135.425Z" fill="#91BDEC"/>
<path d="M54.6085 135.425H54.4053V138.82H54.6085V135.425Z" fill="#91BDEC"/>
<path d="M55.5646 135.425H55.3613V138.82H55.5646V135.425Z" fill="#91BDEC"/>
<path d="M55.7677 135.425H55.5645V138.82H55.7677V135.425Z" fill="#91BDEC"/>
<path d="M56.7238 135.425H56.5205V138.82H56.7238V135.425Z" fill="#91BDEC"/>
<path d="M56.9318 135.425H56.7285V138.82H56.9318V135.425Z" fill="#91BDEC"/>
<path d="M57.8878 135.425H57.6846V138.82H57.8878V135.425Z" fill="#91BDEC"/>
<path d="M58.091 135.425H57.8877V138.82H58.091V135.425Z" fill="#91BDEC"/>
<path d="M59.048 135.425H58.8447V138.82H59.048V135.425Z" fill="#91BDEC"/>
<path d="M59.256 135.425H59.0527V138.82H59.256V135.425Z" fill="#91BDEC"/>
<path d="M60.2121 135.425H60.0088V138.82H60.2121V135.425Z" fill="#91BDEC"/>
<path d="M60.4162 135.425H60.2129V138.82H60.4162V135.425Z" fill="#91BDEC"/>
<path d="M61.3712 135.425H61.168V138.82H61.3712V135.425Z" fill="#91BDEC"/>
<path d="M61.5792 135.425H61.376V138.82H61.5792V135.425Z" fill="#91BDEC"/>
<path d="M62.5363 135.425H62.333V138.82H62.5363V135.425Z" fill="#91BDEC"/>
<path d="M62.7394 135.425H62.5361V138.82H62.7394V135.425Z" fill="#91BDEC"/>
<path d="M63.6945 135.425H63.4912V138.82H63.6945V135.425Z" fill="#91BDEC"/>
<path d="M63.9025 135.425H63.6992V138.82H63.9025V135.425Z" fill="#91BDEC"/>
<path d="M64.8595 135.425H64.6562V138.82H64.8595V135.425Z" fill="#91BDEC"/>
<path d="M65.0626 135.425H64.8594V138.82H65.0626V135.425Z" fill="#91BDEC"/>
<path d="M66.0187 135.425H65.8154V138.82H66.0187V135.425Z" fill="#91BDEC"/>
<path d="M66.2267 135.425H66.0234V138.82H66.2267V135.425Z" fill="#91BDEC"/>
<path d="M67.1828 135.425H66.9795V138.82H67.1828V135.425Z" fill="#91BDEC"/>
<path d="M67.3859 135.425H67.1826V138.82H67.3859V135.425Z" fill="#91BDEC"/>
<path d="M68.3419 135.425H68.1387V138.82H68.3419V135.425Z" fill="#91BDEC"/>
<path d="M68.5499 135.425H68.3467V138.82H68.5499V135.425Z" fill="#91BDEC"/>
<path d="M69.506 135.425H69.3027V138.82H69.506V135.425Z" fill="#91BDEC"/>
<path d="M69.7091 135.425H69.5059V138.82H69.7091V135.425Z" fill="#91BDEC"/>
<path d="M70.6661 135.425H70.4629V138.82H70.6661V135.425Z" fill="#91BDEC"/>
<path d="M70.8742 135.425H70.6709V138.82H70.8742V135.425Z" fill="#91BDEC"/>
<path d="M71.8302 135.425H71.627V138.82H71.8302V135.425Z" fill="#91BDEC"/>
<path d="M72.0333 135.425H71.8301V138.82H72.0333V135.425Z" fill="#91BDEC"/>
<path d="M54.1752 141.644H34.1768V145.099H54.1752V141.644Z" fill="#223369"/>
<path d="M54.1752 145.085H34.1768L34.4955 145.916H53.8518L54.1752 145.085Z" fill="#91BDEC"/>
<path d="M54.1752 141.653H34.1768L34.4955 140.816H53.8518L54.1752 141.653Z" fill="#91BDEC"/>
<path d="M34.8331 141.671H34.6299V145.066H34.8331V141.671Z" fill="#91BDEC"/>
<path d="M35.0412 141.671H34.8379V145.066H35.0412V141.671Z" fill="#91BDEC"/>
<path d="M35.9962 141.671H35.793V145.066H35.9962V141.671Z" fill="#91BDEC"/>
<path d="M36.1994 141.671H35.9961V145.066H36.1994V141.671Z" fill="#91BDEC"/>
<path d="M37.1564 141.671H36.9531V145.066H37.1564V141.671Z" fill="#91BDEC"/>
<path d="M37.3644 141.671H37.1611V145.066H37.3644V141.671Z" fill="#91BDEC"/>
<path d="M38.3205 141.671H38.1172V145.066H38.3205V141.671Z" fill="#91BDEC"/>
<path d="M38.5236 141.671H38.3203V145.066H38.5236V141.671Z" fill="#91BDEC"/>
<path d="M39.4806 141.671H39.2773V145.066H39.4806V141.671Z" fill="#91BDEC"/>
<path d="M39.6886 141.671H39.4854V145.066H39.6886V141.671Z" fill="#91BDEC"/>
<path d="M40.6437 141.671H40.4404V145.066H40.6437V141.671Z" fill="#91BDEC"/>
<path d="M40.8468 141.671H40.6436V145.066H40.8468V141.671Z" fill="#91BDEC"/>
<path d="M41.8039 141.671H41.6006V145.066H41.8039V141.671Z" fill="#91BDEC"/>
<path d="M42.0119 141.671H41.8086V145.066H42.0119V141.671Z" fill="#91BDEC"/>
<path d="M42.9679 141.671H42.7646V145.066H42.9679V141.671Z" fill="#91BDEC"/>
<path d="M43.171 141.671H42.9678V145.066H43.171V141.671Z" fill="#91BDEC"/>
<path d="M44.1271 141.671H43.9238V145.066H44.1271V141.671Z" fill="#91BDEC"/>
<path d="M44.3351 141.671H44.1318V145.066H44.3351V141.671Z" fill="#91BDEC"/>
<path d="M45.2921 141.671H45.0889V145.066H45.2921V141.671Z" fill="#91BDEC"/>
<path d="M45.4953 141.671H45.292V145.066H45.4953V141.671Z" fill="#91BDEC"/>
<path d="M46.4513 141.671H46.248V145.066H46.4513V141.671Z" fill="#91BDEC"/>
<path d="M46.6593 141.671H46.4561V145.066H46.6593V141.671Z" fill="#91BDEC"/>
<path d="M47.6154 141.671H47.4121V145.066H47.6154V141.671Z" fill="#91BDEC"/>
<path d="M47.8185 141.671H47.6152V145.066H47.8185V141.671Z" fill="#91BDEC"/>
<path d="M48.7746 141.671H48.5713V145.066H48.7746V141.671Z" fill="#91BDEC"/>
<path d="M48.9826 141.671H48.7793V145.066H48.9826V141.671Z" fill="#91BDEC"/>
<path d="M49.9386 141.671H49.7354V145.066H49.9386V141.671Z" fill="#91BDEC"/>
<path d="M50.1417 141.671H49.9385V145.066H50.1417V141.671Z" fill="#91BDEC"/>
<path d="M51.0988 141.671H50.8955V145.066H51.0988V141.671Z" fill="#91BDEC"/>
<path d="M51.3068 141.671H51.1035V145.066H51.3068V141.671Z" fill="#91BDEC"/>
<path d="M52.2628 141.671H52.0596V145.066H52.2628V141.671Z" fill="#91BDEC"/>
<path d="M52.466 141.671H52.2627V145.066H52.466V141.671Z" fill="#91BDEC"/>
<path d="M53.422 141.671H53.2188V145.066H53.422V141.671Z" fill="#91BDEC"/>
<path d="M53.63 141.671H53.4268V145.066H53.63V141.671Z" fill="#91BDEC"/>
<path d="M53.6801 136.557H33.6816V140.012H53.6801V136.557Z" fill="#223369"/>
<path d="M53.6801 139.999H33.6816L34.005 140.831H53.3567L53.6801 139.999Z" fill="#91BDEC"/>
<path d="M53.6801 136.567H33.6816L34.005 135.73H53.3567L53.6801 136.567Z" fill="#91BDEC"/>
<path d="M34.3419 136.585H34.1387V139.98H34.3419V136.585Z" fill="#91BDEC"/>
<path d="M34.5451 136.585H34.3418V139.98H34.5451V136.585Z" fill="#91BDEC"/>
<path d="M35.5011 136.585H35.2979V139.98H35.5011V136.585Z" fill="#91BDEC"/>
<path d="M35.7042 136.585H35.501V139.98H35.7042V136.585Z" fill="#91BDEC"/>
<path d="M36.6652 136.585H36.4619V139.98H36.6652V136.585Z" fill="#91BDEC"/>
<path d="M36.8683 136.585H36.665V139.98H36.8683V136.585Z" fill="#91BDEC"/>
<path d="M37.8253 136.585H37.6221V139.98H37.8253V136.585Z" fill="#91BDEC"/>
<path d="M38.0285 136.585H37.8252V139.98H38.0285V136.585Z" fill="#91BDEC"/>
<path d="M38.9894 136.585H38.7861V139.98H38.9894V136.585Z" fill="#91BDEC"/>
<path d="M39.1925 136.585H38.9893V139.98H39.1925V136.585Z" fill="#91BDEC"/>
<path d="M40.1496 136.585H39.9463V139.98H40.1496V136.585Z" fill="#91BDEC"/>
<path d="M40.3527 136.585H40.1494V139.98H40.3527V136.585Z" fill="#91BDEC"/>
<path d="M41.3136 136.585H41.1104V139.98H41.3136V136.585Z" fill="#91BDEC"/>
<path d="M41.5167 136.585H41.3135V139.98H41.5167V136.585Z" fill="#91BDEC"/>
<path d="M42.4728 136.585H42.2695V139.98H42.4728V136.585Z" fill="#91BDEC"/>
<path d="M42.6759 136.585H42.4727V139.98H42.6759V136.585Z" fill="#91BDEC"/>
<path d="M43.6369 136.585H43.4336V139.98H43.6369V136.585Z" fill="#91BDEC"/>
<path d="M43.84 136.585H43.6367V139.98H43.84V136.585Z" fill="#91BDEC"/>
<path d="M44.796 136.585H44.5928V139.98H44.796V136.585Z" fill="#91BDEC"/>
<path d="M44.9992 136.585H44.7959V139.98H44.9992V136.585Z" fill="#91BDEC"/>
<path d="M45.9601 136.585H45.7568V139.98H45.9601V136.585Z" fill="#91BDEC"/>
<path d="M46.1632 136.585H45.96V139.98H46.1632V136.585Z" fill="#91BDEC"/>
<path d="M47.1203 136.585H46.917V139.98H47.1203V136.585Z" fill="#91BDEC"/>
<path d="M47.3234 136.585H47.1201V139.98H47.3234V136.585Z" fill="#91BDEC"/>
<path d="M48.2853 136.585H48.082V139.98H48.2853V136.585Z" fill="#91BDEC"/>
<path d="M48.4884 136.585H48.2852V139.98H48.4884V136.585Z" fill="#91BDEC"/>
<path d="M49.4435 136.585H49.2402V139.98H49.4435V136.585Z" fill="#91BDEC"/>
<path d="M49.6466 136.585H49.4434V139.98H49.6466V136.585Z" fill="#91BDEC"/>
<path d="M50.6085 136.585H50.4053V139.98H50.6085V136.585Z" fill="#91BDEC"/>
<path d="M50.8117 136.585H50.6084V139.98H50.8117V136.585Z" fill="#91BDEC"/>
<path d="M51.7667 136.585H51.5635V139.98H51.7667V136.585Z" fill="#91BDEC"/>
<path d="M51.9699 136.585H51.7666V139.98H51.9699V136.585Z" fill="#91BDEC"/>
<path d="M52.9318 136.585H52.7285V139.98H52.9318V136.585Z" fill="#91BDEC"/>
<path d="M53.1349 136.585H52.9316V139.98H53.1349V136.585Z" fill="#91BDEC"/>
<path d="M54.6185 131.47H34.6201V134.925H54.6185V131.47Z" fill="#223369"/>
<path d="M54.6185 134.912H34.6201L34.9435 135.744H54.2998L54.6185 134.912Z" fill="#91BDEC"/>
<path d="M54.6185 131.475H34.6201L34.9435 130.644H54.2998L54.6185 131.475Z" fill="#91BDEC"/>
<path d="M35.2804 131.497H35.0771V134.893H35.2804V131.497Z" fill="#91BDEC"/>
<path d="M35.4835 131.497H35.2803V134.893H35.4835V131.497Z" fill="#91BDEC"/>
<path d="M36.4396 131.497H36.2363V134.893H36.4396V131.497Z" fill="#91BDEC"/>
<path d="M36.6476 131.497H36.4443V134.893H36.6476V131.497Z" fill="#91BDEC"/>
<path d="M37.6046 131.497H37.4014V134.893H37.6046V131.497Z" fill="#91BDEC"/>
<path d="M37.8078 131.497H37.6045V134.893H37.8078V131.497Z" fill="#91BDEC"/>
<path d="M38.7638 131.497H38.5605V134.893H38.7638V131.497Z" fill="#91BDEC"/>
<path d="M38.9718 131.497H38.7686V134.893H38.9718V131.497Z" fill="#91BDEC"/>
<path d="M39.9279 131.497H39.7246V134.893H39.9279V131.497Z" fill="#91BDEC"/>
<path d="M40.131 131.497H39.9277V134.893H40.131V131.497Z" fill="#91BDEC"/>
<path d="M41.088 131.497H40.8848V134.893H41.088V131.497Z" fill="#91BDEC"/>
<path d="M41.296 131.497H41.0928V134.893H41.296V131.497Z" fill="#91BDEC"/>
<path d="M42.2511 131.497H42.0479V134.893H42.2511V131.497Z" fill="#91BDEC"/>
<path d="M42.4542 131.497H42.251V134.893H42.4542V131.497Z" fill="#91BDEC"/>
<path d="M43.4113 131.497H43.208V134.893H43.4113V131.497Z" fill="#91BDEC"/>
<path d="M43.6193 131.497H43.416V134.893H43.6193V131.497Z" fill="#91BDEC"/>
<path d="M44.5753 131.497H44.3721V134.893H44.5753V131.497Z" fill="#91BDEC"/>
<path d="M44.7785 131.497H44.5752V134.893H44.7785V131.497Z" fill="#91BDEC"/>
<path d="M45.7345 131.497H45.5312V134.893H45.7345V131.497Z" fill="#91BDEC"/>
<path d="M45.9425 131.497H45.7393V134.893H45.9425V131.497Z" fill="#91BDEC"/>
<path d="M46.8986 131.497H46.6953V134.893H46.8986V131.497Z" fill="#91BDEC"/>
<path d="M47.1017 131.497H46.8984V134.893H47.1017V131.497Z" fill="#91BDEC"/>
<path d="M48.0578 131.497H47.8545V134.893H48.0578V131.497Z" fill="#91BDEC"/>
<path d="M48.2658 131.497H48.0625V134.893H48.2658V131.497Z" fill="#91BDEC"/>
<path d="M49.2228 131.497H49.0195V134.893H49.2228V131.497Z" fill="#91BDEC"/>
<path d="M49.4259 131.497H49.2227V134.893H49.4259V131.497Z" fill="#91BDEC"/>
<path d="M50.382 131.497H50.1787V134.893H50.382V131.497Z" fill="#91BDEC"/>
<path d="M50.59 131.497H50.3867V134.893H50.59V131.497Z" fill="#91BDEC"/>
<path d="M51.546 131.497H51.3428V134.893H51.546V131.497Z" fill="#91BDEC"/>
<path d="M51.7492 131.497H51.5459V134.893H51.7492V131.497Z" fill="#91BDEC"/>
<path d="M52.7062 131.497H52.5029V134.893H52.7062V131.497Z" fill="#91BDEC"/>
<path d="M52.9142 131.497H52.7109V134.893H52.9142V131.497Z" fill="#91BDEC"/>
<path d="M53.8703 131.497H53.667V134.893H53.8703V131.497Z" fill="#91BDEC"/>
<path d="M54.0734 131.497H53.8701V134.893H54.0734V131.497Z" fill="#91BDEC"/>
<path d="M53.4447 126.387H33.4463V129.842H53.4447V126.387Z" fill="#223369"/>
<path d="M53.4447 129.828H33.4463L33.7697 130.66H53.1259L53.4447 129.828Z" fill="#91BDEC"/>
<path d="M53.4447 126.391H33.4463L33.7697 125.56H53.1259L53.4447 126.391Z" fill="#91BDEC"/>
<path d="M34.1076 126.414H33.9043V129.809H34.1076V126.414Z" fill="#91BDEC"/>
<path d="M34.3107 126.414H34.1074V129.809H34.3107V126.414Z" fill="#91BDEC"/>
<path d="M35.2658 126.414H35.0625V129.809H35.2658V126.414Z" fill="#91BDEC"/>
<path d="M35.4738 126.414H35.2705V129.809H35.4738V126.414Z" fill="#91BDEC"/>
<path d="M36.4308 126.414H36.2275V129.809H36.4308V126.414Z" fill="#91BDEC"/>
<path d="M36.6339 126.414H36.4307V129.809H36.6339V126.414Z" fill="#91BDEC"/>
<path d="M37.59 126.414H37.3867V129.809H37.59V126.414Z" fill="#91BDEC"/>
<path d="M37.798 126.414H37.5947V129.809H37.798V126.414Z" fill="#91BDEC"/>
<path d="M38.754 126.414H38.5508V129.809H38.754V126.414Z" fill="#91BDEC"/>
<path d="M38.9572 126.414H38.7539V129.809H38.9572V126.414Z" fill="#91BDEC"/>
<path d="M39.9142 126.414H39.7109V129.809H39.9142V126.414Z" fill="#91BDEC"/>
<path d="M40.1222 126.414H39.9189V129.809H40.1222V126.414Z" fill="#91BDEC"/>
<path d="M41.0773 126.414H40.874V129.809H41.0773V126.414Z" fill="#91BDEC"/>
<path d="M41.2804 126.414H41.0771V129.809H41.2804V126.414Z" fill="#91BDEC"/>
<path d="M42.2374 126.414H42.0342V129.809H42.2374V126.414Z" fill="#91BDEC"/>
<path d="M42.4455 126.414H42.2422V129.809H42.4455V126.414Z" fill="#91BDEC"/>
<path d="M43.4025 126.414H43.1992V129.809H43.4025V126.414Z" fill="#91BDEC"/>
<path d="M43.6056 126.414H43.4023V129.809H43.6056V126.414Z" fill="#91BDEC"/>
<path d="M44.5607 126.414H44.3574V129.809H44.5607V126.414Z" fill="#91BDEC"/>
<path d="M44.7687 126.414H44.5654V129.809H44.7687V126.414Z" fill="#91BDEC"/>
<path d="M45.7257 126.414H45.5225V129.809H45.7257V126.414Z" fill="#91BDEC"/>
<path d="M45.9289 126.414H45.7256V129.809H45.9289V126.414Z" fill="#91BDEC"/>
<path d="M46.8849 126.414H46.6816V129.809H46.8849V126.414Z" fill="#91BDEC"/>
<path d="M47.0929 126.414H46.8896V129.809H47.0929V126.414Z" fill="#91BDEC"/>
<path d="M48.049 126.414H47.8457V129.809H48.049V126.414Z" fill="#91BDEC"/>
<path d="M48.2521 126.414H48.0488V129.809H48.2521V126.414Z" fill="#91BDEC"/>
<path d="M49.2081 126.414H49.0049V129.809H49.2081V126.414Z" fill="#91BDEC"/>
<path d="M49.4161 126.414H49.2129V129.809H49.4161V126.414Z" fill="#91BDEC"/>
<path d="M50.3722 126.414H50.1689V129.809H50.3722V126.414Z" fill="#91BDEC"/>
<path d="M50.5753 126.414H50.3721V129.809H50.5753V126.414Z" fill="#91BDEC"/>
<path d="M51.5324 126.414H51.3291V129.809H51.5324V126.414Z" fill="#91BDEC"/>
<path d="M51.7404 126.414H51.5371V129.809H51.7404V126.414Z" fill="#91BDEC"/>
<path d="M52.6964 126.414H52.4932V129.809H52.6964V126.414Z" fill="#91BDEC"/>
<path d="M52.8996 126.414H52.6963V129.809H52.8996V126.414Z" fill="#91BDEC"/>
<path d="M54.1517 121.3H34.1533V124.755H54.1517V121.3Z" fill="#223369"/>
<path d="M54.1517 124.735H34.1533L34.4721 125.572H53.8284L54.1517 124.735Z" fill="#91BDEC"/>
<path d="M54.1517 121.303H34.1533L34.4721 120.472H53.8284L54.1517 121.303Z" fill="#91BDEC"/>
<path d="M34.8097 121.326H34.6064V124.722H34.8097V121.326Z" fill="#91BDEC"/>
<path d="M35.0167 121.326H34.8135V124.722H35.0167V121.326Z" fill="#91BDEC"/>
<path d="M35.9728 121.326H35.7695V124.722H35.9728V121.326Z" fill="#91BDEC"/>
<path d="M36.1759 121.326H35.9727V124.722H36.1759V121.326Z" fill="#91BDEC"/>
<path d="M37.133 121.326H36.9297V124.722H37.133V121.326Z" fill="#91BDEC"/>
<path d="M37.341 121.326H37.1377V124.722H37.341V121.326Z" fill="#91BDEC"/>
<path d="M38.297 121.326H38.0938V124.722H38.297V121.326Z" fill="#91BDEC"/>
<path d="M38.5001 121.326H38.2969V124.722H38.5001V121.326Z" fill="#91BDEC"/>
<path d="M39.4572 121.326H39.2539V124.722H39.4572V121.326Z" fill="#91BDEC"/>
<path d="M39.6652 121.326H39.4619V124.722H39.6652V121.326Z" fill="#91BDEC"/>
<path d="M40.6212 121.326H40.418V124.722H40.6212V121.326Z" fill="#91BDEC"/>
<path d="M40.8244 121.326H40.6211V124.722H40.8244V121.326Z" fill="#91BDEC"/>
<path d="M41.7804 121.326H41.5771V124.722H41.7804V121.326Z" fill="#91BDEC"/>
<path d="M41.9884 121.326H41.7852V124.722H41.9884V121.326Z" fill="#91BDEC"/>
<path d="M42.9445 121.326H42.7412V124.722H42.9445V121.326Z" fill="#91BDEC"/>
<path d="M43.1476 121.326H42.9443V124.722H43.1476V121.326Z" fill="#91BDEC"/>
<path d="M44.1036 121.326H43.9004V124.722H44.1036V121.326Z" fill="#91BDEC"/>
<path d="M44.3117 121.326H44.1084V124.722H44.3117V121.326Z" fill="#91BDEC"/>
<path d="M45.2677 121.326H45.0645V124.722H45.2677V121.326Z" fill="#91BDEC"/>
<path d="M45.4708 121.326H45.2676V124.722H45.4708V121.326Z" fill="#91BDEC"/>
<path d="M46.4279 121.326H46.2246V124.722H46.4279V121.326Z" fill="#91BDEC"/>
<path d="M46.6359 121.326H46.4326V124.722H46.6359V121.326Z" fill="#91BDEC"/>
<path d="M47.5919 121.326H47.3887V124.722H47.5919V121.326Z" fill="#91BDEC"/>
<path d="M47.7951 121.326H47.5918V124.722H47.7951V121.326Z" fill="#91BDEC"/>
<path d="M48.7521 121.326H48.5488V124.722H48.7521V121.326Z" fill="#91BDEC"/>
<path d="M48.9601 121.326H48.7568V124.722H48.9601V121.326Z" fill="#91BDEC"/>
<path d="M49.9152 121.326H49.7119V124.722H49.9152V121.326Z" fill="#91BDEC"/>
<path d="M50.1183 121.326H49.915V124.722H50.1183V121.326Z" fill="#91BDEC"/>
<path d="M51.0753 121.326H50.8721V124.722H51.0753V121.326Z" fill="#91BDEC"/>
<path d="M51.2833 121.326H51.0801V124.722H51.2833V121.326Z" fill="#91BDEC"/>
<path d="M52.2394 121.326H52.0361V124.722H52.2394V121.326Z" fill="#91BDEC"/>
<path d="M52.4425 121.326H52.2393V124.722H52.4425V121.326Z" fill="#91BDEC"/>
<path d="M53.3986 121.326H53.1953V124.722H53.3986V121.326Z" fill="#91BDEC"/>
<path d="M53.6066 121.326H53.4033V124.722H53.6066V121.326Z" fill="#91BDEC"/>
<path d="M22.7887 45.5773C35.3745 45.5773 45.5773 35.3745 45.5773 22.7887C45.5773 10.2028 35.3745 0 22.7887 0C10.2028 0 0 10.2028 0 22.7887C0 35.3745 10.2028 45.5773 22.7887 45.5773Z" fill="#223369"/>
<path d="M22.7895 41.5359C33.1429 41.5359 41.5359 33.1429 41.5359 22.7895C41.5359 12.4361 33.1429 4.04297 22.7895 4.04297C12.4361 4.04297 4.04297 12.4361 4.04297 22.7895C4.04297 33.1429 12.4361 41.5359 22.7895 41.5359Z" fill="#BED8F5"/>
<path d="M22.7888 43.1244C34.0198 43.1244 43.1244 34.0198 43.1244 22.7888C43.1244 11.5577 34.0198 2.45312 22.7888 2.45312C11.5577 2.45312 2.45312 11.5577 2.45312 22.7888C2.45312 34.0198 11.5577 43.1244 22.7888 43.1244Z" fill="#EAF2FC"/>
<path style="mix-blend-mode:multiply" d="M43.1286 22.7895C43.1286 23.1868 43.1193 23.5794 43.0962 23.9721C42.4865 13.2961 33.626 4.82371 22.7976 4.82371C11.9691 4.82371 3.10404 13.2961 2.49425 23.9721C2.47115 23.5794 2.46191 23.1868 2.46191 22.7895C2.46191 11.5545 11.5672 2.44922 22.8022 2.44922C34.0371 2.44922 43.1378 11.5545 43.1378 22.7895H43.1286Z" fill="url(#paint8_linear_4685_29652)"/>
<path d="M24.5815 22.7878C24.5815 23.7764 23.7823 24.5756 22.7937 24.5756C21.8051 24.5756 21.0059 23.7764 21.0059 22.7878C21.0059 21.7992 21.8051 21 22.7937 21C23.7823 21 24.5815 21.7992 24.5815 22.7878Z" fill="#223369"/>
<path d="M23.5557 9.40625H22.0312V21.7961H23.5557V9.40625Z" fill="#223369"/>
<path d="M12.3902 30.6493L13.3916 31.7988L22.7338 23.6606L21.7325 22.5111L12.3902 30.6493Z" fill="#223369"/>
<path d="M173.485 129.375C173.485 140.54 159.118 145.511 141.397 145.511C123.676 145.511 109.309 140.545 109.309 129.375C109.309 123.004 113.979 110.443 121.283 100.816C124.045 97.1711 127.187 93.9512 130.596 91.6414C129.644 89.2715 127.953 85.4326 125.819 82.0834C125.089 80.9423 124.313 79.8567 123.491 78.9051C126.267 74.2762 130.254 78.5586 132.471 78.2121C134.698 77.8657 137.123 74.5303 141.082 74.5303C145.041 74.5303 147.476 77.8657 149.693 78.2121C151.92 78.5632 155.898 74.2762 158.674 78.9051C158.582 79.0113 158.494 79.1176 158.401 79.2284C155.408 82.8502 152.983 88.1767 151.703 91.318C157.644 95.1616 162.804 101.818 166.606 108.725C170.907 116.532 173.471 124.658 173.471 129.375H173.485Z" fill="#91BDEC"/>
<path style="mix-blend-mode:screen" d="M166.62 108.72C161.279 100.049 153.066 94.1129 143.143 93.3045C134.92 92.6346 126.632 96.3257 121.287 100.816C124.05 97.1711 127.191 93.9512 130.6 91.6414C144.191 89.0036 151.721 91.318 151.721 91.318C157.662 95.1616 162.822 101.818 166.624 108.725L166.62 108.72Z" fill="url(#paint9_linear_4685_29652)"/>
<path style="mix-blend-mode:screen" d="M158.683 78.9051C158.59 79.0113 158.502 79.1176 158.41 79.2284C155.592 76.4982 152.89 80.0738 149.245 80.2863C145.29 80.5173 143.895 76.2765 140.176 76.8586C136.453 77.4406 135.58 82.5546 130.581 82.7856C128.895 82.8641 127.255 82.5407 125.819 82.0834C125.089 80.9423 124.313 79.8567 123.49 78.9051C126.267 74.2762 130.253 78.5586 132.471 78.2121C134.697 77.8657 137.123 74.5303 141.082 74.5303C145.041 74.5303 147.475 77.8657 149.693 78.2121C151.919 78.5632 155.897 74.2762 158.673 78.9051H158.683Z" fill="url(#paint10_linear_4685_29652)"/>
<defs>
<linearGradient id="paint0_linear_4685_29652" x1="116.305" y1="80.4999" x2="77.6917" y2="45.1513" gradientUnits="userSpaceOnUse">
<stop stop-color="#3F9AF7"/>
<stop offset="0.98" stop-color="#223369"/>
</linearGradient>
<linearGradient id="paint1_linear_4685_29652" x1="104.649" y1="69.828" x2="96.0427" y2="70.6411" gradientUnits="userSpaceOnUse">
<stop stop-color="#98ACFF" stop-opacity="0"/>
<stop offset="1" stop-color="#7792FF"/>
</linearGradient>
<linearGradient id="paint2_linear_4685_29652" x1="95.4424" y1="85.4421" x2="50.484" y2="51.243" gradientUnits="userSpaceOnUse">
<stop stop-color="#3F9AF7"/>
<stop offset="0.98" stop-color="#223369"/>
</linearGradient>
<linearGradient id="paint3_linear_4685_29652" x1="71.7339" y1="91.1936" x2="39.3364" y2="28.348" gradientUnits="userSpaceOnUse">
<stop stop-color="#98ACFF"/>
<stop offset="0.5" stop-color="#7792FF"/>
<stop offset="0.98" stop-color="#4D70FF"/>
</linearGradient>
<linearGradient id="paint4_linear_4685_29652" x1="37.1191" y1="53.5115" x2="39.0963" y2="26.6529" gradientUnits="userSpaceOnUse">
<stop stop-color="#98ACFF" stop-opacity="0"/>
<stop offset="1" stop-color="#223369"/>
</linearGradient>
<linearGradient id="paint5_linear_4685_29652" x1="21.0288" y1="148.92" x2="21.2043" y2="135.144" gradientUnits="userSpaceOnUse">
<stop stop-color="#728EFF" stop-opacity="0"/>
<stop offset="1" stop-color="#5F7FFF"/>
</linearGradient>
<linearGradient id="paint6_linear_4685_29652" x1="35.5158" y1="134.236" x2="6.07942" y2="77.1329" gradientUnits="userSpaceOnUse">
<stop stop-color="#223369"/>
<stop offset="1" stop-color="#223369"/>
</linearGradient>
<linearGradient id="paint7_linear_4685_29652" x1="45.083" y1="158.805" x2="45.083" y2="142.696" gradientUnits="userSpaceOnUse">
<stop stop-color="#728EFF" stop-opacity="0"/>
<stop offset="0.09" stop-color="#718DFF" stop-opacity="0.04"/>
<stop offset="0.24" stop-color="#6F8BFF" stop-opacity="0.15"/>
<stop offset="0.43" stop-color="#6B88FF" stop-opacity="0.34"/>
<stop offset="0.67" stop-color="#6685FF" stop-opacity="0.59"/>
<stop offset="0.93" stop-color="#6080FF" stop-opacity="0.91"/>
<stop offset="1" stop-color="#5F7FFF"/>
</linearGradient>
<linearGradient id="paint8_linear_4685_29652" x1="21.9106" y1="-0.37338" x2="23.3103" y2="36.4913" gradientUnits="userSpaceOnUse">
<stop stop-color="#E8DBDB" stop-opacity="0.6"/>
<stop offset="0.75" stop-color="#E4D8DD" stop-opacity="0"/>
</linearGradient>
<linearGradient id="paint9_linear_4685_29652" x1="134" y1="83.0489" x2="141.35" y2="99.0883" gradientUnits="userSpaceOnUse">
<stop stop-color="#98ACFF"/>
<stop offset="0.12" stop-color="#95A9FF" stop-opacity="0.84"/>
<stop offset="0.39" stop-color="#8EA4FF" stop-opacity="0.48"/>
<stop offset="0.62" stop-color="#8AA1FF" stop-opacity="0.22"/>
<stop offset="0.78" stop-color="#879EFF" stop-opacity="0.06"/>
<stop offset="0.86" stop-color="#869EFF" stop-opacity="0"/>
</linearGradient>
<linearGradient id="paint10_linear_4685_29652" x1="137.806" y1="67.1158" x2="142.468" y2="83.8573" gradientUnits="userSpaceOnUse">
<stop stop-color="#98ACFF"/>
<stop offset="0.05" stop-color="#97ABFF" stop-opacity="0.94"/>
<stop offset="0.12" stop-color="#95A9FF" stop-opacity="0.84"/>
<stop offset="0.4" stop-color="#8EA4FF" stop-opacity="0.48"/>
<stop offset="0.62" stop-color="#8AA1FF" stop-opacity="0.22"/>
<stop offset="0.78" stop-color="#879EFF" stop-opacity="0.06"/>
<stop offset="0.86" stop-color="#869EFF" stop-opacity="0"/>
</linearGradient>
</defs>
</svg>
