<svg width="20" height="20" viewBox="0 0 20 20" fill="none" xmlns="http://www.w3.org/2000/svg">
<path d="M9.99479 7.5013C11.6056 7.5013 12.9115 6.19547 12.9115 4.58464C12.9115 2.9738 11.6056 1.66797 9.99479 1.66797C8.38396 1.66797 7.07812 2.9738 7.07812 4.58464C7.07812 6.19547 8.38396 7.5013 9.99479 7.5013Z" stroke="#000000" stroke-width="1.5" stroke-linecap="round" stroke-linejoin="round"/>
<path d="M1.66406 17.0846C1.66406 13.4026 5.02198 10.418 9.16406 10.418" stroke="#000000" stroke-width="1.5" stroke-linecap="round" stroke-linejoin="round"/>
<path d="M14.1641 17.918C16.2351 17.918 17.9141 16.239 17.9141 14.168C17.9141 12.0969 16.2351 10.418 14.1641 10.418C12.093 10.418 10.4141 12.0969 10.4141 14.168C10.4141 16.239 12.093 17.918 14.1641 17.918Z" stroke="#000000" stroke-width="1.5"/>
<path d="M13.75 12.918V14.5846H15.4167" stroke="#000000" stroke-width="1.5" stroke-linecap="round" stroke-linejoin="round"/>
</svg>
