<svg width="46" height="46" viewBox="0 0 46 46" fill="none" xmlns="http://www.w3.org/2000/svg">
<rect x="1" y="1" width="44" height="43.9984" rx="21.9992" fill="white"/>
<rect x="1" y="1" width="44" height="43.9984" rx="21.9992" stroke="#FFE27F" stroke-width="2"/>
<path d="M29.7639 25.5922V18.939" stroke="#FFDE5C" stroke-width="0.8"/>
<path d="M33.5263 23.7897L35.1175 24.4478C35.2756 24.5132 35.4028 24.6365 35.4732 24.7924C35.585 25.0403 35.5365 25.3311 35.3502 25.5292L35.1424 25.7502C35.004 25.8975 34.8034 25.9696 34.6029 25.9442L34.5389 25.9361C34.1955 25.8927 33.8918 26.1603 33.8918 26.5065V29.057C33.8918 29.4195 33.7104 29.758 33.4084 29.9587L33.3345 30.0079C32.969 30.2509 32.4856 30.2174 32.1571 29.9262L32.1416 29.9125C31.9443 29.7376 31.8313 29.4864 31.8313 29.2227C31.8313 28.9159 31.662 28.6342 31.3912 28.4902L31.3112 28.4477C31.1695 28.3723 31.0114 28.3329 30.8509 28.3329H30.2418C30.0306 28.3329 29.8241 28.3952 29.6483 28.5121C29.449 28.6446 29.3292 28.868 29.3292 29.1073V29.1457C29.3292 29.4528 29.1755 29.7396 28.9197 29.9096L28.7247 30.0393C28.3817 30.2673 27.9319 30.2531 27.604 30.004L27.4905 29.9178C27.258 29.7411 27.1215 29.4659 27.1215 29.174V27.1793C27.1215 26.8283 27.2416 26.4879 27.4618 26.2146C27.712 25.9042 28.0892 25.7238 28.4879 25.7238H30.8842C31.2744 25.7238 31.6211 25.4751 31.7462 25.1055C31.8968 24.6606 32.1907 24.2781 32.5819 24.0181L32.8221 23.8584C33.0307 23.7197 33.2948 23.6939 33.5263 23.7897Z" stroke="#FFDE5C" stroke-width="0.8"/>
<path d="M16.2278 25.5922V18.939" stroke="#FFDE5C" stroke-width="0.8"/>
<path d="M17.5121 25.7227H15.1216C14.728 25.7227 14.3782 25.4718 14.252 25.0989C14.1024 24.6572 13.8128 24.2763 13.4271 24.0141L13.129 23.8114C12.9548 23.5792 12.6065 23.5792 12.4323 23.8114L11.8516 24.0437L10.882 24.4466C10.7242 24.5121 10.5973 24.6353 10.527 24.791C10.415 25.0391 10.4636 25.3302 10.65 25.5285L10.8576 25.7492C10.996 25.8965 11.1966 25.9686 11.3971 25.9432L11.4611 25.9351C11.8045 25.8916 12.1082 26.1593 12.1082 26.5054V29.0559C12.1082 29.4185 12.2896 29.757 12.5916 29.9577L12.6655 30.0068C13.031 30.2498 13.5144 30.2163 13.8429 29.9251L13.8584 29.9114C14.0557 29.7365 14.1687 29.4854 14.1687 29.2216C14.1687 28.9149 14.338 28.6332 14.6088 28.4891L14.6888 28.4466C14.8305 28.3712 14.9886 28.3318 15.1491 28.3318H15.7582C15.9694 28.3318 16.1759 28.3942 16.3517 28.5111C16.551 28.6436 16.6708 28.867 16.6708 29.1063V29.1446C16.6708 29.4518 16.8245 29.7385 17.0803 29.9086L17.2753 30.0382C17.6183 30.2662 18.0681 30.2521 18.396 30.0029L18.5095 29.9167C18.742 29.7401 18.8785 29.4649 18.8785 29.1729V27.1782C18.8785 26.8273 18.7584 26.4869 18.5382 26.2136C18.288 25.9032 17.9108 25.7227 17.5121 25.7227Z" stroke="#FFDE5C" stroke-width="0.8"/>
<path d="M20.804 17.7595H25.2194V31.2646H20.804V17.7595Z" stroke="#FFDE5C" stroke-width="0.8"/>
<path d="M14.3218 34.5544C14.3218 32.7541 15.7812 31.2947 17.5815 31.2947H28.4293C30.2296 31.2947 31.689 32.7541 31.689 34.5544C31.689 34.8675 31.4352 35.1214 31.1221 35.1214H14.8887C14.5756 35.1214 14.3218 34.8675 14.3218 34.5544Z" stroke="#FFDE5C" stroke-width="0.8"/>
<path d="M21.0137 10.6182L21.0831 10.599C22.2602 10.2747 23.504 10.2813 24.6776 10.6182V10.6182M21.0137 10.6182L20.3038 10.8138C19.532 11.0265 18.7774 11.2975 18.0466 11.6244L17.4896 11.8736C16.4057 12.3585 15.4011 13.0042 14.51 13.789V13.789C13.519 14.6616 12.6816 15.6943 12.0325 16.8441L11.5363 17.7233C11.5279 17.7381 11.5386 17.7564 11.5556 17.7564H18.2471M21.0137 10.6182L20.3967 11.3143C18.8324 13.0791 18.056 15.4058 18.2471 17.7564V17.7564M18.2471 17.7564H27.7481M24.6776 10.6182L26.4721 11.1333L27.7928 11.6984C29.1948 12.2984 30.4827 13.1359 31.5997 14.1741V14.1741C32.2671 14.7945 32.8687 15.4821 33.3949 16.2259L34.4349 17.696C34.4529 17.7213 34.4347 17.7564 34.4036 17.7564H27.7481M24.6776 10.6182L25.3441 11.3523C26.933 13.1022 27.793 15.3932 27.7481 17.7564V17.7564" stroke="#FFDE5C" stroke-width="0.8"/>
<path d="M11.8113 17.9033V17.9033C12.1437 20.5681 16.0225 20.4185 16.3739 17.7561V17.7561V17.7561C16.6898 20.3516 20.4708 20.4985 20.7893 17.9033V17.9033V17.9033C21.1088 20.5078 24.8851 20.5078 25.2047 17.9033V17.9033V17.9033C25.5593 20.5687 29.4371 20.4247 29.7672 17.7561V17.7561V17.7561C30.1152 20.4365 34.0033 20.4392 34.3298 17.7561V17.7561" stroke="#FFDE5C" stroke-width="0.8"/>
</svg>
