<svg width="125" height="80" viewBox="0 0 125 80" fill="none" xmlns="http://www.w3.org/2000/svg">
<path opacity="0.2" fill-rule="evenodd" clip-rule="evenodd" d="M4.96616 78H2L2 51.8052C15.288 49.761 15.288 30.239 2 28.1948L2.00001 2L6.84762 2C9.29947 5.49092 14.5553 5.42021 17.0186 2.00001L18.9847 2C21.6104 5.60458 27.0799 5.60458 29.7056 2L31.716 2C34.1416 5.43413 39.343 5.43413 41.7686 2.00001L43.8802 2.00001C46.2166 5.69337 51.7899 5.85084 54.253 2.00001L56.215 2.00001C58.5965 5.39734 63.7052 5.35045 66.0506 2.00002L68.7714 2C71.3114 5.39779 76.5352 5.42492 79.0701 2.00001L80.8336 2C83.3522 5.40211 88.549 5.39492 91.069 2H92.889C95.4755 5.45545 100.761 5.45545 103.347 2.00001L105.27 2.00001C108.081 5.61599 113.647 5.62896 116.455 2.00001L122.235 2.00001V28.2542C109.735 30.7782 109.735 49.2218 122.235 51.7458V78H119.741C117.287 74.6272 112.184 74.6272 109.731 78H108.024C105.745 74.8004 100.946 74.8575 98.7135 78H96.3959C93.878 74.8554 89.0052 74.8554 86.4874 78H84.7683C82.2644 74.7644 77.2958 74.7644 74.7919 78H73.1017C70.6098 74.7735 65.6562 74.7735 63.1644 78H61.4465C58.9213 74.8861 54.0796 74.8861 51.5544 78H49.7995C47.2743 74.8861 42.4325 74.8861 39.9073 78H38.1524C35.6272 74.8861 30.7855 74.8861 28.2603 78H26.5053C23.9802 74.8861 19.1384 74.8861 16.6132 78H14.8583C12.3331 74.8861 7.49135 74.8861 4.96616 78ZM124.235 79C124.235 79.5523 123.788 80 123.235 80H119.031C118.776 80 118.541 79.8617 118.418 79.6386C116.814 76.7477 112.657 76.7477 111.054 79.6386C110.93 79.8617 110.695 80 110.44 80H106.971C106.917 80 106.867 79.9704 106.841 79.9228L106.654 79.5769C105.186 76.8692 101.256 77.0015 99.974 79.8018C99.9187 79.9226 99.7981 80 99.6653 80H95.4466C95.3709 80 95.3012 79.959 95.2645 79.8928C93.5997 76.8912 89.2835 76.8912 87.6187 79.8928C87.582 79.959 87.5123 80 87.4367 80H83.9084C83.7655 80 83.6338 79.9226 83.5644 79.7978C81.9132 76.8318 77.647 76.8318 75.9958 79.7978C75.9264 79.9226 75.7947 80 75.6518 80H72.2387C72.0964 80 71.9654 79.9228 71.8965 79.7983C70.2592 76.8407 66.0069 76.8407 64.3696 79.7983C64.3007 79.9228 64.1697 80 64.0274 80H60.4663C60.4148 80 60.3673 79.9721 60.3423 79.927C58.6693 76.9105 54.3316 76.9105 52.6586 79.927C52.6336 79.9721 52.5862 80 52.5346 80H48.8192C48.7677 80 48.7203 79.9721 48.6953 79.927C47.0222 76.9105 42.6846 76.9105 41.0115 79.927C40.9865 79.9721 40.9391 80 40.8876 80H37.1722C37.1207 80 37.0732 79.9721 37.0482 79.927C35.3752 76.9105 31.0375 76.9105 29.3645 79.927C29.3395 79.9721 29.292 80 29.2405 80H25.5251C25.4736 80 25.4261 79.9721 25.4012 79.927C23.7281 76.9105 19.3905 76.9105 17.7174 79.927C17.6924 79.9721 17.645 80 17.5935 80H13.878C13.8265 80 13.7791 79.9721 13.7541 79.927C12.0811 76.9105 7.7434 76.9105 6.07035 79.927C6.04537 79.9721 5.99792 80 5.94642 80H1C0.447716 80 -4.83124e-08 79.5523 0 79L2.46242e-06 50.8334C2.50357e-06 50.3623 0.361048 49.9698 0.830508 49.9306C13.0112 48.9129 13.0112 31.0871 0.830502 30.0694C0.36105 30.0302 4.3154e-06 29.6377 4.35655e-06 29.1666L6.81897e-06 1C6.86728e-06 0.447717 0.447723 1.56996e-06 1.00001 1.61824e-06L7.7663 2.20977e-06C7.91447 2.22272e-06 8.0496 0.0847724 8.11407 0.218195C9.64905 3.39445 14.1889 3.3718 15.7665 0.21651C15.8324 0.0847273 15.9678 1.23918e-05 16.1152 1.23918e-05L19.855 3.2666e-06C20.0119 3.28031e-06 20.1558 0.0866885 20.2292 0.225292C21.9784 3.52949 26.7118 3.52949 28.4611 0.225292C28.5344 0.0866892 28.6784 4.03797e-06 28.8352 4.05168e-06L32.6364 4.38398e-06C32.7822 4.39673e-06 32.9151 0.0833937 32.9785 0.214635C34.5004 3.36259 38.9842 3.36258 40.5061 0.214635C40.5695 0.0833944 40.7025 5.08914e-06 40.8482 5.10189e-06L44.8636 1.23918e-05C45.0175 1.23918e-05 45.156 0.0932138 45.2141 0.235754C46.5114 3.42261 50.8953 3.74893 52.6501 0.789267L52.9992 0.200575C53.0729 0.0762467 53.2067 1.23918e-05 53.3513 1.23918e-05H57.2532C57.3277 1.23918e-05 57.3958 0.0421284 57.4292 0.108786L57.5258 0.302054C59.0542 3.35896 63.4546 3.24621 64.8244 0.115028C64.855 0.0451656 64.924 1.48361e-05 65.0003 1.48427e-05L69.7596 0C69.8394 6.97946e-09 69.9126 0.0452042 69.9487 0.116425C71.5968 3.36778 76.2563 3.37719 77.8865 0.116807C77.9223 0.0452278 77.9955 8.3494e-06 78.0755 8.3564e-06L81.8299 1.05522e-06C81.9093 1.06217e-06 81.9819 0.0449229 82.0173 0.115991C83.6339 3.3611 88.2656 3.35864 89.887 0.115892C89.9225 0.044916 89.995 1.76904e-06 90.0744 1.77598e-06L93.8708 2.10787e-06C93.9522 2.11498e-06 94.0267 0.0454733 94.0639 0.1178C95.7604 3.41618 100.476 3.41619 102.172 0.117808C102.21 0.0454817 102.284 1.04728e-05 102.365 1.04799e-05L106.206 1.23918e-05C106.294 1.23918e-05 106.375 0.047336 106.418 0.123592C108.373 3.57867 113.359 3.58384 115.305 0.123768C115.348 0.0473215 115.429 1.23918e-05 115.517 1.23918e-05H123.235C123.788 1.23918e-05 124.235 0.447728 124.235 1.00001V29.8191C124.235 29.9213 124.157 30.0065 124.055 30.0149C111.795 31.0264 111.795 48.9736 124.055 49.9851C124.157 49.9935 124.235 50.0787 124.235 50.1809V79ZM62.939 18.4748L67.5408 32.7533H82.448H85.8326L83.1021 34.7533L71.0342 43.5927L75.6408 57.886L76.6867 61.1312L73.936 59.1164L61.8883 50.2918L49.8406 59.1164L47.09 61.1312L48.1359 57.886L52.7424 43.5927L40.6746 34.7533L37.9441 32.7533H41.3287H56.2359L60.8377 18.4748L61.8883 15.2149L62.939 18.4748ZM67.5408 34.7533H79.7175L69.8524 41.9792L68.6878 42.8322L69.1306 44.2062L72.8901 55.8712L63.0701 48.6783L61.8883 47.8127L60.7065 48.6783L50.8865 55.8712L54.646 44.2062L55.0888 42.8322L53.9243 41.9792L44.0592 34.7533H56.2359H57.6926L58.1394 33.3668L61.8883 21.7348L65.6372 33.3668L66.0841 34.7533H67.5408Z" fill="#FFC700"/>
</svg>
