<svg width="111" height="154" viewBox="0 0 111 154" fill="none" xmlns="http://www.w3.org/2000/svg">
<g opacity="0.08">
<path d="M84.6484 66.6705V38.0234" stroke="#ED0C10" stroke-width="2"/>
<path d="M100.703 58.853L107.673 61.7358C108.354 62.0174 108.901 62.548 109.204 63.2195C109.686 64.2867 109.477 65.539 108.675 66.392L107.78 67.3436C107.184 67.9777 106.32 68.2882 105.457 68.1789L105.182 68.144C103.703 67.9568 102.395 69.1093 102.395 70.5997V81.5815C102.395 83.1426 101.614 84.6001 100.314 85.4643L99.9959 85.6758C98.4218 86.7222 96.3405 86.5778 94.926 85.324L94.8596 85.2652C94.0097 84.5119 93.5233 83.4306 93.5233 82.295C93.5233 80.9742 92.7945 79.7612 91.6284 79.141L91.2841 78.9579C90.6738 78.6334 89.9932 78.4636 89.302 78.4636H86.6792C85.7699 78.4636 84.8809 78.7322 84.1237 79.2356C83.2657 79.806 82.75 80.768 82.75 81.7983V81.9635C82.75 83.286 82.0882 84.5207 80.9868 85.2528L80.1471 85.8111C78.6702 86.7929 76.7337 86.7318 75.3216 85.659L74.8244 85.2813C73.8288 84.5249 73.2442 83.3465 73.2442 82.0962V73.4967C73.2442 71.9855 73.7613 70.5198 74.7095 69.3432C75.7866 68.0066 77.4108 67.2295 79.1273 67.2295H90.104C91.3902 67.2295 92.5333 66.4096 92.9457 65.1913L93.3911 63.8752C93.8876 62.4082 94.8566 61.1473 96.1464 60.2899L97.8959 59.1269C98.7278 58.5739 99.7804 58.4712 100.703 58.853Z" stroke="#ED0C10" stroke-width="2"/>
<path d="M26.3516 66.6705V38.0234" stroke="#ED0C10" stroke-width="2"/>
<path d="M31.8727 67.2295H20.896C19.6098 67.2295 18.4667 66.4096 18.0543 65.1913L17.596 63.837C17.1074 62.3935 16.1611 61.1489 14.9008 60.2921L13 59C12.25 58 10.75 58 10 59L7.5 60L3.325 61.7347C2.64555 62.017 2.09902 62.5473 1.79637 63.218C1.31435 64.2861 1.52347 65.5395 2.32616 66.3932L3.21965 67.3436C3.81585 67.9777 4.67952 68.2882 5.54301 68.1789L5.81836 68.144C7.29705 67.9568 8.60465 69.1093 8.60465 70.5997V81.5815C8.60465 83.1426 9.38592 84.6001 10.686 85.4643L11.0041 85.6758C12.5782 86.7222 14.6595 86.5778 16.074 85.324L16.1404 85.2652C16.9903 84.5119 17.4767 83.4306 17.4767 82.295C17.4767 80.9742 18.2055 79.7612 19.3716 79.141L19.7159 78.9579C20.3262 78.6334 21.0068 78.4636 21.698 78.4636H24.3208C25.2301 78.4636 26.1191 78.7322 26.8763 79.2356C27.7343 79.806 28.25 80.768 28.25 81.7983V81.9635C28.25 83.286 28.9118 84.5207 30.0132 85.2528L30.8529 85.8111C32.3298 86.7929 34.2663 86.7318 35.6784 85.659L36.1756 85.2813C37.1712 84.5249 37.7558 83.3465 37.7558 82.0962V73.4967C37.7558 71.9855 37.2387 70.5198 36.2905 69.3432C35.2134 68.0066 33.5892 67.2295 31.8727 67.2295Z" stroke="#ED0C10" stroke-width="2"/>
<rect x="46.9922" y="33.9531" width="17.0116" height="57.5698" stroke="#ED0C10" stroke-width="2"/>
<line y1="-1" x2="25.5775" y2="-1" transform="matrix(-0.668965 0.743294 -0.718545 -0.69548 63.1016 38.0234)" stroke="#ED0C10" stroke-width="2"/>
<line y1="-1" x2="25.5775" y2="-1" transform="matrix(-0.668965 0.743294 -0.718545 -0.69548 63.1016 55.7656)" stroke="#ED0C10" stroke-width="2"/>
<line y1="-1" x2="23.8179" y2="-1" transform="matrix(-0.667073 0.744993 -0.72032 -0.693642 63.1016 73.5117)" stroke="#ED0C10" stroke-width="2"/>
<path d="M32.1455 92.2539H78.8525C86.052 92.2539 91.8887 98.0906 91.8887 105.29C91.8885 106.086 91.243 106.73 90.4473 106.73H20.5508C19.7551 106.73 19.1096 106.086 19.1094 105.29C19.1094 98.0906 24.9461 92.2539 32.1455 92.2539Z" stroke="#ED0C10" stroke-width="2"/>
<path d="M46.9583 2.21802L47.2571 2.13568C52.3254 0.738999 57.6808 0.767491 62.7339 2.21802V2.21802M46.9583 2.21802L43.9016 3.06036C40.5783 3.97616 37.3293 5.14293 34.1827 6.5506L31.7843 7.62353C27.1172 9.71139 22.792 12.4918 18.9548 15.8707V15.8707C14.6881 19.6279 11.0823 24.0746 8.28758 29.0255L6.15085 32.8108C6.11485 32.8746 6.16092 32.9535 6.23414 32.9535H35.046M46.9583 2.21802L44.3016 5.21525C37.5662 12.8142 34.2233 22.8326 35.046 32.9535V32.9535M35.046 32.9535H75.9551M62.7339 2.21802L70.4608 4.43605L76.1476 6.86947C82.1842 9.45259 87.7295 13.0588 92.5388 17.5291V17.5291C95.4125 20.2003 98.0029 23.1608 100.269 26.3637L104.819 32.7957C104.866 32.862 104.819 32.9535 104.738 32.9535H75.9551M62.7339 2.21802L65.604 5.37896C72.4453 12.9136 76.1483 22.7781 75.9551 32.9535V32.9535" stroke="#ED0C10" stroke-width="2"/>
<path d="M7.33594 33.5868V33.5868C8.30057 45.6127 25.9582 44.9741 26.9813 32.9531V32.9531V32.9531C27.9034 44.6335 45.0659 45.2668 45.9929 33.5868V33.5868V33.5868C46.9222 45.2952 64.0753 45.2952 65.0045 33.5868V33.5868V33.5868C66.0336 45.6145 83.6898 44.9865 84.6499 32.9531V32.9531V32.9531C85.666 45.0199 103.342 45.025 104.295 32.9531V32.9531" stroke="#ED0C10" stroke-width="2"/>
</g>
</svg>
