<svg width="101" height="25" viewBox="0 0 101 25" fill="none" xmlns="http://www.w3.org/2000/svg">
<path d="M101 16.2162C101 7.26025 93.7398 0 84.7838 0H2.72973L42.5058 3.92857L21.9126 4.50893L35.0965 4.79911H13.6487L32.3668 5.25298L2.72973 5.41667L40.166 8.92857L25.1498 9.64286L36.6564 10L10.1337 10.3571L38.6062 12.5L0 12.9167L36.4387 15.1971C36.6848 15.2125 36.6904 15.5729 36.4448 15.5958L20.8629 17.0536L37.8263 17.9018L2.72973 18.75L29.6371 19.5312L11.9846 20.3125L20.0714 21.6778C20.2937 21.7153 20.2937 22.0347 20.0714 22.0722L11.9846 23.4375L31.1969 24.2188L2.72973 25H92.2162C97.0674 25 101 21.0674 101 16.2162Z" fill="#FFE605"/>
</svg>
