<?xml version="1.0" encoding="UTF-8"?>
<svg version="1.1" xmlns="http://www.w3.org/2000/svg" width="303" height="75">
<path d="M0 0 C32.28121092 -0.09133812 64.56238494 -0.1620839 96.84369497 -0.20426132 C100.65865493 -0.20926388 104.47361464 -0.21444119 108.28857422 -0.21972656 C109.42776278 -0.22130043 109.42776278 -0.22130043 110.58996525 -0.22290608 C122.87153193 -0.24029017 135.15302337 -0.2718168 147.43454549 -0.30861118 C160.04553713 -0.34607628 172.65648949 -0.3682476 185.26753449 -0.37635398 C193.043229 -0.38183024 200.81871081 -0.3990984 208.59433982 -0.43166587 C214.56638269 -0.45539825 220.53824433 -0.45780585 226.51033974 -0.45243073 C228.95317452 -0.45352817 231.39601761 -0.46144475 233.83880424 -0.4768219 C257.56018122 -0.61878018 257.56018122 -0.61878018 267 4 C268.08796875 4.52980469 269.1759375 5.05960937 270.296875 5.60546875 C282.75747538 13.64136549 290.56206825 24.45490414 294 39 C295.13404781 48.57588091 295.09438474 58.07883495 289 66 C284.58939617 70.90299903 279.22713124 74.52364535 272.55650818 75.27535665 C269.61914286 75.37750197 266.6951932 75.38532359 263.75611877 75.36076355 C262.63124445 75.36332682 261.50637013 75.3658901 260.34740871 75.36853105 C256.58245231 75.37346795 252.81789791 75.35697693 249.05297852 75.34057617 C246.35246376 75.33972988 243.65197355 75.34007302 240.95146179 75.34190369 C235.13966787 75.34347468 229.3279752 75.3340837 223.51620674 75.31719017 C215.11344236 75.29278113 206.71072681 75.28499296 198.30793082 75.2812262 C184.67409086 75.2746647 171.04030483 75.25471173 157.40649414 75.22631836 C144.1646349 75.19876998 130.92279032 75.17754021 117.6809082 75.16479492 C116.86431048 75.16400675 116.04771276 75.16321858 115.20636965 75.16240653 C111.10962866 75.15849134 107.01288756 75.15470023 102.9161464 75.15097082 C68.94405849 75.1198843 34.97203586 75.06705672 1 75 C1 74.67 1 74.34 1 74 C2.08418213 73.97494385 3.16836426 73.9498877 4.28540039 73.92407227 C8.33156909 73.82946071 12.37758747 73.72937414 16.42358398 73.62768555 C18.17029285 73.58453898 19.9170384 73.54285083 21.66381836 73.50268555 C24.18354316 73.44448831 26.70308671 73.38094003 29.22265625 73.31640625 C29.99585709 73.29969376 30.76905792 73.28298126 31.56568909 73.26576233 C32.67604774 73.2358445 32.67604774 73.2358445 33.80883789 73.20532227 C34.77147301 73.18200584 34.77147301 73.18200584 35.7535553 73.15821838 C38.8521137 72.93998515 41.92498518 72.43928783 45 72 C39.06 71.67 33.12 71.34 27 71 C29.27257484 68.72742516 30.05331841 68.62554222 33.1328125 68.1484375 C33.93847656 68.01953125 34.74414062 67.890625 35.57421875 67.7578125 C36.41597656 67.63148437 37.25773437 67.50515625 38.125 67.375 C39.39923828 67.17390625 39.39923828 67.17390625 40.69921875 66.96875 C42.79834644 66.63855014 44.89903911 66.31832741 47 66 C41.42348279 64.5593497 35.91681745 63.43972979 30.22265625 62.5625 C29.12244141 62.2840625 29.12244141 62.2840625 28 62 C27.67 61.34 27.34 60.68 27 60 C34.26 59.67 41.52 59.34 49 59 C33.16 58.34 17.32 57.68 1 57 C1 56.67 1 56.34 1 56 C11.32425667 54.77893103 21.68118205 54.7005599 32.0625 54.5 C45.06573462 54.24524469 58.01708638 53.79123902 71 53 C65.39 52.67 59.78 52.34 54 52 C56.84279697 49.15720303 59.07778853 49.51537037 63.0546875 49.18359375 C63.75264435 49.12220718 64.4506012 49.06082062 65.16970825 48.99757385 C67.40417094 48.80238633 69.63941598 48.61935441 71.875 48.4375 C74.10321495 48.25009129 76.33116481 48.06010696 78.55886841 47.86671448 C80.58552024 47.69172456 82.61281824 47.52426717 84.64013672 47.35717773 C87.23657457 47.08115764 89.49781991 46.66772439 92 46 C90.2092807 45.89390915 90.2092807 45.89390915 88.38238525 45.78567505 C77.13993464 45.11847484 65.89806849 44.4421037 54.65671158 43.75671577 C48.87720097 43.40463459 43.09753211 43.05580405 37.31738281 42.71435547 C31.74076801 42.38481094 26.16472629 42.04678908 20.58898163 41.70284653 C18.46008307 41.57302746 16.3309949 41.44628056 14.20172882 41.32263565 C11.22279491 41.1491281 8.24471815 40.9647766 5.26660156 40.77783203 C3.94166687 40.70446121 3.94166687 40.70446121 2.58996582 40.62960815 C1.77670837 40.5763739 0.96345093 40.52313965 0.12554932 40.46829224 C-0.57870052 40.42588976 -1.28295036 40.38348728 -2.00854111 40.33979988 C-4.28918468 39.95065682 -5.98802749 39.12107569 -8 38 C-7.09068726 37.98969254 -6.18137451 37.97938507 -5.24450684 37.96876526 C3.34728975 37.87057042 11.93902124 37.76802583 20.53070831 37.66066074 C24.94720599 37.60562214 29.36371048 37.55223393 33.78027344 37.50268555 C38.04674171 37.45475918 42.31313535 37.4024086 46.57951355 37.34705925 C48.20287707 37.32676304 49.82626096 37.30803005 51.44966125 37.29092598 C53.73279125 37.26659738 56.01578394 37.23658552 58.29882812 37.20532227 C59.59566528 37.18977798 60.89250244 37.1742337 62.2286377 37.15821838 C66.16790772 36.99295584 70.08771119 36.4890361 74 36 C56.84 34.68 39.68 33.36 22 32 C22 31.67 22 31.34 22 31 C30.98960104 29.76041422 40.00366373 29.66048954 49.0625 29.4375 C50.70769144 29.39422681 52.35287389 29.35060998 53.99804688 29.30664062 C57.99860506 29.20046162 61.99925663 29.09894483 66 29 C66 28.67 66 28.34 66 28 C66.60473145 27.97494385 67.20946289 27.9498877 67.83251953 27.92407227 C70.5968562 27.80736994 73.36091366 27.68498266 76.125 27.5625 C77.55199219 27.50352539 77.55199219 27.50352539 79.0078125 27.44335938 C79.9359375 27.40146484 80.8640625 27.35957031 81.8203125 27.31640625 C83.09285889 27.26141968 83.09285889 27.26141968 84.39111328 27.20532227 C87.30022799 26.97637173 90.12516682 26.49367369 93 26 C91.95287842 25.901996 90.90575684 25.803992 89.8269043 25.70301819 C79.94002344 24.77750499 70.05326575 23.85068582 60.16662598 22.92260075 C55.08428943 22.44555034 50.00191118 21.96895388 44.91943359 21.4934082 C40.01101667 21.03413156 35.10271459 20.57364506 30.19448853 20.1123333 C28.32553108 19.93688653 26.45653324 19.76186956 24.5874939 19.58729744 C21.96186558 19.34198297 19.33638743 19.09511565 16.7109375 18.84790039 C15.94488693 18.77668976 15.17883636 18.70547913 14.38957214 18.6321106 C9.57955339 18.17715344 4.79164487 17.61983908 0 17 C0 16.67 0 16.34 0 16 C10.89 15.67 21.78 15.34 33 15 C33 14.67 33 14.34 33 14 C55.44 13.01 77.88 12.02 101 11 C51.005 6.05 51.005 6.05 0 1 C0 0.67 0 0.34 0 0 Z " fill="#FDE405" transform="translate(9,0)"/>
<path d="M0 0 C1.32 0 2.64 0 4 0 C4 8.91 4 17.82 4 27 C0.04 27 -3.92 27 -8 27 C-12 23 -12 23 -12.49609375 20.34375 C-12.47675781 19.4053125 -12.45742187 18.466875 -12.4375 17.5 C-12.43621094 16.5615625 -12.43492187 15.623125 -12.43359375 14.65625 C-11.93066349 11.57523579 -11.24363864 10.1627868 -9 8 C-6.23857697 7.47200324 -3.83634455 7.81401019 -1 8 C-0.67 5.36 -0.34 2.72 0 0 Z " fill="#3F3B16" transform="translate(258,24)"/>
<path d="M0 0 C1.18722656 -0.05607422 1.18722656 -0.05607422 2.3984375 -0.11328125 C4.625 0.3125 4.625 0.3125 6.40234375 1.84765625 C8.08531405 5.24048137 7.94863511 8.36939883 7.8125 12.0625 C7.79896484 12.75988281 7.78542969 13.45726562 7.77148438 14.17578125 C7.7362945 15.88835541 7.68249155 17.60052941 7.625 19.3125 C5.50027424 19.36636629 3.37516348 19.40523071 1.25 19.4375 C0.06664062 19.46070312 -1.11671875 19.48390625 -2.3359375 19.5078125 C-5.375 19.3125 -5.375 19.3125 -7.375 17.3125 C-7.8125 13.875 -7.8125 13.875 -7.375 10.3125 C-4.56604748 7.75139623 -2.85093344 7.33943963 0.9375 7.125 C1.824375 7.186875 2.71125 7.24875 3.625 7.3125 C3.295 5.6625 2.965 4.0125 2.625 2.3125 C1.7175 2.621875 0.81 2.93125 -0.125 3.25 C-2.54063338 4.0397263 -4.90280285 4.74199297 -7.375 5.3125 C-5.29502249 1.01387981 -4.85109314 0.14914364 0 0 Z " fill="#3A3717" transform="translate(171.375,31.6875)"/>
<path d="M0 0 C2 1.625 2 1.625 3 4 C3 5.98 3 7.96 3 10 C-0.96 10 -4.92 10 -9 10 C-8.34 11.65 -7.68 13.3 -7 15 C-4.04049744 16.16822469 -2.64403708 16.26109611 0.3125 15.0625 C0.869375 14.711875 1.42625 14.36125 2 14 C2 15.32 2 16.64 2 18 C-1.23176757 19.61588379 -4.50615283 19.57451407 -8 19 C-11 17 -11 17 -13 14 C-13.67996257 10.38546213 -13.38490001 7.12509232 -12.1875 3.625 C-9.02231154 -0.70631052 -4.88666899 -0.81444483 0 0 Z " fill="#2D2B18" transform="translate(239,32)"/>
<path d="M0 0 C2.4375 1.625 2.4375 1.625 4 4 C4 5.98 4 7.96 4 10 C-0.29 10 -4.58 10 -9 10 C-6.69486924 15.02576204 -6.69486924 15.02576204 -3.625 15.875 C-0.89061985 16.00520858 1.35566698 15.67997135 4 15 C4 15.66 4 16.32 4 17 C0.33218328 19.44521115 -2.73453233 19.72237759 -7 19 C-9.43119623 17.12984906 -10.64069173 15.71861655 -12 13 C-12.37677003 8.00779715 -12.07396361 5.01979857 -9 1 C-5.90826248 -0.54586876 -3.40570448 -0.29359521 0 0 Z " fill="#2A2818" transform="translate(156,32)"/>
<path d="M0 0 C1.32 0 2.64 0 4 0 C4.33 4.95 4.66 9.9 5 15 C6.98 15 8.96 15 11 15 C11.33 10.05 11.66 5.1 12 0 C12.99 0 13.98 0 15 0 C15 6.27 15 12.54 15 19 C13.081875 19.0825 11.16375 19.165 9.1875 19.25 C7.56908203 19.31960937 7.56908203 19.31960937 5.91796875 19.390625 C3 19 3 19 1.125 17.46875 C-0.42602029 14.06512214 -0.32234976 10.90823196 -0.1875 7.25 C-0.17396484 6.55261719 -0.16042969 5.85523438 -0.14648438 5.13671875 C-0.1112945 3.42414459 -0.05749155 1.71197059 0 0 Z " fill="#3F3B16" transform="translate(195,32)"/>
<path d="M0 0 C5.28 0 10.56 0 16 0 C16 0.99 16 1.98 16 3 C11.71 3 7.42 3 3 3 C3 5.97 3 8.94 3 12 C6.63 12 10.26 12 14 12 C14 12.99 14 13.98 14 15 C10.37 15 6.74 15 3 15 C3 18.63 3 22.26 3 26 C2.01 26 1.02 26 0 26 C0 17.42 0 8.84 0 0 Z " fill="#272618" transform="translate(126,25)"/>
<path d="M0 0 C2.9375 0.1875 2.9375 0.1875 3.9375 1.1875 C4.03601171 3.01865883 4.06722629 4.85369933 4.0625 6.6875 C4.06507813 7.6878125 4.06765625 8.688125 4.0703125 9.71875 C3.9375 12.1875 3.9375 12.1875 2.9375 13.1875 C0 13.375 0 13.375 -3.0625 13.1875 C-5.0625 11.1875 -5.0625 11.1875 -5.328125 9.09375 C-5.32039062 7.90265625 -5.32039062 7.90265625 -5.3125 6.6875 C-5.31765625 5.8934375 -5.3228125 5.099375 -5.328125 4.28125 C-4.86589265 0.63777151 -3.50610262 0.21465934 0 0 Z " fill="#FBE305" transform="translate(254.0625,34.8125)"/>
<path d="M0 0 C2.97851562 0.1953125 2.97851562 0.1953125 5.95703125 0.390625 C5.62703125 1.380625 5.29703125 2.370625 4.95703125 3.390625 C1.89453125 4.578125 1.89453125 4.578125 -1.04296875 5.390625 C-1.04296875 8.360625 -1.04296875 11.330625 -1.04296875 14.390625 C1.92703125 15.380625 4.89703125 16.370625 7.95703125 17.390625 C7.62703125 18.050625 7.29703125 18.710625 6.95703125 19.390625 C-0.1415603 19.86386444 -0.1415603 19.86386444 -3.54296875 18.078125 C-5.93524047 13.79197151 -5.82520695 9.18271487 -5.04296875 4.390625 C-2.9642313 0.56677463 -2.9642313 0.56677463 0 0 Z " fill="#333117" transform="translate(251.04296875,31.609375)"/>
<path d="M0 0 C3.3 0 6.6 0 10 0 C10 0.99 10 1.98 10 3 C8.35 3.33 6.7 3.66 5 4 C4.67 8.95 4.34 13.9 4 19 C2.68 19 1.36 19 0 19 C0 12.73 0 6.46 0 0 Z " fill="#3E3A16" transform="translate(215,32)"/>
<path d="M0 0 C0.99 0 1.98 0 3 0 C3 1.65 3 3.3 3 5 C3.99 5 4.98 5 6 5 C6 5.66 6 6.32 6 7 C5.01 7 4.02 7 3 7 C3.33 11.62 3.66 16.24 4 21 C4.99 21.33 5.98 21.66 7 22 C7 22.66 7 23.32 7 24 C4.625 24.125 4.625 24.125 2 24 C0 22 0 22 -0.1953125 18.5234375 C-0.18201493 17.14049032 -0.15816232 15.75761346 -0.125 14.375 C-0.11597656 13.66859375 -0.10695312 12.9621875 -0.09765625 12.234375 C-0.07407603 10.48943902 -0.03820461 8.74467705 0 7 C-0.99 7 -1.98 7 -3 7 C-3 6.34 -3 5.68 -3 5 C-2.01 5 -1.02 5 0 5 C0 3.35 0 1.7 0 0 Z " fill="#1E1E19" transform="translate(185,27)"/>
<path d="M0 0 C0.99 0 1.98 0 3 0 C3 6.27 3 12.54 3 19 C2.34 19 1.68 19 1 19 C1 18.34 1 17.68 1 17 C0.34 17 -0.32 17 -1 17 C-0.67 11.39 -0.34 5.78 0 0 Z " fill="#212019" transform="translate(207,32)"/>
<path d="M0 0 C1.8871875 0.061875 1.8871875 0.061875 3.8125 0.125 C1.48035852 1.33128008 -0.68392139 2.2904738 -3.1875 3.125 C-3.1875 4.445 -3.1875 5.765 -3.1875 7.125 C-2.548125 7.228125 -1.90875 7.33125 -1.25 7.4375 C-0.569375 7.664375 0.11125 7.89125 0.8125 8.125 C1.1425 9.115 1.4725 10.105 1.8125 11.125 C-1.5625 11.25 -1.5625 11.25 -5.1875 11.125 C-7.1875 9.125 -7.1875 9.125 -7.5 5.625 C-7.396875 4.47 -7.29375 3.315 -7.1875 2.125 C-4.09861478 0.06574319 -3.47814073 -0.1140374 0 0 Z " fill="#2B2918" transform="translate(171.1875,39.875)"/>
<path d="M0 0 C1.134375 0.020625 2.26875 0.04125 3.4375 0.0625 C3.480221 1.72861905 3.47813832 3.39632885 3.4375 5.0625 C2.4375 6.0625 2.4375 6.0625 -0.625 6.125 C-1.594375 6.104375 -2.56375 6.08375 -3.5625 6.0625 C-3.94468767 4.40635343 -4.27645102 2.73792976 -4.5625 1.0625 C-3.5625 0.0625 -3.5625 0.0625 0 0 Z " fill="#F5DD05" transform="translate(171.5625,41.9375)"/>
<path d="M0 0 C2.625 0.375 2.625 0.375 5 1 C5.33 2.65 5.66 4.3 6 6 C3.03 6 0.06 6 -3 6 C-2 2 -2 2 0 0 Z " fill="#E3CD07" transform="translate(233,34)"/>
<path d="M0 0 C1.32 0 2.64 0 4 0 C6 3 6 3 6 6 C3.03 6 0.06 6 -3 6 C-2 2 -2 2 0 0 Z " fill="#E5CF07" transform="translate(151,34)"/>
</svg>
