<svg width="94" height="97" viewBox="0 0 94 97" fill="none" xmlns="http://www.w3.org/2000/svg">
<path d="M29 66.95L65 30.05M84.8793 35.6603C83.5579 33.853 82.8238 31.895 82.5302 29.6358L81.3556 21.3521C80.7683 16.9844 77.3915 13.5203 72.9869 12.7672L64.9119 11.5623C62.8564 11.2611 60.801 10.3574 59.0391 9.15255L52.7259 4.33296C50.9641 2.97745 48.9086 2.375 46.8532 2.375C44.7977 2.375 42.7422 2.97745 40.9804 4.33296L34.5204 9.30316C32.7586 10.6587 30.8499 11.4117 28.6476 11.713L20.7194 12.9179C16.4617 13.5203 13.0848 16.9844 12.3507 21.5028L11.1762 29.7864C10.8825 31.895 10.0016 34.0036 8.82708 35.8109L3.98206 42.4379C1.33931 46.0526 1.33931 51.0228 3.98206 54.4868L8.82708 61.1138C10.1485 62.9211 10.8825 64.8791 11.1762 67.1383L12.3507 75.4219C12.938 79.7897 16.3148 83.2538 20.7194 84.0068L28.7945 85.2117C30.8499 85.513 32.9054 86.4166 34.6672 87.6215L41.1272 92.5917C44.6509 95.3028 49.4959 95.3028 52.8728 92.5917L59.3328 87.6215C61.0946 86.266 63.0033 85.513 65.2056 85.2117L73.2806 84.0068C77.5383 83.4044 80.9152 79.9403 81.6493 75.4219L82.8238 67.1383C83.1175 65.0297 83.9984 62.9211 85.1729 61.1138L90.0179 54.4868C92.6607 50.8721 92.6607 45.9019 90.0179 42.4379L84.8793 35.6603ZM36.2 33.74C36.2 35.7779 34.5882 37.43 32.6 37.43C30.6118 37.43 29 35.7779 29 33.74C29 31.7021 30.6118 30.05 32.6 30.05C34.5882 30.05 36.2 31.7021 36.2 33.74ZM65 63.26C65 65.2979 63.3882 66.95 61.4 66.95C59.4118 66.95 57.8 65.2979 57.8 63.26C57.8 61.2221 59.4118 59.57 61.4 59.57C63.3882 59.57 65 61.2221 65 63.26Z" stroke="#257CDB" stroke-width="3" stroke-linecap="round"/>
</svg>
