<svg width="86" height="28" viewBox="0 0 86 28" fill="none" xmlns="http://www.w3.org/2000/svg">
<rect width="86" height="28" rx="14" fill="white"/>
<path d="M21.3335 10.667L14.6668 17.3337L11.3335 14.0003" stroke="#666666" stroke-width="1.5" stroke-linecap="round" stroke-linejoin="round"/>
<path d="M34.1484 10.2246L31.3242 18H30.1699L33.4219 9.46875H34.166L34.1484 10.2246ZM36.5156 18L33.6855 10.2246L33.668 9.46875H34.4121L37.6758 18H36.5156ZM36.3691 14.8418V15.7676H31.5762V14.8418H36.3691ZM42.4629 16.5352V11.6602H43.5527V18H42.5156L42.4629 16.5352ZM42.668 15.1992L43.1191 15.1875C43.1191 15.6094 43.0742 16 42.9844 16.3594C42.8984 16.7148 42.7578 17.0234 42.5625 17.2852C42.3672 17.5469 42.1113 17.752 41.7949 17.9004C41.4785 18.0449 41.0938 18.1172 40.6406 18.1172C40.332 18.1172 40.0488 18.0723 39.791 17.9824C39.5371 17.8926 39.3184 17.7539 39.1348 17.5664C38.9512 17.3789 38.8086 17.1348 38.707 16.834C38.6094 16.5332 38.5605 16.1719 38.5605 15.75V11.6602H39.6445V15.7617C39.6445 16.0469 39.6758 16.2832 39.7383 16.4707C39.8047 16.6543 39.8926 16.8008 40.002 16.9102C40.1152 17.0156 40.2402 17.0898 40.377 17.1328C40.5176 17.1758 40.6621 17.1973 40.8105 17.1973C41.2715 17.1973 41.6367 17.1094 41.9062 16.9336C42.1758 16.7539 42.3691 16.5137 42.4863 16.2129C42.6074 15.9082 42.668 15.5703 42.668 15.1992ZM47.8594 11.6602V12.4922H44.4316V11.6602H47.8594ZM45.5918 10.1191H46.6758V16.4297C46.6758 16.6445 46.709 16.8066 46.7754 16.916C46.8418 17.0254 46.9277 17.0977 47.0332 17.1328C47.1387 17.168 47.252 17.1855 47.373 17.1855C47.4629 17.1855 47.5566 17.1777 47.6543 17.1621C47.7559 17.1426 47.832 17.127 47.8828 17.1152L47.8887 18C47.8027 18.0273 47.6895 18.0527 47.5488 18.0762C47.4121 18.1035 47.2461 18.1172 47.0508 18.1172C46.7852 18.1172 46.541 18.0645 46.3184 17.959C46.0957 17.8535 45.918 17.6777 45.7852 17.4316C45.6562 17.1816 45.5918 16.8457 45.5918 16.4238V10.1191ZM48.7266 14.9004V14.7656C48.7266 14.3086 48.793 13.8848 48.9258 13.4941C49.0586 13.0996 49.25 12.7578 49.5 12.4688C49.75 12.1758 50.0527 11.9492 50.4082 11.7891C50.7637 11.625 51.1621 11.543 51.6035 11.543C52.0488 11.543 52.4492 11.625 52.8047 11.7891C53.1641 11.9492 53.4688 12.1758 53.7188 12.4688C53.9727 12.7578 54.166 13.0996 54.2988 13.4941C54.4316 13.8848 54.498 14.3086 54.498 14.7656V14.9004C54.498 15.3574 54.4316 15.7812 54.2988 16.1719C54.166 16.5625 53.9727 16.9043 53.7188 17.1973C53.4688 17.4863 53.166 17.7129 52.8105 17.877C52.459 18.0371 52.0605 18.1172 51.6152 18.1172C51.1699 18.1172 50.7695 18.0371 50.4141 17.877C50.0586 17.7129 49.7539 17.4863 49.5 17.1973C49.25 16.9043 49.0586 16.5625 48.9258 16.1719C48.793 15.7812 48.7266 15.3574 48.7266 14.9004ZM49.8105 14.7656V14.9004C49.8105 15.2168 49.8477 15.5156 49.9219 15.7969C49.9961 16.0742 50.1074 16.3203 50.2559 16.5352C50.4082 16.75 50.5977 16.9199 50.8242 17.0449C51.0508 17.166 51.3145 17.2266 51.6152 17.2266C51.9121 17.2266 52.1719 17.166 52.3945 17.0449C52.6211 16.9199 52.8086 16.75 52.957 16.5352C53.1055 16.3203 53.2168 16.0742 53.291 15.7969C53.3691 15.5156 53.4082 15.2168 53.4082 14.9004V14.7656C53.4082 14.4531 53.3691 14.1582 53.291 13.8809C53.2168 13.5996 53.1035 13.3516 52.9512 13.1367C52.8027 12.918 52.6152 12.7461 52.3887 12.6211C52.166 12.4961 51.9043 12.4336 51.6035 12.4336C51.3066 12.4336 51.0449 12.4961 50.8184 12.6211C50.5957 12.7461 50.4082 12.918 50.2559 13.1367C50.1074 13.3516 49.9961 13.5996 49.9219 13.8809C49.8477 14.1582 49.8105 14.4531 49.8105 14.7656ZM62.1445 14.6543H59.8652V13.7344H62.1445C62.5859 13.7344 62.9434 13.6641 63.2168 13.5234C63.4902 13.3828 63.6895 13.1875 63.8145 12.9375C63.9434 12.6875 64.0078 12.4023 64.0078 12.082C64.0078 11.7891 63.9434 11.5137 63.8145 11.2559C63.6895 10.998 63.4902 10.791 63.2168 10.6348C62.9434 10.4746 62.5859 10.3945 62.1445 10.3945H60.1289V18H58.998V9.46875H62.1445C62.7891 9.46875 63.334 9.58008 63.7793 9.80273C64.2246 10.0254 64.5625 10.334 64.793 10.7285C65.0234 11.1191 65.1387 11.5664 65.1387 12.0703C65.1387 12.6172 65.0234 13.084 64.793 13.4707C64.5625 13.8574 64.2246 14.1523 63.7793 14.3555C63.334 14.5547 62.7891 14.6543 62.1445 14.6543ZM70.0723 16.916V13.6523C70.0723 13.4023 70.0215 13.1855 69.9199 13.002C69.8223 12.8145 69.6738 12.6699 69.4746 12.5684C69.2754 12.4668 69.0293 12.416 68.7363 12.416C68.4629 12.416 68.2227 12.4629 68.0156 12.5566C67.8125 12.6504 67.6523 12.7734 67.5352 12.9258C67.4219 13.0781 67.3652 13.2422 67.3652 13.418H66.2812C66.2812 13.1914 66.3398 12.9668 66.457 12.7441C66.5742 12.5215 66.7422 12.3203 66.9609 12.1406C67.1836 11.957 67.4492 11.8125 67.7578 11.707C68.0703 11.5977 68.418 11.543 68.8008 11.543C69.2617 11.543 69.668 11.6211 70.0195 11.7773C70.375 11.9336 70.6523 12.1699 70.8516 12.4863C71.0547 12.7988 71.1562 13.1914 71.1562 13.6641V16.6172C71.1562 16.8281 71.1738 17.0527 71.209 17.291C71.248 17.5293 71.3047 17.7344 71.3789 17.9062V18H70.248C70.1934 17.875 70.1504 17.709 70.1191 17.502C70.0879 17.291 70.0723 17.0957 70.0723 16.916ZM70.2598 14.1562L70.2715 14.918H69.1758C68.8672 14.918 68.5918 14.9434 68.3496 14.9941C68.1074 15.041 67.9043 15.1133 67.7402 15.2109C67.5762 15.3086 67.4512 15.4316 67.3652 15.5801C67.2793 15.7246 67.2363 15.8945 67.2363 16.0898C67.2363 16.2891 67.2812 16.4707 67.3711 16.6348C67.4609 16.7988 67.5957 16.9297 67.7754 17.0273C67.959 17.1211 68.1836 17.168 68.4492 17.168C68.7812 17.168 69.0742 17.0977 69.3281 16.957C69.582 16.8164 69.7832 16.6445 69.9316 16.4414C70.084 16.2383 70.166 16.041 70.1777 15.8496L70.6406 16.3711C70.6133 16.5352 70.5391 16.7168 70.418 16.916C70.2969 17.1152 70.1348 17.3066 69.9316 17.4902C69.7324 17.6699 69.4941 17.8203 69.2168 17.9414C68.9434 18.0586 68.6348 18.1172 68.291 18.1172C67.8613 18.1172 67.4844 18.0332 67.1602 17.8652C66.8398 17.6973 66.5898 17.4727 66.4102 17.1914C66.2344 16.9062 66.1465 16.5879 66.1465 16.2363C66.1465 15.8965 66.2129 15.5977 66.3457 15.3398C66.4785 15.0781 66.6699 14.8613 66.9199 14.6895C67.1699 14.5137 67.4707 14.3809 67.8223 14.291C68.1738 14.2012 68.5664 14.1562 69 14.1562H70.2598ZM74.5488 17.3438L76.3125 11.6602H77.4727L74.9297 18.9785C74.8711 19.1348 74.793 19.3027 74.6953 19.4824C74.6016 19.666 74.4805 19.8398 74.332 20.0039C74.1836 20.168 74.0039 20.3008 73.793 20.4023C73.5859 20.5078 73.3379 20.5605 73.0488 20.5605C72.9629 20.5605 72.8535 20.5488 72.7207 20.5254C72.5879 20.502 72.4941 20.4824 72.4395 20.4668L72.4336 19.5879C72.4648 19.5918 72.5137 19.5957 72.5801 19.5996C72.6504 19.6074 72.6992 19.6113 72.7266 19.6113C72.9727 19.6113 73.1816 19.5781 73.3535 19.5117C73.5254 19.4492 73.6699 19.3418 73.7871 19.1895C73.9082 19.041 74.0117 18.8359 74.0977 18.5742L74.5488 17.3438ZM73.2539 11.6602L74.9004 16.582L75.1816 17.7246L74.4023 18.123L72.0703 11.6602H73.2539Z" fill="#666666"/>
</svg>
