<svg width="24" height="24" viewBox="0 0 24 24" fill="none" xmlns="http://www.w3.org/2000/svg">
<path d="M5 12.1992L8.62315 15.0709" stroke="#000000" stroke-width="1.5" stroke-linecap="round"/>
<path d="M12.5908 3L16.214 5.87166" stroke="#000000" stroke-width="1.5" stroke-linecap="round"/>
<path d="M6.97629 10.0917L7.17434 9.11303L6.97629 10.0917ZM6.97629 10.0917L6.97629 10.0917M6.97629 10.0917C6.97629 10.0917 6.97629 10.0917 6.97629 10.0917M6.97629 10.0917C6.90538 10.4421 7.03717 10.8026 7.31732 11.0246L9.36444 12.6472C9.62134 12.8508 9.94795 12.9453 10.2739 12.9104L10.7512 12.8594L10.6714 12.1136M6.97629 10.0917L10.6714 12.1136M10.6714 12.1136L10.7512 12.8594C10.9784 12.835 11.1946 12.7489 11.3762 12.6104L10.9214 12.014L11.3762 12.6104L12.7104 11.5928M10.6714 12.1136L12.7104 11.5928M12.7104 11.5928L16.3723 14.3419C16.424 14.3807 16.4578 14.439 16.4658 14.5033L17.2101 14.4107L16.4658 14.5033C16.5221 14.9557 16.7539 15.368 17.1112 15.6512L19.528 17.5667C19.9969 17.9384 20.5931 18.111 21.1881 18.0473C21.5137 18.0124 21.8118 17.8482 22.0152 17.5915L22.1287 17.4483C22.3321 17.1917 22.424 16.864 22.3835 16.539C22.3097 15.9452 22.0055 15.4042 21.5366 15.0325L19.1319 13.1266C18.7668 12.8372 18.3027 12.7029 17.8394 12.7524C17.7699 12.7599 17.7001 12.7407 17.6441 12.6987L13.9581 9.93144L14.3482 8.84001C14.414 8.65593 14.4357 8.45898 14.4116 8.26499L14.3497 7.76799C14.3093 7.44269 14.1426 7.1463 13.8857 6.94268L11.8386 5.32016C11.5585 5.09812 11.1774 5.05214 10.8525 5.20118L11.1652 5.88288L10.8525 5.20118L9.94487 5.61748C9.80599 5.68119 9.67186 5.75478 9.54353 5.83771C8.50344 6.50977 7.71389 7.50593 7.2971 8.67201C7.24567 8.81589 7.20465 8.96328 7.17434 9.11303L12.7104 11.5928Z" stroke="#000000" stroke-width="1.5"/>
<path d="M14 21V20C14 18.8954 13.1046 18 12 18H4C2.89543 18 2 18.8954 2 20V21H8" stroke="#000000" stroke-width="1.5"/>
</svg>
