<svg width="83" height="101" viewBox="0 0 83 101" fill="none" xmlns="http://www.w3.org/2000/svg">
<g opacity="0.06">
<path d="M12.5234 53.3125L48.0466 53.3125" stroke="#223369" stroke-width="1.5" stroke-linecap="round"/>
<path d="M12.5234 62.5195L58.572 62.5195" stroke="#223369" stroke-width="1.5" stroke-linecap="round"/>
<path d="M12.5234 71.7305L58.572 71.7305" stroke="#223369" stroke-width="1.5" stroke-linecap="round"/>
<path d="M12.5234 80.4844L48.0466 80.4844" stroke="#223369" stroke-width="1.5" stroke-linecap="round"/>
<path d="M12.5234 90.1484L58.572 90.1484" stroke="#223369" stroke-width="1.5" stroke-linecap="round"/>
<path d="M58.4062 21.6365V6.32812L74.2989 23.6365H60.4062C59.3017 23.6365 58.4062 22.7411 58.4062 21.6365Z" stroke="#223369" stroke-width="3"/>
<path d="M17.4933 2L48.3308 2V25.0548C48.3308 25.5333 48.3723 26.0109 48.4547 26.4822L48.5615 27.093C48.7975 28.4421 49.4599 29.68 50.4513 30.6249C51.3913 31.5207 52.5815 32.1095 53.8639 32.3131L54.7381 32.452C55.2177 32.5282 55.7026 32.5664 56.1882 32.5664H81V84.712C81 86.1692 80.8128 87.6202 80.4431 89.0297L79.8371 91.3396C79.4324 92.8823 78.6066 94.282 77.452 95.3823C77.0464 95.7688 76.6039 96.1148 76.131 96.4153L75.5272 96.7988C74.0383 97.7448 72.4022 98.4364 70.6862 98.8452L70.4846 98.8932C69.1835 99.2032 67.8507 99.3598 66.5133 99.3598H17.0677C15.7373 99.3598 14.4099 99.2344 13.103 98.9853L11.1556 98.6141C9.81585 98.3588 8.53662 97.8521 7.38547 97.1207C6.18298 96.3568 5.13472 95.35 4.31807 94.1826C3.57586 93.1217 3.01978 91.9261 2.69122 90.6737L2.49784 89.9365C2.16731 88.6766 2 87.3795 2 86.077L2 16.3332C2 14.345 2.39634 12.3767 3.16586 10.5434L3.44156 9.88651C4.05782 8.41833 4.97096 7.09342 6.12365 5.99495C7.3205 4.8544 8.74823 3.98405 10.3104 3.44272L11.6206 2.9887C13.5094 2.33417 15.4943 2 17.4933 2Z" stroke="#223369" stroke-width="3"/>
<rect x="12.5" y="8.17969" width="31" height="40" rx="1.5" fill="#FFFDEB" stroke="#223369"/>
<path d="M32.5 32.1797L23 48.1797H42L32.5 32.1797Z" fill="#FFFDEB" stroke="#223369"/>
<path d="M24 29.1797L15 48.1797H33L24 29.1797Z" fill="#FFFDEB" stroke="#223369"/>
<circle cx="31" cy="21.6797" r="3.5" fill="#FFFDEB" stroke="#223369"/>
</g>
</svg>
