<svg width="51" height="56" viewBox="0 0 51 56" fill="none" xmlns="http://www.w3.org/2000/svg">
<rect x="1" y="11" width="44" height="44" rx="22" fill="white"/>
<rect x="1" y="11" width="44" height="44" rx="22" stroke="#82CC8B" stroke-width="2"/>
<path d="M18.2 37.8L27.8 28.2M33.1011 29.6596C32.7488 29.1894 32.553 28.68 32.4747 28.0922L32.1615 25.9371C32.0049 24.8008 31.1044 23.8996 29.9299 23.7037L27.7765 23.3902C27.2284 23.3118 26.6803 23.0767 26.2104 22.7633L24.5269 21.5094C24.0571 21.1567 23.509 21 22.9608 21C22.4127 21 21.8646 21.1567 21.3948 21.5094L19.6721 22.8024C19.2023 23.1551 18.6933 23.351 18.106 23.4294L15.9918 23.7429C14.8564 23.8996 13.956 24.8008 13.7602 25.9763L13.447 28.1314C13.3687 28.68 13.1338 29.2286 12.8206 29.6988L11.5285 31.4229C10.8238 32.3633 10.8238 33.6563 11.5285 34.5576L12.8206 36.2816C13.1729 36.7518 13.3687 37.2612 13.447 37.849L13.7602 40.0041C13.9168 41.1404 14.8173 42.0416 15.9918 42.2376L18.1452 42.551C18.6933 42.6294 19.2414 42.8645 19.7113 43.178L21.4339 44.471C22.3736 45.1763 23.6656 45.1763 24.5661 44.471L26.2887 43.178C26.7586 42.8253 27.2675 42.6294 27.8548 42.551L30.0082 42.2376C31.1436 42.0808 32.044 41.1796 32.2398 40.0041L32.553 37.849C32.6313 37.3004 32.8662 36.7518 33.1794 36.2816L34.4715 34.5576C35.1762 33.6171 35.1762 32.3241 34.4715 31.4229L33.1011 29.6596ZM20.12 29.16C20.12 29.6902 19.6902 30.12 19.16 30.12C18.6298 30.12 18.2 29.6902 18.2 29.16C18.2 28.6298 18.6298 28.2 19.16 28.2C19.6902 28.2 20.12 28.6298 20.12 29.16ZM27.8 36.84C27.8 37.3702 27.3702 37.8 26.84 37.8C26.3098 37.8 25.88 37.3702 25.88 36.84C25.88 36.3098 26.3098 35.88 26.84 35.88C27.3702 35.88 27.8 36.3098 27.8 36.84Z" stroke="#82CC8B" stroke-width="1.5" stroke-linecap="round"/>
<rect x="27" width="24" height="24" rx="12" fill="white"/>
<path d="M43.1667 13.6667C43.3877 13.6667 43.5996 13.5789 43.7559 13.4226C43.9122 13.2663 44 13.0543 44 12.8333C44 12.6123 43.9122 12.4004 43.7559 12.2441C43.5996 12.0878 43.3877 12 43.1667 12C42.9457 12 42.7337 12.0878 42.5774 12.2441C42.4211 12.4004 42.3333 12.6123 42.3333 12.8333C42.3333 13.0543 42.4211 13.2663 42.5774 13.4226C42.7337 13.5789 42.9457 13.6667 43.1667 13.6667ZM43.1667 17C43.3877 17 43.5996 16.9122 43.7559 16.7559C43.9122 16.5996 44 16.3877 44 16.1667C44 15.9457 43.9122 15.7337 43.7559 15.5774C43.5996 15.4211 43.3877 15.3333 43.1667 15.3333C42.9457 15.3333 42.7337 15.4211 42.5774 15.5774C42.4211 15.7337 42.3333 15.9457 42.3333 16.1667C42.3333 16.3877 42.4211 16.5996 42.5774 16.7559C42.7337 16.9122 42.9457 17 43.1667 17ZM39.8333 12.8333C39.8333 13.0543 39.7455 13.2663 39.5893 13.4226C39.433 13.5789 39.221 13.6667 39 13.6667C38.779 13.6667 38.567 13.5789 38.4107 13.4226C38.2545 13.2663 38.1667 13.0543 38.1667 12.8333C38.1667 12.6123 38.2545 12.4004 38.4107 12.2441C38.567 12.0878 38.779 12 39 12C39.221 12 39.433 12.0878 39.5893 12.2441C39.7455 12.4004 39.8333 12.6123 39.8333 12.8333ZM39.8333 16.1667C39.8333 16.3877 39.7455 16.5996 39.5893 16.7559C39.433 16.9122 39.221 17 39 17C38.779 17 38.567 16.9122 38.4107 16.7559C38.2545 16.5996 38.1667 16.3877 38.1667 16.1667C38.1667 15.9457 38.2545 15.7337 38.4107 15.5774C38.567 15.4211 38.779 15.3333 39 15.3333C39.221 15.3333 39.433 15.4211 39.5893 15.5774C39.7455 15.7337 39.8333 15.9457 39.8333 16.1667ZM34.8333 13.6667C35.0543 13.6667 35.2663 13.5789 35.4226 13.4226C35.5789 13.2663 35.6667 13.0543 35.6667 12.8333C35.6667 12.6123 35.5789 12.4004 35.4226 12.2441C35.2663 12.0878 35.0543 12 34.8333 12C34.6123 12 34.4004 12.0878 34.2441 12.2441C34.0878 12.4004 34 12.6123 34 12.8333C34 13.0543 34.0878 13.2663 34.2441 13.4226C34.4004 13.5789 34.6123 13.6667 34.8333 13.6667ZM34.8333 17C35.0543 17 35.2663 16.9122 35.4226 16.7559C35.5789 16.5996 35.6667 16.3877 35.6667 16.1667C35.6667 15.9457 35.5789 15.7337 35.4226 15.5774C35.2663 15.4211 35.0543 15.3333 34.8333 15.3333C34.6123 15.3333 34.4004 15.4211 34.2441 15.5774C34.0878 15.7337 34 15.9457 34 16.1667C34 16.3877 34.0878 16.5996 34.2441 16.7559C34.4004 16.9122 34.6123 17 34.8333 17Z" fill="#67A4E6"/>
<path fill-rule="evenodd" clip-rule="evenodd" d="M35.2785 4C35.4266 4 35.5685 4.0602 35.6732 4.16737C35.7779 4.27453 35.8367 4.41988 35.8367 4.57143V5.15276C36.3294 5.14286 36.8719 5.14286 37.4688 5.14286H40.5297C41.1274 5.14286 41.6699 5.14286 42.1626 5.15276V4.57143C42.1626 4.41988 42.2214 4.27453 42.326 4.16737C42.4307 4.0602 42.5727 4 42.7207 4C42.8688 4 43.0107 4.0602 43.1154 4.16737C43.2201 4.27453 43.2789 4.41988 43.2789 4.57143V5.20152C43.4724 5.21676 43.6555 5.23581 43.8289 5.25943C44.7011 5.37981 45.4074 5.63276 45.9648 6.20267C46.5215 6.77333 46.7685 7.49638 46.8861 8.38933C47 9.25791 47 10.3665 47 11.7669V13.376C47 14.7764 47 15.8857 46.8861 16.7535C46.7685 17.6465 46.5215 18.3695 45.9648 18.9402C45.4074 19.5101 44.7011 19.763 43.8289 19.8834C42.9805 20 41.8976 20 40.5297 20H37.4703C36.1024 20 35.0188 20 34.1711 19.8834C33.2989 19.763 32.5926 19.5101 32.0352 18.9402C31.4785 18.3695 31.2315 17.6465 31.1139 16.7535C31 15.885 31 14.7764 31 13.376V11.7669C31 10.3665 31 9.25714 31.1139 8.38933C31.2315 7.49638 31.4785 6.77333 32.0352 6.20267C32.5926 5.63276 33.2989 5.37981 34.1711 5.25943C34.3445 5.23581 34.5283 5.21676 34.7211 5.20152V4.57143C34.7211 4.42001 34.7798 4.27478 34.8843 4.16764C34.9888 4.06049 35.1306 4.0002 35.2785 4ZM34.3185 6.39238C33.5705 6.49524 33.1389 6.68876 32.8241 7.01105C32.5093 7.33333 32.3202 7.77524 32.2198 8.54171C32.2027 8.67124 32.1885 8.80838 32.1766 8.95238H45.8226C45.8107 8.80762 45.7966 8.67124 45.7795 8.54095C45.679 7.77524 45.49 7.33333 45.1752 7.01105C44.8604 6.68876 44.4287 6.49524 43.68 6.39238C42.9157 6.28724 41.9073 6.28571 40.4881 6.28571H37.5112C36.092 6.28571 35.0843 6.28724 34.3185 6.39238ZM32.1156 11.8095C32.1156 11.1589 32.1156 10.5928 32.1253 10.0952H45.874C45.8837 10.5928 45.8837 11.1589 45.8837 11.8095V13.3333C45.8837 14.7863 45.8822 15.8187 45.7795 16.6019C45.679 17.3676 45.49 17.8095 45.1752 18.1318C44.8604 18.4541 44.4287 18.6476 43.68 18.7505C42.9157 18.8556 41.9073 18.8571 40.4881 18.8571H37.5112C36.092 18.8571 35.0843 18.8556 34.3185 18.7505C33.5705 18.6476 33.1389 18.4541 32.8241 18.1318C32.5093 17.8095 32.3202 17.3676 32.2198 16.6011C32.1171 15.8187 32.1156 14.7863 32.1156 13.3333V11.8095Z" fill="#67A4E6"/>
</svg>
