<svg width="53" height="52" viewBox="0 0 53 52" fill="none" xmlns="http://www.w3.org/2000/svg">
<rect x="1.33594" y="1" width="50" height="50" rx="25" fill="#D5FFDA" stroke="#82CC8B" stroke-width="2"/>
<rect x="12.5323" y="11.3992" width="28.4" height="28.4" rx="14.2" stroke="#FFC700" stroke-width="0.4"/>
<rect x="2.94097" y="2.59844" width="46.8" height="46.8" rx="23.4" fill="#A8E7B1" stroke="#50B85A" stroke-width="0.4"/>
<path d="M40.8414 16.2497L8.70765 25.6667C8.6124 25.6945 8.55775 25.7948 8.58555 25.8899L11.6071 36.2006C11.6352 36.2959 11.7355 36.3507 11.8307 36.3227L43.9643 26.9057C44.0597 26.8778 44.1142 26.7776 44.0861 26.6824L41.0644 16.3716C41.0364 16.2767 40.9365 16.2217 40.8414 16.2497ZM43.607 26.5656L11.9473 35.8438L9.06449 26.0069L40.7243 16.7288L43.607 26.5656ZM40.4918 15.0577L8.3584 24.4747C7.60444 24.6955 7.17288 25.4855 7.39371 26.2393L10.4154 36.5499C10.6361 37.3037 11.426 37.7357 12.18 37.5147L44.3135 28.0977C45.067 27.8769 45.4992 27.0868 45.2781 26.3331L42.2566 16.0225C42.0356 15.2687 41.2454 14.837 40.4918 15.0577ZM44.3135 26.6159C44.3782 26.8365 44.2513 27.0686 44.0308 27.1334L11.8972 36.5502C11.6764 36.6148 11.4444 36.488 11.3798 36.2674L8.35808 25.9567C8.29332 25.7362 8.42048 25.504 8.64099 25.4392L40.7747 16.0222C40.9951 15.9576 41.2271 16.0845 41.2917 16.3051L44.3135 26.6159Z" fill="white"/>
<path d="M17.8485 25.2262L18.423 27.1862L17.2568 27.528C17.1533 27.3439 17.0007 27.1988 16.7993 27.093C16.5979 26.9872 16.4021 26.9619 16.2122 27.0177C16.1007 27.0504 16.0218 27.105 15.9757 27.1818C15.9294 27.2584 15.9234 27.3552 15.9575 27.4716C15.98 27.5478 16.0302 27.6045 16.1086 27.6419C16.1869 27.6794 16.285 27.7029 16.4033 27.7122C16.5216 27.7215 16.6554 27.7257 16.805 27.7244C16.9545 27.7231 17.1137 27.7268 17.2824 27.7351C17.4511 27.7435 17.622 27.7585 17.7948 27.7808C17.9678 27.8032 18.1401 27.8489 18.3115 27.9182C18.4831 27.9874 18.6442 28.0778 18.795 28.189C18.9459 28.3002 19.0863 28.4528 19.216 28.6472C19.3459 28.8415 19.4519 29.0696 19.5343 29.3315C19.615 29.5884 19.6477 29.8523 19.6322 30.1235C19.6169 30.3949 19.5591 30.6483 19.459 30.8838C19.359 31.1195 19.21 31.3286 19.0119 31.512C18.814 31.695 18.5821 31.8254 18.3163 31.9035C18.0428 31.9836 17.8052 32.0155 17.6038 31.9989C17.4024 31.9823 17.1784 31.9194 16.9319 31.8103L16.8974 32.1998L15.6704 32.5593L15.0938 30.5917L16.3169 30.2333C16.437 30.399 16.6025 30.527 16.8134 30.618C17.0241 30.7089 17.222 30.7271 17.407 30.6729C17.5184 30.6404 17.607 30.5834 17.6726 30.5023C17.7381 30.4211 17.7556 30.3287 17.7253 30.2249C17.7002 30.1389 17.6504 30.073 17.5768 30.0273C17.5027 29.9815 17.4301 29.954 17.3587 29.9449C17.2871 29.9354 17.2007 29.9319 17.0996 29.9341C16.9377 29.9348 16.7943 29.9337 16.6696 29.9303C16.5449 29.927 16.4104 29.919 16.2664 29.906C16.1225 29.8932 15.9939 29.8754 15.8812 29.8518C15.7685 29.8286 15.6511 29.7962 15.5291 29.755C15.4072 29.7138 15.2977 29.6647 15.2014 29.6076C15.105 29.5508 15.0087 29.4805 14.9129 29.3972C14.817 29.314 14.7317 29.22 14.657 29.1154C14.5823 29.011 14.5119 28.8897 14.4455 28.7524C14.3792 28.6151 14.3215 28.463 14.2725 28.2959C14.0959 27.6933 14.1027 27.1699 14.2931 26.7265C14.4834 26.283 14.8611 25.9784 15.4258 25.813C15.9146 25.6698 16.343 25.668 16.7112 25.8075C16.7125 25.7742 16.7306 25.6863 16.766 25.544L17.8485 25.2262Z" fill="white"/>
<path d="M26.0247 26.1902C26.1992 26.7854 26.2213 27.366 26.0916 27.9319C25.962 28.4978 25.6996 28.9887 25.3042 29.4042C24.909 29.8198 24.4215 30.1125 23.8416 30.2824C23.2616 30.4524 22.6931 30.4692 22.1362 30.3325C21.5794 30.1962 21.0934 29.9245 20.6787 29.5182C20.2637 29.1118 19.9695 28.6109 19.7949 28.0158C19.6035 27.3623 19.5719 26.7509 19.7006 26.1811C19.8292 25.6111 20.0901 25.1314 20.483 24.7411C20.8759 24.3509 21.3739 24.0674 21.9765 23.8908C22.5692 23.7172 23.1362 23.6886 23.6777 23.8048C24.2192 23.9213 24.6978 24.1843 25.1137 24.5947C25.5295 25.005 25.8332 25.5367 26.0247 26.1902ZM23.4541 28.9606C23.553 28.9315 23.6367 28.8892 23.7058 28.8333C23.7746 28.7775 23.8276 28.7124 23.865 28.6382C23.9024 28.564 23.9299 28.4817 23.9473 28.3913C23.9648 28.301 23.9715 28.2062 23.967 28.107C23.9629 28.0079 23.9538 27.9067 23.94 27.8037C23.9263 27.7005 23.9067 27.5983 23.8811 27.4972C23.8557 27.396 23.8301 27.2969 23.8045 27.1999C23.7787 27.103 23.7521 27.0118 23.7243 26.9267C23.7094 26.876 23.6983 26.8379 23.6909 26.8126C23.6825 26.7847 23.6696 26.7403 23.6519 26.6796C23.6227 26.5891 23.5946 26.4929 23.5672 26.3909C23.5401 26.2888 23.5052 26.1858 23.4622 26.0814C23.4194 25.977 23.3747 25.8768 23.3286 25.7803C23.2824 25.6838 23.2257 25.5957 23.1584 25.5164C23.0913 25.4372 23.0204 25.3715 22.946 25.3191C22.8712 25.2666 22.7842 25.2338 22.6839 25.2205C22.5838 25.2071 22.4779 25.2169 22.3666 25.2496C22.2678 25.2785 22.183 25.3195 22.1122 25.3734C22.0413 25.4273 21.9873 25.489 21.9502 25.5592C21.9129 25.6293 21.884 25.7064 21.8633 25.7909C21.8426 25.8753 21.8339 25.9631 21.8374 26.0542C21.8407 26.1452 21.8476 26.2395 21.8584 26.3367C21.8688 26.4341 21.8865 26.5292 21.9111 26.6223C21.9356 26.7156 21.959 26.8071 21.9811 26.8968C22.0034 26.9865 22.0285 27.0701 22.0566 27.147C22.0743 27.2077 22.0873 27.2521 22.0956 27.28C22.1031 27.3053 22.1141 27.3432 22.129 27.3941C22.1538 27.4693 22.1772 27.549 22.199 27.6332C22.2211 27.7177 22.2484 27.804 22.2811 27.892C22.3138 27.98 22.347 28.0672 22.3805 28.1536C22.4141 28.2398 22.453 28.3235 22.497 28.4039C22.5414 28.4847 22.5871 28.5591 22.6349 28.6276C22.6825 28.6962 22.736 28.7568 22.7954 28.8094C22.8548 28.8622 22.9174 28.9044 22.9831 28.936C23.0488 28.9677 23.1223 28.9859 23.2036 28.9911C23.2843 28.996 23.368 28.9857 23.4541 28.9606Z" fill="white"/>
<path d="M29.9189 26.9016L30.6444 26.689L30.5853 25.2627L31.6716 24.9444L32.4608 27.6375L27.6254 29.0546L27.222 27.692L27.7652 27.5328L26.7511 24.0725L26.1925 24.236L25.8008 22.8986L29.098 21.9324L29.4897 23.2697L28.9048 23.4412L29.9189 26.9016Z" fill="white"/>
<path d="M32.7795 26.0637L33.3987 25.8824L32.3835 22.4181L31.7415 22.6062L31.3496 21.269L34.5026 20.3451C35.5459 20.0393 36.4033 20.0704 37.075 20.4388C37.7467 20.807 38.2294 21.4926 38.5232 22.4955C38.6444 22.9082 38.6892 23.3199 38.6583 23.7304C38.6275 24.141 38.5235 24.5281 38.3469 24.8919C38.1705 25.2559 37.9005 25.5832 37.5374 25.8738C37.1744 26.1645 36.7371 26.3845 36.2255 26.5346L33.1791 27.4272L32.7795 26.0637ZM35.6094 25.2344C35.7942 25.1802 35.9465 25.0963 36.0659 24.9832C36.1852 24.8698 36.2703 24.7447 36.3207 24.6074C36.3713 24.4703 36.3999 24.3147 36.4068 24.1408C36.4134 23.9669 36.4041 23.8014 36.3785 23.6439C36.3531 23.4862 36.3155 23.3226 36.2657 23.1531C36.2146 22.9782 36.1601 22.8204 36.1021 22.6793C36.0443 22.538 35.9685 22.3945 35.8749 22.2487C35.7813 22.1031 35.6792 21.9865 35.5683 21.8995C35.4576 21.8123 35.3218 21.753 35.1614 21.7216C35.0009 21.6903 34.8272 21.7022 34.6397 21.7571L34.4612 21.8094L35.4764 25.2737L35.6094 25.2344Z" fill="white"/>
<rect width="52" height="52" rx="26" fill="#82CC8B"/>
<rect x="12.1963" y="11.3992" width="28.4" height="28.4" rx="14.2" stroke="#FFC700" stroke-width="0.4"/>
<rect x="2.2" y="2.2" width="47.6" height="47.6" rx="23.8" fill="white" stroke="#82CC8B" stroke-width="0.4"/>
<path d="M20.4 31.6L31.6 20.4M37.7847 22.1029C37.3736 21.5543 37.1452 20.96 37.0538 20.2743L36.6884 17.76C36.5057 16.4343 35.4551 15.3829 34.0848 15.1543L31.5726 14.7886C30.9331 14.6971 30.2936 14.4229 29.7455 14.0571L27.7814 12.5943C27.2333 12.1829 26.5938 12 25.9543 12C25.3148 12 24.6754 12.1829 24.1272 12.5943L22.1175 14.1029C21.5693 14.5143 20.9755 14.7429 20.2904 14.8343L17.8238 15.2C16.4992 15.3829 15.4486 16.4343 15.2202 17.8057L14.8548 20.32C14.7635 20.96 14.4894 21.6 14.124 22.1486L12.6166 24.16C11.7945 25.2571 11.7945 26.7657 12.6166 27.8171L14.124 29.8286C14.5351 30.3771 14.7635 30.9714 14.8548 31.6571L15.2202 34.1714C15.4029 35.4971 16.4535 36.5486 17.8238 36.7771L20.3361 37.1429C20.9755 37.2343 21.615 37.5086 22.1631 37.8743L24.1729 39.3829C25.2692 40.2057 26.7765 40.2057 27.8271 39.3829L29.8369 37.8743C30.385 37.4629 30.9788 37.2343 31.6639 37.1429L34.1762 36.7771C35.5008 36.5943 36.5514 35.5429 36.7798 34.1714L37.1452 31.6571C37.2365 31.0171 37.5106 30.3771 37.876 29.8286L39.3834 27.8171C40.2055 26.72 40.2055 25.2114 39.3834 24.16L37.7847 22.1029ZM22.64 21.52C22.64 22.1386 22.1386 22.64 21.52 22.64C20.9014 22.64 20.4 22.1386 20.4 21.52C20.4 20.9014 20.9014 20.4 21.52 20.4C22.1386 20.4 22.64 20.9014 22.64 21.52ZM31.6 30.48C31.6 31.0986 31.0986 31.6 30.48 31.6C29.8614 31.6 29.36 31.0986 29.36 30.48C29.36 29.8614 29.8614 29.36 30.48 29.36C31.0986 29.36 31.6 29.8614 31.6 30.48Z" stroke="#82CC8B" stroke-width="1.5" stroke-linecap="round"/>
</svg>
