<svg width="46" height="46" viewBox="0 0 46 46" fill="none" xmlns="http://www.w3.org/2000/svg">
<rect x="1" y="1" width="44" height="44" rx="22" fill="white"/>
<rect x="1" y="1" width="44" height="44" rx="22" stroke="#FFE27F" stroke-width="2"/>
<path d="M18.2 27.8L27.8 18.2M33.1011 19.6596C32.7488 19.1894 32.553 18.68 32.4747 18.0922L32.1615 15.9371C32.0049 14.8008 31.1044 13.8996 29.9299 13.7037L27.7765 13.3902C27.2284 13.3118 26.6803 13.0767 26.2104 12.7633L24.5269 11.5094C24.0571 11.1567 23.509 11 22.9608 11C22.4127 11 21.8646 11.1567 21.3948 11.5094L19.6721 12.8024C19.2023 13.1551 18.6933 13.351 18.106 13.4294L15.9918 13.7429C14.8564 13.8996 13.956 14.8008 13.7602 15.9763L13.447 18.1314C13.3687 18.68 13.1338 19.2286 12.8206 19.6988L11.5285 21.4229C10.8238 22.3633 10.8238 23.6563 11.5285 24.5576L12.8206 26.2816C13.1729 26.7518 13.3687 27.2612 13.447 27.849L13.7602 30.0041C13.9168 31.1404 14.8173 32.0416 15.9918 32.2376L18.1452 32.551C18.6933 32.6294 19.2414 32.8645 19.7113 33.178L21.4339 34.471C22.3736 35.1763 23.6656 35.1763 24.5661 34.471L26.2887 33.178C26.7586 32.8253 27.2675 32.6294 27.8548 32.551L30.0082 32.2376C31.1436 32.0808 32.044 31.1796 32.2398 30.0041L32.553 27.849C32.6313 27.3004 32.8662 26.7518 33.1794 26.2816L34.4715 24.5576C35.1762 23.6171 35.1762 22.3241 34.4715 21.4229L33.1011 19.6596ZM20.12 19.16C20.12 19.6902 19.6902 20.12 19.16 20.12C18.6298 20.12 18.2 19.6902 18.2 19.16C18.2 18.6298 18.6298 18.2 19.16 18.2C19.6902 18.2 20.12 18.6298 20.12 19.16ZM27.8 26.84C27.8 27.3702 27.3702 27.8 26.84 27.8C26.3098 27.8 25.88 27.3702 25.88 26.84C25.88 26.3098 26.3098 25.88 26.84 25.88C27.3702 25.88 27.8 26.3098 27.8 26.84Z" stroke="#FFE27F" stroke-width="1.5" stroke-linecap="round"/>
</svg>
