<svg width="52" height="52" viewBox="0 0 52 52" fill="none" xmlns="http://www.w3.org/2000/svg">
<rect width="52" height="52" rx="26" fill="#82CC8B"/>
<rect x="12.1963" y="11.3992" width="28.4" height="28.4" rx="14.2" stroke="#FFC700" stroke-width="0.4"/>
<rect x="2.40503" y="2.39844" width="47.2" height="47.2" rx="23.6" fill="white"/>
<path d="M23.4553 17.7618L21.489 13.4511C21.2219 12.8655 21.75 12.2307 22.3744 12.3868C22.421 12.3985 22.4664 12.4145 22.5101 12.4346L22.687 12.5163C23.373 12.8329 24.1568 12.8634 24.8653 12.601L25.3941 12.4051C26.0976 12.1445 26.8732 12.157 27.568 12.44L28.0523 12.6374C28.7926 12.939 29.6271 12.9069 30.3421 12.5494L30.5511 12.4449C30.605 12.418 30.6619 12.3974 30.7207 12.3835C31.3646 12.232 31.8913 12.9029 31.5914 13.4925L29.4193 17.7618H23.4553Z" stroke="#82CC8B" stroke-width="1.5"/>
<path d="M29.4134 17.7616C32.7491 21.2658 40.1323 32.858 38.2077 35.5524C35.6806 39.0903 31.4351 40.0001 26.3809 40.0001" stroke="#82CC8B" stroke-width="1.5"/>
<path d="M23.4494 17.7616C20.1137 21.2658 12.7305 32.858 14.6551 35.5524C17.1822 39.0903 21.3267 40.0001 26.3809 40.0001" stroke="#82CC8B" stroke-width="1.5"/>
<path d="M27.5264 21.5V23.0771C27.6525 23.1095 27.7756 23.1481 27.8955 23.1934H27.8965C28.3397 23.3591 28.7258 23.6058 29.0459 23.9355C29.3663 24.2657 29.604 24.6663 29.7646 25.126L29.8232 25.3008C29.9506 25.7167 30.0107 26.1731 30.0107 26.6641V27.1641H27.3906V26.6641C27.3906 26.4734 27.3736 26.3071 27.3438 26.1631L27.3066 26.0146C27.2581 25.8358 27.1903 25.7041 27.1133 25.6064L27.1094 25.6006C27.0293 25.4963 26.937 25.4216 26.8301 25.3701L26.8252 25.3682C26.7283 25.3204 26.6057 25.2901 26.4463 25.29C26.1885 25.29 26.0205 25.34 25.9121 25.4043L25.9043 25.4092L25.9033 25.4082C25.7849 25.4762 25.7052 25.5634 25.6514 25.6748C25.5912 25.8095 25.5557 25.9768 25.5557 26.1855C25.5557 26.3812 25.5926 26.5292 25.6504 26.6436L25.6973 26.7217C25.754 26.8009 25.8434 26.8882 25.9795 26.9805L26.1484 27.0801C26.3366 27.182 26.5805 27.2911 26.8857 27.4062H26.8848C27.4852 27.6235 28.0153 27.8703 28.4707 28.1494L28.6494 28.2627C29.0532 28.5342 29.3812 28.8671 29.623 29.2637H29.624C29.9203 29.7371 30.0507 30.3078 30.0508 30.9443C30.0508 31.6091 29.8964 32.2068 29.5645 32.7129L29.5654 32.7139C29.2431 33.212 28.7913 33.5855 28.2285 33.8359L28.2266 33.8369C27.9666 33.9512 27.6899 34.035 27.3984 34.0938V35.5H25.3652V34.0957C25.2551 34.0739 25.1448 34.0486 25.0352 34.0195L25.0293 34.0186C24.5766 33.892 24.1627 33.685 23.792 33.3994C23.4023 33.0992 23.0999 32.7066 22.8809 32.2363L22.8799 32.2344C22.6528 31.7414 22.5508 31.1638 22.5508 30.5205V30.0205H25.1846V30.5205C25.1846 30.8358 25.2263 31.0647 25.29 31.2246C25.3603 31.4008 25.4455 31.5149 25.5332 31.5889C25.6441 31.6825 25.7641 31.7461 25.8945 31.7852H25.8936C26.0515 31.8312 26.2062 31.8535 26.3584 31.8535C26.6412 31.8535 26.8424 31.8045 26.9844 31.7344C27.1368 31.6567 27.2351 31.5605 27.2988 31.4463L27.2998 31.4434L27.3496 31.3398C27.393 31.2312 27.417 31.1056 27.417 30.958C27.4169 30.7628 27.3778 30.6185 27.3174 30.5088L27.3105 30.4971C27.255 30.3894 27.1506 30.2685 26.9639 30.1436L26.959 30.1396C26.7693 30.0091 26.4936 29.874 26.1172 29.7412L26.1162 29.7402C25.5164 29.5266 24.9823 29.2834 24.5176 29.0088L24.5127 29.0059C24.027 28.7106 23.634 28.339 23.3496 27.8877L23.3467 27.8818C23.0534 27.4019 22.9219 26.8296 22.9219 26.1924C22.9219 25.5547 23.0662 24.9749 23.374 24.4736L23.376 24.4707L23.4971 24.291C23.7927 23.8846 24.1783 23.5656 24.6455 23.3359L24.8506 23.2441C25.0535 23.1604 25.2658 23.0944 25.4873 23.0469V21.5H27.5264Z" stroke="#82CC8B"/>
</svg>
