<svg width="52" height="52" viewBox="0 0 52 52" fill="none" xmlns="http://www.w3.org/2000/svg">
<rect x="1" y="1" width="50" height="50" rx="25" stroke="#FFE27F" stroke-width="2"/>
<rect x="12.1963" y="11.3992" width="28.4" height="28.4" rx="14.2" stroke="#FFC700" stroke-width="0.4"/>
<rect x="1.90503" y="1.89844" width="48.2" height="48.2" rx="24.1" fill="white" stroke="#FFE27F"/>
<path d="M33.8682 14L17.4214 14C17.1589 14 16.9069 14.1032 16.7198 14.2874C16.322 14.6792 16.322 15.3208 16.7198 15.7126C16.9069 15.8968 17.1589 16 17.4214 16H32.7544H33.8682C34.1307 16 34.3827 15.8968 34.5698 15.7126C34.9676 15.3208 34.9676 14.6792 34.5698 14.2874C34.3827 14.1032 34.1307 14 33.8682 14Z" fill="#FFE27F"/>
<path d="M32.7541 15.5511V16.8721C32.7541 17.6789 32.624 18.4805 32.3688 19.2459V19.2459C31.9543 20.4897 31.2558 21.6199 30.3287 22.5469L29.7071 23.1685L28.0029 24.8728C27.7862 25.0894 27.6059 25.3396 27.4689 25.6136L27.3951 25.7613C27.2457 26.06 27.168 26.3894 27.168 26.7233V26.7233C27.168 27.0573 27.2457 27.3867 27.3951 27.6854L27.4689 27.8331C27.6059 28.1071 27.7862 28.3573 28.0029 28.5739L28.6914 29.2625L29.7071 30.2781L30.7228 31.2938L31.7384 32.3094L32.427 32.998C32.6436 33.2146 32.8239 33.4648 32.9609 33.7388V33.7388C33.1589 34.1347 33.2619 34.5711 33.2619 35.0137V35.3564V36.372V37.3877" stroke="#FFE27F"/>
<path d="M18.5279 15.5511V16.8721C18.5279 17.6789 18.658 18.4805 18.9131 19.2459V19.2459C19.3277 20.4897 20.0262 21.6199 20.9533 22.5469L21.5749 23.1685L23.2791 24.8728C23.4957 25.0894 23.676 25.3396 23.8131 25.6136L23.8869 25.7613C24.0363 26.06 24.114 26.3894 24.114 26.7233V26.7233C24.114 27.0573 24.0363 27.3867 23.8869 27.6854L23.8131 27.8331C23.676 28.1071 23.4957 28.3573 23.2791 28.5739L22.5905 29.2625L21.5749 30.2781L20.5592 31.2938L19.5436 32.3094L18.855 32.998C18.6384 33.2146 18.4581 33.4648 18.321 33.7388V33.7388C18.1231 34.1347 18.0201 34.5711 18.0201 35.0137V35.3564V36.372V37.3877" stroke="#FFE27F"/>
<path d="M19.5474 36.8866H31.7352L31.3367 35.6912C31.2639 35.4728 31.1757 35.2598 31.0727 35.0538C30.8388 34.586 30.531 34.1589 30.1611 33.7891L29.7039 33.3318L28.6882 32.3162L27.6726 31.3005L27.2153 30.8433C26.8455 30.4734 26.5377 30.0464 26.3038 29.5785C26.2008 29.3726 26.1126 29.1596 26.0397 28.9411L25.6413 27.7457L25.2428 28.9411C25.17 29.1596 25.0818 29.3726 24.9788 29.5785C24.7449 30.0464 24.4371 30.4734 24.0672 30.8433L23.61 31.3005L22.5943 32.3162L21.5787 33.3318L21.1214 33.7891C20.7516 34.1589 20.4438 34.586 20.2099 35.0538C20.1069 35.2598 20.0186 35.4728 19.9458 35.6912L19.5474 36.8866Z" fill="#FFF1BF" stroke="#FFF1BF" stroke-width="0.5"/>
<path d="M30.9295 19.2032L31.0034 19.0556C31.1527 18.7569 31.2305 18.4275 31.2305 18.0935L29.5781 19.4154C27.5378 21.0477 24.6758 21.1719 22.5017 19.7225L20.0583 18.0935C20.0583 18.4275 20.136 18.7569 20.2854 19.0556L20.3592 19.2032C20.4963 19.4773 20.6766 19.7275 20.8932 19.9441L21.5818 20.6327L22.5974 21.6483L23.6131 22.664L24.0703 23.1212C24.4402 23.4911 24.748 23.9181 24.9819 24.3859C25.0849 24.5919 25.1731 24.8049 25.2459 25.0234L25.6444 26.2188L26.0428 25.0234C26.1157 24.8049 26.2039 24.5919 26.3069 24.3859C26.5408 23.9181 26.8486 23.4911 27.2184 23.1212L27.6757 22.664L28.6913 21.6483L29.707 20.6327L30.3955 19.9441C30.6122 19.7275 30.7925 19.4773 30.9295 19.2032Z" fill="#FFF1BF" stroke="#FFF1BF" stroke-width="0.5"/>
<path d="M33.9295 36.9003H17.4815C17.225 36.9003 16.9778 36.9966 16.7888 37.1701L16.7514 37.2045C16.3405 37.582 16.3294 38.2266 16.727 38.618C16.9095 38.7977 17.1553 38.8984 17.4114 38.8984H32.7544H33.8578C34.127 38.8984 34.3854 38.7926 34.5772 38.6037L34.6129 38.5685C34.9909 38.1963 35.0016 37.59 34.6369 37.2047C34.4529 37.0104 34.1971 36.9003 33.9295 36.9003Z" fill="#FFE27F"/>
</svg>
