<svg width="46" height="46" viewBox="0 0 46 46" fill="none" xmlns="http://www.w3.org/2000/svg">
<rect x="1" y="1" width="44" height="44" rx="22" fill="white"/>
<rect x="1" y="1" width="44" height="44" rx="22" stroke="#FFE27F" stroke-width="2"/>
<path d="M23.3023 34.099L23.5189 34.3647L23.8451 34.2582L24.1161 34.1698C24.1381 34.1626 24.1604 34.1565 24.183 34.1521L24.2517 34.1432L24.373 34.1337C24.425 34.13 24.4766 34.1415 24.5216 34.166L24.5648 34.1955C24.5815 34.2094 24.5966 34.2253 24.6095 34.2427L24.6412 34.2982L24.6549 34.3318L21.6932 35.9539L18.2117 31.046L20.0652 30.1287L23.3023 34.099ZM15.5125 21.9681C15.7876 21.8151 16.1253 21.8854 16.3193 22.1178L16.3936 22.2273L19.1823 27.4331C19.2658 27.589 19.2224 27.7785 19.0891 27.8839L19.0255 27.9241L16.6124 29.1233C16.1674 29.3445 15.6696 29.4544 15.1716 29.4451L14.958 29.4334C14.552 29.3978 14.1538 29.2807 13.7949 29.0905L13.6429 29.0044C13.45 28.8871 13.2707 28.7491 13.1089 28.5924L12.953 28.429L12.8961 28.3659C12.707 28.1534 12.5445 27.9192 12.4108 27.669L12.2867 27.4136L12.1938 27.2011C12.0836 26.9488 12.0028 26.685 11.9522 26.415L11.9116 26.1423L11.8903 25.9532C11.8622 25.6968 11.8718 25.438 11.9178 25.1851L11.9764 24.9346C12.0742 24.5905 12.24 24.2701 12.4638 23.9923L12.5627 23.8758L12.6754 23.7518C12.8616 23.5461 13.0725 23.3648 13.3025 23.2109L13.5389 23.0658L15.5125 21.9681Z" stroke="#FFE27F"/>
<path d="M24.4094 12.066C24.0244 12.8418 23.3791 14.0025 22.2498 15.5019L21.0056 17.0352L20.3143 17.7719L19.5951 18.5079L18.4769 19.513C17.839 20.0691 17.6691 20.9917 18.067 21.7386L20.5983 26.4899C20.6054 26.5032 20.6191 26.5117 20.6341 26.5121C21.1376 26.5256 21.6402 26.4644 22.1257 26.3304L24.0712 25.7932L25.4765 25.5513L26.8782 25.4463L28.3077 25.3477L29.7629 25.3309L31.2151 25.426C31.799 25.4991 32.2215 24.8819 31.9421 24.364L25.2941 12.0426C25.1001 11.683 24.591 11.7001 24.4094 12.066Z" stroke="#FFE27F"/>
<path d="M26.4088 9.45348C26.3927 9.42363 26.4019 9.38645 26.4301 9.36757V9.36757C26.4348 9.36441 26.44 9.36204 26.4455 9.36054L26.4465 9.36026C26.4797 9.35112 26.5149 9.36616 26.5312 9.39652L34.9168 24.9706C34.9357 25.0057 34.9298 25.0489 34.9022 25.0776V25.0776V25.0776C34.8794 25.1014 34.8399 25.096 34.8243 25.067L26.4088 9.45348Z" stroke="#FFE27F"/>
</svg>
