<svg width="51" height="56" viewBox="0 0 51 56" fill="none" xmlns="http://www.w3.org/2000/svg">
<rect x="1" y="11" width="44" height="44" rx="22" fill="white"/>
<rect x="1" y="11" width="44" height="44" rx="22" stroke="#FF4C4F" stroke-width="2"/>
<path d="M15.4267 42.5156L15.7672 41.8473H15.7672L15.4267 42.5156ZM13.4844 40.5733L12.8162 40.9138L13.4844 40.5733ZM32.5156 40.5733L31.8473 40.2328L32.5156 40.5733ZM30.5733 42.5156L30.9138 43.1838L30.5733 42.5156ZM17.8056 43C17.8056 43.4142 18.1413 43.75 18.5556 43.75C18.9698 43.75 19.3056 43.4142 19.3056 43H17.8056ZM26.6944 43C26.6944 43.4142 27.0302 43.75 27.4444 43.75C27.8587 43.75 28.1944 43.4142 28.1944 43H26.6944ZM19.6667 28.5556L18.9312 28.4085L18.9167 28.4813V28.5556H19.6667ZM13.0271 28.9826L12.2832 29.0777L13.0271 28.9826ZM26.3333 28.5556H27.0833V28.4813L27.0688 28.4085L26.3333 28.5556ZM32.9593 29.0781L32.2184 28.9615V28.9615L32.9593 29.0781ZM13.1589 28.1582L13.8553 28.4367L13.8553 28.4367L13.1589 28.1582ZM14.6635 24.3969L15.3598 24.6755L14.6635 24.3969ZM30.8364 24.2284L30.1656 24.5638V24.5638L30.8364 24.2284ZM32.7654 28.0863L33.4362 27.7509L33.4362 27.7509L32.7654 28.0863ZM32.25 28.5557V35.8889H33.75V28.5557H32.25ZM25.8889 42.25H20.1111V43.75H25.8889V42.25ZM13.75 35.8889V28.5557H12.25V35.8889H13.75ZM20.1111 42.25C18.8542 42.25 17.9566 42.2494 17.2531 42.1919C16.5583 42.1352 16.1192 42.0267 15.7672 41.8473L15.0862 43.1838C15.6849 43.4889 16.3434 43.6226 17.1309 43.687C17.9097 43.7506 18.8789 43.75 20.1111 43.75V42.25ZM12.25 35.8889C12.25 37.1211 12.2494 38.0903 12.313 38.8691C12.3774 39.6566 12.5111 40.3151 12.8162 40.9138L14.1527 40.2328C13.9733 39.8808 13.8648 39.4417 13.8081 38.7469C13.7506 38.0434 13.75 37.1458 13.75 35.8889H12.25ZM15.7672 41.8473C15.072 41.4931 14.5069 40.928 14.1527 40.2328L12.8162 40.9138C13.3142 41.8912 14.1088 42.6858 15.0862 43.1838L15.7672 41.8473ZM32.25 35.8889C32.25 37.1458 32.2494 38.0434 32.1919 38.7469C32.1352 39.4417 32.0267 39.8808 31.8473 40.2328L33.1838 40.9138C33.4889 40.3151 33.6226 39.6566 33.687 38.8691C33.7506 38.0903 33.75 37.1211 33.75 35.8889H32.25ZM25.8889 43.75C27.1211 43.75 28.0903 43.7506 28.8691 43.687C29.6566 43.6226 30.3151 43.4889 30.9138 43.1838L30.2328 41.8473C29.8808 42.0267 29.4417 42.1352 28.7469 42.1919C28.0434 42.2494 27.1458 42.25 25.8889 42.25V43.75ZM31.8473 40.2328C31.4931 40.928 30.928 41.4931 30.2328 41.8473L30.9138 43.1838C31.8912 42.6858 32.6858 41.8912 33.1838 40.9138L31.8473 40.2328ZM19.3056 43V38.5556H17.8056V43H19.3056ZM20.7778 37.0833H25.2222V35.5833H20.7778V37.0833ZM26.6944 38.5556V43H28.1944V38.5556H26.6944ZM25.2222 37.0833C26.0353 37.0833 26.6944 37.7425 26.6944 38.5556H28.1944C28.1944 36.914 26.8637 35.5833 25.2222 35.5833V37.0833ZM19.3056 38.5556C19.3056 37.7425 19.9647 37.0833 20.7778 37.0833V35.5833C19.1363 35.5833 17.8056 36.914 17.8056 38.5556H19.3056ZM18.9167 28.5556C18.9167 29.9823 17.7601 31.1389 16.3333 31.1389V32.6389C18.5885 32.6389 20.4167 30.8107 20.4167 28.5556H18.9167ZM16.3333 31.1389C15.0193 31.1389 13.9334 30.1571 13.771 28.8875L12.2832 29.0777C12.5401 31.0866 14.2548 32.6389 16.3333 32.6389V31.1389ZM25.5833 28.5556C25.5833 29.9823 24.4267 31.1389 23 31.1389V32.6389C25.2552 32.6389 27.0833 30.8107 27.0833 28.5556H25.5833ZM23 31.1389C21.5733 31.1389 20.4167 29.9823 20.4167 28.5556H18.9167C18.9167 30.8107 20.7448 32.6389 23 32.6389V31.1389ZM32.2184 28.9615C32.0241 30.1952 30.9549 31.1389 29.6667 31.1389V32.6389C31.7047 32.6389 33.3928 31.1465 33.7001 29.1948L32.2184 28.9615ZM29.6667 31.1389C28.2399 31.1389 27.0833 29.9823 27.0833 28.5556H25.5833C25.5833 30.8107 27.4115 32.6389 29.6667 32.6389V31.1389ZM13.8553 28.4367L15.3598 24.6755L13.9671 24.1184L12.4626 27.8797L13.8553 28.4367ZM30.1656 24.5638L32.0946 28.4218L33.4362 27.7509L31.5072 23.893L30.1656 24.5638ZM16.7267 23.75H20.7778V22.25H16.7267V23.75ZM20.4021 28.7026L21.5132 23.1471L20.0423 22.8529L18.9312 28.4085L20.4021 28.7026ZM20.7778 23.75H25.2222V22.25H20.7778V23.75ZM25.2222 23.75H28.8488V22.25H25.2222V23.75ZM27.0688 28.4085L25.9577 22.8529L24.4868 23.1471L25.5979 28.7026L27.0688 28.4085ZM31.5072 23.893C31.0038 22.8861 29.9746 22.25 28.8488 22.25V23.75C29.4065 23.75 29.9162 24.0651 30.1656 24.5638L31.5072 23.893ZM33.7001 29.1948C33.7867 28.6448 33.6305 28.1396 33.4362 27.7509L32.0946 28.4218C32.2088 28.6502 32.2391 28.8299 32.2184 28.9615L33.7001 29.1948ZM15.3598 24.6755C15.5834 24.1165 16.1247 23.75 16.7267 23.75V22.25C15.5114 22.25 14.4185 22.9899 13.9671 24.1184L15.3598 24.6755ZM13.771 28.8875C13.757 28.7778 13.7778 28.6304 13.8553 28.4367L12.4626 27.8797C12.3301 28.2109 12.2255 28.6265 12.2832 29.0777L13.771 28.8875Z" fill="#FF4C4F"/>
<rect x="27" width="24" height="24" rx="12" fill="white"/>
<path d="M43.1667 13.6667C43.3877 13.6667 43.5996 13.5789 43.7559 13.4226C43.9122 13.2663 44 13.0543 44 12.8333C44 12.6123 43.9122 12.4004 43.7559 12.2441C43.5996 12.0878 43.3877 12 43.1667 12C42.9457 12 42.7337 12.0878 42.5774 12.2441C42.4211 12.4004 42.3333 12.6123 42.3333 12.8333C42.3333 13.0543 42.4211 13.2663 42.5774 13.4226C42.7337 13.5789 42.9457 13.6667 43.1667 13.6667ZM43.1667 17C43.3877 17 43.5996 16.9122 43.7559 16.7559C43.9122 16.5996 44 16.3877 44 16.1667C44 15.9457 43.9122 15.7337 43.7559 15.5774C43.5996 15.4211 43.3877 15.3333 43.1667 15.3333C42.9457 15.3333 42.7337 15.4211 42.5774 15.5774C42.4211 15.7337 42.3333 15.9457 42.3333 16.1667C42.3333 16.3877 42.4211 16.5996 42.5774 16.7559C42.7337 16.9122 42.9457 17 43.1667 17ZM39.8333 12.8333C39.8333 13.0543 39.7455 13.2663 39.5893 13.4226C39.433 13.5789 39.221 13.6667 39 13.6667C38.779 13.6667 38.567 13.5789 38.4107 13.4226C38.2545 13.2663 38.1667 13.0543 38.1667 12.8333C38.1667 12.6123 38.2545 12.4004 38.4107 12.2441C38.567 12.0878 38.779 12 39 12C39.221 12 39.433 12.0878 39.5893 12.2441C39.7455 12.4004 39.8333 12.6123 39.8333 12.8333ZM39.8333 16.1667C39.8333 16.3877 39.7455 16.5996 39.5893 16.7559C39.433 16.9122 39.221 17 39 17C38.779 17 38.567 16.9122 38.4107 16.7559C38.2545 16.5996 38.1667 16.3877 38.1667 16.1667C38.1667 15.9457 38.2545 15.7337 38.4107 15.5774C38.567 15.4211 38.779 15.3333 39 15.3333C39.221 15.3333 39.433 15.4211 39.5893 15.5774C39.7455 15.7337 39.8333 15.9457 39.8333 16.1667ZM34.8333 13.6667C35.0543 13.6667 35.2663 13.5789 35.4226 13.4226C35.5789 13.2663 35.6667 13.0543 35.6667 12.8333C35.6667 12.6123 35.5789 12.4004 35.4226 12.2441C35.2663 12.0878 35.0543 12 34.8333 12C34.6123 12 34.4004 12.0878 34.2441 12.2441C34.0878 12.4004 34 12.6123 34 12.8333C34 13.0543 34.0878 13.2663 34.2441 13.4226C34.4004 13.5789 34.6123 13.6667 34.8333 13.6667ZM34.8333 17C35.0543 17 35.2663 16.9122 35.4226 16.7559C35.5789 16.5996 35.6667 16.3877 35.6667 16.1667C35.6667 15.9457 35.5789 15.7337 35.4226 15.5774C35.2663 15.4211 35.0543 15.3333 34.8333 15.3333C34.6123 15.3333 34.4004 15.4211 34.2441 15.5774C34.0878 15.7337 34 15.9457 34 16.1667C34 16.3877 34.0878 16.5996 34.2441 16.7559C34.4004 16.9122 34.6123 17 34.8333 17Z" fill="#67A4E6"/>
<path fill-rule="evenodd" clip-rule="evenodd" d="M35.2785 4C35.4266 4 35.5685 4.0602 35.6732 4.16737C35.7779 4.27453 35.8367 4.41988 35.8367 4.57143V5.15276C36.3294 5.14286 36.8719 5.14286 37.4688 5.14286H40.5297C41.1274 5.14286 41.6699 5.14286 42.1626 5.15276V4.57143C42.1626 4.41988 42.2214 4.27453 42.326 4.16737C42.4307 4.0602 42.5727 4 42.7207 4C42.8688 4 43.0107 4.0602 43.1154 4.16737C43.2201 4.27453 43.2789 4.41988 43.2789 4.57143V5.20152C43.4724 5.21676 43.6555 5.23581 43.8289 5.25943C44.7011 5.37981 45.4074 5.63276 45.9648 6.20267C46.5215 6.77333 46.7685 7.49638 46.8861 8.38933C47 9.25791 47 10.3665 47 11.7669V13.376C47 14.7764 47 15.8857 46.8861 16.7535C46.7685 17.6465 46.5215 18.3695 45.9648 18.9402C45.4074 19.5101 44.7011 19.763 43.8289 19.8834C42.9805 20 41.8976 20 40.5297 20H37.4703C36.1024 20 35.0188 20 34.1711 19.8834C33.2989 19.763 32.5926 19.5101 32.0352 18.9402C31.4785 18.3695 31.2315 17.6465 31.1139 16.7535C31 15.885 31 14.7764 31 13.376V11.7669C31 10.3665 31 9.25714 31.1139 8.38933C31.2315 7.49638 31.4785 6.77333 32.0352 6.20267C32.5926 5.63276 33.2989 5.37981 34.1711 5.25943C34.3445 5.23581 34.5283 5.21676 34.7211 5.20152V4.57143C34.7211 4.42001 34.7798 4.27478 34.8843 4.16764C34.9888 4.06049 35.1306 4.0002 35.2785 4ZM34.3185 6.39238C33.5705 6.49524 33.1389 6.68876 32.8241 7.01105C32.5093 7.33333 32.3202 7.77524 32.2198 8.54171C32.2027 8.67124 32.1885 8.80838 32.1766 8.95238H45.8226C45.8107 8.80762 45.7966 8.67124 45.7795 8.54095C45.679 7.77524 45.49 7.33333 45.1752 7.01105C44.8604 6.68876 44.4287 6.49524 43.68 6.39238C42.9157 6.28724 41.9073 6.28571 40.4881 6.28571H37.5112C36.092 6.28571 35.0843 6.28724 34.3185 6.39238ZM32.1156 11.8095C32.1156 11.1589 32.1156 10.5928 32.1253 10.0952H45.874C45.8837 10.5928 45.8837 11.1589 45.8837 11.8095V13.3333C45.8837 14.7863 45.8822 15.8187 45.7795 16.6019C45.679 17.3676 45.49 17.8095 45.1752 18.1318C44.8604 18.4541 44.4287 18.6476 43.68 18.7505C42.9157 18.8556 41.9073 18.8571 40.4881 18.8571H37.5112C36.092 18.8571 35.0843 18.8556 34.3185 18.7505C33.5705 18.6476 33.1389 18.4541 32.8241 18.1318C32.5093 17.8095 32.3202 17.3676 32.2198 16.6011C32.1171 15.8187 32.1156 14.7863 32.1156 13.3333V11.8095Z" fill="#67A4E6"/>
</svg>
