<svg width="46" height="46" viewBox="0 0 46 46" fill="none" xmlns="http://www.w3.org/2000/svg">
<rect x="1" y="1" width="44" height="44" rx="22" fill="white"/>
<rect x="1" y="1" width="44" height="44" rx="22" stroke="#FFE27F" stroke-width="2"/>
<path d="M15.4267 32.5156L15.7672 31.8473H15.7672L15.4267 32.5156ZM13.4844 30.5733L12.8162 30.9138L13.4844 30.5733ZM32.5156 30.5733L31.8473 30.2328L32.5156 30.5733ZM30.5733 32.5156L30.9138 33.1838L30.5733 32.5156ZM17.8056 33C17.8056 33.4142 18.1413 33.75 18.5556 33.75C18.9698 33.75 19.3056 33.4142 19.3056 33H17.8056ZM26.6944 33C26.6944 33.4142 27.0302 33.75 27.4444 33.75C27.8587 33.75 28.1944 33.4142 28.1944 33H26.6944ZM19.6667 18.5556L18.9312 18.4085L18.9167 18.4813V18.5556H19.6667ZM13.0271 18.9826L12.2832 19.0777L13.0271 18.9826ZM26.3333 18.5556H27.0833V18.4813L27.0688 18.4085L26.3333 18.5556ZM32.9593 19.0781L32.2184 18.9615V18.9615L32.9593 19.0781ZM13.1589 18.1582L13.8553 18.4367L13.8553 18.4367L13.1589 18.1582ZM14.6635 14.3969L15.3598 14.6755L14.6635 14.3969ZM30.8364 14.2284L30.1656 14.5638V14.5638L30.8364 14.2284ZM32.7654 18.0863L33.4362 17.7509L33.4362 17.7509L32.7654 18.0863ZM32.25 18.5557V25.8889H33.75V18.5557H32.25ZM25.8889 32.25H20.1111V33.75H25.8889V32.25ZM13.75 25.8889V18.5557H12.25V25.8889H13.75ZM20.1111 32.25C18.8542 32.25 17.9566 32.2494 17.2531 32.1919C16.5583 32.1352 16.1192 32.0267 15.7672 31.8473L15.0862 33.1838C15.6849 33.4889 16.3434 33.6226 17.1309 33.687C17.9097 33.7506 18.8789 33.75 20.1111 33.75V32.25ZM12.25 25.8889C12.25 27.1211 12.2494 28.0903 12.313 28.8691C12.3774 29.6566 12.5111 30.3151 12.8162 30.9138L14.1527 30.2328C13.9733 29.8808 13.8648 29.4417 13.8081 28.7469C13.7506 28.0434 13.75 27.1458 13.75 25.8889H12.25ZM15.7672 31.8473C15.072 31.4931 14.5069 30.928 14.1527 30.2328L12.8162 30.9138C13.3142 31.8912 14.1088 32.6858 15.0862 33.1838L15.7672 31.8473ZM32.25 25.8889C32.25 27.1458 32.2494 28.0434 32.1919 28.7469C32.1352 29.4417 32.0267 29.8808 31.8473 30.2328L33.1838 30.9138C33.4889 30.3151 33.6226 29.6566 33.687 28.8691C33.7506 28.0903 33.75 27.1211 33.75 25.8889H32.25ZM25.8889 33.75C27.1211 33.75 28.0903 33.7506 28.8691 33.687C29.6566 33.6226 30.3151 33.4889 30.9138 33.1838L30.2328 31.8473C29.8808 32.0267 29.4417 32.1352 28.7469 32.1919C28.0434 32.2494 27.1458 32.25 25.8889 32.25V33.75ZM31.8473 30.2328C31.4931 30.928 30.928 31.4931 30.2328 31.8473L30.9138 33.1838C31.8912 32.6858 32.6858 31.8912 33.1838 30.9138L31.8473 30.2328ZM19.3056 33V28.5556H17.8056V33H19.3056ZM20.7778 27.0833H25.2222V25.5833H20.7778V27.0833ZM26.6944 28.5556V33H28.1944V28.5556H26.6944ZM25.2222 27.0833C26.0353 27.0833 26.6944 27.7425 26.6944 28.5556H28.1944C28.1944 26.914 26.8637 25.5833 25.2222 25.5833V27.0833ZM19.3056 28.5556C19.3056 27.7425 19.9647 27.0833 20.7778 27.0833V25.5833C19.1363 25.5833 17.8056 26.914 17.8056 28.5556H19.3056ZM18.9167 18.5556C18.9167 19.9823 17.7601 21.1389 16.3333 21.1389V22.6389C18.5885 22.6389 20.4167 20.8107 20.4167 18.5556H18.9167ZM16.3333 21.1389C15.0193 21.1389 13.9334 20.1571 13.771 18.8875L12.2832 19.0777C12.5401 21.0866 14.2548 22.6389 16.3333 22.6389V21.1389ZM25.5833 18.5556C25.5833 19.9823 24.4267 21.1389 23 21.1389V22.6389C25.2552 22.6389 27.0833 20.8107 27.0833 18.5556H25.5833ZM23 21.1389C21.5733 21.1389 20.4167 19.9823 20.4167 18.5556H18.9167C18.9167 20.8107 20.7448 22.6389 23 22.6389V21.1389ZM32.2184 18.9615C32.0241 20.1952 30.9549 21.1389 29.6667 21.1389V22.6389C31.7047 22.6389 33.3928 21.1465 33.7001 19.1948L32.2184 18.9615ZM29.6667 21.1389C28.2399 21.1389 27.0833 19.9823 27.0833 18.5556H25.5833C25.5833 20.8107 27.4115 22.6389 29.6667 22.6389V21.1389ZM13.8553 18.4367L15.3598 14.6755L13.9671 14.1184L12.4626 17.8797L13.8553 18.4367ZM30.1656 14.5638L32.0946 18.4218L33.4362 17.7509L31.5072 13.893L30.1656 14.5638ZM16.7267 13.75H20.7778V12.25H16.7267V13.75ZM20.4021 18.7026L21.5132 13.1471L20.0423 12.8529L18.9312 18.4085L20.4021 18.7026ZM20.7778 13.75H25.2222V12.25H20.7778V13.75ZM25.2222 13.75H28.8488V12.25H25.2222V13.75ZM27.0688 18.4085L25.9577 12.8529L24.4868 13.1471L25.5979 18.7026L27.0688 18.4085ZM31.5072 13.893C31.0038 12.8861 29.9746 12.25 28.8488 12.25V13.75C29.4065 13.75 29.9162 14.0651 30.1656 14.5638L31.5072 13.893ZM33.7001 19.1948C33.7867 18.6448 33.6305 18.1396 33.4362 17.7509L32.0946 18.4218C32.2088 18.6502 32.2391 18.8299 32.2184 18.9615L33.7001 19.1948ZM15.3598 14.6755C15.5834 14.1165 16.1247 13.75 16.7267 13.75V12.25C15.5114 12.25 14.4185 12.9899 13.9671 14.1184L15.3598 14.6755ZM13.771 18.8875C13.757 18.7778 13.7778 18.6304 13.8553 18.4367L12.4626 17.8797C12.3301 18.2109 12.2255 18.6265 12.2832 19.0777L13.771 18.8875Z" fill="#FFE27F"/>
</svg>
