<svg width="34" height="18" viewBox="0 0 34 18" fill="none" xmlns="http://www.w3.org/2000/svg">
<path fill-rule="evenodd" clip-rule="evenodd" d="M1.11111 0C0.497461 0 0 0.50368 0 1.125V5.86643C0 6.35441 0.405138 6.73453 0.850408 6.92127C1.12002 7.03434 1.365 7.20008 1.57135 7.40901C1.7777 7.61794 1.94139 7.86598 2.05307 8.13896C2.16474 8.41195 2.22222 8.70453 2.22222 9C2.22222 9.29547 2.16474 9.58805 2.05307 9.86104C1.94139 10.134 1.7777 10.3821 1.57135 10.591C1.365 10.7999 1.12002 10.9657 0.850408 11.0787C0.405138 11.2655 0 11.6456 0 12.1336V16.875C0 17.4963 0.497461 18 1.11111 18H11.5695C11.9621 18 12.3136 17.7534 12.4514 17.3812C12.757 16.5561 13.9097 16.5561 14.2153 17.3812C14.3531 17.7534 14.7046 18 15.0972 18H32.2222C32.8359 18 33.3333 17.4963 33.3333 16.875V12.1336C33.3333 11.6456 32.9282 11.2655 32.4829 11.0787C32.2133 10.9657 31.9683 10.7999 31.762 10.591C31.5556 10.3821 31.3919 10.134 31.2803 9.86104C31.1686 9.58805 31.1111 9.29547 31.1111 9C31.1111 8.70453 31.1686 8.41194 31.2803 8.13896C31.3919 7.86598 31.5556 7.61794 31.762 7.40901C31.9683 7.20008 32.2133 7.03434 32.4829 6.92127C32.9282 6.73453 33.3333 6.35441 33.3333 5.86643V1.125C33.3333 0.50368 32.8359 0 32.2222 0H15.0972C14.7046 0 14.3531 0.246592 14.2153 0.618812C13.9097 1.44389 12.757 1.44389 12.4514 0.618812C12.3136 0.246592 11.9621 0 11.5695 0H1.11111ZM13.6111 2.25C13.6111 2.09467 13.4867 1.96875 13.3333 1.96875C13.1799 1.96875 13.0556 2.09467 13.0556 2.25V2.8125C13.0556 2.96783 13.1799 3.09375 13.3333 3.09375C13.4867 3.09375 13.6111 2.96783 13.6111 2.8125V2.25ZM13.6111 3.9375C13.6111 3.78217 13.4867 3.65625 13.3333 3.65625C13.1799 3.65625 13.0556 3.78217 13.0556 3.9375V5.0625C13.0556 5.21783 13.1799 5.34375 13.3333 5.34375C13.4867 5.34375 13.6111 5.21783 13.6111 5.0625V3.9375ZM13.6111 6.1875C13.6111 6.03217 13.4867 5.90625 13.3333 5.90625C13.1799 5.90625 13.0556 6.03217 13.0556 6.1875V7.3125C13.0556 7.46783 13.1799 7.59375 13.3333 7.59375C13.4867 7.59375 13.6111 7.46783 13.6111 7.3125V6.1875ZM13.6111 8.4375C13.6111 8.28217 13.4867 8.15625 13.3333 8.15625C13.1799 8.15625 13.0556 8.28217 13.0556 8.4375V9.5625C13.0556 9.71783 13.1799 9.84375 13.3333 9.84375C13.4867 9.84375 13.6111 9.71783 13.6111 9.5625V8.4375ZM13.6111 10.6875C13.6111 10.5322 13.4867 10.4062 13.3333 10.4062C13.1799 10.4062 13.0556 10.5322 13.0556 10.6875V11.8125C13.0556 11.9678 13.1799 12.0938 13.3333 12.0938C13.4867 12.0938 13.6111 11.9678 13.6111 11.8125V10.6875ZM13.6111 12.9375C13.6111 12.7822 13.4867 12.6562 13.3333 12.6562C13.1799 12.6562 13.0556 12.7822 13.0556 12.9375V14.0625C13.0556 14.2178 13.1799 14.3438 13.3333 14.3438C13.4867 14.3438 13.6111 14.2178 13.6111 14.0625V12.9375ZM13.6111 15.1875C13.6111 15.0322 13.4867 14.9062 13.3333 14.9062C13.1799 14.9062 13.0556 15.0322 13.0556 15.1875V15.75C13.0556 15.9053 13.1799 16.0312 13.3333 16.0312C13.4867 16.0312 13.6111 15.9053 13.6111 15.75V15.1875ZM23.3333 3.375L24.6448 7.67212H28.8889L25.4554 10.3279L26.7669 14.625L23.3333 11.9692L19.8998 14.625L21.2113 10.3279L17.7778 7.67212H22.0218L23.3333 3.375ZM3.33333 3.375C3.02651 3.375 2.77778 3.62684 2.77778 3.9375C2.77778 4.24816 3.02651 4.5 3.33333 4.5H11.6667C11.9735 4.5 12.2222 4.24816 12.2222 3.9375C12.2222 3.62684 11.9735 3.375 11.6667 3.375H3.33333ZM3.05556 6.75C3.05556 6.59467 3.17992 6.46875 3.33333 6.46875H7.77778C7.93119 6.46875 8.05556 6.59467 8.05556 6.75C8.05556 6.90533 7.93119 7.03125 7.77778 7.03125H3.33333C3.17992 7.03125 3.05556 6.90533 3.05556 6.75ZM3.33317 8.16064C3.17975 8.16074 3.05546 8.28673 3.05556 8.44206C3.05565 8.59739 3.18009 8.72324 3.3335 8.72314L10.5557 8.71875C10.7091 8.71866 10.8334 8.59266 10.8333 8.43733C10.8332 8.282 10.7088 8.15616 10.5554 8.15625L3.33317 8.16064ZM3.05556 10.125C3.05556 9.96967 3.17992 9.84375 3.33333 9.84375H9.44444C9.59786 9.84375 9.72222 9.96967 9.72222 10.125C9.72222 10.2803 9.59786 10.4062 9.44444 10.4062H3.33333C3.17992 10.4062 3.05556 10.2803 3.05556 10.125ZM3.33333 11.5312C3.17992 11.5312 3.05556 11.6572 3.05556 11.8125C3.05556 11.9678 3.17992 12.0938 3.33333 12.0938H6.66667C6.82008 12.0938 6.94444 11.9678 6.94444 11.8125C6.94444 11.6572 6.82008 11.5312 6.66667 11.5312H3.33333ZM3.05556 13.5C3.05556 13.3447 3.17992 13.2188 3.33333 13.2188H8.88889C9.0423 13.2188 9.16667 13.3447 9.16667 13.5C9.16667 13.6553 9.0423 13.7812 8.88889 13.7812H3.33333C3.17992 13.7812 3.05556 13.6553 3.05556 13.5ZM3.33333 14.9062C3.17992 14.9062 3.05556 15.0322 3.05556 15.1875C3.05556 15.3428 3.17992 15.4688 3.33333 15.4688H11.6667C11.8201 15.4688 11.9444 15.3428 11.9444 15.1875C11.9444 15.0322 11.8201 14.9062 11.6667 14.9062H3.33333Z" fill="#91BDEC"/>
</svg>
