<svg width="24" height="24" viewBox="0 0 24 24" fill="none" xmlns="http://www.w3.org/2000/svg">
<path d="M12 21C10.22 21 8.47992 20.4721 6.99987 19.4832C5.51983 18.4943 4.36628 17.0887 3.68509 15.4441C3.0039 13.7996 2.82567 11.99 3.17294 10.2442C3.52021 8.49835 4.37737 6.89471 5.63605 5.63604C7.32387 3.94821 9.61306 3 12 3C14.387 3 16.6761 3.94821 18.364 5.63604C20.0518 7.32386 21 9.61305 21 12C21 14.3869 20.0518 16.6761 18.364 18.3639C17.5302 19.2023 16.5384 19.8669 15.446 20.3194C14.3536 20.7719 13.1824 21.0032 12 21Z" stroke="#223369" stroke-width="1.5"/>
<path d="M7.62933 7.8531C6.92592 8.52566 6.43775 9.39171 6.22654 10.3417C6.01534 11.2917 6.09058 12.283 6.44277 13.1903C6.79496 14.0975 7.40826 14.8799 8.20513 15.4386C9.002 15.9973 9.94664 16.3071 10.9196 16.3289C11.5658 16.3452 12.2089 16.2331 12.8115 15.9992C13.4142 15.7652 13.9644 15.4141 14.4304 14.9661" stroke="#223369" stroke-width="1.5" stroke-linecap="round"/>
<path d="M17.4438 15.4232C17.878 14.5522 18.0442 13.572 17.9214 12.6066C17.7985 11.6412 17.3921 10.7339 16.7536 9.99944C16.1151 9.26498 15.2731 8.73636 14.3342 8.48042C13.3953 8.22447 12.4015 8.25271 11.4786 8.56155C10.865 8.76502 10.2979 9.08817 9.81001 9.51229C9.32215 9.93642 8.92326 10.4531 8.63642 11.0324" stroke="#223369" stroke-width="1.5" stroke-linecap="round"/>
</svg>
