<svg width="24" height="24" viewBox="0 0 24 24" fill="none" xmlns="http://www.w3.org/2000/svg">
<path d="M15.9578 10.1685C15.9578 8.97184 13.9638 8.57289 13.9638 10.1685M9.57709 10.1685C9.57709 8.97184 7.58312 8.57289 7.58312 10.1685M10.7735 13.9017C10.7735 15.0983 12.7674 15.4973 12.7674 13.9017M3.92222 14.5073C5.05556 17.6666 8.24815 19.9518 12 19.9518C15.7519 19.9518 18.9444 17.6666 20.0778 14.5073C21.1407 14.4703 22 13.4629 22 12.2296C22 11.0629 21.2296 10.0963 20.2444 9.96663C19.2889 6.53702 15.9556 4 12 4C8.04444 4 4.71111 6.53702 3.75556 9.96663C2.77037 10.0963 2 11.0629 2 12.2296C2 13.4629 2.85926 14.4703 3.92222 14.5073Z" stroke="#223369" stroke-width="1.5" stroke-linecap="round"/>
</svg>
