<svg width="24" height="24" viewBox="0 0 24 24" fill="none" xmlns="http://www.w3.org/2000/svg">
<path fill-rule="evenodd" clip-rule="evenodd" d="M10.774 17.8115C10.797 17.8159 10.8204 17.8182 10.844 17.8182C10.86 17.8182 10.876 17.8172 10.8918 17.8151C10.9739 17.8171 11.0562 17.8182 11.1386 17.8182C11.2802 17.8182 11.4223 17.8152 11.5644 17.8092L11.5598 17.8157C11.4543 17.9677 11.4924 18.1769 11.6431 18.2824C12.8432 19.123 14.0336 19.5455 15.1907 19.5455C15.4868 19.5455 15.7803 19.5177 16.0702 19.4623C17.7926 19.1359 19.4152 17.8447 20.8959 15.625C20.9912 15.4815 21.0223 15.3111 20.9841 15.1448C20.9469 14.9803 20.8414 14.8359 20.6942 14.75L18.6469 13.5456C18.6341 13.5381 18.6211 13.5316 18.6079 13.526C19.3711 11.8292 19.3514 9.93722 19.1641 8.17039C19.1278 7.84315 18.8582 7.56429 18.5381 7.52048C17.0892 7.32385 15.8419 7.56583 14.7385 8.26031C14.696 8.16336 14.6446 8.07379 14.5878 8.00204L11.6118 4.23473C11.4907 4.08281 11.3109 3.99018 11.1311 4.00083C10.9475 4.00407 10.7753 4.09624 10.6614 4.25232C10.3707 4.64665 10.0839 5.01704 9.80634 5.37549L9.76475 5.4292L9.76453 5.42949C9.03588 6.36959 8.34778 7.25738 7.86137 8.23315C7.81517 8.32592 7.77159 8.41829 7.73056 8.51025C6.64957 7.7293 5.52148 7.50594 4.29465 7.82763C3.98868 7.90841 3.75035 8.2142 3.74037 8.54098C3.69545 10.2716 3.73703 12.0328 4.3613 13.6029L2.34599 14.7777C2.04609 14.9509 1.9185 15.3281 2.05401 15.6362C2.84613 17.4368 4.32605 18.7702 6.11332 19.2953C6.68191 19.4622 7.26215 19.5455 7.84145 19.5455C9.04476 19.5455 10.2462 19.1895 11.3419 18.4947C11.5031 18.3925 11.5487 18.1822 11.443 18.0252C11.3387 17.8683 11.1212 17.824 10.9601 17.9266C9.51137 18.8453 7.86333 19.1022 6.31449 18.6467C4.72607 18.179 3.40727 16.9854 2.70456 15.3598L4.64688 14.2271C5.14778 15.1868 5.90952 16.0578 7.05836 16.7835C8.06516 17.4197 9.39051 17.7607 10.774 17.8115ZM11.0148 17.1247C10.9095 16.9977 10.8037 16.8714 10.6971 16.745C10.4129 16.4065 10.1286 16.0679 9.85965 15.7187C7.81606 13.0653 7.38541 10.7838 8.5033 8.53699C8.95925 7.62225 9.59559 6.80134 10.3324 5.85078L10.3347 5.8479C10.5984 5.50933 10.8693 5.15873 11.1449 4.7882L14.0193 8.42583C14.0775 8.49993 14.1405 8.6764 14.1424 8.77366C14.149 9.21365 14.1714 9.63376 14.1929 10.0363L14.1929 10.0376C14.2478 11.0575 14.2945 11.9379 14.0808 12.7364C13.8185 13.7169 13.3154 14.6289 12.7827 15.5932C12.7687 15.6186 12.7547 15.6441 12.7406 15.6696C12.5271 16.0574 12.3075 16.4565 12.1093 16.8571C12.0742 16.9286 12.0663 17.0061 12.0817 17.0782C11.7264 17.1136 11.3689 17.1292 11.0148 17.1247ZM12.8492 16.97C13.7731 16.8004 14.6544 16.4925 15.3922 16.0483C18.6403 14.0912 18.7801 11.006 18.4877 8.24569C18.485 8.23291 18.4591 8.20462 18.4441 8.19914C17.0572 8.01007 15.8854 8.2727 14.8643 8.99921C14.8742 9.34216 14.8912 9.67148 14.9077 9.99056L14.9083 10.0015L14.9089 10.0136C14.9636 11.0415 15.0151 12.0123 14.7733 12.911C14.491 13.9721 13.944 14.9633 13.4141 15.9216C13.221 16.2699 13.0289 16.618 12.8492 16.97ZM10.0405 17.0606C9.78535 16.7554 9.5301 16.4491 9.28783 16.1341C8.02539 14.4947 6.54107 12.0565 7.47561 9.17266C6.51234 8.42279 5.55169 8.20609 4.4667 8.48941C4.45082 8.49763 4.42222 8.53824 4.42131 8.55969C4.34277 11.5391 4.51528 14.3673 7.41926 16.2025C8.13724 16.6559 9.05418 16.9411 10.0405 17.0606ZM15.9483 18.8037C14.7181 19.038 13.4179 18.6915 12.0839 17.7739C13.3985 17.6506 14.691 17.2702 15.7417 16.6343C16.9447 15.9095 17.7613 15.0517 18.3033 14.1192L18.3122 14.1246L20.3209 15.2861C18.951 17.3293 17.48 18.5131 15.9483 18.8037Z" fill="#223369"/>
<path d="M10.774 17.8115L10.8214 17.566L10.8024 17.5624L10.7831 17.5617L10.774 17.8115ZM10.8918 17.8151L10.898 17.5652L10.8789 17.5647L10.8599 17.5672L10.8918 17.8151ZM11.5644 17.8092L11.7685 17.9535L12.0623 17.5379L11.5538 17.5594L11.5644 17.8092ZM11.5598 17.8157L11.3556 17.6713L11.3544 17.6731L11.5598 17.8157ZM11.6431 18.2824L11.7865 18.0777L11.7865 18.0776L11.6431 18.2824ZM16.0702 19.4623L16.0237 19.2167L16.0233 19.2167L16.0702 19.4623ZM20.8959 15.625L21.1039 15.7637L21.1042 15.7633L20.8959 15.625ZM20.9841 15.1448L20.7403 15.2L20.7405 15.2007L20.9841 15.1448ZM20.6942 14.75L20.5674 14.9655L20.5682 14.966L20.6942 14.75ZM18.6469 13.5456L18.7736 13.3301L18.7735 13.33L18.6469 13.5456ZM18.6079 13.526L18.3799 13.4234L18.2751 13.6565L18.5104 13.7562L18.6079 13.526ZM19.1641 8.17039L19.4127 8.14404L19.4126 8.14281L19.1641 8.17039ZM18.5381 7.52048L18.572 7.27279L18.5717 7.27275L18.5381 7.52048ZM14.7385 8.26031L14.5095 8.36063L14.626 8.62651L14.8717 8.47189L14.7385 8.26031ZM14.5878 8.00204L14.3916 8.15701L14.3917 8.15713L14.5878 8.00204ZM11.6118 4.23473L11.808 4.07976L11.8073 4.07886L11.6118 4.23473ZM11.1311 4.00083L11.1355 4.25101L11.1459 4.25039L11.1311 4.00083ZM10.6614 4.25232L10.8626 4.40067L10.8632 4.39976L10.6614 4.25232ZM9.80634 5.37549L9.60867 5.22243L9.60867 5.22243L9.80634 5.37549ZM9.76475 5.4292L9.96227 5.58245L9.96242 5.58226L9.76475 5.4292ZM9.76453 5.42949L9.567 5.27624L9.56693 5.27634L9.76453 5.42949ZM7.86137 8.23315L7.63763 8.12162L7.63759 8.1217L7.86137 8.23315ZM7.73056 8.51025L7.58416 8.7129L7.83352 8.89305L7.95887 8.61211L7.73056 8.51025ZM4.29465 7.82763L4.23124 7.5858L4.23083 7.58591L4.29465 7.82763ZM3.74037 8.54098L3.49048 8.53334L3.49045 8.53449L3.74037 8.54098ZM4.3613 13.6029L4.48721 13.8188L4.67312 13.7105L4.59361 13.5105L4.3613 13.6029ZM2.34599 14.7777L2.47104 14.9942L2.4719 14.9937L2.34599 14.7777ZM2.05401 15.6362L2.28285 15.5355L2.28284 15.5355L2.05401 15.6362ZM6.11332 19.2953L6.04284 19.5352L6.04291 19.5352L6.11332 19.2953ZM11.3419 18.4947L11.4758 18.7059L11.4759 18.7058L11.3419 18.4947ZM11.443 18.0252L11.2348 18.1636L11.2356 18.1649L11.443 18.0252ZM10.9601 17.9266L11.094 18.1378L11.0944 18.1375L10.9601 17.9266ZM6.31449 18.6467L6.24388 18.8865L6.24396 18.8866L6.31449 18.6467ZM2.70456 15.3598L2.57862 15.1438L2.38712 15.2555L2.47508 15.459L2.70456 15.3598ZM4.64688 14.2271L4.86851 14.1114L4.74728 13.8792L4.52094 14.0112L4.64688 14.2271ZM7.05836 16.7835L7.19191 16.5722L7.19188 16.5721L7.05836 16.7835ZM10.6971 16.745L10.5056 16.9058L10.5061 16.9063L10.6971 16.745ZM11.0148 17.1247L10.8222 17.2842L10.896 17.3733L11.0116 17.3747L11.0148 17.1247ZM9.85965 15.7187L9.66159 15.8712L9.66159 15.8712L9.85965 15.7187ZM8.5033 8.53699L8.27956 8.42546L8.27948 8.42562L8.5033 8.53699ZM10.3324 5.85078L10.53 6.00394L10.5301 6.0039L10.3324 5.85078ZM10.3347 5.8479L10.1374 5.69427L10.137 5.69478L10.3347 5.8479ZM11.1449 4.7882L11.3411 4.63321L11.139 4.3774L10.9444 4.63898L11.1449 4.7882ZM14.0193 8.42583L14.216 8.27144L14.2155 8.27083L14.0193 8.42583ZM14.1424 8.77366L14.3923 8.76987L14.3923 8.76876L14.1424 8.77366ZM14.1929 10.0363L14.4425 10.0232L14.4425 10.023L14.1929 10.0363ZM14.1929 10.0376L13.9433 10.0508L13.9433 10.051L14.1929 10.0376ZM14.0808 12.7364L13.8393 12.6718L13.8393 12.6718L14.0808 12.7364ZM12.7827 15.5932L12.5638 15.4723L12.5636 15.4727L12.7827 15.5932ZM12.7406 15.6696L12.9596 15.7901L12.9596 15.7901L12.7406 15.6696ZM12.1093 16.8571L11.8852 16.7463L11.8849 16.7469L12.1093 16.8571ZM12.0817 17.0782L12.1065 17.327L12.3847 17.2993L12.3262 17.0259L12.0817 17.0782ZM12.8492 16.97L12.6265 16.8563L12.3963 17.3073L12.8943 17.2159L12.8492 16.97ZM15.3922 16.0483L15.5211 16.2624L15.5212 16.2624L15.3922 16.0483ZM18.4877 8.24569L18.7363 8.21936L18.735 8.20636L18.7322 8.19358L18.4877 8.24569ZM18.4441 8.19914L18.53 7.96434L18.5046 7.95508L18.4779 7.95143L18.4441 8.19914ZM14.8643 8.99921L14.7194 8.79551L14.6105 8.87292L14.6144 9.0064L14.8643 8.99921ZM14.9077 9.99056L14.6581 10.0035V10.0035L14.9077 9.99056ZM14.9083 10.0015L14.6586 10.0144L14.6586 10.0147L14.9083 10.0015ZM14.9089 10.0136L14.6593 10.0268V10.0268L14.9089 10.0136ZM14.7733 12.911L14.5319 12.8461L14.5317 12.8468L14.7733 12.911ZM13.4141 15.9216L13.6328 16.0428L13.6329 16.0425L13.4141 15.9216ZM10.0405 17.0606L10.0104 17.3088L10.6373 17.3848L10.2323 16.9003L10.0405 17.0606ZM9.28783 16.1341L9.48598 15.9817L9.48591 15.9816L9.28783 16.1341ZM7.47561 9.17266L7.71343 9.24973L7.76745 9.08304L7.62918 8.97539L7.47561 9.17266ZM4.4667 8.48941L4.40354 8.24752L4.37661 8.25455L4.35189 8.26734L4.4667 8.48941ZM4.42131 8.55969L4.1715 8.54912L4.17139 8.5531L4.42131 8.55969ZM7.41926 16.2025L7.28571 16.4139L7.28579 16.4139L7.41926 16.2025ZM12.0839 17.7739L12.0606 17.525L11.3744 17.5893L11.9422 17.9798L12.0839 17.7739ZM15.9483 18.8037L15.9017 18.5581L15.9015 18.5582L15.9483 18.8037ZM15.7417 16.6343L15.6127 16.4201L15.6123 16.4204L15.7417 16.6343ZM18.3033 14.1192L18.4337 13.9058L18.2156 13.7726L18.0872 13.9935L18.3033 14.1192ZM18.3122 14.1246L18.1818 14.338L18.187 14.341L18.3122 14.1246ZM20.3209 15.2861L20.5286 15.4253L20.6773 15.2034L20.4461 15.0697L20.3209 15.2861ZM10.844 17.5682C10.8363 17.5682 10.8287 17.5674 10.8214 17.566L10.7266 18.057C10.7652 18.0644 10.8045 18.0682 10.844 18.0682V17.5682ZM10.8599 17.5672C10.8546 17.5678 10.8493 17.5682 10.844 17.5682V18.0682C10.8706 18.0682 10.8973 18.0665 10.9238 18.0631L10.8599 17.5672ZM11.1386 17.5682C11.0582 17.5682 10.978 17.5672 10.898 17.5652L10.8857 18.065C10.9698 18.0671 11.0541 18.0682 11.1386 18.0682V17.5682ZM11.5538 17.5594C11.4152 17.5652 11.2767 17.5682 11.1386 17.5682V18.0682C11.2838 18.0682 11.4293 18.0651 11.5749 18.0589L11.5538 17.5594ZM11.7639 17.96L11.7685 17.9535L11.3603 17.6648L11.3556 17.6714L11.7639 17.96ZM11.7865 18.0776C11.7481 18.0508 11.7384 17.9967 11.7651 17.9582L11.3544 17.6731C11.1701 17.9387 11.2367 18.3031 11.4997 18.4873L11.7865 18.0776ZM15.1907 19.2955C14.0968 19.2955 12.9556 18.8964 11.7865 18.0777L11.4997 18.4872C12.7308 19.3495 13.9703 19.7955 15.1907 19.7955V19.2955ZM16.0233 19.2167C15.7489 19.2692 15.4711 19.2955 15.1907 19.2955V19.7955C15.5025 19.7955 15.8117 19.7663 16.1172 19.7078L16.0233 19.2167ZM20.6879 15.4862C19.2252 17.679 17.6524 18.908 16.0237 19.2167L16.1168 19.7079C17.9328 19.3638 19.6051 18.0105 21.1039 15.7637L20.6879 15.4862ZM20.7405 15.2007C20.7632 15.2998 20.7452 15.4 20.6877 15.4867L21.1042 15.7633C21.2372 15.5629 21.2813 15.3224 21.2278 15.0889L20.7405 15.2007ZM20.5682 14.966C20.6556 15.0169 20.7184 15.1031 20.7403 15.2L21.228 15.0896C21.1754 14.8574 21.0272 14.6548 20.8201 14.5341L20.5682 14.966ZM18.5201 13.7611L20.5674 14.9655L20.821 14.5346L18.7736 13.3301L18.5201 13.7611ZM18.5104 13.7562C18.5137 13.7576 18.517 13.7592 18.5203 13.7612L18.7735 13.33C18.7513 13.317 18.7286 13.3056 18.7054 13.2958L18.5104 13.7562ZM18.9155 8.19674C19.1017 9.95311 19.1148 11.7895 18.3799 13.4234L18.8359 13.6285C19.6273 11.8689 19.6011 9.92134 19.4127 8.14404L18.9155 8.19674ZM18.5042 7.76817C18.7085 7.79614 18.8917 7.98233 18.9157 8.19796L19.4126 8.14281C19.3639 7.70397 19.0078 7.33245 18.572 7.27279L18.5042 7.76817ZM14.8717 8.47189C15.9193 7.81255 17.106 7.57842 18.5045 7.76821L18.5717 7.27275C17.0724 7.06928 15.7646 7.3191 14.6053 8.04873L14.8717 8.47189ZM14.3917 8.15713C14.4323 8.20847 14.4735 8.27853 14.5095 8.36063L14.9675 8.15999C14.9185 8.0482 14.8568 7.9391 14.7839 7.84696L14.3917 8.15713ZM11.4157 4.38969L14.3916 8.15701L14.784 7.84707L11.808 4.07976L11.4157 4.38969ZM11.1459 4.25039C11.2302 4.2454 11.3362 4.29008 11.4164 4.39059L11.8073 4.07886C11.6452 3.87554 11.3916 3.73496 11.1163 3.75127L11.1459 4.25039ZM10.8632 4.39976C10.9339 4.30302 11.0348 4.25257 11.1355 4.25079L11.1267 3.75087C10.8602 3.75558 10.6168 3.88946 10.4595 4.10489L10.8632 4.39976ZM10.004 5.52854C10.2813 5.17039 10.5699 4.79774 10.8626 4.40066L10.4601 4.10398C10.1715 4.49557 9.88644 4.86369 9.60867 5.22243L10.004 5.52854ZM9.96242 5.58226L10.004 5.52854L9.60867 5.22243L9.56707 5.27615L9.96242 5.58226ZM9.96205 5.58273L9.96227 5.58245L9.56722 5.27596L9.567 5.27624L9.96205 5.58273ZM8.08511 8.34469C8.55853 7.39497 9.23033 6.5268 9.96212 5.58264L9.56693 5.27634C8.84143 6.21238 8.13702 7.11979 7.63763 8.12162L8.08511 8.34469ZM7.95887 8.61211C7.99844 8.52342 8.04051 8.43424 8.08515 8.34461L7.63759 8.1217C7.58983 8.2176 7.54474 8.31316 7.50225 8.40839L7.95887 8.61211ZM4.35806 8.06945C5.50861 7.76777 6.5603 7.97322 7.58416 8.7129L7.87696 8.3076C6.73883 7.48538 5.53435 7.24412 4.23124 7.5858L4.35806 8.06945ZM3.99025 8.54862C3.99699 8.32801 4.16372 8.12076 4.35847 8.06935L4.23083 7.58591C3.81364 7.69606 3.50372 8.10039 3.49048 8.53334L3.99025 8.54862ZM4.59361 13.5105C3.98988 11.9921 3.9454 10.2765 3.99028 8.54747L3.49045 8.53449C3.44549 10.2666 3.48418 12.0735 4.12899 13.6952L4.59361 13.5105ZM2.4719 14.9937L4.48721 13.8188L4.2354 13.3869L2.22008 14.5617L2.4719 14.9937ZM2.28284 15.5355C2.20066 15.3487 2.27724 15.1061 2.47104 14.9942L2.22094 14.5612C1.81495 14.7957 1.63633 15.3076 1.82518 15.7368L2.28284 15.5355ZM6.18379 19.0555C4.47159 18.5524 3.04715 17.2729 2.28285 15.5355L1.82517 15.7368C2.6451 17.6007 4.18051 18.988 6.04284 19.5352L6.18379 19.0555ZM7.84145 19.2955C7.2862 19.2955 6.72967 19.2157 6.18373 19.0554L6.04291 19.5352C6.63415 19.7088 7.23809 19.7955 7.84145 19.7955V19.2955ZM11.2081 18.2836C10.1499 18.9545 8.99456 19.2955 7.84145 19.2955V19.7955C9.09495 19.7955 10.3425 19.4245 11.4758 18.7059L11.2081 18.2836ZM11.2356 18.1649C11.2611 18.2027 11.2528 18.2552 11.208 18.2836L11.4759 18.7058C11.7534 18.5298 11.8363 18.1617 11.6503 17.8856L11.2356 18.1649ZM11.0944 18.1375C11.1435 18.1062 11.2077 18.1229 11.2348 18.1636L11.6512 17.8869C11.4697 17.6137 11.0989 17.5417 10.8257 17.7158L11.0944 18.1375ZM6.24396 18.8866C7.86689 19.3638 9.58896 19.0921 11.094 18.1378L10.8262 17.7155C9.43377 18.5985 7.85978 18.8406 6.38502 18.4069L6.24396 18.8866ZM2.47508 15.459C3.20528 17.1482 4.57964 18.3965 6.24388 18.8865L6.3851 18.4069C4.87249 17.9615 3.60925 16.8226 2.93404 15.2606L2.47508 15.459ZM4.52094 14.0112L2.57862 15.1438L2.8305 15.5758L4.77282 14.4431L4.52094 14.0112ZM7.19188 16.5721C6.07954 15.8695 5.34856 15.0312 4.86851 14.1114L4.42525 14.3428C4.94699 15.3424 5.7395 16.2461 6.92485 16.9949L7.19188 16.5721ZM10.7831 17.5617C9.43097 17.512 8.15184 17.1787 7.19191 16.5722L6.92482 16.9949C7.97848 17.6607 9.35004 18.0094 10.7648 18.0613L10.7831 17.5617ZM10.5061 16.9063C10.6123 17.0321 10.7176 17.1578 10.8222 17.2842L11.2073 16.9653C11.1015 16.8375 10.9952 16.7106 10.8882 16.5838L10.5061 16.9063ZM9.66159 15.8712C9.93432 16.2253 10.222 16.5679 10.5057 16.9058L10.8886 16.5843C10.6038 16.2451 10.3229 15.9105 10.0577 15.5661L9.66159 15.8712ZM8.27948 8.42562C7.69784 9.59461 7.51613 10.7819 7.75026 12.0217C7.98333 13.2559 8.62515 14.5255 9.66159 15.8712L10.0577 15.5661C9.05056 14.2584 8.45527 13.0606 8.24158 11.929C8.02896 10.803 8.19087 9.72614 8.72713 8.64835L8.27948 8.42562ZM10.1348 5.69761C9.40135 6.64386 8.74855 7.48456 8.27956 8.42546L8.72705 8.64851C9.16996 7.75994 9.78983 6.95883 10.53 6.00394L10.1348 5.69761ZM10.137 5.69478L10.1348 5.69766L10.5301 6.0039L10.5323 6.00102L10.137 5.69478ZM10.9444 4.63898C10.6704 5.00726 10.4008 5.35615 10.1374 5.69427L10.5319 6.00153C10.796 5.66252 11.0682 5.31019 11.3455 4.93743L10.9444 4.63898ZM14.2155 8.27083L11.3411 4.63321L10.9488 4.9432L13.8232 8.58082L14.2155 8.27083ZM14.3923 8.76876C14.3906 8.68106 14.3645 8.58335 14.3376 8.50748C14.3108 8.43195 14.2696 8.33979 14.216 8.27144L13.8227 8.58022C13.8222 8.57955 13.8238 8.58152 13.8271 8.58706C13.8303 8.59239 13.8343 8.59961 13.8388 8.60876C13.848 8.62725 13.8576 8.65001 13.8663 8.67464C13.8751 8.69927 13.882 8.72319 13.8866 8.74372C13.8889 8.75387 13.8905 8.76228 13.8914 8.76881C13.8923 8.77556 13.8924 8.77866 13.8924 8.77856L14.3923 8.76876ZM14.4425 10.023C14.421 9.61989 14.3989 9.20438 14.3923 8.76987L13.8924 8.77745C13.8991 9.22291 13.9218 9.64764 13.9432 10.0496L14.4425 10.023ZM14.4426 10.0245L14.4425 10.0232L13.9432 10.0495L13.9433 10.0508L14.4426 10.0245ZM14.3223 12.8011C14.5483 11.9568 14.4969 11.0338 14.4426 10.0242L13.9433 10.051C13.9987 11.0812 14.0407 11.9191 13.8393 12.6718L14.3223 12.8011ZM13.0015 15.7141C13.5312 14.7552 14.0508 13.8163 14.3224 12.801L13.8393 12.6718C13.5863 13.6176 13.0996 14.5026 12.5638 15.4723L13.0015 15.7141ZM12.9596 15.7901C12.9737 15.7646 12.9877 15.7391 13.0017 15.7137L12.5636 15.4727C12.5497 15.4981 12.5357 15.5235 12.5216 15.549L12.9596 15.7901ZM12.3333 16.968C12.5287 16.5731 12.7457 16.1788 12.9596 15.7901L12.5216 15.549C12.3086 15.936 12.0863 16.3399 11.8852 16.7463L12.3333 16.968ZM12.3262 17.0259C12.3221 17.0069 12.3241 16.9869 12.3336 16.9674L11.8849 16.7469C11.8243 16.8703 11.8104 17.0052 11.8373 17.1306L12.3262 17.0259ZM11.0116 17.3747C11.3751 17.3793 11.7419 17.3633 12.1065 17.327L12.057 16.8295C11.7108 16.8639 11.3627 16.8791 11.0179 16.8748L11.0116 17.3747ZM12.8943 17.2159C13.8419 17.0419 14.7529 16.725 15.5211 16.2624L15.2632 15.8341C14.556 16.26 13.7043 16.5588 12.804 16.7241L12.8943 17.2159ZM15.5212 16.2624C17.2002 15.2508 18.0856 13.9384 18.5073 12.5194C18.926 11.1103 18.8835 9.60918 18.7363 8.21936L18.2391 8.27202C18.3843 9.64249 18.4181 11.0641 18.028 12.377C17.6408 13.68 16.8322 14.8887 15.2632 15.8341L15.5212 16.2624ZM18.7322 8.19358C18.7213 8.14227 18.697 8.10569 18.6895 8.0945C18.6778 8.07703 18.6652 8.06189 18.6538 8.04961C18.6423 8.03723 18.6283 8.02374 18.6121 8.01092C18.5992 8.00074 18.5704 7.97911 18.53 7.96434L18.3583 8.43394C18.3254 8.42192 18.3054 8.40587 18.3017 8.40294C18.2947 8.39736 18.2901 8.39277 18.2873 8.38974C18.2846 8.38682 18.2799 8.38149 18.2743 8.37309C18.2714 8.36883 18.2668 8.36151 18.2618 8.35149C18.2575 8.34281 18.2488 8.32397 18.2432 8.2978L18.7322 8.19358ZM18.4779 7.95143C17.0358 7.75484 15.7984 8.02781 14.7194 8.79551L15.0092 9.20291C15.9725 8.51759 17.0786 8.2653 18.4104 8.44685L18.4779 7.95143ZM14.6144 9.0064C14.6243 9.35266 14.6416 9.68478 14.6581 10.0035L15.1574 9.97763C15.1409 9.65818 15.124 9.33166 15.1142 8.99202L14.6144 9.0064ZM14.6581 10.0035L14.6586 10.0144L15.158 9.98855L15.1574 9.97762L14.6581 10.0035ZM14.6586 10.0147L14.6593 10.0268L15.1586 10.0003L15.1579 9.98824L14.6586 10.0147ZM14.6593 10.0268C14.7144 11.0637 14.7615 11.9929 14.5319 12.8461L15.0147 12.976C15.2688 12.0318 15.2127 11.0192 15.1586 10.0003L14.6593 10.0268ZM14.5317 12.8468C14.2587 13.873 13.7279 14.8374 13.1953 15.8006L13.6329 16.0425C14.16 15.0892 14.7233 14.0712 15.0149 12.9753L14.5317 12.8468ZM13.1955 15.8003C13.0025 16.1485 12.8084 16.5 12.6265 16.8563L13.0718 17.0837C13.2493 16.736 13.4395 16.3914 13.6328 16.0428L13.1955 15.8003ZM10.2323 16.9003C9.97685 16.5947 9.72473 16.2921 9.48598 15.9817L9.08968 16.2866C9.33548 16.6061 9.59385 16.9161 9.84869 17.221L10.2323 16.9003ZM9.48591 15.9816C8.22981 14.3504 6.82046 12.0053 7.71343 9.24973L7.23778 9.0956C6.26169 12.1077 7.82098 14.639 9.08975 16.2867L9.48591 15.9816ZM7.62918 8.97539C6.6105 8.18238 5.5708 7.94272 4.40354 8.24752L4.52987 8.7313C5.53259 8.46947 6.41419 8.66319 7.32204 9.36994L7.62918 8.97539ZM4.35189 8.26734C4.30948 8.28926 4.28131 8.31839 4.27001 8.33054C4.2547 8.347 4.24142 8.36435 4.23043 8.38083C4.2195 8.39721 4.20775 8.41733 4.1977 8.44019C4.18944 8.45898 4.17367 8.49863 4.17153 8.54912L4.67108 8.57026C4.6694 8.61003 4.65755 8.63656 4.6554 8.64145C4.65147 8.6504 4.64802 8.65583 4.64635 8.65835C4.6446 8.66096 4.64151 8.66528 4.63606 8.67114C4.63326 8.67415 4.62832 8.6792 4.62117 8.68521C4.61491 8.69048 4.60145 8.70118 4.58152 8.71148L4.35189 8.26734ZM4.17139 8.5531C4.09285 11.5328 4.25496 14.4986 7.28571 16.4139L7.55282 15.9912C4.77559 14.2361 4.59269 11.5453 4.67122 8.56628L4.17139 8.5531ZM7.28579 16.4139C8.04301 16.892 8.99794 17.1861 10.0104 17.3088L10.0706 16.8124C9.11041 16.6961 8.23147 16.4197 7.55274 15.9911L7.28579 16.4139ZM11.9422 17.9798C13.3143 18.9237 14.6816 19.2995 15.9951 19.0493L15.9015 18.5582C14.7547 18.7766 13.5214 18.4592 12.2256 17.5679L11.9422 17.9798ZM15.6123 16.4204C14.5996 17.0332 13.3451 17.4045 12.0606 17.525L12.1072 18.0228C13.4519 17.8967 14.7823 17.5071 15.8712 16.8482L15.6123 16.4204ZM18.0872 13.9935C17.5678 14.8872 16.7822 15.7155 15.6127 16.4201L15.8707 16.8484C17.1071 16.1035 17.9548 15.2162 18.5195 14.2448L18.0872 13.9935ZM18.4425 13.9112L18.4337 13.9058L18.173 14.3325L18.1818 14.3379L18.4425 13.9112ZM20.4461 15.0697L18.4373 13.9081L18.187 14.341L20.1958 15.5025L20.4461 15.0697ZM15.9949 19.0494C17.6219 18.7407 19.1423 17.4928 20.5286 15.4253L20.1133 15.1469C18.7597 17.1657 17.3382 18.2856 15.9017 18.5581L15.9949 19.0494Z" fill="#223369"/>
</svg>
