<svg width="24" height="24" viewBox="0 0 24 24" fill="none" xmlns="http://www.w3.org/2000/svg">
<mask id="path-1-outside-1_5491_30322" maskUnits="userSpaceOnUse" x="2" y="2" width="20" height="20" fill="black">
<rect fill="white" x="2" y="2" width="20" height="20"/>
<path d="M20.5026 18.1176L16.8042 14.4164C16.9139 13.9973 16.672 13.8876 15.5526 12.7711L17.7576 8.35826C17.81 8.25308 17.8282 8.13412 17.8095 8.01811C17.7908 7.90209 17.7363 7.79483 17.6536 7.71138L16.177 6.23201C16.2762 5.97769 16.2993 5.7 16.2433 5.43281C16.1874 5.16562 16.0549 4.92049 15.862 4.72732L14.8664 3.7317C14.761 3.62693 14.6184 3.56813 14.4698 3.56813C14.3212 3.56813 14.1786 3.62693 14.0733 3.7317L3.7317 14.0733C3.62693 14.1786 3.56813 14.3212 3.56813 14.4698C3.56813 14.6184 3.62693 14.761 3.7317 14.8664L4.72732 15.862C4.92049 16.0549 5.16562 16.1874 5.43281 16.2433C5.7 16.2993 5.97769 16.2762 6.23201 16.177L7.71138 17.6536C7.79483 17.7363 7.90209 17.7908 8.01811 17.8095C8.13412 17.8282 8.25308 17.81 8.35826 17.7576L12.7711 15.5526L13.8764 16.6579C13.9458 16.7273 14.0322 16.7773 14.1269 16.803C14.2216 16.8286 14.3214 16.829 14.4164 16.8042C18.3173 20.7164 18.2442 20.6489 18.4158 20.7389C18.767 20.9551 19.1852 21.0352 19.5914 20.9641C19.9977 20.893 20.3638 20.6756 20.6207 20.353C20.8776 20.0303 21.0074 19.6248 20.9856 19.2129C20.9639 18.8011 20.7921 18.4114 20.5026 18.1176ZM5.52888 15.0689L4.9242 14.4698L14.4698 4.9242L15.0689 5.52888C15.0952 5.55503 15.1162 5.58614 15.1304 5.62041C15.1447 5.65468 15.1521 5.69144 15.1521 5.72857C15.1521 5.7657 15.1447 5.80246 15.1304 5.83673C15.1162 5.87101 15.0952 5.90211 15.0689 5.92826L5.91982 15.0689C5.86738 15.1196 5.79729 15.1479 5.72435 15.1479C5.65141 15.1479 5.58133 15.1196 5.52888 15.0689ZM13.2773 14.4726C13.1942 14.3894 13.0871 14.3344 12.9711 14.3152C12.855 14.296 12.7359 14.3137 12.6304 14.3658L8.21763 16.5708L7.11232 15.4654L15.4654 7.11232L16.5708 8.21763L14.3658 12.6304C14.3137 12.7359 14.296 12.855 14.3152 12.9711C14.3344 13.0871 14.3894 13.1942 14.4726 13.2773L15.4654 14.2729L14.2729 15.4654L13.2773 14.4726ZM18.9698 19.7573C18.8264 19.6308 17.9292 18.7279 15.2658 16.0645L16.0617 15.2658L19.7179 18.922C19.8153 19.0245 19.8705 19.1598 19.8726 19.3012C19.8747 19.4425 19.8235 19.5795 19.7292 19.6848C19.6349 19.7901 19.5044 19.856 19.3637 19.8694C19.223 19.8829 19.0824 19.8429 18.9698 19.7573ZM7.10107 7.8942C7.20868 7.98635 7.3471 8.0345 7.48866 8.02903C7.63023 8.02357 7.76452 7.96488 7.8647 7.8647C7.96488 7.76452 8.02357 7.63023 8.02903 7.48866C8.0345 7.3471 7.98635 7.20868 7.8942 7.10107L3.9567 3.16357C3.8513 3.0588 3.70874 3 3.56013 3C3.41153 3 3.26896 3.0588 3.16357 3.16357C3.0588 3.26896 3 3.41153 3 3.56013C3 3.70874 3.0588 3.8513 3.16357 3.9567L7.10107 7.8942ZM9.35107 5.92545C9.45868 6.0176 9.5971 6.06575 9.73866 6.06028C9.88023 6.05482 10.0145 5.99613 10.1147 5.89595C10.2149 5.79577 10.2736 5.66148 10.279 5.51991C10.2845 5.37835 10.2363 5.23993 10.1442 5.13232L8.4567 3.44482C8.34909 3.35267 8.21067 3.30452 8.0691 3.30998C7.92754 3.31545 7.79324 3.37414 7.69307 3.47432C7.59289 3.57449 7.5342 3.70879 7.52873 3.85035C7.52326 3.99192 7.57142 4.13034 7.66357 4.23795L9.35107 5.92545ZM3.44482 7.66357C3.34005 7.76896 3.28125 7.91153 3.28125 8.06013C3.28125 8.20874 3.34005 8.3513 3.44482 8.4567L5.13232 10.1442C5.23993 10.2363 5.37835 10.2845 5.51991 10.279C5.66148 10.2736 5.79577 10.2149 5.89595 10.1147C5.99613 10.0145 6.05482 9.88023 6.06028 9.73866C6.06575 9.5971 6.0176 9.45868 5.92545 9.35107L4.23795 7.66357C4.13255 7.5588 3.98999 7.5 3.84138 7.5C3.69278 7.5 3.55021 7.5588 3.44482 7.66357ZM11.8823 4.5192C11.9327 4.57808 11.9948 4.6259 12.0646 4.65967C12.1344 4.69343 12.2104 4.7124 12.2879 4.71539C12.3653 4.71839 12.4426 4.70533 12.5148 4.67705C12.5869 4.64877 12.6525 4.60588 12.7073 4.55106C12.7621 4.49624 12.805 4.43069 12.8333 4.3585C12.8616 4.28632 12.8746 4.20907 12.8716 4.1316C12.8687 4.05414 12.8497 3.97812 12.8159 3.90834C12.7822 3.83855 12.7343 3.7765 12.6754 3.72607L12.1129 3.16357C12.0076 3.0588 11.865 3 11.7164 3C11.5678 3 11.4252 3.0588 11.3198 3.16357C11.2151 3.26896 11.1562 3.41153 11.1562 3.56013C11.1562 3.70874 11.2151 3.8513 11.3198 3.9567L11.8823 4.5192ZM4.12263 12.8414C4.23354 12.8409 4.34184 12.8077 4.43391 12.7458C4.52597 12.684 4.59771 12.5963 4.64009 12.4938C4.68247 12.3913 4.6936 12.2786 4.67209 12.1698C4.65058 12.061 4.59739 11.961 4.5192 11.8823L3.9567 11.3198C3.8513 11.2151 3.70874 11.1562 3.56013 11.1562C3.41153 11.1562 3.26896 11.2151 3.16357 11.3198C3.0588 11.4252 3 11.5678 3 11.7164C3 11.865 3.0588 12.0076 3.16357 12.1129C3.76545 12.7176 3.84138 12.8414 4.12263 12.8414Z"/>
</mask>
<path d="M20.5026 18.1176L16.8042 14.4164C16.9139 13.9973 16.672 13.8876 15.5526 12.7711L17.7576 8.35826C17.81 8.25308 17.8282 8.13412 17.8095 8.01811C17.7908 7.90209 17.7363 7.79483 17.6536 7.71138L16.177 6.23201C16.2762 5.97769 16.2993 5.7 16.2433 5.43281C16.1874 5.16562 16.0549 4.92049 15.862 4.72732L14.8664 3.7317C14.761 3.62693 14.6184 3.56813 14.4698 3.56813C14.3212 3.56813 14.1786 3.62693 14.0733 3.7317L3.7317 14.0733C3.62693 14.1786 3.56813 14.3212 3.56813 14.4698C3.56813 14.6184 3.62693 14.761 3.7317 14.8664L4.72732 15.862C4.92049 16.0549 5.16562 16.1874 5.43281 16.2433C5.7 16.2993 5.97769 16.2762 6.23201 16.177L7.71138 17.6536C7.79483 17.7363 7.90209 17.7908 8.01811 17.8095C8.13412 17.8282 8.25308 17.81 8.35826 17.7576L12.7711 15.5526L13.8764 16.6579C13.9458 16.7273 14.0322 16.7773 14.1269 16.803C14.2216 16.8286 14.3214 16.829 14.4164 16.8042C18.3173 20.7164 18.2442 20.6489 18.4158 20.7389C18.767 20.9551 19.1852 21.0352 19.5914 20.9641C19.9977 20.893 20.3638 20.6756 20.6207 20.353C20.8776 20.0303 21.0074 19.6248 20.9856 19.2129C20.9639 18.8011 20.7921 18.4114 20.5026 18.1176ZM5.52888 15.0689L4.9242 14.4698L14.4698 4.9242L15.0689 5.52888C15.0952 5.55503 15.1162 5.58614 15.1304 5.62041C15.1447 5.65468 15.1521 5.69144 15.1521 5.72857C15.1521 5.7657 15.1447 5.80246 15.1304 5.83673C15.1162 5.87101 15.0952 5.90211 15.0689 5.92826L5.91982 15.0689C5.86738 15.1196 5.79729 15.1479 5.72435 15.1479C5.65141 15.1479 5.58133 15.1196 5.52888 15.0689ZM13.2773 14.4726C13.1942 14.3894 13.0871 14.3344 12.9711 14.3152C12.855 14.296 12.7359 14.3137 12.6304 14.3658L8.21763 16.5708L7.11232 15.4654L15.4654 7.11232L16.5708 8.21763L14.3658 12.6304C14.3137 12.7359 14.296 12.855 14.3152 12.9711C14.3344 13.0871 14.3894 13.1942 14.4726 13.2773L15.4654 14.2729L14.2729 15.4654L13.2773 14.4726ZM18.9698 19.7573C18.8264 19.6308 17.9292 18.7279 15.2658 16.0645L16.0617 15.2658L19.7179 18.922C19.8153 19.0245 19.8705 19.1598 19.8726 19.3012C19.8747 19.4425 19.8235 19.5795 19.7292 19.6848C19.6349 19.7901 19.5044 19.856 19.3637 19.8694C19.223 19.8829 19.0824 19.8429 18.9698 19.7573ZM7.10107 7.8942C7.20868 7.98635 7.3471 8.0345 7.48866 8.02903C7.63023 8.02357 7.76452 7.96488 7.8647 7.8647C7.96488 7.76452 8.02357 7.63023 8.02903 7.48866C8.0345 7.3471 7.98635 7.20868 7.8942 7.10107L3.9567 3.16357C3.8513 3.0588 3.70874 3 3.56013 3C3.41153 3 3.26896 3.0588 3.16357 3.16357C3.0588 3.26896 3 3.41153 3 3.56013C3 3.70874 3.0588 3.8513 3.16357 3.9567L7.10107 7.8942ZM9.35107 5.92545C9.45868 6.0176 9.5971 6.06575 9.73866 6.06028C9.88023 6.05482 10.0145 5.99613 10.1147 5.89595C10.2149 5.79577 10.2736 5.66148 10.279 5.51991C10.2845 5.37835 10.2363 5.23993 10.1442 5.13232L8.4567 3.44482C8.34909 3.35267 8.21067 3.30452 8.0691 3.30998C7.92754 3.31545 7.79324 3.37414 7.69307 3.47432C7.59289 3.57449 7.5342 3.70879 7.52873 3.85035C7.52326 3.99192 7.57142 4.13034 7.66357 4.23795L9.35107 5.92545ZM3.44482 7.66357C3.34005 7.76896 3.28125 7.91153 3.28125 8.06013C3.28125 8.20874 3.34005 8.3513 3.44482 8.4567L5.13232 10.1442C5.23993 10.2363 5.37835 10.2845 5.51991 10.279C5.66148 10.2736 5.79577 10.2149 5.89595 10.1147C5.99613 10.0145 6.05482 9.88023 6.06028 9.73866C6.06575 9.5971 6.0176 9.45868 5.92545 9.35107L4.23795 7.66357C4.13255 7.5588 3.98999 7.5 3.84138 7.5C3.69278 7.5 3.55021 7.5588 3.44482 7.66357ZM11.8823 4.5192C11.9327 4.57808 11.9948 4.6259 12.0646 4.65967C12.1344 4.69343 12.2104 4.7124 12.2879 4.71539C12.3653 4.71839 12.4426 4.70533 12.5148 4.67705C12.5869 4.64877 12.6525 4.60588 12.7073 4.55106C12.7621 4.49624 12.805 4.43069 12.8333 4.3585C12.8616 4.28632 12.8746 4.20907 12.8716 4.1316C12.8687 4.05414 12.8497 3.97812 12.8159 3.90834C12.7822 3.83855 12.7343 3.7765 12.6754 3.72607L12.1129 3.16357C12.0076 3.0588 11.865 3 11.7164 3C11.5678 3 11.4252 3.0588 11.3198 3.16357C11.2151 3.26896 11.1562 3.41153 11.1562 3.56013C11.1562 3.70874 11.2151 3.8513 11.3198 3.9567L11.8823 4.5192ZM4.12263 12.8414C4.23354 12.8409 4.34184 12.8077 4.43391 12.7458C4.52597 12.684 4.59771 12.5963 4.64009 12.4938C4.68247 12.3913 4.6936 12.2786 4.67209 12.1698C4.65058 12.061 4.59739 11.961 4.5192 11.8823L3.9567 11.3198C3.8513 11.2151 3.70874 11.1562 3.56013 11.1562C3.41153 11.1562 3.26896 11.2151 3.16357 11.3198C3.0588 11.4252 3 11.5678 3 11.7164C3 11.865 3.0588 12.0076 3.16357 12.1129C3.76545 12.7176 3.84138 12.8414 4.12263 12.8414Z" fill="#223369"/>
<path d="M20.5026 18.1176L16.8042 14.4164C16.9139 13.9973 16.672 13.8876 15.5526 12.7711L17.7576 8.35826C17.81 8.25308 17.8282 8.13412 17.8095 8.01811C17.7908 7.90209 17.7363 7.79483 17.6536 7.71138L16.177 6.23201C16.2762 5.97769 16.2993 5.7 16.2433 5.43281C16.1874 5.16562 16.0549 4.92049 15.862 4.72732L14.8664 3.7317C14.761 3.62693 14.6184 3.56813 14.4698 3.56813C14.3212 3.56813 14.1786 3.62693 14.0733 3.7317L3.7317 14.0733C3.62693 14.1786 3.56813 14.3212 3.56813 14.4698C3.56813 14.6184 3.62693 14.761 3.7317 14.8664L4.72732 15.862C4.92049 16.0549 5.16562 16.1874 5.43281 16.2433C5.7 16.2993 5.97769 16.2762 6.23201 16.177L7.71138 17.6536C7.79483 17.7363 7.90209 17.7908 8.01811 17.8095C8.13412 17.8282 8.25308 17.81 8.35826 17.7576L12.7711 15.5526L13.8764 16.6579C13.9458 16.7273 14.0322 16.7773 14.1269 16.803C14.2216 16.8286 14.3214 16.829 14.4164 16.8042C18.3173 20.7164 18.2442 20.6489 18.4158 20.7389C18.767 20.9551 19.1852 21.0352 19.5914 20.9641C19.9977 20.893 20.3638 20.6756 20.6207 20.353C20.8776 20.0303 21.0074 19.6248 20.9856 19.2129C20.9639 18.8011 20.7921 18.4114 20.5026 18.1176ZM5.52888 15.0689L4.9242 14.4698L14.4698 4.9242L15.0689 5.52888C15.0952 5.55503 15.1162 5.58614 15.1304 5.62041C15.1447 5.65468 15.1521 5.69144 15.1521 5.72857C15.1521 5.7657 15.1447 5.80246 15.1304 5.83673C15.1162 5.87101 15.0952 5.90211 15.0689 5.92826L5.91982 15.0689C5.86738 15.1196 5.79729 15.1479 5.72435 15.1479C5.65141 15.1479 5.58133 15.1196 5.52888 15.0689ZM13.2773 14.4726C13.1942 14.3894 13.0871 14.3344 12.9711 14.3152C12.855 14.296 12.7359 14.3137 12.6304 14.3658L8.21763 16.5708L7.11232 15.4654L15.4654 7.11232L16.5708 8.21763L14.3658 12.6304C14.3137 12.7359 14.296 12.855 14.3152 12.9711C14.3344 13.0871 14.3894 13.1942 14.4726 13.2773L15.4654 14.2729L14.2729 15.4654L13.2773 14.4726ZM18.9698 19.7573C18.8264 19.6308 17.9292 18.7279 15.2658 16.0645L16.0617 15.2658L19.7179 18.922C19.8153 19.0245 19.8705 19.1598 19.8726 19.3012C19.8747 19.4425 19.8235 19.5795 19.7292 19.6848C19.6349 19.7901 19.5044 19.856 19.3637 19.8694C19.223 19.8829 19.0824 19.8429 18.9698 19.7573ZM7.10107 7.8942C7.20868 7.98635 7.3471 8.0345 7.48866 8.02903C7.63023 8.02357 7.76452 7.96488 7.8647 7.8647C7.96488 7.76452 8.02357 7.63023 8.02903 7.48866C8.0345 7.3471 7.98635 7.20868 7.8942 7.10107L3.9567 3.16357C3.8513 3.0588 3.70874 3 3.56013 3C3.41153 3 3.26896 3.0588 3.16357 3.16357C3.0588 3.26896 3 3.41153 3 3.56013C3 3.70874 3.0588 3.8513 3.16357 3.9567L7.10107 7.8942ZM9.35107 5.92545C9.45868 6.0176 9.5971 6.06575 9.73866 6.06028C9.88023 6.05482 10.0145 5.99613 10.1147 5.89595C10.2149 5.79577 10.2736 5.66148 10.279 5.51991C10.2845 5.37835 10.2363 5.23993 10.1442 5.13232L8.4567 3.44482C8.34909 3.35267 8.21067 3.30452 8.0691 3.30998C7.92754 3.31545 7.79324 3.37414 7.69307 3.47432C7.59289 3.57449 7.5342 3.70879 7.52873 3.85035C7.52326 3.99192 7.57142 4.13034 7.66357 4.23795L9.35107 5.92545ZM3.44482 7.66357C3.34005 7.76896 3.28125 7.91153 3.28125 8.06013C3.28125 8.20874 3.34005 8.3513 3.44482 8.4567L5.13232 10.1442C5.23993 10.2363 5.37835 10.2845 5.51991 10.279C5.66148 10.2736 5.79577 10.2149 5.89595 10.1147C5.99613 10.0145 6.05482 9.88023 6.06028 9.73866C6.06575 9.5971 6.0176 9.45868 5.92545 9.35107L4.23795 7.66357C4.13255 7.5588 3.98999 7.5 3.84138 7.5C3.69278 7.5 3.55021 7.5588 3.44482 7.66357ZM11.8823 4.5192C11.9327 4.57808 11.9948 4.6259 12.0646 4.65967C12.1344 4.69343 12.2104 4.7124 12.2879 4.71539C12.3653 4.71839 12.4426 4.70533 12.5148 4.67705C12.5869 4.64877 12.6525 4.60588 12.7073 4.55106C12.7621 4.49624 12.805 4.43069 12.8333 4.3585C12.8616 4.28632 12.8746 4.20907 12.8716 4.1316C12.8687 4.05414 12.8497 3.97812 12.8159 3.90834C12.7822 3.83855 12.7343 3.7765 12.6754 3.72607L12.1129 3.16357C12.0076 3.0588 11.865 3 11.7164 3C11.5678 3 11.4252 3.0588 11.3198 3.16357C11.2151 3.26896 11.1562 3.41153 11.1562 3.56013C11.1562 3.70874 11.2151 3.8513 11.3198 3.9567L11.8823 4.5192ZM4.12263 12.8414C4.23354 12.8409 4.34184 12.8077 4.43391 12.7458C4.52597 12.684 4.59771 12.5963 4.64009 12.4938C4.68247 12.3913 4.6936 12.2786 4.67209 12.1698C4.65058 12.061 4.59739 11.961 4.5192 11.8823L3.9567 11.3198C3.8513 11.2151 3.70874 11.1562 3.56013 11.1562C3.41153 11.1562 3.26896 11.2151 3.16357 11.3198C3.0588 11.4252 3 11.5678 3 11.7164C3 11.865 3.0588 12.0076 3.16357 12.1129C3.76545 12.7176 3.84138 12.8414 4.12263 12.8414Z" stroke="#223369" stroke-width="0.2" mask="url(#path-1-outside-1_5491_30322)"/>
</svg>
