<svg width="24" height="24" viewBox="0 0 24 24" fill="none" xmlns="http://www.w3.org/2000/svg">
<path d="M12 18.9263V6.79944M12 18.9263C12 18.981 12.0593 19.0166 12.1097 18.9922L13.3752 18.3777C14.7128 17.7282 16.2872 17.7282 17.6248 18.3777C18.2566 18.6845 19 18.2383 19 17.5523V6.79944C19 6.48478 18.8474 6.18849 18.5882 5.9997C16.7582 4.6668 14.2418 4.6668 12.4118 5.9997C12.1526 6.18849 12 6.48478 12 6.79944M12 18.9263C12 18.981 11.9407 19.0166 11.8903 18.9922L10.6248 18.3777C9.28721 17.7282 7.71279 17.7282 6.3752 18.3777C5.74338 18.6845 5 18.2383 5 17.5523V6.79944C5 6.48478 5.15255 6.18849 5.41176 5.9997C7.24183 4.6668 9.75817 4.6668 11.5882 5.9997C11.8474 6.18849 12 6.48478 12 6.79944" stroke="#223369" stroke-width="1.5" stroke-linecap="round"/>
</svg>
