<svg width="24" height="24" viewBox="0 0 24 24" fill="none" xmlns="http://www.w3.org/2000/svg">
<path d="M9 3L11.9293 5.92929C11.9683 5.96834 12.0317 5.96834 12.0707 5.92929L15 3M8 16L10.6142 13.1991C10.6451 13.1659 10.6945 13.1578 10.7345 13.1792L13.2575 14.5308C13.3011 14.5542 13.3552 14.5421 13.3848 14.5025L16 11M6.2 6H17.8C18.9201 6 19.4802 6 19.908 6.21799C20.2843 6.40973 20.5903 6.71569 20.782 7.09202C21 7.51984 21 8.0799 21 9.2V17.8C21 18.9201 21 19.4802 20.782 19.908C20.5903 20.2843 20.2843 20.5903 19.908 20.782C19.4802 21 18.9201 21 17.8 21H6.2C5.0799 21 4.51984 21 4.09202 20.782C3.71569 20.5903 3.40973 20.2843 3.21799 19.908C3 19.4802 3 18.9201 3 17.8V9.2C3 8.0799 3 7.51984 3.21799 7.09202C3.40973 6.71569 3.71569 6.40973 4.09202 6.21799C4.51984 6 5.07989 6 6.2 6Z" stroke="#223369" stroke-width="1.5" stroke-linecap="round"/>
</svg>
