<svg width="24" height="24" viewBox="0 0 24 24" fill="none" xmlns="http://www.w3.org/2000/svg">
<path fill-rule="evenodd" clip-rule="evenodd" d="M9.92551 3.95039V5.37856H16.547V3.95039C16.547 3.43105 16.1575 3.04155 15.6382 3.04155H10.7045C10.315 3.17139 9.92551 3.56089 9.92551 3.95039ZM17.7155 5.5084H19.2736C20.8316 5.5084 22.0001 6.6769 22.0001 8.10508V15.6354C22.0001 17.0636 20.8316 18.2321 19.4034 18.2321V17.0636C20.1824 17.0636 20.8316 16.4144 20.8316 15.6354V8.10508C20.8316 7.32607 20.1824 6.6769 19.2736 6.6769H6.54983C6.41999 6.6769 6.41999 6.80674 6.41999 6.80674C6.41999 6.80674 6.41999 6.93657 6.41999 7.0664L8.49734 9.92275L8.62717 10.0526H17.7155C17.8454 10.0526 17.8454 10.0526 17.8454 9.92275L19.0139 7.45591C19.1437 7.19624 19.5332 7.0664 19.7929 7.19624C20.0526 7.32607 20.1824 7.71557 20.0526 7.97524L19.0139 10.3123C18.7542 10.8316 18.3647 11.0913 17.7155 11.0913H8.62717C8.23767 11.0913 7.71833 10.9614 7.45866 10.5719L5.51116 7.58574C5.12165 7.19624 5.12165 6.6769 5.38132 6.15757C5.64099 5.76806 6.03049 5.37856 6.54983 5.37856H8.757V3.95039C8.757 2.78188 9.66584 1.87305 10.8343 1.87305H15.768C16.9365 1.87305 17.8454 2.78188 17.8454 3.95039V5.5084H17.7155ZM17.0664 17.3233L16.4172 16.9338C16.1575 16.8039 15.8979 16.8039 15.6382 17.0636C15.6382 17.0636 14.989 17.7128 14.21 17.7128C13.6907 17.7128 13.3012 17.4531 12.7819 17.0636C12.7819 17.0636 12.7819 17.0636 12.652 17.0636C12.1327 16.6741 10.4448 14.8564 9.27634 13.4283C8.62717 12.5194 7.978 11.8703 7.5885 11.4808C6.03049 9.53325 3.69348 8.23491 3.56365 8.10508C3.43381 7.97524 3.17415 7.97524 3.04431 8.10508C2.91448 8.10508 2.78464 8.36474 2.65481 8.49458C1.87581 10.5719 1.87581 13.1686 2.65481 15.2459C2.65481 15.2459 2.65481 15.3758 2.78464 15.3758L3.43381 21.478C3.43381 21.7376 3.69348 21.9973 4.08298 21.9973H5.38132C5.77082 21.9973 6.03049 21.7376 6.03049 21.3481V16.9338C7.06916 17.4531 7.978 18.1023 8.757 18.8813L10.4448 20.4393C11.6134 21.478 13.1714 22.1271 14.7294 22.1271H15.5084C16.8067 22.1271 18.2349 21.8675 19.4034 21.478C19.5332 21.478 19.6631 21.3481 19.7929 21.0885C20.3122 20.0498 19.9227 18.8813 18.884 18.362L17.0664 17.3233ZM4.60232 16.2846L4.08298 16.0249L4.60232 20.699V16.2846ZM3.82331 14.5968L5.90066 15.5056C7.199 16.1548 8.49734 16.9338 9.53601 17.9725L11.2238 19.5305C12.1327 20.4393 13.431 20.8288 14.5995 20.8288H15.3785C16.4172 20.8288 17.5857 20.699 18.6244 20.3095C18.6244 19.92 18.4945 19.6603 18.2349 19.5305L16.1575 18.4918C15.768 18.7515 15.1189 19.141 14.21 19.141C13.431 19.141 12.652 18.7515 12.0029 18.2321C11.3537 17.8426 10.1852 16.4144 8.49734 14.4669C7.71833 13.4283 7.06916 12.6493 6.67966 12.2598C5.77082 11.0913 4.34265 10.1824 3.56365 9.66308C3.17415 11.2211 3.30398 13.0388 3.82331 14.5968Z" fill="#223369"/>
</svg>
