<svg width="24" height="24" viewBox="0 0 24 24" fill="none" xmlns="http://www.w3.org/2000/svg">
<path d="M18.4707 11.2944C18.4707 13.0641 17.7676 14.7614 16.5162 16.0128C15.2648 17.2642 13.5676 17.9672 11.7978 17.9672C10.0281 17.9672 8.33083 17.2642 7.07943 16.0128C5.82803 14.7614 5.125 13.0641 5.125 11.2944H18.4707Z" stroke="#223369" stroke-width="1.5" stroke-linecap="round" stroke-linejoin="round"/>
<path d="M5.73169 21L9.16921 17.5625" stroke="#223369" stroke-width="1.5" stroke-linecap="round" stroke-linejoin="round"/>
<path d="M18.0664 21L14.6289 17.5625" stroke="#223369" stroke-width="1.5" stroke-linecap="round" stroke-linejoin="round"/>
<path d="M9.12988 9.20101C9.12988 9.20101 11.9106 8.33976 11.0215 6.44501C10.1325 4.55025 9.66427 3.77513 10.5486 3" stroke="#223369" stroke-width="1.5" stroke-linecap="round" stroke-linejoin="round"/>
<path d="M13.2639 9.20102C13.2639 9.20102 14.6547 8.48495 14.2095 6.90517C13.7644 5.32539 13.528 4.69052 13.9731 4.03351" stroke="#223369" stroke-width="1.5" stroke-linecap="round" stroke-linejoin="round"/>
<path d="M8.38306 13.3163C8.38306 13.3163 8.51651 14.7318 10.8095 15.7428" stroke="#223369" stroke-width="1.5" stroke-linecap="round" stroke-linejoin="round"/>
</svg>
