<svg width="20" height="20" viewBox="0 0 20 20" fill="none" xmlns="http://www.w3.org/2000/svg">
<path d="M13.3404 2.50086C13.4439 2.53552 13.6074 2.53552 13.7123 2.50086C13.7396 2.50252 13.7678 2.49849 13.7949 2.50086C16.1126 2.71116 17.3459 5.40297 15.9816 7.30298C14.6183 9.2018 11.6737 8.88494 10.7392 6.74568C9.92249 4.87605 11.1859 2.70024 13.2165 2.50086H13.3404Z" stroke="#223369" stroke-width="1.09143"/>
<path d="M4.36099 7.39793C4.25134 7.2681 4.10987 7.15488 3.99974 7.00488C2.84122 5.42648 3.60099 3.15431 5.48415 2.6262C7.92579 1.94143 9.96892 4.54092 8.69814 6.75044C8.45675 7.17007 8.072 7.47412 7.79074 7.8686C6.84797 9.19018 6.86269 10.9017 7.83204 12.205C8.11354 12.5834 8.47313 12.8729 8.71167 13.289C9.63188 14.8947 8.75202 16.9765 6.96024 17.4149C4.92732 17.9119 3.09163 16.156 3.50629 14.1046C3.73865 12.9551 4.66742 12.5122 5.11577 11.4975C5.78748 9.97725 5.38351 8.60867 4.36099 7.39793Z" stroke="#223369" stroke-width="1.09143"/>
<path d="M10.3 11.8132C11.2964 11.8132 12.1042 11.0052 12.1042 10.0086C12.1042 9.01195 11.2964 8.204 10.3 8.204C9.30365 8.204 8.49592 9.01195 8.49592 10.0086C8.49592 11.0052 9.30365 11.8132 10.3 11.8132Z" stroke="#223369" stroke-width="1.09143"/>
</svg>
