<svg width="24" height="24" viewBox="0 0 24 24" fill="none" xmlns="http://www.w3.org/2000/svg">
<path d="M15.96 7.31998C17.153 7.31998 18.12 6.35292 18.12 5.15999C18.12 3.96706 17.153 3 15.96 3C14.7671 3 13.8 3.96706 13.8 5.15999C13.8 6.35292 14.7671 7.31998 15.96 7.31998Z" stroke="#223369" stroke-width="1.5" stroke-miterlimit="10" stroke-linecap="round" stroke-linejoin="round"/>
<path d="M5.15991 7.32L7.17591 5.304C8.03991 4.44001 9.47991 4.44001 10.3439 5.304L16.0319 10.992C16.8239 11.784 18.0479 11.856 18.9839 11.136L20.9999 9.47999" stroke="#223369" stroke-width="1.5" stroke-miterlimit="10" stroke-linecap="round" stroke-linejoin="round"/>
<path d="M11.6399 7.32001L8.25589 10.704C7.17589 11.784 7.53589 13.728 8.97589 14.304L11.7839 15.384C12.5759 15.672 13.1519 16.464 13.1519 17.328V21.648" stroke="#223369" stroke-width="1.5" stroke-miterlimit="10" stroke-linecap="round" stroke-linejoin="round"/>
<path d="M9.48 14.52L7.608 16.392C7.032 16.968 6.096 16.968 5.592 16.392L3 13.8" stroke="#223369" stroke-width="1.5" stroke-miterlimit="10" stroke-linecap="round" stroke-linejoin="round"/>
<path d="M10.9199 13.08L14.5199 9.47998" stroke="#223369" stroke-width="1.5" stroke-miterlimit="10" stroke-linecap="round" stroke-linejoin="round"/>
</svg>
