<svg width="24" height="24" viewBox="0 0 24 24" fill="none" xmlns="http://www.w3.org/2000/svg">
<path d="M6.45166 9.51636V17.7103C6.45166 18.2626 6.89938 18.7103 7.45166 18.7103H17.4844" stroke="#223369" stroke-width="1.5" stroke-linecap="round"/>
<path d="M4 11.9681L11.261 4.70711C11.6515 4.31658 12.2846 4.31658 12.6752 4.70711L19.9361 11.9681" stroke="#223369" stroke-width="1.5" stroke-linecap="round"/>
<path d="M9 11.3552H10.2259" stroke="#223369" stroke-width="1.5" stroke-linecap="round"/>
<path d="M12.5811 11.3551H13.8069" stroke="#223369" stroke-width="1.5" stroke-linecap="round"/>
<path d="M9 13.8069H10.2259" stroke="#223369" stroke-width="1.5" stroke-linecap="round"/>
<path d="M12.5811 13.8069H13.8069" stroke="#223369" stroke-width="1.5" stroke-linecap="round"/>
<path d="M17.5468 15.6253L17.5468 15.4682L17.7658 15.6117L17.9846 15.4683L17.9846 15.6254L17.9846 16.0416L17.9846 16.0417L17.9845 18.5576L17.9845 18.5576C17.9845 18.6169 17.9625 18.6703 17.9204 18.7123C17.8786 18.7541 17.8253 18.7763 17.7657 18.7764C17.7064 18.7764 17.653 18.7544 17.611 18.7123C17.5691 18.6705 17.5469 18.6171 17.5469 18.5575C17.5469 18.5574 17.5469 18.5574 17.5469 18.5573L17.5468 16.0415L17.5468 15.6253Z" stroke="#223369"/>
</svg>
