<svg width="24" height="24" viewBox="0 0 24 24" fill="none" xmlns="http://www.w3.org/2000/svg">
<path d="M4 19V9.8094C4 9.20289 4.27523 8.62914 4.74826 8.24954L10.0383 4.00448C10.7696 3.41762 11.8104 3.41762 12.5417 4.00448L17.8317 8.24954C18.3048 8.62914 18.58 9.20289 18.58 9.8094V19C18.58 20.1046 17.6846 21 16.58 21H15.8415C14.7369 21 13.8415 20.1046 13.8415 19V18.95C13.8415 17.8454 12.9461 16.95 11.8415 16.95H10.7385C9.63393 16.95 8.7385 17.8454 8.7385 18.95V19C8.7385 20.1046 7.84307 21 6.7385 21H6C4.89543 21 4 20.1046 4 19Z" stroke="#223369" stroke-width="1.5"/>
<path d="M11.6779 9.15243L11.2002 7.60652L10.7225 9.15243L10.3002 10.5189H8.9502H7.47205L8.64666 11.4162L9.76009 12.2668L9.33191 13.6524L8.87005 15.147L10.1131 14.1974L11.2002 13.3669L12.2872 14.1974L13.5303 15.147L13.0685 13.6524L12.6403 12.2668L13.7537 11.4162L14.9283 10.5189H13.4502H12.1002L11.6779 9.15243Z" stroke="#223369"/>
</svg>
