<svg width="24" height="24" viewBox="0 0 24 24" fill="none" xmlns="http://www.w3.org/2000/svg">
<path d="M12.375 17.8625L9.5784 17.3032C9.1694 17.2214 8.875 16.8623 8.875 16.4452L8.875 12.9798C8.875 12.5627 9.1694 12.2036 9.5784 12.1218L12.375 11.5625M18.5 18.125L21.357 17.3393C21.7368 17.2349 22 16.8896 22 16.4957L22 12.9799C22 12.5628 21.7056 12.2036 21.2966 12.1218L18.5 11.5625M19.8125 14.625C19.8125 17.0412 17.8537 19 15.4375 19C13.0213 19 11.0625 17.0412 11.0625 14.625C11.0625 12.2088 13.0213 10.25 15.4375 10.25C17.8537 10.25 19.8125 12.2088 19.8125 14.625Z" stroke="#223369" stroke-linecap="round"/>
<path d="M10.1875 7.625L5.8125 14.1875L5.68962 14.0199M10.1875 7.625L8.4375 5H6.6875M10.1875 7.625H7.5625M1 7.625L2.75 5H4.71875M1 7.625L5.68962 14.0199M1 7.625H4.0625M5.68962 14.0199L7.5625 7.625M5.68962 14.0199L4.0625 7.625M7.5625 7.625H4.0625M7.5625 7.625L6.6875 5M6.6875 5H4.71875M4.71875 5L4.0625 7.625" stroke="#223369"/>
<path d="M16.75 12.4374L15.577 14.4854M14.125 14.6249H15.4375L15.577 14.4854M15.577 14.4854L16.3125 16.3749" stroke="#223369" stroke-linecap="round"/>
</svg>
