<svg width="24" height="24" viewBox="0 0 24 24" fill="none" xmlns="http://www.w3.org/2000/svg">
<path d="M17.929 5.98397L15.3303 4.63309C14.844 8.93089 14.7044 12.1431 13.4986 15.4214L12.4911 8.89181L14.0137 7.30052L11.976 5.31998L9.99542 7.42645L11.4608 8.89181L10.6594 14.8907C9.58172 12.3409 9.21447 9.76035 8.66743 4.63309L6 5.98397V15.8294H10.5335L9.99542 20.0195L11.9989 22L14.0137 20.0195L13.5753 15.8294H17.929V5.98397Z" stroke="#223369"/>
<path d="M14.8266 3.35089C14.8266 4.09696 13.5964 4.70177 12.079 4.70177C10.5616 4.70177 9.33143 4.09696 9.33143 3.35089C9.33143 2.60481 10.5616 2 12.079 2C13.5964 2 14.8266 2.60481 14.8266 3.35089Z" stroke="#223369"/>
</svg>
