<svg width="24" height="24" viewBox="0 0 24 24" fill="none" xmlns="http://www.w3.org/2000/svg">
<path d="M11.4032 7.19023L11.2385 7.56679C11.0446 8.0099 10.6068 8.29622 10.1232 8.29622C9.22673 8.29622 8.50002 9.02293 8.50002 9.91939V11.0612H16.242V9.91939C16.242 9.02293 15.5152 8.29622 14.6188 8.29622C14.1351 8.29622 13.6973 8.0099 13.5035 7.56679L13.3387 7.19023M14.3065 4.60962H13.4901C13.3914 4.60962 13.2949 4.5804 13.2128 4.52564L12.3765 3.96815C12.3732 3.96592 12.3688 3.96592 12.3654 3.96815L11.5292 4.52564C11.4471 4.5804 11.3506 4.60962 11.2519 4.60962H10.4355M11.0807 8.48057L12.371 9.77089L13.6613 8.48057M9.79034 9.77091V11.0612M14.9516 11.0612V9.77091M4.29032 10.4648V7.47501C4.29032 7.31977 4.26312 7.15753 4.15329 7.04781C3.87625 6.77102 3.41407 6.77102 3.13703 7.04781C3.0272 7.15753 3 7.31977 3 7.47501V13.2368C3 13.5252 3.12448 13.7995 3.3415 13.9894L8.16129 18.2067L10.0968 16.9164L9.97948 16.6818C9.63234 15.9875 9.50966 15.2017 9.26072 14.4665C9.00804 13.7202 8.51462 13.0659 7.84119 12.6169L5.83016 11.2763C5.66746 11.1678 5.4763 11.1099 5.28076 11.1099H5.16179C4.68049 11.1099 4.29032 11.5001 4.29032 11.9814C4.29032 12.2461 4.41066 12.4965 4.61739 12.6619L7.51613 14.9809M20.0324 10.4647V7.47495C20.0324 7.31971 20.0596 7.15747 20.1695 7.04774C20.4465 6.77096 20.9087 6.77096 21.1857 7.04774C21.2955 7.15747 21.3228 7.31971 21.3228 7.47495V13.2367C21.3228 13.5251 21.1983 13.7994 20.9813 13.9893L16.1615 18.2066L14.226 16.9163L14.3433 16.6817C14.6904 15.9874 14.8131 15.2016 15.062 14.4664C15.3147 13.7202 15.8081 13.0658 16.4816 12.6169L18.4926 11.2762C18.6553 11.1677 18.8465 11.1099 19.042 11.1099H19.161C19.6423 11.1099 20.0324 11.5 20.0324 11.9813C20.0324 12.2461 19.9121 12.4964 19.7054 12.6618L16.8066 14.9808M10.722 6.21433L10.4299 5.33804C10.4115 5.28294 10.4029 5.22506 10.4044 5.167L10.4235 4.42813C10.4312 4.12962 10.5492 3.84453 10.7547 3.62785L10.9981 3.37114C11.0306 3.33683 11.0689 3.30846 11.1112 3.28731C11.8832 2.90129 12.8008 2.90572 13.5728 3.29173C13.6091 3.30986 13.6428 3.33347 13.6722 3.3614L13.9007 3.57859C14.159 3.82424 14.3012 4.16783 14.292 4.52421L14.275 5.18027C14.2737 5.22966 14.2651 5.27858 14.2495 5.32545L13.9532 6.21433C13.7449 6.83919 13.2969 7.35573 12.7078 7.65029C12.4748 7.76682 12.2004 7.76682 11.9674 7.65029C11.3782 7.35573 10.9303 6.83919 10.722 6.21433ZM7.51611 20.2043V19.0123C7.51611 18.912 7.56624 18.8184 7.6497 18.7627L10.9158 16.5853C11.1661 16.4185 11.5059 16.5087 11.6404 16.7777L11.9176 17.3322C11.9836 17.4642 11.9438 17.6247 11.8236 17.7105L7.99049 20.4484C7.79192 20.5903 7.51611 20.4483 7.51611 20.2043ZM16.8067 20.2043V19.0123C16.8067 18.912 16.7566 18.8184 16.6731 18.7627L13.407 16.5853C13.1568 16.4185 12.8169 16.5087 12.6824 16.7777L12.4052 17.3322C12.3392 17.4642 12.379 17.6247 12.4992 17.7105L16.3323 20.4484C16.5309 20.5903 16.8067 20.4483 16.8067 20.2043Z" stroke="#223369" stroke-linecap="round"/>
</svg>
