<svg width="24" height="24" viewBox="0 0 24 24" fill="none" xmlns="http://www.w3.org/2000/svg">
<path d="M7.92883 7.82212C7.92883 1.00005 16.0712 1 16.0712 7.82212M4 6.74021H19.9431V20.8612C19.9431 21.4901 19.4332 22 18.8043 22H5.13879C4.50985 22 4 21.4901 4 20.8612V6.74021ZM9.12456 8.96086C9.12456 9.62124 8.58921 10.1566 7.92883 10.1566C7.26844 10.1566 6.7331 9.62124 6.7331 8.96086C6.7331 8.30047 7.26844 7.76513 7.92883 7.76513C8.58921 7.76513 9.12456 8.30047 9.12456 8.96086ZM17.3238 8.96086C17.3238 9.62124 16.7885 10.1566 16.1281 10.1566C15.4677 10.1566 14.9324 9.62124 14.9324 8.96086C14.9324 8.30047 15.4677 7.76513 16.1281 7.76513C16.7885 7.76513 17.3238 8.30047 17.3238 8.96086ZM14.363 17.9324C14.363 19.1588 13.3688 20.153 12.1423 20.153C10.9159 20.153 9.92171 19.1588 9.92171 17.9324C9.92171 16.706 10.9159 15.7117 12.1423 15.7117C13.3688 15.7117 14.363 16.706 14.363 17.9324ZM16.8683 15.7687C16.8683 16.3033 16.435 16.7367 15.9004 16.7367C15.3658 16.7367 14.9324 16.3033 14.9324 15.7687C14.9324 15.2341 15.3658 14.8007 15.9004 14.8007C16.435 14.8007 16.8683 15.2341 16.8683 15.7687ZM9.35231 15.7687C9.35231 16.3033 8.91894 16.7367 8.38434 16.7367C7.84975 16.7367 7.41637 16.3033 7.41637 15.7687C7.41637 15.2341 7.84975 14.8007 8.38434 14.8007C8.91894 14.8007 9.35231 15.2341 9.35231 15.7687ZM11.6299 13.605C11.6299 14.1396 11.1965 14.573 10.6619 14.573C10.1273 14.573 9.69395 14.1396 9.69395 13.605C9.69395 13.0704 10.1273 11.637 10.6619 11.637C11.1965 11.637 11.6299 13.0704 11.6299 13.605ZM14.5907 13.4911C14.5907 14.0257 14.1574 14.4591 13.6228 14.4591C13.0882 14.4591 12.6548 14.0257 12.6548 13.4911C12.6548 12.9565 13.0882 11.5231 13.6228 11.5231C14.1574 11.5231 14.5907 12.9565 14.5907 13.4911Z" stroke="#223369"/>
</svg>
