<svg width="24" height="24" viewBox="0 0 24 24" fill="none" xmlns="http://www.w3.org/2000/svg">
<path d="M20.8 6.30005H17.4L15.4 4.30005C15 3.90005 14.6 3.80005 14.1 3.80005H9.90005C9.50005 3.80005 9.10005 3.90005 8.80005 4.20005L6.60005 6.30005H3.20005C2.20005 6.30005 1.30005 7.10005 1.30005 8.20005V18.3C1.30005 19.3 2.10005 20.2001 3.20005 20.2001H20.8C21.8 20.2001 22.7001 19.4 22.7001 18.3V8.20005C22.7001 7.20005 21.9 6.30005 20.8 6.30005ZM2.50005 8.20005C2.50005 7.80005 2.80005 7.60005 3.10005 7.60005H7.10005L9.40005 5.30005C9.60005 5.10005 9.80005 5.00005 9.90005 5.00005H14.1C14.3 5.00005 14.4 5.10005 14.6 5.20005L16.9 7.50005H20.8C21.2 7.50005 21.4 7.80005 21.4 8.10005V18.3C21.4 18.7 21.1 18.9 20.8 18.9H3.20005C2.80005 18.9 2.60005 18.6 2.60005 18.3L2.50005 8.20005Z" fill="#223369"/>
<path d="M12 18C14.7193 18 17 15.7877 17 12.9558C17 10.1239 14.7193 8.00005 12 8.00005C9.28075 8.00005 7.00005 10.2124 7.00005 13.0443C7.00005 15.8762 9.28075 18 12 18ZM8.1404 12.9558C8.1404 10.8319 9.89479 9.062 12 9.062C14.1053 9.062 15.8597 10.8319 15.8597 12.9558C15.8597 15.0797 14.1053 16.8496 12 16.8496C9.89479 16.8496 8.1404 15.1682 8.1404 12.9558Z" fill="#223369"/>
<path d="M12 16C13.65 16 15 14.65 15 13C15 11.35 13.65 10 12 10C10.35 10 9.00005 11.35 9.00005 13C9.00005 14.65 10.35 16 12 16ZM9.97505 13C9.97505 11.875 10.875 10.975 12 10.975C13.125 10.975 14.025 11.875 14.025 13C14.025 14.125 13.125 15.025 12 15.025C10.875 15.025 9.97505 14.125 9.97505 13Z" fill="#223369"/>
</svg>
