<svg width="24" height="24" viewBox="0 0 24 24" fill="none" xmlns="http://www.w3.org/2000/svg">
<mask id="path-1-outside-1_5588_21621" maskUnits="userSpaceOnUse" x="1" y="0" width="21" height="24" fill="black">
<rect fill="white" x="1" width="21" height="24"/>
<path fill-rule="evenodd" clip-rule="evenodd" d="M19.1583 9.12558H20.5372C21.0682 9.12558 21.5 9.6096 21.5 10.2085V11.2775C21.5 11.8765 21.0682 12.3622 20.5372 12.3622H19.1583C18.9661 13.2369 18.6201 14.0705 18.1363 14.8241L19.113 15.8008C19.4891 16.1769 19.4508 16.8229 19.0277 17.2477L18.9424 17.333C18.7391 17.2059 18.5293 17.0897 18.3138 16.9848L18.535 16.7637C18.6046 16.7112 18.652 16.6345 18.6678 16.5487C18.6836 16.463 18.6666 16.3744 18.6203 16.3005L17.2466 14.9286L17.5478 14.4689C17.9873 13.7847 18.3016 13.0277 18.4758 12.2334L18.5959 11.685H20.5372C20.6625 11.685 20.8036 11.5248 20.8036 11.2967V10.2155C20.8036 9.98567 20.6643 9.82723 20.5372 9.82723H18.5976L18.4775 9.27879C18.3037 8.48432 17.9894 7.72726 17.5495 7.04326L17.2466 6.57143L18.615 5.19424C18.6614 5.12038 18.6783 5.03182 18.6625 4.94607C18.6467 4.86032 18.5994 4.78361 18.5297 4.73112L17.7637 3.96504C17.6828 3.87934 17.5715 3.82872 17.4538 3.82402C17.4258 3.82246 17.3978 3.8266 17.3714 3.83617C17.3451 3.84575 17.321 3.86057 17.3005 3.87973L15.9286 5.2517L15.4689 4.95049C14.7848 4.51115 14.0278 4.19748 13.2334 4.02424L12.685 3.90411V1.96281C12.685 1.83746 12.5248 1.69643 12.2967 1.69643H11.2155C10.9874 1.69643 10.8272 1.83746 10.8272 1.96281V3.90411L10.2788 4.02424C9.48441 4.1974 8.72734 4.51108 8.04326 4.95049L7.57143 5.25344L6.1925 3.87451C6.17206 3.85534 6.14794 3.84052 6.1216 3.83095C6.09527 3.82137 6.06726 3.81724 6.03929 3.81879C5.92152 3.8235 5.81028 3.87412 5.72938 3.95982L4.95982 4.73112C4.88097 4.80972 4.83333 4.91428 4.82576 5.02536C4.82186 5.05655 4.82466 5.08821 4.83397 5.11823C4.84328 5.14825 4.85888 5.17595 4.87973 5.19946L6.25344 6.57143L5.95049 7.03629C5.51118 7.72042 5.19751 8.47747 5.02424 9.27183L4.90411 9.82027H2.96281C2.83746 9.82027 2.69643 9.98045 2.69643 10.2085V11.2845C2.69643 11.5143 2.83746 11.6728 2.96281 11.6728H4.90585L5.02598 12.2212C5.19961 13.0154 5.51325 13.7724 5.95223 14.4567L6.25344 14.9286L4.87277 16.3075C4.82711 16.3814 4.81073 16.4697 4.82684 16.5551C4.84294 16.6404 4.89037 16.7167 4.95982 16.7689L5.16353 16.9691C4.94632 17.074 4.73477 17.1902 4.52978 17.3173L4.47232 17.2599C4.0475 16.8368 4.0092 16.1891 4.38527 15.813L5.36375 14.8363C4.8805 14.0826 4.53504 13.249 4.34348 12.3744H2.96281C2.43004 12.3744 2 11.8887 2 11.2897V10.2085C2 9.6096 2.43004 9.12558 2.96281 9.12384H4.34348C4.53479 8.24917 4.88027 7.41554 5.36375 6.66196L4.38527 5.68522C4.01094 5.30915 4.0475 4.66147 4.47232 4.23839L5.23839 3.4758C5.44944 3.25828 5.73799 3.13309 6.04103 3.12759C6.16051 3.12588 6.27914 3.14794 6.39003 3.19247C6.50092 3.237 6.60185 3.30313 6.68696 3.38701L7.66371 4.36375C8.41722 3.88013 9.25087 3.53464 10.1256 3.34348V1.96281C10.1256 1.43004 10.6113 1 11.2103 1H12.2915C12.8904 1 13.3744 1.43004 13.3727 1.96281V3.34174C14.248 3.53278 15.0822 3.87827 15.8363 4.36201L16.813 3.38527C16.8981 3.30139 16.9991 3.23526 17.11 3.19073C17.2209 3.14619 17.3395 3.12414 17.459 3.12585C17.762 3.13116 18.0507 3.25638 18.2616 3.47406L19.0277 4.24013C19.4508 4.66321 19.4891 5.31089 19.113 5.68696L18.1363 6.6637C18.6203 7.4172 18.9663 8.25082 19.1583 9.12558ZM11.8684 17.7073C12.1035 17.6967 12.3369 17.6617 12.5648 17.6029L13.4737 21.6369C13.5075 21.7916 13.4921 21.9529 13.4296 22.0984C13.3672 22.2439 13.2608 22.3662 13.1254 22.4483L12.3925 23.129C12.3714 23.1487 12.348 23.1656 12.3228 23.1795C12.1395 23.2584 11.9408 23.2953 11.7413 23.2875C11.5205 23.2978 11.3009 23.2504 11.1041 23.1499C11.0805 23.1346 11.0589 23.1165 11.0396 23.0959L10.3432 22.3647C10.216 22.2742 10.1187 22.1479 10.0638 22.0018C10.0089 21.8557 9.99889 21.6965 10.035 21.5446L10.9387 17.6342C11.1676 17.6836 11.4009 17.7104 11.6351 17.7143L11.205 19.5476L12.1348 18.8965L11.8684 17.7073ZM10.977 20.5609L10.7332 21.616L12.4151 20.3903C12.4321 20.3783 12.4502 20.3678 12.4691 20.359L12.3054 19.6295L10.977 20.5609ZM12.6728 21.9103C12.6938 21.8906 12.7172 21.8737 12.7424 21.8598H12.7407C12.7657 21.8442 12.7843 21.8201 12.7929 21.7919L12.6345 21.0954L11.1319 22.1888L11.4941 22.5719C11.6479 22.5979 11.8051 22.5979 11.9589 22.5719L12.6728 21.9103ZM8.66838 16.1596C8.71887 16.224 8.7711 16.2884 8.82333 16.3511C8.92203 16.4678 9.02725 16.5788 9.13846 16.6836C8.75333 17.1733 8.20201 17.5047 7.58891 17.6151C7.54713 17.6203 3.94485 18.2123 3.77074 20.7647C3.77074 20.8239 3.76726 21.1582 3.74288 22.8992C3.74288 22.9916 3.7062 23.0802 3.6409 23.1455C3.57559 23.2108 3.48702 23.2475 3.39467 23.2475C3.30232 23.2475 3.21375 23.2108 3.14845 23.1455C3.08314 23.0802 3.04646 22.9916 3.04646 22.8992C3.07431 20.9336 3.07431 20.7664 3.07431 20.7595V20.7386C3.2815 17.6203 7.30163 16.9639 7.47574 16.9378C7.95903 16.8425 8.38654 16.5636 8.66838 16.1596ZM15.2462 16.632C15.4616 16.7816 15.705 16.8862 15.9617 16.9396C16.1271 16.9639 20.1316 17.6186 20.351 20.7038C20.3736 20.8326 20.4502 21.388 20.4502 22.9219C20.4502 23.0142 20.4135 23.1028 20.3482 23.1681C20.2829 23.2334 20.1943 23.2701 20.102 23.2701C20.0096 23.2701 19.9211 23.2334 19.8558 23.1681C19.7905 23.1028 19.7538 23.0142 19.7538 22.9219C19.7538 21.3009 19.6632 20.8152 19.6632 20.8152C19.6624 20.8001 19.6624 20.785 19.6632 20.7699C19.4926 18.2036 15.8869 17.6116 15.8503 17.6116C15.1986 17.4922 14.6177 17.1269 14.2276 16.5913C14.3974 16.4263 14.5578 16.252 14.7082 16.069C14.8478 16.291 15.0308 16.4824 15.2462 16.632ZM16.451 12.4128C16.4823 12.7175 16.249 12.8254 15.9286 12.8254H15.57C15.2044 14.1451 14.4957 15.5032 13.4511 16.3737C12.9617 16.791 12.3392 17.0194 11.6961 17.0179C11.2475 17.0112 10.8056 16.9075 10.4008 16.7139C9.99597 16.5204 9.63782 16.2416 9.35088 15.8967C8.62449 15.0043 8.12347 13.9503 7.89012 12.8237H7.5715C7.2494 12.8237 7.0161 12.7157 7.04918 12.411L7.09967 11.302C7.10435 11.2588 7.10792 11.2169 7.11134 11.1766C7.1321 10.9322 7.14758 10.75 7.37476 10.75H7.58891C7.58891 10.75 7.32427 8.86099 9.44664 7.40893C9.44664 7.40893 9.81052 6.49139 10.5069 6.39737H12.9932C13.6879 6.49313 14.0535 7.40893 14.0535 7.40893C16.1741 8.86099 15.9095 10.7483 15.9095 10.7483H16.1376C16.3553 10.7483 16.3712 10.9323 16.3921 11.1745C16.3956 11.215 16.3992 11.2571 16.404 11.3002L16.451 12.4128ZM12.0983 7.96433L12.2724 7.0938H11.2399L11.414 7.96433H12.0983ZM12.0396 10.4212C12.0779 10.3639 12.0983 10.2966 12.0983 10.2277C12.0983 10.1354 12.0616 10.0468 11.9963 9.9815C11.931 9.9162 11.8424 9.87951 11.7501 9.87951C11.6812 9.87951 11.6139 9.89994 11.5566 9.9382C11.4994 9.97646 11.4547 10.0308 11.4284 10.0945C11.402 10.1581 11.3951 10.2281 11.4085 10.2957C11.422 10.3632 11.4551 10.4253 11.5038 10.474C11.5525 10.5227 11.6146 10.5558 11.6821 10.5693C11.7497 10.5827 11.8197 10.5758 11.8833 10.5494C11.947 10.5231 12.0013 10.4784 12.0396 10.4212ZM11.6961 16.3215C12.1748 16.3224 12.638 16.1519 13.0019 15.8409C13.7436 15.2159 14.3617 14.2322 14.7586 13.097L14.1876 13.3617H9.31257L8.66315 13.0674C8.89635 13.9391 9.31173 14.7515 9.8819 15.4509C10.1034 15.7186 10.3803 15.935 10.6935 16.0853C11.0067 16.2356 11.3487 16.3162 11.6961 16.3215ZM14.0326 12.6652L15.1939 12.129L15.7406 12.1307L15.711 11.4465H15.0894L15.2322 10.6525C15.2322 10.6503 15.2324 10.646 15.2328 10.6397C15.2407 10.4834 15.3101 9.10962 13.6652 7.98349L13.4911 7.86335L13.4006 7.66487C13.3111 7.43972 13.1565 7.24636 12.9566 7.10947C12.9582 7.13846 12.9582 7.16753 12.9566 7.19652L12.7512 8.18545C12.7288 8.31525 12.6625 8.43339 12.5632 8.51997C12.4639 8.60654 12.3379 8.65627 12.2062 8.66076H12.0983V9.24402C12.3306 9.32616 12.5264 9.4878 12.6511 9.70035C12.7758 9.9129 12.8213 10.1627 12.7797 10.4056C12.738 10.6484 12.6118 10.8688 12.4234 11.0276C12.235 11.1864 11.9965 11.2736 11.7501 11.2736C11.5036 11.2736 11.2652 11.1864 11.0767 11.0276C10.8883 10.8688 10.7621 10.6484 10.7205 10.4056C10.6788 10.1627 10.7243 9.9129 10.849 9.70035C10.9737 9.4878 11.1695 9.32616 11.4019 9.24402V8.66076H11.2957C11.1616 8.65946 11.0322 8.61118 10.9301 8.52433C10.828 8.43747 10.7596 8.31756 10.7368 8.18545L10.5313 7.19652C10.5298 7.16753 10.5298 7.13847 10.5313 7.10947C10.3354 7.24872 10.1846 7.44245 10.0978 7.66661L10.0194 7.86335L9.84534 7.98349C8.13879 9.14889 8.27018 10.5639 8.27805 10.6486C8.27825 10.6509 8.27838 10.6522 8.27838 10.6525L8.3898 11.4465H7.79088L7.76128 12.129H8.30797L9.46753 12.6652H14.0326Z"/>
</mask>
<path fill-rule="evenodd" clip-rule="evenodd" d="M19.1583 9.12558H20.5372C21.0682 9.12558 21.5 9.6096 21.5 10.2085V11.2775C21.5 11.8765 21.0682 12.3622 20.5372 12.3622H19.1583C18.9661 13.2369 18.6201 14.0705 18.1363 14.8241L19.113 15.8008C19.4891 16.1769 19.4508 16.8229 19.0277 17.2477L18.9424 17.333C18.7391 17.2059 18.5293 17.0897 18.3138 16.9848L18.535 16.7637C18.6046 16.7112 18.652 16.6345 18.6678 16.5487C18.6836 16.463 18.6666 16.3744 18.6203 16.3005L17.2466 14.9286L17.5478 14.4689C17.9873 13.7847 18.3016 13.0277 18.4758 12.2334L18.5959 11.685H20.5372C20.6625 11.685 20.8036 11.5248 20.8036 11.2967V10.2155C20.8036 9.98567 20.6643 9.82723 20.5372 9.82723H18.5976L18.4775 9.27879C18.3037 8.48432 17.9894 7.72726 17.5495 7.04326L17.2466 6.57143L18.615 5.19424C18.6614 5.12038 18.6783 5.03182 18.6625 4.94607C18.6467 4.86032 18.5994 4.78361 18.5297 4.73112L17.7637 3.96504C17.6828 3.87934 17.5715 3.82872 17.4538 3.82402C17.4258 3.82246 17.3978 3.8266 17.3714 3.83617C17.3451 3.84575 17.321 3.86057 17.3005 3.87973L15.9286 5.2517L15.4689 4.95049C14.7848 4.51115 14.0278 4.19748 13.2334 4.02424L12.685 3.90411V1.96281C12.685 1.83746 12.5248 1.69643 12.2967 1.69643H11.2155C10.9874 1.69643 10.8272 1.83746 10.8272 1.96281V3.90411L10.2788 4.02424C9.48441 4.1974 8.72734 4.51108 8.04326 4.95049L7.57143 5.25344L6.1925 3.87451C6.17206 3.85534 6.14794 3.84052 6.1216 3.83095C6.09527 3.82137 6.06726 3.81724 6.03929 3.81879C5.92152 3.8235 5.81028 3.87412 5.72938 3.95982L4.95982 4.73112C4.88097 4.80972 4.83333 4.91428 4.82576 5.02536C4.82186 5.05655 4.82466 5.08821 4.83397 5.11823C4.84328 5.14825 4.85888 5.17595 4.87973 5.19946L6.25344 6.57143L5.95049 7.03629C5.51118 7.72042 5.19751 8.47747 5.02424 9.27183L4.90411 9.82027H2.96281C2.83746 9.82027 2.69643 9.98045 2.69643 10.2085V11.2845C2.69643 11.5143 2.83746 11.6728 2.96281 11.6728H4.90585L5.02598 12.2212C5.19961 13.0154 5.51325 13.7724 5.95223 14.4567L6.25344 14.9286L4.87277 16.3075C4.82711 16.3814 4.81073 16.4697 4.82684 16.5551C4.84294 16.6404 4.89037 16.7167 4.95982 16.7689L5.16353 16.9691C4.94632 17.074 4.73477 17.1902 4.52978 17.3173L4.47232 17.2599C4.0475 16.8368 4.0092 16.1891 4.38527 15.813L5.36375 14.8363C4.8805 14.0826 4.53504 13.249 4.34348 12.3744H2.96281C2.43004 12.3744 2 11.8887 2 11.2897V10.2085C2 9.6096 2.43004 9.12558 2.96281 9.12384H4.34348C4.53479 8.24917 4.88027 7.41554 5.36375 6.66196L4.38527 5.68522C4.01094 5.30915 4.0475 4.66147 4.47232 4.23839L5.23839 3.4758C5.44944 3.25828 5.73799 3.13309 6.04103 3.12759C6.16051 3.12588 6.27914 3.14794 6.39003 3.19247C6.50092 3.237 6.60185 3.30313 6.68696 3.38701L7.66371 4.36375C8.41722 3.88013 9.25087 3.53464 10.1256 3.34348V1.96281C10.1256 1.43004 10.6113 1 11.2103 1H12.2915C12.8904 1 13.3744 1.43004 13.3727 1.96281V3.34174C14.248 3.53278 15.0822 3.87827 15.8363 4.36201L16.813 3.38527C16.8981 3.30139 16.9991 3.23526 17.11 3.19073C17.2209 3.14619 17.3395 3.12414 17.459 3.12585C17.762 3.13116 18.0507 3.25638 18.2616 3.47406L19.0277 4.24013C19.4508 4.66321 19.4891 5.31089 19.113 5.68696L18.1363 6.6637C18.6203 7.4172 18.9663 8.25082 19.1583 9.12558ZM11.8684 17.7073C12.1035 17.6967 12.3369 17.6617 12.5648 17.6029L13.4737 21.6369C13.5075 21.7916 13.4921 21.9529 13.4296 22.0984C13.3672 22.2439 13.2608 22.3662 13.1254 22.4483L12.3925 23.129C12.3714 23.1487 12.348 23.1656 12.3228 23.1795C12.1395 23.2584 11.9408 23.2953 11.7413 23.2875C11.5205 23.2978 11.3009 23.2504 11.1041 23.1499C11.0805 23.1346 11.0589 23.1165 11.0396 23.0959L10.3432 22.3647C10.216 22.2742 10.1187 22.1479 10.0638 22.0018C10.0089 21.8557 9.99889 21.6965 10.035 21.5446L10.9387 17.6342C11.1676 17.6836 11.4009 17.7104 11.6351 17.7143L11.205 19.5476L12.1348 18.8965L11.8684 17.7073ZM10.977 20.5609L10.7332 21.616L12.4151 20.3903C12.4321 20.3783 12.4502 20.3678 12.4691 20.359L12.3054 19.6295L10.977 20.5609ZM12.6728 21.9103C12.6938 21.8906 12.7172 21.8737 12.7424 21.8598H12.7407C12.7657 21.8442 12.7843 21.8201 12.7929 21.7919L12.6345 21.0954L11.1319 22.1888L11.4941 22.5719C11.6479 22.5979 11.8051 22.5979 11.9589 22.5719L12.6728 21.9103ZM8.66838 16.1596C8.71887 16.224 8.7711 16.2884 8.82333 16.3511C8.92203 16.4678 9.02725 16.5788 9.13846 16.6836C8.75333 17.1733 8.20201 17.5047 7.58891 17.6151C7.54713 17.6203 3.94485 18.2123 3.77074 20.7647C3.77074 20.8239 3.76726 21.1582 3.74288 22.8992C3.74288 22.9916 3.7062 23.0802 3.6409 23.1455C3.57559 23.2108 3.48702 23.2475 3.39467 23.2475C3.30232 23.2475 3.21375 23.2108 3.14845 23.1455C3.08314 23.0802 3.04646 22.9916 3.04646 22.8992C3.07431 20.9336 3.07431 20.7664 3.07431 20.7595V20.7386C3.2815 17.6203 7.30163 16.9639 7.47574 16.9378C7.95903 16.8425 8.38654 16.5636 8.66838 16.1596ZM15.2462 16.632C15.4616 16.7816 15.705 16.8862 15.9617 16.9396C16.1271 16.9639 20.1316 17.6186 20.351 20.7038C20.3736 20.8326 20.4502 21.388 20.4502 22.9219C20.4502 23.0142 20.4135 23.1028 20.3482 23.1681C20.2829 23.2334 20.1943 23.2701 20.102 23.2701C20.0096 23.2701 19.9211 23.2334 19.8558 23.1681C19.7905 23.1028 19.7538 23.0142 19.7538 22.9219C19.7538 21.3009 19.6632 20.8152 19.6632 20.8152C19.6624 20.8001 19.6624 20.785 19.6632 20.7699C19.4926 18.2036 15.8869 17.6116 15.8503 17.6116C15.1986 17.4922 14.6177 17.1269 14.2276 16.5913C14.3974 16.4263 14.5578 16.252 14.7082 16.069C14.8478 16.291 15.0308 16.4824 15.2462 16.632ZM16.451 12.4128C16.4823 12.7175 16.249 12.8254 15.9286 12.8254H15.57C15.2044 14.1451 14.4957 15.5032 13.4511 16.3737C12.9617 16.791 12.3392 17.0194 11.6961 17.0179C11.2475 17.0112 10.8056 16.9075 10.4008 16.7139C9.99597 16.5204 9.63782 16.2416 9.35088 15.8967C8.62449 15.0043 8.12347 13.9503 7.89012 12.8237H7.5715C7.2494 12.8237 7.0161 12.7157 7.04918 12.411L7.09967 11.302C7.10435 11.2588 7.10792 11.2169 7.11134 11.1766C7.1321 10.9322 7.14758 10.75 7.37476 10.75H7.58891C7.58891 10.75 7.32427 8.86099 9.44664 7.40893C9.44664 7.40893 9.81052 6.49139 10.5069 6.39737H12.9932C13.6879 6.49313 14.0535 7.40893 14.0535 7.40893C16.1741 8.86099 15.9095 10.7483 15.9095 10.7483H16.1376C16.3553 10.7483 16.3712 10.9323 16.3921 11.1745C16.3956 11.215 16.3992 11.2571 16.404 11.3002L16.451 12.4128ZM12.0983 7.96433L12.2724 7.0938H11.2399L11.414 7.96433H12.0983ZM12.0396 10.4212C12.0779 10.3639 12.0983 10.2966 12.0983 10.2277C12.0983 10.1354 12.0616 10.0468 11.9963 9.9815C11.931 9.9162 11.8424 9.87951 11.7501 9.87951C11.6812 9.87951 11.6139 9.89994 11.5566 9.9382C11.4994 9.97646 11.4547 10.0308 11.4284 10.0945C11.402 10.1581 11.3951 10.2281 11.4085 10.2957C11.422 10.3632 11.4551 10.4253 11.5038 10.474C11.5525 10.5227 11.6146 10.5558 11.6821 10.5693C11.7497 10.5827 11.8197 10.5758 11.8833 10.5494C11.947 10.5231 12.0013 10.4784 12.0396 10.4212ZM11.6961 16.3215C12.1748 16.3224 12.638 16.1519 13.0019 15.8409C13.7436 15.2159 14.3617 14.2322 14.7586 13.097L14.1876 13.3617H9.31257L8.66315 13.0674C8.89635 13.9391 9.31173 14.7515 9.8819 15.4509C10.1034 15.7186 10.3803 15.935 10.6935 16.0853C11.0067 16.2356 11.3487 16.3162 11.6961 16.3215ZM14.0326 12.6652L15.1939 12.129L15.7406 12.1307L15.711 11.4465H15.0894L15.2322 10.6525C15.2322 10.6503 15.2324 10.646 15.2328 10.6397C15.2407 10.4834 15.3101 9.10962 13.6652 7.98349L13.4911 7.86335L13.4006 7.66487C13.3111 7.43972 13.1565 7.24636 12.9566 7.10947C12.9582 7.13846 12.9582 7.16753 12.9566 7.19652L12.7512 8.18545C12.7288 8.31525 12.6625 8.43339 12.5632 8.51997C12.4639 8.60654 12.3379 8.65627 12.2062 8.66076H12.0983V9.24402C12.3306 9.32616 12.5264 9.4878 12.6511 9.70035C12.7758 9.9129 12.8213 10.1627 12.7797 10.4056C12.738 10.6484 12.6118 10.8688 12.4234 11.0276C12.235 11.1864 11.9965 11.2736 11.7501 11.2736C11.5036 11.2736 11.2652 11.1864 11.0767 11.0276C10.8883 10.8688 10.7621 10.6484 10.7205 10.4056C10.6788 10.1627 10.7243 9.9129 10.849 9.70035C10.9737 9.4878 11.1695 9.32616 11.4019 9.24402V8.66076H11.2957C11.1616 8.65946 11.0322 8.61118 10.9301 8.52433C10.828 8.43747 10.7596 8.31756 10.7368 8.18545L10.5313 7.19652C10.5298 7.16753 10.5298 7.13847 10.5313 7.10947C10.3354 7.24872 10.1846 7.44245 10.0978 7.66661L10.0194 7.86335L9.84534 7.98349C8.13879 9.14889 8.27018 10.5639 8.27805 10.6486C8.27825 10.6509 8.27838 10.6522 8.27838 10.6525L8.3898 11.4465H7.79088L7.76128 12.129H8.30797L9.46753 12.6652H14.0326Z" fill="#223369"/>
<path d="M19.1583 9.12558L18.9629 9.16844L18.9974 9.32558H19.1583V9.12558ZM19.1583 12.3622V12.1622H18.9974L18.9629 12.3193L19.1583 12.3622ZM18.1363 14.8241L17.968 14.7161L17.8809 14.8516L17.9948 14.9655L18.1363 14.8241ZM19.113 15.8008L18.9716 15.9423L18.9716 15.9423L19.113 15.8008ZM19.0277 17.2477L19.1691 17.3891L19.1694 17.3888L19.0277 17.2477ZM18.9424 17.333L18.8363 17.5026L18.9713 17.5869L19.0838 17.4744L18.9424 17.333ZM18.3138 16.9848L18.1724 16.8434L17.974 17.0418L18.2263 17.1646L18.3138 16.9848ZM18.535 16.7637L18.4145 16.604L18.4034 16.6124L18.3935 16.6222L18.535 16.7637ZM18.6678 16.5487L18.4711 16.5125L18.4711 16.5125L18.6678 16.5487ZM18.6203 16.3005L18.7897 16.1942L18.7776 16.175L18.7616 16.159L18.6203 16.3005ZM17.2466 14.9286L17.0793 14.819L16.9901 14.9551L17.1052 15.0701L17.2466 14.9286ZM17.5478 14.4689L17.7151 14.5786L17.716 14.577L17.5478 14.4689ZM18.4758 12.2334L18.6711 12.2762L18.6711 12.2762L18.4758 12.2334ZM18.5959 11.685V11.485H18.435L18.4005 11.6422L18.5959 11.685ZM18.5976 9.82723L18.4023 9.87003L18.4367 10.0272H18.5976V9.82723ZM18.4775 9.27879L18.2821 9.32154L18.2821 9.32159L18.4775 9.27879ZM17.5495 7.04326L17.3812 7.15132L17.3813 7.15145L17.5495 7.04326ZM17.2466 6.57143L17.1047 6.43046L16.9915 6.54436L17.0783 6.67949L17.2466 6.57143ZM18.615 5.19424L18.7569 5.33521L18.7726 5.31941L18.7845 5.30055L18.615 5.19424ZM18.6625 4.94607L18.8592 4.90984L18.8592 4.90984L18.6625 4.94607ZM18.5297 4.73112L18.3883 4.87254L18.3982 4.88241L18.4093 4.89081L18.5297 4.73112ZM17.7637 3.96504L17.6182 4.10239L17.6222 4.10647L17.7637 3.96504ZM17.4538 3.82402L17.4426 4.02373L17.4458 4.02386L17.4538 3.82402ZM17.3714 3.83617L17.4398 4.02413L17.4398 4.02413L17.3714 3.83617ZM17.3005 3.87973L17.1637 3.73375L17.1591 3.73831L17.3005 3.87973ZM15.9286 5.2517L15.819 5.41898L15.955 5.50812L16.07 5.39312L15.9286 5.2517ZM15.4689 4.95049L15.5786 4.7832L15.577 4.78221L15.4689 4.95049ZM13.2334 4.02424L13.1906 4.21961L13.1908 4.21965L13.2334 4.02424ZM12.685 3.90411H12.485V4.06504L12.6422 4.09947L12.685 3.90411ZM10.8272 3.90411L10.87 4.09947L11.0272 4.06504V3.90411H10.8272ZM10.2788 4.02424L10.3214 4.21965L10.3216 4.21961L10.2788 4.02424ZM8.04326 4.95049L8.15132 5.11879L8.15135 5.11877L8.04326 4.95049ZM7.57143 5.25344L7.43001 5.39486L7.54392 5.50877L7.67949 5.42173L7.57143 5.25344ZM6.1925 3.87451L6.334 3.73301L6.32929 3.7286L6.1925 3.87451ZM6.03929 3.81879L6.04727 4.01866L6.0504 4.01849L6.03929 3.81879ZM5.72938 3.95982L5.87101 4.10114L5.87481 4.09711L5.72938 3.95982ZM4.95982 4.73112L5.10102 4.87276L5.1014 4.87238L4.95982 4.73112ZM4.82576 5.02536L5.02453 5.05018L5.0253 5.03897L4.82576 5.02536ZM4.83397 5.11823L4.64294 5.17745L4.64294 5.17745L4.83397 5.11823ZM4.87973 5.19946L4.72982 5.3324L4.7384 5.34098L4.87973 5.19946ZM6.25344 6.57143L6.421 6.68062L6.50962 6.54463L6.39477 6.42992L6.25344 6.57143ZM5.95049 7.03629L5.78293 6.9271L5.7822 6.92823L5.95049 7.03629ZM5.02424 9.27183L5.21961 9.31462L5.21965 9.31445L5.02424 9.27183ZM4.90411 9.82027V10.0203H5.06504L5.09948 9.86306L4.90411 9.82027ZM4.90585 11.6728L5.10122 11.63L5.06678 11.4728H4.90585V11.6728ZM5.02598 12.2212L5.22137 12.1785L5.22135 12.1784L5.02598 12.2212ZM5.95223 14.4567L6.12081 14.3491L6.12057 14.3488L5.95223 14.4567ZM6.25344 14.9286L6.39477 15.0701L6.50853 14.9565L6.42202 14.821L6.25344 14.9286ZM4.87277 16.3075L4.73144 16.166L4.7149 16.1825L4.70262 16.2024L4.87277 16.3075ZM4.82684 16.5551L5.02337 16.518L5.02337 16.518L4.82684 16.5551ZM4.95982 16.7689L5.10002 16.6262L5.09057 16.617L5.07997 16.609L4.95982 16.7689ZM5.16353 16.9691L5.25049 17.1492L5.50638 17.0257L5.30372 16.8265L5.16353 16.9691ZM4.52978 17.3173L4.38835 17.4587L4.50044 17.5708L4.63517 17.4873L4.52978 17.3173ZM4.47232 17.2599L4.61375 17.1184L4.61345 17.1182L4.47232 17.2599ZM4.38527 15.813L4.24397 15.6715L4.24385 15.6716L4.38527 15.813ZM5.36375 14.8363L5.50505 14.9778L5.61909 14.864L5.53211 14.7283L5.36375 14.8363ZM4.34348 12.3744L4.53885 12.3316L4.50442 12.1744H4.34348V12.3744ZM2.96281 9.12384L2.96281 8.92384L2.96216 8.92384L2.96281 9.12384ZM4.34348 9.12384V9.32384H4.50447L4.53886 9.16657L4.34348 9.12384ZM5.36375 6.66196L5.53208 6.76996L5.61913 6.63429L5.50505 6.52042L5.36375 6.66196ZM4.38527 5.68522L4.24352 5.82632L4.24397 5.82677L4.38527 5.68522ZM4.47232 4.23839L4.33122 4.09665L4.33119 4.09668L4.47232 4.23839ZM5.23839 3.4758L5.37951 3.61757L5.38193 3.61507L5.23839 3.4758ZM6.04103 3.12759L6.03817 2.92761L6.03739 2.92762L6.04103 3.12759ZM6.68696 3.38701L6.82839 3.24558L6.82735 3.24456L6.68696 3.38701ZM7.66371 4.36375L7.52228 4.50517L7.63618 4.61907L7.77173 4.53206L7.66371 4.36375ZM10.1256 3.34348L10.1683 3.53887L10.3256 3.50449V3.34348H10.1256ZM13.3727 1.96281L13.1727 1.96216V1.96281H13.3727ZM13.3727 3.34174H13.1727V3.5028L13.33 3.53714L13.3727 3.34174ZM15.8363 4.36201L15.7283 4.53035L15.8638 4.6173L15.9777 4.50343L15.8363 4.36201ZM16.813 3.38527L16.6726 3.24281L16.6716 3.24385L16.813 3.38527ZM17.11 3.19073L17.1845 3.37632L17.1845 3.37632L17.11 3.19073ZM17.459 3.12585L17.4625 2.92588L17.4618 2.92587L17.459 3.12585ZM18.2616 3.47406L18.118 3.61326L18.1202 3.61548L18.2616 3.47406ZM19.113 5.68696L18.9716 5.54554L18.9716 5.54554L19.113 5.68696ZM18.1363 6.6637L17.9948 6.52228L17.8809 6.63623L17.968 6.7718L18.1363 6.6637ZM12.5648 17.6029L12.7599 17.5589L12.7146 17.3576L12.5148 17.4092L12.5648 17.6029ZM11.8684 17.7073L11.8594 17.5075L11.6211 17.5183L11.6732 17.751L11.8684 17.7073ZM13.4737 21.6369L13.6691 21.5942L13.6688 21.593L13.4737 21.6369ZM13.4296 22.0984L13.6134 22.1773L13.6134 22.1773L13.4296 22.0984ZM13.1254 22.4483L13.0218 22.2772L13.0043 22.2878L12.9893 22.3017L13.1254 22.4483ZM12.3925 23.129L12.2564 22.9825L12.256 22.9828L12.3925 23.129ZM12.3228 23.1795L12.4019 23.3632L12.4108 23.3594L12.4193 23.3547L12.3228 23.1795ZM11.7413 23.2875L11.7492 23.0876L11.7406 23.0873L11.7319 23.0877L11.7413 23.2875ZM11.1041 23.1499L10.9951 23.3176L11.0038 23.3233L11.0131 23.328L11.1041 23.1499ZM11.0396 23.0959L11.1857 22.9592L11.1845 22.958L11.0396 23.0959ZM10.3432 22.3647L10.488 22.2268L10.4748 22.2128L10.4591 22.2017L10.3432 22.3647ZM10.0638 22.0018L10.251 21.9314L10.251 21.9314L10.0638 22.0018ZM10.035 21.5446L10.2296 21.591L10.2299 21.5897L10.035 21.5446ZM10.9387 17.6342L10.9808 17.4387L10.7882 17.3971L10.7438 17.5892L10.9387 17.6342ZM11.6351 17.7143L11.8298 17.76L11.8865 17.5184L11.6384 17.5143L11.6351 17.7143ZM11.205 19.5476L11.0103 19.502L10.8907 20.012L11.3198 19.7114L11.205 19.5476ZM12.1348 18.8965L12.2495 19.0603L12.3592 18.9835L12.3299 18.8528L12.1348 18.8965ZM10.7332 21.616L10.5383 21.571L10.4176 22.0935L10.851 21.7777L10.7332 21.616ZM10.977 20.5609L10.8621 20.3972L10.7994 20.4412L10.7821 20.5159L10.977 20.5609ZM12.4151 20.3903L12.2996 20.227L12.2973 20.2287L12.4151 20.3903ZM12.4691 20.359L12.5536 20.5402L12.6994 20.4722L12.6642 20.3152L12.4691 20.359ZM12.3054 19.6295L12.5006 19.5857L12.4352 19.2942L12.1906 19.4657L12.3054 19.6295ZM12.7424 21.8598L12.8389 22.035L12.7424 21.6598V21.8598ZM12.6728 21.9103L12.8087 22.057L12.8093 22.0564L12.6728 21.9103ZM12.7407 21.8598L12.6351 21.6899L12.0399 22.0598H12.7407V21.8598ZM12.7929 21.7919L12.9842 21.8503L12.9997 21.7994L12.9879 21.7475L12.7929 21.7919ZM12.6345 21.0954L12.8295 21.0511L12.7622 20.7552L12.5168 20.9337L12.6345 21.0954ZM11.1319 22.1888L11.0142 22.0271L10.8303 22.161L10.9866 22.3262L11.1319 22.1888ZM11.4941 22.5719L11.3487 22.7093L11.3947 22.7579L11.4607 22.7691L11.4941 22.5719ZM11.9589 22.5719L11.9923 22.7691L12.0511 22.7591L12.0949 22.7186L11.9589 22.5719ZM8.82333 16.3511L8.66968 16.4791L8.67063 16.4802L8.82333 16.3511ZM8.66838 16.1596L8.82579 16.0362L8.65902 15.8234L8.50435 16.0451L8.66838 16.1596ZM9.13846 16.6836L9.29566 16.8073L9.40873 16.6635L9.27564 16.5381L9.13846 16.6836ZM7.58891 17.6151L7.61376 17.8138L7.62436 17.8119L7.58891 17.6151ZM3.77074 20.7647L3.57074 20.751V20.7647H3.77074ZM3.74288 22.8992L3.54288 22.8964V22.8992H3.74288ZM3.6409 23.1455L3.78232 23.2869L3.78232 23.2869L3.6409 23.1455ZM3.14845 23.1455L3.00702 23.2869L3.00703 23.2869L3.14845 23.1455ZM3.04646 22.8992L2.84646 22.8964V22.8992H3.04646ZM3.07431 20.7386L2.87431 20.7253V20.7386H3.07431ZM7.47574 16.9378L7.50544 17.1358L7.51443 17.134L7.47574 16.9378ZM15.9617 16.9396L15.921 17.1357L15.9326 17.1374L15.9617 16.9396ZM20.351 20.7038L20.1515 20.7179L20.1522 20.7282L20.154 20.7384L20.351 20.7038ZM20.3482 23.1681L20.4896 23.3095L20.4896 23.3095L20.3482 23.1681ZM19.6632 20.8152L19.4635 20.8262L19.4643 20.8391L19.4666 20.8518L19.6632 20.8152ZM19.6632 20.7699L19.8629 20.7809L19.8636 20.7688L19.8628 20.7566L19.6632 20.7699ZM15.8503 17.6116L15.8142 17.8083L15.8321 17.8116H15.8503V17.6116ZM14.2276 16.5913L14.0882 16.4479L13.9638 16.5688L14.066 16.7091L14.2276 16.5913ZM14.7082 16.069L14.8774 15.9625L14.7297 15.7278L14.5536 15.9421L14.7082 16.069ZM16.451 12.4128L16.2508 12.4212L16.252 12.4332L16.451 12.4128ZM15.57 12.8254V12.6254H15.4179L15.3772 12.772L15.57 12.8254ZM13.4511 16.3737L13.3231 16.2201L13.3213 16.2215L13.4511 16.3737ZM11.6961 17.0179L11.6931 17.2179L11.6956 17.2179L11.6961 17.0179ZM10.4008 16.7139L10.3145 16.8944L10.3145 16.8944L10.4008 16.7139ZM9.35088 15.8967L9.19576 16.0229L9.19712 16.0246L9.35088 15.8967ZM7.89012 12.8237L8.08596 12.7831L8.05294 12.6237H7.89012V12.8237ZM7.04918 12.411L7.2484 12.4327L7.24897 12.4201L7.04918 12.411ZM7.09967 11.302L6.90045 11.2803L6.89988 11.2929L7.09967 11.302ZM7.11134 11.1766L7.31062 11.1935L7.31062 11.1935L7.11134 11.1766ZM7.58891 10.75V10.95H7.81888L7.78698 10.7223L7.58891 10.75ZM9.44664 7.40893L9.55957 7.574L9.61002 7.53948L9.63255 7.48266L9.44664 7.40893ZM10.5069 6.39737V6.19737H10.4935L10.4802 6.19917L10.5069 6.39737ZM12.9932 6.39737L13.0205 6.19924L13.0069 6.19737H12.9932V6.39737ZM14.0535 7.40893L13.8678 7.48309L13.8903 7.53959L13.9405 7.57395L14.0535 7.40893ZM15.9095 10.7483L15.7114 10.7205L15.6795 10.9483H15.9095V10.7483ZM16.3921 11.1745L16.5914 11.1573L16.5914 11.1573L16.3921 11.1745ZM16.404 11.3002L16.6042 11.2918L16.6028 11.2784L16.404 11.3002ZM12.2724 7.0938L12.4685 7.13302L12.5164 6.8938H12.2724V7.0938ZM12.0983 7.96433V8.16433H12.2622L12.2944 8.00356L12.0983 7.96433ZM11.2399 7.0938V6.8938H10.996L11.0438 7.13302L11.2399 7.0938ZM11.414 7.96433L11.2179 8.00356L11.2501 8.16433H11.414V7.96433ZM11.4284 10.0945L11.6131 10.171L11.6131 10.171L11.4284 10.0945ZM11.4085 10.2957L11.6047 10.2566L11.6047 10.2566L11.4085 10.2957ZM11.5038 10.474L11.6453 10.3325L11.6453 10.3325L11.5038 10.474ZM11.8833 10.5494L11.9599 10.7342L11.9599 10.7342L11.8833 10.5494ZM13.0019 15.8409L12.873 15.688L12.872 15.6889L13.0019 15.8409ZM11.6961 16.3215L11.693 16.5215L11.6957 16.5215L11.6961 16.3215ZM14.7586 13.097L14.9474 13.163L15.1035 12.7168L14.6746 12.9156L14.7586 13.097ZM14.1876 13.3617V13.5617H14.2317L14.2717 13.5431L14.1876 13.3617ZM9.31257 13.3617L9.23003 13.5438L9.26938 13.5617H9.31257V13.3617ZM8.66315 13.0674L8.74569 12.8852L8.36073 12.7108L8.46995 13.1191L8.66315 13.0674ZM9.8819 15.4509L9.72688 15.5773L9.72782 15.5785L9.8819 15.4509ZM10.6935 16.0853L10.78 15.905L10.78 15.905L10.6935 16.0853ZM15.1939 12.129L15.1945 11.929L15.1503 11.9288L15.1101 11.9474L15.1939 12.129ZM14.0326 12.6652V12.8652H14.0766L14.1165 12.8468L14.0326 12.6652ZM15.7406 12.1307L15.74 12.3307L15.9495 12.3314L15.9404 12.1221L15.7406 12.1307ZM15.711 11.4465L15.9108 11.4378L15.9025 11.2465H15.711V11.4465ZM15.0894 11.4465L14.8926 11.4111L14.8503 11.6465H15.0894V11.4465ZM15.2322 10.6525L15.4291 10.6879L15.4322 10.6704V10.6525H15.2322ZM15.2328 10.6397L15.033 10.6296L15.033 10.6296L15.2328 10.6397ZM13.6652 7.98349L13.5517 8.1481L13.5523 8.14852L13.6652 7.98349ZM13.4911 7.86335L13.3092 7.94635L13.3321 7.9966L13.3776 8.02797L13.4911 7.86335ZM13.4006 7.66487L13.2145 7.73884L13.2186 7.74787L13.4006 7.66487ZM12.9566 7.10947L13.0696 6.94445L12.7346 6.71505L12.7569 7.12046L12.9566 7.10947ZM12.9566 7.19652L13.1525 7.2372L13.1555 7.2225L13.1563 7.20751L12.9566 7.19652ZM12.7512 8.18545L12.5553 8.14475L12.5541 8.15153L12.7512 8.18545ZM12.5632 8.51997L12.6947 8.67069L12.6947 8.67069L12.5632 8.51997ZM12.2062 8.66076V8.86088L12.2131 8.86065L12.2062 8.66076ZM12.0983 8.66076V8.46076H11.8983V8.66076H12.0983ZM12.0983 9.24402H11.8983V9.38544L12.0316 9.43258L12.0983 9.24402ZM12.6511 9.70035L12.8236 9.59915L12.8236 9.59915L12.6511 9.70035ZM12.7797 10.4056L12.5826 10.3718L12.5825 10.3718L12.7797 10.4056ZM10.7205 10.4056L10.5234 10.4394L10.5234 10.4394L10.7205 10.4056ZM10.849 9.70035L11.0215 9.80155L11.0215 9.80155L10.849 9.70035ZM11.4019 9.24402L11.4685 9.43258L11.6019 9.38544V9.24402H11.4019ZM11.4019 8.66076H11.6019V8.46076H11.4019V8.66076ZM11.2957 8.66076L11.2937 8.86076H11.2957V8.66076ZM10.9301 8.52433L11.0597 8.37197L11.0597 8.37197L10.9301 8.52433ZM10.7368 8.18545L10.934 8.1514L10.9326 8.14477L10.7368 8.18545ZM10.5313 7.19652L10.3316 7.20723L10.3324 7.22236L10.3355 7.2372L10.5313 7.19652ZM10.5313 7.10947L10.731 7.12017L10.7532 6.70641L10.4155 6.94644L10.5313 7.10947ZM10.0978 7.66661L10.2836 7.74061L10.2843 7.73886L10.0978 7.66661ZM10.0194 7.86335L10.133 8.02797L10.1829 7.99359L10.2053 7.93735L10.0194 7.86335ZM9.84534 7.98349L9.95813 8.14865L9.95893 8.1481L9.84534 7.98349ZM8.27805 10.6486L8.0789 10.6671L8.0789 10.6671L8.27805 10.6486ZM8.27838 10.6525H8.07838V10.6665L8.08032 10.6803L8.27838 10.6525ZM8.3898 11.4465V11.6465H8.61983L8.58786 11.4187L8.3898 11.4465ZM7.79088 11.4465V11.2465H7.59936L7.59106 11.4378L7.79088 11.4465ZM7.76128 12.129L7.56147 12.1203L7.55242 12.329H7.76128V12.129ZM8.30797 12.129L8.39192 11.9474L8.35198 11.929H8.30797V12.129ZM9.46753 12.6652L9.38358 12.8468L9.42352 12.8652H9.46753V12.6652ZM20.5372 8.92558H19.1583V9.32558H20.5372V8.92558ZM21.7 10.2085C21.7 9.52169 21.1999 8.92558 20.5372 8.92558V9.32558C20.9365 9.32558 21.3 9.69751 21.3 10.2085H21.7ZM21.7 11.2775V10.2085H21.3V11.2775H21.7ZM20.5372 12.5622C21.2003 12.5622 21.7 11.9639 21.7 11.2775H21.3C21.3 11.789 20.9361 12.1622 20.5372 12.1622V12.5622ZM19.1583 12.5622H20.5372V12.1622H19.1583V12.5622ZM18.3046 14.9322C18.8012 14.1586 19.1564 13.303 19.3536 12.4051L18.9629 12.3193C18.7759 13.1709 18.439 13.9824 17.968 14.7161L18.3046 14.9322ZM19.2544 15.6594L18.2777 14.6827L17.9948 14.9655L18.9716 15.9423L19.2544 15.6594ZM19.1694 17.3888C19.6539 16.9023 19.724 16.129 19.2544 15.6594L18.9716 15.9423C19.2542 16.2248 19.2476 16.7434 18.886 17.1065L19.1694 17.3888ZM19.0838 17.4744L19.1691 17.3891L18.8863 17.1063L18.8009 17.1916L19.0838 17.4744ZM18.2263 17.1646C18.4355 17.2664 18.6391 17.3792 18.8363 17.5026L19.0484 17.1634C18.8392 17.0326 18.6232 16.9129 18.4014 16.8049L18.2263 17.1646ZM18.3935 16.6222L18.1724 16.8434L18.4553 17.1262L18.6764 16.9051L18.3935 16.6222ZM18.4711 16.5125C18.4644 16.549 18.4442 16.5816 18.4145 16.604L18.6554 16.9234C18.765 16.8407 18.8396 16.7199 18.8645 16.5849L18.4711 16.5125ZM18.4509 16.4068C18.4706 16.4383 18.4778 16.476 18.4711 16.5125L18.8645 16.5849C18.8893 16.4499 18.8626 16.3105 18.7897 16.1942L18.4509 16.4068ZM17.1052 15.0701L18.4789 16.442L18.7616 16.159L17.3879 14.7871L17.1052 15.0701ZM17.3805 14.3593L17.0793 14.819L17.4138 15.0382L17.7151 14.5785L17.3805 14.3593ZM18.2804 12.1905C18.1113 12.9617 17.8062 13.6966 17.3795 14.3608L17.716 14.577C18.1684 13.8729 18.4918 13.0938 18.6711 12.2762L18.2804 12.1905ZM18.4005 11.6422L18.2804 12.1906L18.6711 12.2762L18.7913 11.7277L18.4005 11.6422ZM20.5372 11.485H18.5959V11.885H20.5372V11.485ZM20.6036 11.2967C20.6036 11.3699 20.5809 11.4247 20.5568 11.4571C20.5291 11.4945 20.5156 11.485 20.5372 11.485V11.885C20.6841 11.885 20.8038 11.7954 20.8779 11.6956C20.9557 11.5909 21.0036 11.4515 21.0036 11.2967H20.6036ZM20.6036 10.2155V11.2967H21.0036V10.2155H20.6036ZM20.5372 10.0272C20.5176 10.0272 20.5308 10.0185 20.5574 10.0544C20.5808 10.0859 20.6036 10.1405 20.6036 10.2155H21.0036C21.0036 10.0606 20.9567 9.92113 20.8787 9.816C20.8038 9.71516 20.6839 9.62723 20.5372 9.62723V10.0272ZM18.5976 10.0272H20.5372V9.62723H18.5976V10.0272ZM18.2821 9.32159L18.4023 9.87003L18.793 9.78444L18.6729 9.236L18.2821 9.32159ZM17.3813 7.15145C17.8083 7.81543 18.1134 8.55032 18.2821 9.32154L18.6729 9.23605C18.494 8.41832 18.1705 7.6391 17.7177 6.93507L17.3813 7.15145ZM17.0783 6.67949L17.3812 7.15132L17.7178 6.9352L17.4149 6.46337L17.0783 6.67949ZM18.4732 5.05327L17.1047 6.43046L17.3884 6.7124L18.7569 5.33521L18.4732 5.05327ZM18.4659 4.9823C18.4726 5.0188 18.4654 5.0565 18.4456 5.08794L18.7845 5.30055C18.8574 5.18427 18.8841 5.04484 18.8592 4.90984L18.4659 4.9823ZM18.4093 4.89081C18.439 4.91315 18.4591 4.9458 18.4659 4.9823L18.8592 4.90984C18.8344 4.77483 18.7598 4.65407 18.6501 4.57142L18.4093 4.89081ZM17.6222 4.10647L18.3883 4.87254L18.6712 4.58969L17.9051 3.82362L17.6222 4.10647ZM17.4458 4.02386C17.5113 4.02648 17.5732 4.05465 17.6182 4.10234L17.9091 3.82775C17.7923 3.70404 17.6317 3.63097 17.4617 3.62418L17.4458 4.02386ZM17.4398 4.02413C17.4407 4.0238 17.4417 4.02365 17.4426 4.02371L17.4649 3.62433C17.4099 3.62127 17.3548 3.62939 17.3031 3.64821L17.4398 4.02413ZM17.4373 4.02564C17.438 4.02498 17.4389 4.02446 17.4398 4.02413L17.3031 3.64821C17.2513 3.66703 17.2039 3.69616 17.1637 3.73382L17.4373 4.02564ZM16.07 5.39312L17.442 4.02115L17.1591 3.73831L15.7872 5.11027L16.07 5.39312ZM15.3593 5.11777L15.819 5.41898L16.0382 5.08441L15.5785 4.78321L15.3593 5.11777ZM13.1908 4.21965C13.9619 4.38781 14.6968 4.6923 15.3609 5.11878L15.577 4.78221C14.8729 4.33 14.0936 4.00714 13.276 3.82883L13.1908 4.21965ZM12.6422 4.09947L13.1906 4.21961L13.2762 3.82887L12.7278 3.70874L12.6422 4.09947ZM12.485 1.96281V3.90411H12.885V1.96281H12.485ZM12.2967 1.89643C12.3699 1.89643 12.4247 1.91911 12.4571 1.94316C12.4945 1.97092 12.485 1.9844 12.485 1.96281H12.885C12.885 1.81587 12.7954 1.69615 12.6956 1.62206C12.5909 1.54426 12.4515 1.49643 12.2967 1.49643V1.89643ZM11.2155 1.89643H12.2967V1.49643H11.2155V1.89643ZM11.0272 1.96281C11.0272 1.9844 11.0177 1.97092 11.0551 1.94316C11.0875 1.91911 11.1422 1.89643 11.2155 1.89643V1.49643C11.0607 1.49643 10.9213 1.54426 10.8166 1.62206C10.7168 1.69615 10.6272 1.81587 10.6272 1.96281H11.0272ZM11.0272 3.90411V1.96281H10.6272V3.90411H11.0272ZM10.3216 4.21961L10.87 4.09947L10.7844 3.70874L10.236 3.82887L10.3216 4.21961ZM8.15135 5.11877C8.81538 4.69223 9.55027 4.38774 10.3214 4.21965L10.2362 3.82883C9.41854 4.00707 8.63929 4.32993 7.93517 4.78222L8.15135 5.11877ZM7.67949 5.42173L8.15132 5.11879L7.9352 4.78219L7.46337 5.08514L7.67949 5.42173ZM6.05108 4.01593L7.43001 5.39486L7.71285 5.11202L6.33392 3.73309L6.05108 4.01593ZM6.05325 4.01891C6.05417 4.01924 6.05501 4.01975 6.05571 4.02042L6.32929 3.7286C6.28911 3.69093 6.24171 3.66181 6.18995 3.64299L6.05325 4.01891ZM6.0504 4.01849C6.05137 4.01843 6.05234 4.01858 6.05325 4.01891L6.18995 3.64299C6.1382 3.62417 6.08316 3.61604 6.02817 3.6191L6.0504 4.01849ZM5.87481 4.09711C5.91983 4.04942 5.98173 4.02125 6.04727 4.01864L6.0313 3.61895C5.86131 3.62574 5.70073 3.69882 5.58394 3.82253L5.87481 4.09711ZM5.1014 4.87238L5.87096 4.10108L5.58779 3.81856L4.81824 4.58985L5.1014 4.87238ZM5.0253 5.03897C5.02957 4.97622 5.05648 4.91716 5.10102 4.87276L4.81862 4.58948C4.70546 4.70229 4.63709 4.85234 4.62622 5.01175L5.0253 5.03897ZM5.025 5.05901C5.02411 5.05614 5.02385 5.05312 5.02422 5.05014L4.6273 5.00057C4.61988 5.05997 4.62521 5.12027 4.64294 5.17745L5.025 5.05901ZM5.02937 5.06677C5.02738 5.06452 5.02589 5.06188 5.025 5.05901L4.64294 5.17745C4.66066 5.23463 4.69038 5.28737 4.73009 5.33216L5.02937 5.06677ZM6.39477 6.42992L5.02106 5.05795L4.7384 5.34098L6.11211 6.71294L6.39477 6.42992ZM6.11805 7.14549L6.421 6.68062L6.08588 6.46223L5.78293 6.9271L6.11805 7.14549ZM5.21965 9.31445C5.38785 8.54335 5.69233 7.80846 6.11878 7.14436L5.7822 6.92823C5.33003 7.63238 5.00718 8.4116 4.82884 9.22921L5.21965 9.31445ZM5.09948 9.86306L5.21961 9.31462L4.82887 9.22903L4.70874 9.77747L5.09948 9.86306ZM2.96281 10.0203H4.90411V9.62027H2.96281V10.0203ZM2.89643 10.2085C2.89643 10.1353 2.91911 10.0805 2.94316 10.0481C2.97092 10.0108 2.9844 10.0203 2.96281 10.0203V9.62027C2.81587 9.62027 2.69615 9.70987 2.62206 9.8096C2.54426 9.91434 2.49643 10.0537 2.49643 10.2085H2.89643ZM2.89643 11.2845V10.2085H2.49643V11.2845H2.89643ZM2.96281 11.4728C2.98365 11.4728 2.97025 11.4819 2.94298 11.4453C2.91926 11.4135 2.89643 11.3589 2.89643 11.2845H2.49643C2.49643 11.44 2.54411 11.5795 2.62224 11.6843C2.69683 11.7844 2.81661 11.8728 2.96281 11.8728V11.4728ZM4.90585 11.4728H2.96281V11.8728H4.90585V11.4728ZM5.22135 12.1784L5.10122 11.63L4.71048 11.7156L4.83061 12.264L5.22135 12.1784ZM6.12057 14.3488C5.69441 13.6844 5.38993 12.9495 5.22137 12.1785L4.8306 12.2639C5.00929 13.0814 5.3321 13.8604 5.78389 14.5647L6.12057 14.3488ZM6.42202 14.821L6.12081 14.3491L5.78365 14.5644L6.08486 15.0362L6.42202 14.821ZM5.0141 16.449L6.39477 15.0701L6.11211 14.7871L4.73144 16.166L5.0141 16.449ZM5.02337 16.518C5.01651 16.4817 5.02349 16.4441 5.04292 16.4126L4.70262 16.2024C4.63074 16.3187 4.60495 16.4578 4.6303 16.5922L5.02337 16.518ZM5.07997 16.609C5.05041 16.5868 5.03022 16.5543 5.02337 16.518L4.6303 16.5922C4.65566 16.7265 4.73034 16.8466 4.83967 16.9288L5.07997 16.609ZM5.30372 16.8265L5.10002 16.6262L4.81962 16.9115L5.02333 17.1117L5.30372 16.8265ZM4.63517 17.4873C4.8342 17.3639 5.03959 17.251 5.25049 17.1492L5.07657 16.789C4.85304 16.8969 4.63534 17.0165 4.42438 17.1473L4.63517 17.4873ZM4.3309 17.4013L4.38835 17.4587L4.6712 17.1759L4.61375 17.1184L4.3309 17.4013ZM4.24385 15.6716C3.77434 16.1411 3.84416 16.9165 4.33119 17.4016L4.61345 17.1182C4.25084 16.757 4.24405 16.2371 4.52669 15.9545L4.24385 15.6716ZM5.22245 14.6947L4.24397 15.6715L4.52656 15.9546L5.50505 14.9778L5.22245 14.6947ZM4.14811 12.4172C4.34474 13.3149 4.69934 14.1706 5.19539 14.9442L5.53211 14.7283C5.06165 13.9946 4.72533 13.1831 4.53885 12.3316L4.14811 12.4172ZM2.96281 12.5744H4.34348V12.1744H2.96281V12.5744ZM1.8 11.2897C1.8 11.9759 2.2977 12.5744 2.96281 12.5744V12.1744C2.56239 12.1744 2.2 11.8014 2.2 11.2897H1.8ZM1.8 10.2085V11.2897H2.2V10.2085H1.8ZM2.96216 8.92384C2.29812 8.92601 1.8 9.52173 1.8 10.2085H2.2C2.2 9.69747 2.56197 9.32515 2.96347 9.32384L2.96216 8.92384ZM4.34348 8.92384H2.96281V9.32384H4.34348V8.92384ZM5.19542 6.55396C4.69911 7.32752 4.34448 8.18325 4.1481 9.08111L4.53886 9.16657C4.7251 8.31509 5.06142 7.50357 5.53208 6.76996L5.19542 6.55396ZM4.24397 5.82677L5.22245 6.80351L5.50505 6.52042L4.52656 5.54368L4.24397 5.82677ZM4.33119 4.09668C3.84371 4.58217 3.77662 5.35724 4.24352 5.82632L4.52702 5.54413C4.24526 5.26106 4.25129 4.74078 4.61345 4.3801L4.33119 4.09668ZM5.09729 3.33406L4.33122 4.09665L4.61342 4.38014L5.37949 3.61755L5.09729 3.33406ZM6.03739 2.92762C5.68154 2.93409 5.34269 3.08109 5.09485 3.33653L5.38193 3.61507C5.5562 3.43546 5.79445 3.3321 6.04466 3.32756L6.03739 2.92762ZM6.46457 3.00688C6.32909 2.95247 6.18415 2.92552 6.03817 2.92761L6.04389 3.32757C6.13687 3.32624 6.2292 3.3434 6.3155 3.37806L6.46457 3.00688ZM6.82735 3.24456C6.72336 3.14208 6.60005 3.06129 6.46457 3.00688L6.3155 3.37806C6.40179 3.41272 6.48034 3.46418 6.54658 3.52946L6.82735 3.24456ZM7.80513 4.22233L6.82839 3.24559L6.54554 3.52843L7.52228 4.50517L7.80513 4.22233ZM10.0829 3.14809C9.18496 3.34433 8.32918 3.69898 7.55568 4.19543L7.77173 4.53206C8.50525 4.06128 9.31678 3.72496 10.1683 3.53887L10.0829 3.14809ZM9.92558 1.96281V3.34348H10.3256V1.96281H9.92558ZM11.2103 0.8C10.5241 0.8 9.92558 1.2977 9.92558 1.96281H10.3256C10.3256 1.56239 10.6986 1.2 11.2103 1.2V0.8ZM12.2915 0.8H11.2103V1.2H12.2915V0.8ZM13.5727 1.96347C13.5749 1.29807 12.9779 0.8 12.2915 0.8V1.2C12.803 1.2 13.174 1.56202 13.1727 1.96216L13.5727 1.96347ZM13.5727 3.34174V1.96281H13.1727V3.34174H13.5727ZM15.9443 4.19367C15.1702 3.6971 14.3138 3.34244 13.4153 3.14634L13.33 3.53714C14.1821 3.72311 14.9942 4.05944 15.7283 4.53035L15.9443 4.19367ZM16.6716 3.24385L15.6949 4.22059L15.9777 4.50343L16.9545 3.52669L16.6716 3.24385ZM17.0354 3.00514C16.9 3.05955 16.7766 3.14034 16.6727 3.24282L16.9534 3.52772C17.0197 3.46244 17.0982 3.41098 17.1845 3.37632L17.0354 3.00514ZM17.4618 2.92587C17.3159 2.92378 17.1709 2.95073 17.0354 3.00514L17.1845 3.37632C17.2708 3.34166 17.3631 3.3245 17.4561 3.32583L17.4618 2.92587ZM18.4052 3.33488C18.1575 3.07919 17.8185 2.93212 17.4625 2.92588L17.4555 3.32582C17.7056 3.3302 17.9439 3.43356 18.118 3.61324L18.4052 3.33488ZM19.1691 4.09871L18.403 3.33264L18.1202 3.61548L18.8863 4.38156L19.1691 4.09871ZM19.2544 5.82839C19.7238 5.35896 19.6541 4.58372 19.1691 4.09871L18.8863 4.38156C19.2474 4.7427 19.2543 5.26282 18.9716 5.54554L19.2544 5.82839ZM18.2777 6.80513L19.2544 5.82839L18.9716 5.54554L17.9948 6.52228L18.2777 6.80513ZM19.3536 9.08272C19.1566 8.18478 18.8014 7.32907 18.3045 6.55561L17.968 6.7718C18.4392 7.50533 18.7761 8.31686 18.9629 9.16844L19.3536 9.08272ZM12.5148 17.4092C12.3003 17.4646 12.0807 17.4975 11.8594 17.5075L11.8774 17.9071C12.1264 17.8959 12.3735 17.8588 12.6148 17.7965L12.5148 17.4092ZM13.6688 21.593L12.7599 17.5589L12.3697 17.6468L13.2786 21.6809L13.6688 21.593ZM13.6134 22.1773C13.6923 21.9935 13.7118 21.7896 13.669 21.5942L13.2783 21.6796C13.3032 21.7935 13.2918 21.9124 13.2459 22.0195L13.6134 22.1773ZM13.2291 22.6193C13.4002 22.5157 13.5345 22.3611 13.6134 22.1773L13.2459 22.0195C13.1999 22.1267 13.1215 22.2168 13.0218 22.2772L13.2291 22.6193ZM12.5286 23.2756L13.2616 22.5948L12.9893 22.3017L12.2564 22.9825L12.5286 23.2756ZM12.4193 23.3547C12.459 23.3328 12.4958 23.3061 12.529 23.2752L12.256 22.9828C12.247 22.9912 12.237 22.9984 12.2263 23.0043L12.4193 23.3547ZM11.7334 23.4873C11.9627 23.4964 12.1911 23.454 12.4019 23.3632L12.2437 22.9958C12.0878 23.0629 11.9188 23.0943 11.7492 23.0876L11.7334 23.4873ZM11.0131 23.328C11.241 23.4443 11.4952 23.4992 11.7506 23.4872L11.7319 23.0877C11.5459 23.0964 11.3609 23.0564 11.195 22.9718L11.0131 23.328ZM10.8936 23.2326C10.9239 23.2649 10.9579 23.2935 10.9951 23.3176L11.2131 22.9822C11.203 22.9757 11.1938 22.968 11.1856 22.9593L10.8936 23.2326ZM10.1984 22.5026L10.8948 23.2339L11.1845 22.958L10.488 22.2268L10.1984 22.5026ZM9.87659 22.0721C9.94551 22.2555 10.0676 22.4142 10.2273 22.5277L10.4591 22.2017C10.3644 22.1343 10.2919 22.0402 10.251 21.9314L9.87659 22.0721ZM9.84049 21.4983C9.7951 21.6889 9.80767 21.8887 9.87659 22.0721L10.251 21.9314C10.2101 21.8226 10.2027 21.7041 10.2296 21.591L9.84049 21.4983ZM10.7438 17.5892L9.84018 21.4996L10.2299 21.5897L11.1335 17.6792L10.7438 17.5892ZM11.6384 17.5143C11.4173 17.5107 11.197 17.4853 10.9808 17.4387L10.8965 17.8297C11.1382 17.8819 11.3845 17.9102 11.6318 17.9143L11.6384 17.5143ZM11.3998 19.5933L11.8298 17.76L11.4404 17.6686L11.0103 19.502L11.3998 19.5933ZM12.02 18.7327L11.0903 19.3838L11.3198 19.7114L12.2495 19.0603L12.02 18.7327ZM11.6732 17.751L11.9396 18.9402L12.3299 18.8528L12.0636 17.6636L11.6732 17.751ZM10.9281 21.661L11.1718 20.606L10.7821 20.5159L10.5383 21.571L10.9281 21.661ZM12.2973 20.2287L10.6154 21.4544L10.851 21.7777L12.5329 20.5519L12.2973 20.2287ZM12.3845 20.1777C12.3548 20.1916 12.3264 20.2081 12.2996 20.2271L12.5306 20.5536C12.5379 20.5484 12.5455 20.544 12.5536 20.5402L12.3845 20.1777ZM12.1103 19.6732L12.2739 20.4028L12.6642 20.3152L12.5006 19.5857L12.1103 19.6732ZM11.0918 20.7247L12.4202 19.7932L12.1906 19.4657L10.8621 20.3972L11.0918 20.7247ZM12.6459 21.6846C12.6062 21.7065 12.5694 21.7332 12.5363 21.7641L12.8093 22.0564C12.8182 22.0481 12.8282 22.0409 12.8389 22.035L12.6459 21.6846ZM12.7407 22.0598H12.7424V21.6598H12.7407V22.0598ZM12.6016 21.7334C12.6072 21.7153 12.6191 21.6999 12.6351 21.6899L12.8462 22.0297C12.9124 21.9885 12.9614 21.9248 12.9842 21.8503L12.6016 21.7334ZM12.4394 21.1398L12.5979 21.8362L12.9879 21.7475L12.8295 21.0511L12.4394 21.1398ZM11.2496 22.3506L12.7521 21.2572L12.5168 20.9337L11.0142 22.0271L11.2496 22.3506ZM11.6394 22.4345L11.2772 22.0514L10.9866 22.3262L11.3487 22.7093L11.6394 22.4345ZM11.9256 22.3747C11.7938 22.397 11.6592 22.397 11.5274 22.3747L11.4607 22.7691C11.6366 22.7989 11.8163 22.7989 11.9923 22.7691L11.9256 22.3747ZM12.5368 21.7636L11.823 22.4252L12.0949 22.7186L12.8087 22.057L12.5368 21.7636ZM8.97698 16.223C8.92589 16.1617 8.87492 16.0989 8.82579 16.0362L8.51096 16.2829C8.56281 16.3491 8.61631 16.4151 8.66969 16.4791L8.97698 16.223ZM9.27564 16.5381C9.1699 16.4384 9.06987 16.3329 8.97603 16.2219L8.67063 16.4802C8.77419 16.6027 8.88459 16.7192 9.00129 16.8292L9.27564 16.5381ZM7.62436 17.8119C8.28563 17.6928 8.88027 17.3354 9.29566 16.8073L8.98127 16.56C8.62639 17.0111 8.11839 17.3165 7.55346 17.4183L7.62436 17.8119ZM3.97028 20.7783C4.05008 19.6084 4.91438 18.8697 5.81949 18.4133C6.26822 18.187 6.71474 18.037 7.05266 17.9432C7.39236 17.8489 7.61547 17.8133 7.61372 17.8135L7.5641 17.4166C7.52768 17.4212 6.593 17.5753 5.6394 18.0561C4.6894 18.5351 3.66551 19.3685 3.57121 20.7511L3.97028 20.7783ZM3.94287 22.902C3.96722 21.1622 3.97074 20.8257 3.97074 20.7647H3.57074C3.57074 20.8221 3.5673 21.1542 3.5429 22.8964L3.94287 22.902ZM3.78232 23.2869C3.88513 23.1841 3.94288 23.0446 3.94288 22.8992H3.54288C3.54288 22.9386 3.52727 22.9763 3.49947 23.0041L3.78232 23.2869ZM3.39467 23.4475C3.54006 23.4475 3.67951 23.3897 3.78232 23.2869L3.49948 23.004C3.47168 23.0318 3.43398 23.0475 3.39467 23.0475V23.4475ZM3.00703 23.2869C3.10984 23.3897 3.24928 23.4475 3.39467 23.4475V23.0475C3.35536 23.0475 3.31766 23.0318 3.28987 23.004L3.00703 23.2869ZM2.84646 22.8992C2.84646 23.0446 2.90421 23.1841 3.00702 23.2869L3.28987 23.0041C3.26207 22.9763 3.24646 22.9386 3.24646 22.8992H2.84646ZM2.87431 20.7595C2.87431 20.7646 2.87435 20.9299 2.84648 22.8964L3.24644 22.9021C3.27428 20.9373 3.27431 20.7682 3.27431 20.7595H2.87431ZM2.87431 20.7386V20.7595H3.27431V20.7386H2.87431ZM7.44607 16.74C7.34976 16.7545 6.27557 16.9294 5.19388 17.5019C4.11234 18.0743 2.98494 19.0669 2.87475 20.7253L3.27387 20.7518C3.37087 19.292 4.35713 18.3973 5.38099 17.8554C6.40468 17.3136 7.42762 17.1473 7.50541 17.1356L7.44607 16.74ZM8.50435 16.0451C8.25213 16.4067 7.86955 16.6563 7.43705 16.7416L7.51443 17.134C8.04851 17.0287 8.52095 16.7204 8.83241 16.274L8.50435 16.0451ZM16.0024 16.7437C15.772 16.6959 15.5536 16.602 15.3603 16.4678L15.1322 16.7963C15.3696 16.9612 15.6379 17.0765 15.921 17.1354L16.0024 16.7437ZM20.5505 20.6896C20.4337 19.0476 19.3067 18.0641 18.2293 17.4969C17.1513 16.9294 16.0835 16.7553 15.9909 16.7417L15.9326 17.1374C16.0053 17.1481 17.0224 17.3136 18.0429 17.8508C19.0639 18.3883 20.0488 19.2747 20.1515 20.7179L20.5505 20.6896ZM20.6502 22.9219C20.6502 21.3836 20.5735 20.8148 20.5479 20.6691L20.154 20.7384C20.1737 20.8504 20.2502 21.3924 20.2502 22.9219H20.6502ZM20.4896 23.3095C20.5924 23.2067 20.6502 23.0673 20.6502 22.9219H20.2502C20.2502 22.9612 20.2346 22.9989 20.2068 23.0267L20.4896 23.3095ZM20.102 23.4701C20.2474 23.4701 20.3868 23.4123 20.4896 23.3095L20.2068 23.0267C20.179 23.0545 20.1413 23.0701 20.102 23.0701V23.4701ZM19.7143 23.3095C19.8172 23.4123 19.9566 23.4701 20.102 23.4701V23.0701C20.0627 23.0701 20.025 23.0545 19.9972 23.0267L19.7143 23.3095ZM19.5538 22.9219C19.5538 23.0673 19.6115 23.2067 19.7143 23.3095L19.9972 23.0267C19.9694 22.9989 19.9538 22.9612 19.9538 22.9219H19.5538ZM19.6632 20.8152C19.4666 20.8518 19.4666 20.8518 19.4666 20.8517C19.4666 20.8517 19.4666 20.8517 19.4666 20.8516C19.4666 20.8516 19.4666 20.8515 19.4666 20.8515C19.4665 20.8514 19.4665 20.8513 19.4665 20.8513C19.4665 20.8512 19.4665 20.8513 19.4666 20.8515C19.4666 20.8518 19.4668 20.8527 19.467 20.8541C19.4675 20.8569 19.4683 20.8618 19.4694 20.869C19.4715 20.8833 19.4748 20.9066 19.4788 20.9402C19.4869 21.0074 19.4979 21.1154 19.509 21.2746C19.5312 21.5931 19.5538 22.115 19.5538 22.9219H19.9538C19.9538 22.1078 19.931 21.5764 19.908 21.2467C19.8965 21.0819 19.8849 20.9672 19.876 20.8926C19.8715 20.8553 19.8677 20.828 19.8649 20.8095C19.8635 20.8002 19.8624 20.793 19.8615 20.788C19.8611 20.7854 19.8607 20.7834 19.8604 20.7818C19.8603 20.781 19.8602 20.7804 19.8601 20.7798C19.86 20.7795 19.86 20.7793 19.86 20.7791C19.8599 20.779 19.8599 20.7789 19.8599 20.7788C19.8599 20.7787 19.8599 20.7787 19.8599 20.7787C19.8599 20.7786 19.8599 20.7785 19.6632 20.8152ZM19.4635 20.7589C19.4623 20.7813 19.4623 20.8038 19.4635 20.8262L19.8629 20.8042C19.8625 20.7964 19.8625 20.7887 19.8629 20.7809L19.4635 20.7589ZM15.8503 17.8116C15.8434 17.8116 15.838 17.8112 15.8365 17.8111C15.8342 17.811 15.8325 17.8108 15.8316 17.8107C15.8306 17.8106 15.8299 17.8105 15.8296 17.8105C15.8295 17.8105 15.8292 17.8104 15.8292 17.8104C15.8292 17.8104 15.829 17.8104 15.8291 17.8104C15.8291 17.8104 15.8292 17.8104 15.8294 17.8105C15.8297 17.8105 15.83 17.8105 15.8304 17.8106C15.8313 17.8107 15.8325 17.8109 15.834 17.8111C15.8401 17.812 15.8497 17.8136 15.8629 17.8159C15.8892 17.8205 15.9278 17.8277 15.9771 17.8379C16.0757 17.8583 16.2159 17.8905 16.3842 17.937C16.7215 18.0302 17.1677 18.1801 17.6163 18.4069C18.5207 18.8641 19.3854 19.6062 19.4637 20.7832L19.8628 20.7566C19.7704 19.3673 18.7469 18.5302 17.7967 18.0499C17.3179 17.8078 16.8452 17.6494 16.4908 17.5514C16.3132 17.5024 16.1644 17.4682 16.0582 17.4462C16.005 17.4352 15.9623 17.4272 15.9316 17.4219C15.9164 17.4192 15.9037 17.4171 15.894 17.4157C15.8892 17.4149 15.8844 17.4142 15.8801 17.4137C15.878 17.4134 15.8752 17.4131 15.872 17.4127C15.8715 17.4127 15.8618 17.4116 15.8503 17.4116V17.8116ZM14.066 16.7091C14.4862 17.2861 15.1121 17.6796 15.8142 17.8083L15.8864 17.4149C15.2851 17.3047 14.7492 16.9677 14.3893 16.4736L14.066 16.7091ZM14.5536 15.9421C14.4081 16.1192 14.2527 16.2881 14.0882 16.4479L14.367 16.7348C14.5422 16.5646 14.7076 16.3847 14.8627 16.196L14.5536 15.9421ZM15.3603 16.4678C15.167 16.3335 15.0028 16.1617 14.8774 15.9625L14.5389 16.1756C14.6929 16.4203 14.8947 16.6314 15.1322 16.7963L15.3603 16.4678ZM15.9286 13.0254C16.1037 13.0254 16.2911 12.9973 16.4352 12.898C16.5976 12.7862 16.672 12.6075 16.6499 12.3923L16.252 12.4332C16.2571 12.4831 16.2502 12.5119 16.2435 12.5277C16.2373 12.5424 16.2272 12.5555 16.2082 12.5686C16.1634 12.5995 16.0739 12.6254 15.9286 12.6254V13.0254ZM15.57 13.0254H15.9286V12.6254H15.57V13.0254ZM13.5791 16.5274C14.665 15.6225 15.3903 14.2231 15.7627 12.8788L15.3772 12.772C15.0184 14.0672 14.3265 15.3839 13.3231 16.2201L13.5791 16.5274ZM11.6956 17.2179C12.3865 17.2196 13.0551 16.9741 13.5809 16.5259L13.3213 16.2215C12.8683 16.6078 12.292 16.8193 11.6966 16.8179L11.6956 17.2179ZM10.3145 16.8944C10.7453 17.1004 11.2156 17.2107 11.6931 17.2179L11.6991 16.8179C11.2793 16.8116 10.8658 16.7146 10.487 16.5335L10.3145 16.8944ZM9.19712 16.0246C9.5025 16.3917 9.88368 16.6884 10.3145 16.8944L10.487 16.5335C10.1083 16.3524 9.77313 16.0915 9.50463 15.7688L9.19712 16.0246ZM7.69427 12.8642C7.93414 14.0223 8.44913 15.1057 9.19577 16.0229L9.50598 15.7704C8.79985 14.903 8.31281 13.8784 8.08596 12.7831L7.69427 12.8642ZM7.5715 13.0237H7.89012V12.6237H7.5715V13.0237ZM6.85035 12.3894C6.82697 12.6047 6.90076 12.7841 7.06368 12.8963C7.20785 12.9956 7.39581 13.0237 7.5715 13.0237V12.6237C7.4251 12.6237 7.33535 12.5977 7.29061 12.5669C7.27174 12.5539 7.26195 12.5409 7.25593 12.5266C7.24941 12.5111 7.2426 12.4825 7.24801 12.4326L6.85035 12.3894ZM6.89988 11.2929L6.84939 12.4019L7.24897 12.4201L7.29946 11.3111L6.89988 11.2929ZM6.91206 11.1596C6.90861 11.2002 6.90523 11.2399 6.90084 11.2804L7.2985 11.3236C7.30348 11.2777 7.30723 11.2335 7.31062 11.1935L6.91206 11.1596ZM7.37476 10.55C7.29145 10.55 7.2087 10.5669 7.13533 10.6123C7.06086 10.6585 7.01368 10.7232 6.98382 10.7884C6.93113 10.9034 6.92128 11.0511 6.91206 11.1596L7.31062 11.1935C7.31596 11.1307 7.3203 11.0807 7.32698 11.0373C7.33372 10.9935 7.34119 10.9687 7.34747 10.955C7.35246 10.9441 7.35305 10.948 7.34603 10.9523C7.3401 10.956 7.34447 10.95 7.37476 10.95V10.55ZM7.58891 10.55H7.37476V10.95H7.58891V10.55ZM9.3337 7.24387C8.23255 7.99724 7.74204 8.87144 7.53056 9.56574C7.4253 9.91131 7.38984 10.2099 7.3809 10.4238C7.37642 10.5309 7.37858 10.6169 7.38201 10.6774C7.38372 10.7076 7.38576 10.7315 7.38745 10.7484C7.3883 10.7569 7.38906 10.7636 7.38965 10.7685C7.38995 10.771 7.3902 10.773 7.39041 10.7745C7.39051 10.7753 7.39059 10.776 7.39067 10.7765C7.39071 10.7768 7.39074 10.777 7.39077 10.7772C7.39078 10.7773 7.3908 10.7775 7.39081 10.7775C7.39083 10.7777 7.39085 10.7778 7.58891 10.75C7.78698 10.7223 7.78699 10.7224 7.78701 10.7225C7.78701 10.7225 7.78702 10.7226 7.78703 10.7227C7.78704 10.7228 7.78705 10.7229 7.78706 10.7229C7.78707 10.723 7.78707 10.723 7.78705 10.7228C7.78701 10.7225 7.78692 10.7218 7.78678 10.7207C7.7865 10.7183 7.78604 10.7143 7.78546 10.7086C7.78432 10.6971 7.78274 10.679 7.78136 10.6547C7.77861 10.6062 7.77667 10.5333 7.78055 10.4405C7.78831 10.2549 7.81933 9.99048 7.91321 9.68229C8.1 9.06904 8.53835 8.27268 9.55957 7.574L9.3337 7.24387ZM10.4802 6.19917C10.051 6.25711 9.74356 6.56385 9.55473 6.81962C9.45772 6.95101 9.385 7.07836 9.33652 7.17263C9.31218 7.21995 9.29369 7.25946 9.28108 7.28763C9.27477 7.30173 9.26992 7.31302 9.26652 7.32109C9.26483 7.32512 9.2635 7.32835 9.26253 7.33072C9.26205 7.33191 9.26165 7.33288 9.26135 7.33363C9.2612 7.334 9.26107 7.33432 9.26097 7.33458C9.26092 7.33471 9.26087 7.33483 9.26083 7.33493C9.26081 7.33499 9.26078 7.33505 9.26077 7.33508C9.26075 7.33514 9.26072 7.3352 9.44664 7.40893C9.63255 7.48266 9.63253 7.48272 9.63251 7.48277C9.6325 7.48278 9.63249 7.48282 9.63248 7.48285C9.63246 7.4829 9.63244 7.48293 9.63243 7.48295C9.63242 7.48299 9.63242 7.48298 9.63245 7.48291C9.6325 7.48278 9.63264 7.48243 9.63287 7.48188C9.63332 7.48077 9.63412 7.47883 9.63526 7.47612C9.63754 7.4707 9.64118 7.46219 9.64618 7.45102C9.6562 7.42865 9.67158 7.39573 9.69223 7.35557C9.73374 7.27486 9.79551 7.16694 9.87653 7.0572C10.0438 6.83069 10.2665 6.63164 10.5337 6.59557L10.4802 6.19917ZM12.9932 6.19737H10.5069V6.59737H12.9932V6.19737ZM14.0535 7.40893C14.2393 7.33478 14.2392 7.33472 14.2392 7.33465C14.2392 7.33463 14.2392 7.33456 14.2391 7.33451C14.2391 7.33441 14.2391 7.33429 14.239 7.33416C14.2389 7.3339 14.2388 7.33358 14.2386 7.3332C14.2383 7.33246 14.2379 7.33149 14.2374 7.33031C14.2365 7.32795 14.2351 7.32473 14.2334 7.3207C14.23 7.31265 14.2252 7.30138 14.2188 7.28731C14.2062 7.2592 14.1876 7.21978 14.1632 7.17254C14.1146 7.07845 14.0417 6.95133 13.9446 6.82011C13.7557 6.56472 13.4485 6.25824 13.0205 6.19924L12.9659 6.5955C13.2326 6.63226 13.4555 6.83156 13.6231 7.05801C13.7042 7.16772 13.7662 7.27553 13.8078 7.35615C13.8286 7.39626 13.844 7.42913 13.8541 7.45148C13.8591 7.46264 13.8627 7.47113 13.865 7.47655C13.8662 7.47926 13.867 7.48119 13.8674 7.4823C13.8677 7.48285 13.8678 7.4832 13.8679 7.48333C13.8679 7.4834 13.8679 7.48341 13.8679 7.48337C13.8679 7.48335 13.8679 7.48332 13.8678 7.48327C13.8678 7.48325 13.8678 7.4832 13.8678 7.48319C13.8678 7.48314 13.8678 7.48309 14.0535 7.40893ZM15.9095 10.7483C16.1076 10.7761 16.1076 10.776 16.1076 10.7758C16.1076 10.7758 16.1076 10.7756 16.1076 10.7755C16.1077 10.7753 16.1077 10.7751 16.1077 10.7748C16.1078 10.7743 16.1079 10.7736 16.108 10.7728C16.1082 10.7713 16.1085 10.7693 16.1087 10.7668C16.1093 10.7619 16.1101 10.7552 16.1109 10.7467C16.1126 10.7298 16.1147 10.7059 16.1164 10.6757C16.1198 10.6153 16.122 10.5293 16.1175 10.4224C16.1086 10.2086 16.0732 9.91024 15.9681 9.56489C15.7568 8.87104 15.2668 7.99728 14.1665 7.24391L13.9405 7.57395C14.9609 8.27264 15.3988 9.06857 15.5854 9.68139C15.6792 9.98938 15.7101 10.2536 15.7179 10.4391C15.7217 10.5317 15.7198 10.6046 15.717 10.653C15.7157 10.6773 15.7141 10.6954 15.7129 10.7068C15.7124 10.7125 15.7119 10.7166 15.7116 10.7189C15.7115 10.7201 15.7114 10.7208 15.7114 10.7211C15.7113 10.7212 15.7113 10.7212 15.7113 10.7211C15.7114 10.7211 15.7114 10.721 15.7114 10.7209C15.7114 10.7209 15.7114 10.7208 15.7114 10.7207C15.7114 10.7206 15.7114 10.7205 15.9095 10.7483ZM16.1376 10.5483H15.9095V10.9483H16.1376V10.5483ZM16.5914 11.1573C16.582 11.0492 16.572 10.9034 16.5215 10.7896C16.4931 10.7255 16.4479 10.6603 16.3751 10.613C16.3026 10.566 16.2203 10.5483 16.1376 10.5483V10.9483C16.1637 10.9483 16.1651 10.9536 16.1575 10.9487C16.1495 10.9435 16.1504 10.9394 16.1558 10.9516C16.1623 10.9662 16.1697 10.9919 16.1764 11.0359C16.1831 11.0795 16.1875 11.1295 16.1928 11.1916L16.5914 11.1573ZM16.6028 11.2784C16.5983 11.2379 16.5949 11.1981 16.5914 11.1573L16.1928 11.1916C16.1963 11.2318 16.2001 11.2762 16.2052 11.3221L16.6028 11.2784ZM16.6508 12.4043L16.6038 11.2918L16.2041 11.3087L16.2511 12.4212L16.6508 12.4043ZM12.0763 7.05458L11.9022 7.92511L12.2944 8.00356L12.4685 7.13302L12.0763 7.05458ZM11.2399 7.2938H12.2724V6.8938H11.2399V7.2938ZM11.6102 7.92511L11.4361 7.05458L11.0438 7.13302L11.2179 8.00356L11.6102 7.92511ZM12.0983 7.76433H11.414V8.16433H12.0983V7.76433ZM11.8983 10.2277C11.8983 10.257 11.8896 10.2857 11.8733 10.3101L12.2059 10.5323C12.2661 10.4421 12.2983 10.3362 12.2983 10.2277H11.8983ZM11.8549 10.1229C11.8827 10.1507 11.8983 10.1884 11.8983 10.2277H12.2983C12.2983 10.0823 12.2405 9.94289 12.1377 9.84008L11.8549 10.1229ZM11.7501 10.0795C11.7894 10.0795 11.8271 10.0951 11.8549 10.1229L12.1377 9.84008C12.0349 9.73727 11.8955 9.67951 11.7501 9.67951V10.0795ZM11.6677 10.1045C11.6921 10.0882 11.7208 10.0795 11.7501 10.0795V9.67951C11.6416 9.67951 11.5357 9.71167 11.4455 9.7719L11.6677 10.1045ZM11.6131 10.171C11.6244 10.1439 11.6434 10.1208 11.6677 10.1045L11.4455 9.7719C11.3553 9.83214 11.2851 9.91776 11.2436 10.0179L11.6131 10.171ZM11.6047 10.2566C11.599 10.2279 11.6019 10.1981 11.6131 10.171L11.2436 10.0179C11.2021 10.1181 11.1912 10.2283 11.2124 10.3347L11.6047 10.2566ZM11.6453 10.3325C11.6245 10.3118 11.6104 10.2854 11.6047 10.2566L11.2124 10.3347C11.2335 10.441 11.2858 10.5387 11.3624 10.6154L11.6453 10.3325ZM11.7212 10.3731C11.6924 10.3674 11.666 10.3533 11.6453 10.3325L11.3624 10.6154C11.4391 10.692 11.5368 10.7443 11.6431 10.7654L11.7212 10.3731ZM11.8068 10.3647C11.7797 10.3759 11.7499 10.3788 11.7212 10.3731L11.6431 10.7654C11.7495 10.7866 11.8597 10.7757 11.9599 10.7342L11.8068 10.3647ZM11.8733 10.3101C11.857 10.3344 11.8339 10.3534 11.8068 10.3647L11.9599 10.7342C12.06 10.6927 12.1457 10.6225 12.2059 10.5323L11.8733 10.3101ZM12.872 15.6889C12.5444 15.9689 12.1274 16.1223 11.6965 16.1215L11.6957 16.5215C12.2222 16.5225 12.7316 16.335 13.1318 15.993L12.872 15.6889ZM14.5699 13.031C14.1812 14.1424 13.5802 15.0921 12.873 15.688L13.1308 15.9939C13.907 15.3397 14.5422 14.3219 14.9474 13.163L14.5699 13.031ZM14.2717 13.5431L14.8427 13.2785L14.6746 12.9156L14.1035 13.1802L14.2717 13.5431ZM9.31257 13.5617H14.1876V13.1617H9.31257V13.5617ZM8.58061 13.2496L9.23003 13.5438L9.39511 13.1795L8.74569 12.8852L8.58061 13.2496ZM10.0369 15.3246C9.48462 14.6471 9.08225 13.8601 8.85636 13.0157L8.46995 13.1191C8.71045 14.0181 9.13885 14.856 9.72689 15.5773L10.0369 15.3246ZM10.78 15.905C10.4929 15.7672 10.239 15.5688 10.036 15.3234L9.72782 15.5785C9.96775 15.8684 10.2677 16.1028 10.607 16.2656L10.78 15.905ZM11.6992 16.1215C11.3807 16.1166 11.0671 16.0427 10.78 15.905L10.607 16.2656C10.9462 16.4284 11.3168 16.5157 11.693 16.5215L11.6992 16.1215ZM15.1101 11.9474L13.9488 12.4837L14.1165 12.8468L15.2778 12.3106L15.1101 11.9474ZM15.7412 11.9307L15.1945 11.929L15.1933 12.329L15.74 12.3307L15.7412 11.9307ZM15.5112 11.4551L15.5408 12.1394L15.9404 12.1221L15.9108 11.4378L15.5112 11.4551ZM15.0894 11.6465H15.711V11.2465H15.0894V11.6465ZM15.0354 10.6172L14.8926 11.4111L15.2863 11.4819L15.4291 10.6879L15.0354 10.6172ZM15.033 10.6296C15.0329 10.6324 15.0322 10.6438 15.0322 10.6525H15.4322C15.4322 10.6549 15.4322 10.6565 15.4322 10.6567C15.4321 10.6571 15.4321 10.657 15.4322 10.6564C15.4322 10.6551 15.4323 10.6532 15.4325 10.6497L15.033 10.6296ZM13.5523 8.14852C15.1159 9.21907 15.0391 10.5081 15.033 10.6296L15.4325 10.6498C15.4422 10.4587 15.5043 9.00017 13.7782 7.81846L13.5523 8.14852ZM13.3776 8.02797L13.5517 8.1481L13.7788 7.81887L13.6047 7.69874L13.3776 8.02797ZM13.2186 7.74787L13.3092 7.94635L13.6731 7.78035L13.5826 7.58187L13.2186 7.74787ZM12.8436 7.27449C13.0107 7.38891 13.1399 7.55055 13.2148 7.73875L13.5865 7.59099C13.4823 7.3289 13.3023 7.1038 13.0696 6.94445L12.8436 7.27449ZM13.1563 7.20751C13.1583 7.17119 13.1583 7.1348 13.1563 7.09848L12.7569 7.12046C12.7581 7.14213 12.7581 7.16386 12.7569 7.18553L13.1563 7.20751ZM12.947 8.22613L13.1525 7.2372L12.7608 7.15584L12.5554 8.14477L12.947 8.22613ZM12.6947 8.67069C12.8286 8.55389 12.9181 8.3945 12.9483 8.21938L12.5541 8.15153C12.5395 8.23601 12.4963 8.3129 12.4317 8.36924L12.6947 8.67069ZM12.2131 8.86065C12.3907 8.85458 12.5607 8.7875 12.6947 8.67069L12.4317 8.36924C12.3671 8.42559 12.2851 8.45795 12.1994 8.46088L12.2131 8.86065ZM12.0983 8.86076H12.2062V8.46076H12.0983V8.86076ZM12.2983 9.24402V8.66076H11.8983V9.24402H12.2983ZM12.8236 9.59915C12.6751 9.34591 12.4418 9.15333 12.165 9.05546L12.0316 9.43258C12.2195 9.499 12.3778 9.62969 12.4786 9.80155L12.8236 9.59915ZM12.9768 10.4394C13.0264 10.15 12.9722 9.8524 12.8236 9.59915L12.4786 9.80155C12.5794 9.97341 12.6162 10.1754 12.5826 10.3718L12.9768 10.4394ZM12.5523 11.1805C12.7768 10.9913 12.9271 10.7288 12.9768 10.4394L12.5825 10.3718C12.5489 10.5681 12.4468 10.7463 12.2945 10.8747L12.5523 11.1805ZM11.7501 11.4736C12.0437 11.4736 12.3278 11.3698 12.5523 11.1805L12.2945 10.8747C12.1422 11.0031 11.9493 11.0736 11.7501 11.0736V11.4736ZM10.9478 11.1805C11.1723 11.3698 11.4565 11.4736 11.7501 11.4736V11.0736C11.5508 11.0736 11.358 11.0031 11.2057 10.8747L10.9478 11.1805ZM10.5234 10.4394C10.573 10.7288 10.7234 10.9913 10.9478 11.1805L11.2057 10.8747C11.0533 10.7463 10.9513 10.5681 10.9176 10.3718L10.5234 10.4394ZM10.6765 9.59915C10.528 9.8524 10.4737 10.15 10.5234 10.4394L10.9176 10.3718C10.8839 10.1754 10.9207 9.97341 11.0215 9.80155L10.6765 9.59915ZM11.3352 9.05546C11.0584 9.15333 10.8251 9.34591 10.6765 9.59915L11.0215 9.80155C11.1223 9.62969 11.2807 9.499 11.4685 9.43258L11.3352 9.05546ZM11.2019 8.66076V9.24402H11.6019V8.66076H11.2019ZM11.2957 8.86076H11.4019V8.46076H11.2957V8.86076ZM10.8006 8.67668C10.9383 8.79385 11.1128 8.85899 11.2937 8.86075L11.2976 8.46077C11.2103 8.45992 11.1262 8.4285 11.0597 8.37197L10.8006 8.67668ZM10.5397 8.21948C10.5705 8.39771 10.6628 8.5595 10.8006 8.67668L11.0597 8.37197C10.9932 8.31545 10.9487 8.2374 10.9339 8.15142L10.5397 8.21948ZM10.3355 7.2372L10.5409 8.22613L10.9326 8.14477L10.7271 7.15584L10.3355 7.2372ZM10.3316 7.09876C10.3297 7.13489 10.3297 7.1711 10.3316 7.20723L10.731 7.18582C10.7299 7.16395 10.7299 7.14204 10.731 7.12017L10.3316 7.09876ZM10.2843 7.73886C10.357 7.55122 10.4832 7.38906 10.6472 7.27249L10.4155 6.94644C10.1876 7.10839 10.0123 7.33368 9.9113 7.59437L10.2843 7.73886ZM10.2053 7.93735L10.2836 7.74061L9.91199 7.59262L9.83364 7.78936L10.2053 7.93735ZM9.95893 8.1481L10.133 8.02797L9.90586 7.69874L9.73176 7.81887L9.95893 8.1481ZM8.47719 10.6302C8.4729 10.584 8.33518 9.25697 9.95813 8.14865L9.73255 7.81832C7.94241 9.04082 8.06745 10.5438 8.0789 10.6671L8.47719 10.6302ZM8.47838 10.6525C8.47838 10.6446 8.47786 10.6381 8.47786 10.6381C8.47773 10.6363 8.47761 10.6348 8.47755 10.6341C8.47742 10.6326 8.47727 10.631 8.47719 10.6302L8.0789 10.6671C8.07903 10.6685 8.07904 10.6687 8.07903 10.6685C8.07903 10.6685 8.07894 10.6675 8.07885 10.6661C8.0788 10.6654 8.07871 10.6641 8.07862 10.6624C8.07856 10.6611 8.07838 10.6574 8.07838 10.6525H8.47838ZM8.58786 11.4187L8.47643 10.6248L8.08032 10.6803L8.19175 11.4743L8.58786 11.4187ZM7.79088 11.6465H8.3898V11.2465H7.79088V11.6465ZM7.96109 12.1376L7.99069 11.4551L7.59106 11.4378L7.56147 12.1203L7.96109 12.1376ZM8.30797 11.929H7.76128V12.329H8.30797V11.929ZM9.55148 12.4837L8.39192 11.9474L8.22402 12.3105L9.38358 12.8468L9.55148 12.4837ZM14.0326 12.4652H9.46753V12.8652H14.0326V12.4652Z" fill="#223369" mask="url(#path-1-outside-1_5588_21621)"/>
</svg>
