<svg width="24" height="24" viewBox="0 0 24 24" fill="none" xmlns="http://www.w3.org/2000/svg">
<path d="M12.9459 4H11.001C10.8165 4 10.6414 4.14688 10.6101 4.325L10.2474 6.2625C9.86281 6.38125 9.49072 6.53438 9.14364 6.72188L7.53332 5.61875C7.46766 5.575 7.38949 5.55313 7.31132 5.55313C7.205 5.55313 7.09869 5.59062 7.02677 5.66562L5.65097 7.04062C5.52277 7.16875 5.50088 7.39687 5.60406 7.54687L6.71409 9.16563C6.52648 9.5125 6.37639 9.88438 6.2607 10.2688L4.33144 10.6313C4.14696 10.6688 4 10.8438 4 11.025V12.9688C4 13.1531 4.14696 13.3281 4.32519 13.3594L6.25132 13.7219C6.37014 14.1156 6.52335 14.4938 6.71409 14.8469L5.61657 16.45C5.51339 16.6 5.53527 16.8281 5.66347 16.9563L7.03928 18.3313C7.11432 18.4063 7.22064 18.4438 7.32382 18.4438C7.40199 18.4438 7.48016 18.4219 7.54583 18.3781L9.14989 17.2813C9.49384 17.4688 9.85968 17.6188 10.2412 17.7375L10.6039 19.675C10.6383 19.8531 10.8134 20 10.9947 20H12.9396C13.1241 20 13.2992 19.8531 13.3305 19.675L13.6901 17.7563C14.0872 17.6406 14.4686 17.4844 14.8282 17.2937L16.451 18.4031C16.5167 18.4469 16.5949 18.4687 16.673 18.4687C16.7794 18.4687 16.8857 18.4313 16.9576 18.3563L18.3334 16.9812C18.4616 16.8531 18.4835 16.625 18.3803 16.475L17.2765 14.8625C17.4704 14.5031 17.6299 14.1219 17.7487 13.725L19.6748 13.3625C19.853 13.3281 20 13.1531 20 12.9719V11.0281C20 10.8438 19.853 10.6688 19.6748 10.6375L17.7456 10.275C17.6299 9.88438 17.4735 9.5125 17.2859 9.15938L18.4022 7.52813C18.5054 7.37813 18.4835 7.15 18.3553 7.02188L16.9795 5.64688C16.9044 5.57188 16.7981 5.53438 16.6949 5.53438C16.6168 5.53438 16.5386 5.55625 16.4729 5.6L14.8407 6.71562C14.478 6.52187 14.0934 6.3625 13.6901 6.24687L13.3305 4.32813C13.3054 4.14687 13.1303 4 12.9459 4Z" stroke="#223369" stroke-width="1.5"/>
<circle cx="12" cy="12" r="3" stroke="#223369"/>
</svg>
