<svg width="24" height="24" viewBox="0 0 24 24" fill="none" xmlns="http://www.w3.org/2000/svg">
<circle cx="12.5" cy="12.5" r="9.5" stroke="#223369" stroke-width="1.3"/>
<ellipse cx="10.3315" cy="9.55854" rx="2.86678" ry="3.58348" transform="rotate(-32.0511 10.3315 9.55854)" stroke="#223369"/>
<line x1="12.1809" y1="12.1481" x2="15.0477" y2="16.4482" stroke="#223369"/>
<line x1="15.0317" y1="16.2966" x2="16.1911" y2="17.9595" stroke="#223369" stroke-width="1.5"/>
<path d="M15.5086 15.0726L16.387 14.2575C16.5814 14.0771 16.6962 13.8269 16.7061 13.5619C16.7083 13.5026 16.7107 13.4401 16.713 13.3768C16.7229 13.1118 16.8377 12.8615 17.0321 12.6811L19.0926 10.7691C19.2377 10.6345 19.2461 10.4077 19.1115 10.2627V10.2627C18.9769 10.1176 18.7502 10.1091 18.6051 10.2438L16.5446 12.1558C16.3502 12.3362 16.0921 12.432 15.8271 12.422L15.631 12.4147C15.3731 12.4051 15.1219 12.4983 14.9326 12.6739V12.6739M13.7356 16.7179L13.1445 17.2664L12.6955 17.683C12.2907 18.0587 11.658 18.0351 11.2823 17.6302L11.1802 17.5202C10.8045 17.1154 10.8282 16.4827 11.233 16.107L12.8641 14.5934L13.4551 14.045" stroke="#223369" stroke-linecap="round"/>
<circle cx="7.5" cy="15.5" r="1.5" fill="#223369"/>
</svg>
