<svg width="24" height="24" viewBox="0 0 24 24" fill="none" xmlns="http://www.w3.org/2000/svg">
<path d="M8.54038 17.5404C8.28654 17.7942 8.28654 18.2058 8.54038 18.4596C8.79422 18.7135 9.20578 18.7135 9.45962 18.4596L8.54038 17.5404ZM15.4596 12.4596C15.7135 12.2058 15.7135 11.7942 15.4596 11.5404C15.2058 11.2865 14.7942 11.2865 14.5404 11.5404L15.4596 12.4596ZM5.0627 19.5882L5.3578 19.0091H5.3578L5.0627 19.5882ZM3.41175 17.9373L2.8326 18.2324L3.41175 17.9373ZM19.5882 17.9373L19.0091 17.6422L19.5882 17.9373ZM17.9373 19.5882L18.2324 20.1674H18.2324L17.9373 19.5882ZM8.66667 7.72222L8.02929 7.59475L8.01667 7.65786V7.72222H8.66667ZM3.02303 8.08521L2.37829 8.16767V8.16767L3.02303 8.08521ZM14.3333 7.72222H14.9833V7.65786L14.9707 7.59475L14.3333 7.72222ZM19.9654 8.16642L19.3233 8.06532V8.06532L19.9654 8.16642ZM3.1351 7.38447L3.73861 7.62588H3.73861L3.1351 7.38447ZM4.41394 4.18737L5.01745 4.42878L4.41394 4.18737ZM18.161 4.04415L17.5796 4.33484V4.33484L18.161 4.04415ZM19.8006 7.32339L20.382 7.0327L20.382 7.0327L19.8006 7.32339ZM9.45962 18.4596L15.4596 12.4596L14.5404 11.5404L8.54038 17.5404L9.45962 18.4596ZM9.55 12.6C9.55 12.5724 9.57239 12.55 9.6 12.55V13.85C10.2904 13.85 10.85 13.2904 10.85 12.6H9.55ZM9.6 12.55C9.62761 12.55 9.65 12.5724 9.65 12.6H8.35C8.35 13.2904 8.90964 13.85 9.6 13.85V12.55ZM9.65 12.6C9.65 12.6276 9.62761 12.65 9.6 12.65V11.35C8.90964 11.35 8.35 11.9096 8.35 12.6H9.65ZM9.6 12.65C9.57239 12.65 9.55 12.6276 9.55 12.6H10.85C10.85 11.9096 10.2904 11.35 9.6 11.35V12.65ZM9.37485 13.025H9.82485V11.725H9.37485V13.025ZM9.37485 13.475H9.82485V12.175H9.37485V13.475ZM14.35 17.4C14.35 17.3724 14.3724 17.35 14.4 17.35V18.65C15.0904 18.65 15.65 18.0904 15.65 17.4H14.35ZM14.4 17.35C14.4276 17.35 14.45 17.3724 14.45 17.4H13.15C13.15 18.0904 13.7096 18.65 14.4 18.65V17.35ZM14.45 17.4C14.45 17.4276 14.4276 17.45 14.4 17.45V16.15C13.7096 16.15 13.15 16.7096 13.15 17.4H14.45ZM14.4 17.45C14.3724 17.45 14.35 17.4276 14.35 17.4H15.65C15.65 16.7096 15.0904 16.15 14.4 16.15V17.45ZM14.1749 17.825H14.6249V16.525H14.1749V17.825ZM14.1749 18.275H14.6249V16.975H14.1749V18.275ZM19.35 7.72231V13.9556H20.65V7.72231H19.35ZM13.9556 19.35H9.04444V20.65H13.9556V19.35ZM3.65 13.9556V7.72231H2.35V13.9556H3.65ZM9.04444 19.35C7.97584 19.35 7.21348 19.3495 6.61614 19.3007C6.02638 19.2525 5.65495 19.1605 5.3578 19.0091L4.76761 20.1674C5.27857 20.4277 5.84013 20.5416 6.51028 20.5964C7.17284 20.6505 7.99729 20.65 9.04444 20.65V19.35ZM2.35 13.9556C2.35 15.0027 2.34949 15.8272 2.40363 16.4897C2.45838 17.1599 2.57225 17.7214 2.8326 18.2324L3.99091 17.6422C3.8395 17.3451 3.7475 16.9736 3.69931 16.3839C3.65051 15.7865 3.65 15.0242 3.65 13.9556H2.35ZM5.3578 19.0091C4.76927 18.7092 4.29078 18.2307 3.99091 17.6422L2.8326 18.2324C3.25711 19.0655 3.93447 19.7429 4.76761 20.1674L5.3578 19.0091ZM19.35 13.9556C19.35 15.0242 19.3495 15.7865 19.3007 16.3839C19.2525 16.9736 19.1605 17.3451 19.0091 17.6422L20.1674 18.2324C20.4277 17.7214 20.5416 17.1599 20.5964 16.4897C20.6505 15.8272 20.65 15.0027 20.65 13.9556H19.35ZM13.9556 20.65C15.0027 20.65 15.8272 20.6505 16.4897 20.5964C17.1599 20.5416 17.7214 20.4277 18.2324 20.1674L17.6422 19.0091C17.3451 19.1605 16.9736 19.2525 16.3839 19.3007C15.7865 19.3495 15.0242 19.35 13.9556 19.35V20.65ZM19.0091 17.6422C18.7092 18.2307 18.2307 18.7092 17.6422 19.0091L18.2324 20.1674C19.0655 19.7429 19.7429 19.0655 20.1674 18.2324L19.0091 17.6422ZM8.01667 7.72222C8.01667 8.92804 7.03916 9.90556 5.83333 9.90556V11.2056C7.75712 11.2056 9.31667 9.64601 9.31667 7.72222H8.01667ZM5.83333 9.90556C4.72278 9.90556 3.80501 9.07582 3.66778 8.00276L2.37829 8.16767C2.59744 9.88136 4.06024 11.2056 5.83333 11.2056V9.90556ZM13.6833 7.72222C13.6833 8.92804 12.7058 9.90556 11.5 9.90556V11.2056C13.4238 11.2056 14.9833 9.64601 14.9833 7.72222H13.6833ZM11.5 9.90556C10.2942 9.90556 9.31667 8.92804 9.31667 7.72222H8.01667C8.01667 9.64601 9.57621 11.2056 11.5 11.2056V9.90556ZM19.3233 8.06532C19.1591 9.10799 18.2554 9.90556 17.1667 9.90556V11.2056C18.9053 11.2056 20.3453 9.93244 20.6075 8.26752L19.3233 8.06532ZM17.1667 9.90556C15.9608 9.90556 14.9833 8.92804 14.9833 7.72222H13.6833C13.6833 9.64601 15.2429 11.2056 17.1667 11.2056V9.90556ZM3.73861 7.62588L5.01745 4.42878L3.81043 3.94597L2.53159 7.14307L3.73861 7.62588ZM17.5796 4.33484L19.2192 7.61408L20.382 7.0327L18.7423 3.75346L17.5796 4.33484ZM6.16773 3.65H9.61111V2.35H6.16773V3.65ZM9.30404 7.8497L10.2485 3.12748L8.97373 2.87252L8.02929 7.59475L9.30404 7.8497ZM9.61111 3.65H13.3889V2.35H9.61111V3.65ZM13.3889 3.65H16.4715V2.35H13.3889V3.65ZM14.9707 7.59475L14.0263 2.87252L12.7515 3.12748L13.696 7.8497L14.9707 7.59475ZM18.7423 3.75346C18.3123 2.89333 17.4332 2.35 16.4715 2.35V3.65C16.9407 3.65 17.3697 3.91513 17.5796 4.33484L18.7423 3.75346ZM20.6075 8.26752C20.6816 7.79656 20.5478 7.36439 20.382 7.0327L19.2192 7.61408C19.3156 7.80695 19.3404 7.95694 19.3233 8.06532L20.6075 8.26752ZM5.01745 4.42878C5.20559 3.95842 5.66114 3.65 6.16773 3.65V2.35C5.12957 2.35 4.19599 2.98206 3.81043 3.94597L5.01745 4.42878ZM3.66778 8.00276C3.65623 7.9124 3.67321 7.78938 3.73861 7.62588L2.53159 7.14307C2.4185 7.4258 2.32888 7.7813 2.37829 8.16767L3.66778 8.00276Z" fill="#223369"/>
</svg>
