<svg width="24" height="24" viewBox="0 0 24 24" fill="none" xmlns="http://www.w3.org/2000/svg">
<path d="M13.6364 18.9091V10.7273C13.6364 9.82358 12.9037 9.09095 12 9.09095H4.63636C3.73263 9.09095 3 9.82358 3 10.7273V18.9091C3 19.8129 3.73262 20.5455 4.63636 20.5455H12C12.9037 20.5455 13.6364 19.8129 13.6364 18.9091ZM13.6364 18.9091V12.3637C13.6364 11.4599 14.369 10.7273 15.2727 10.7273H19.3636C20.2674 10.7273 21 11.4599 21 12.3637M13.6364 18.9091C13.6364 19.8129 14.369 20.5455 15.2727 20.5455H19.3636C20.2674 20.5455 21 19.8129 21 18.9091V18.091M11.1818 2.95459H10.3636C9.4599 2.95459 8.72727 3.68721 8.72727 4.59095V7.45459C8.72727 8.35833 9.4599 9.09095 10.3636 9.09095H12.8182C13.2701 9.09095 13.6364 9.45727 13.6364 9.90914C13.6364 10.361 14.0027 10.7273 14.4545 10.7273H17.3182C18.2219 10.7273 18.9545 9.99469 18.9545 9.09095V4.59095C18.9545 3.68721 18.2219 2.95459 17.3182 2.95459H16.5" stroke="#223369" stroke-width="1.3" stroke-linecap="round"/>
<path d="M13.6365 2.95459H14.4547" stroke="#223369" stroke-width="1.63636" stroke-linecap="round"/>
<path d="M21 15.6364V14.8182" stroke="#223369" stroke-width="1.63636" stroke-linecap="round"/>
<path d="M18.3408 15.6364C18.3408 16.2012 17.883 16.6591 17.3181 16.6591C16.7533 16.6591 16.2954 16.2012 16.2954 15.6364C16.2954 15.0715 16.7533 14.6136 17.3181 14.6136C17.883 14.6136 18.3408 15.0715 18.3408 15.6364ZM15.4772 6.63636C15.4772 7.2012 15.0193 7.65909 14.4545 7.65909C13.8896 7.65909 13.4318 7.2012 13.4318 6.63636C13.4318 6.07153 13.8896 5.61364 14.4545 5.61364C15.0193 5.61364 15.4772 6.07153 15.4772 6.63636Z" stroke="#223369" stroke-width="1.22727" stroke-linecap="round"/>
<path d="M8.70895 13.8792L8.31809 12.6144L7.92724 13.8792L7.72661 14.5285H7.09082H5.88143L6.84248 15.2626L7.37421 15.6688L7.16874 16.3338L6.79086 17.5566L7.80794 16.7796L8.31809 16.3899L8.82825 16.7796L9.84532 17.5566L9.46744 16.3338L9.26197 15.6688L9.79371 15.2626L10.7548 14.5285H9.54537H8.90957L8.70895 13.8792Z" fill="#D9D9D9" stroke="#223369" stroke-width="0.818182" stroke-linecap="round"/>
</svg>
