<svg width="24" height="24" viewBox="0 0 24 24" fill="none" xmlns="http://www.w3.org/2000/svg">
<path d="M17.41 12.0508C17.41 13.4737 16.926 14.8569 16.0329 15.9864C15.1398 17.1159 13.8873 17.9289 12.4693 18.2995C11.0513 18.6701 9.54671 18.5777 8.18834 18.0366C6.82998 17.4955 5.69353 16.5358 4.95481 15.3061C4.21609 14.0763 3.91628 12.645 4.10175 11.2335C4.28722 9.82211 4.94764 8.50921 5.98083 7.49796C7.01403 6.48671 8.36242 5.83347 9.81741 5.63929C11.2724 5.44512 12.7529 5.72084 14.0298 6.4238M14.4757 10.1718C10.1136 12.6644 6.99164 14.7437 4.28715 14.7648C4.2594 14.765 4.23305 14.7663 4.20536 14.7681C3.91868 14.7877 2.19362 14.8513 1.95878 13.5718C1.95164 13.5329 1.94862 13.4922 1.9505 13.4527C2.00851 12.2332 3.82813 11.4245 3.82813 11.4245M4.87196 8.91918L5.71822 9.30385C6.53682 9.67593 6.93138 10.6152 6.62408 11.4602C6.47803 11.8619 6.75537 12.2921 7.18149 12.3249L7.99274 12.3873C8.60184 12.4341 9.15591 12.0348 9.30407 11.4421L9.61248 10.2085C9.65297 10.0465 9.72541 9.89471 9.82461 9.76041C10.2645 9.16485 10.9265 8.23278 10.9265 8.08407C10.9265 7.98134 10.7685 7.61004 10.5983 7.24226C10.4184 6.85357 10.4336 6.40023 10.6539 6.03298L10.9265 5.57874" stroke="#223369" stroke-linecap="round"/>
<path d="M10.1545 18.258C9.80774 16.7782 9.91607 16.072 11.4071 15.3351L11.6717 15.2029C12.0302 15.0236 12.2649 14.671 12.4602 14.3209C12.6402 13.9982 12.9564 13.6649 13.4949 13.6649C14.4583 13.6649 14.2523 14.1983 14.6375 14.6088C14.7051 14.6808 14.7937 14.7296 14.8836 14.7702C16.5002 15.5 16.5002 15.5 16.5002 15.5" stroke="#223369" stroke-linecap="round"/>
<path d="M16.3681 6.7479L17.6028 7.40902L18.6754 6.39475L15.8004 4.64342L17.0701 4.05237L20.5771 5.61252L21.8526 4.81278L23.0989 5.05652L22.6523 6.08831L21.3768 6.88806L20.6456 10.6271L19.7933 11.2298L19.678 7.88481L18.4084 8.47586L18.3733 9.72803C17.9501 9.92505 16.7661 10.5572 16.5991 10.5525C16.4322 10.5478 16.8604 9.05912 16.9475 8.43498L15.0991 7.55249L16.3681 6.7479Z" stroke="#223369" stroke-linecap="round"/>
</svg>
