<svg width="24" height="24" viewBox="0 0 24 24" fill="none" xmlns="http://www.w3.org/2000/svg">
<path d="M4.56348 20.4802C7.58142 21.1269 8.98921 20.6025 10.2778 19.3048M10.2778 19.3048C10.8868 18.6914 11.4693 17.9051 12.1825 16.9881M10.2778 19.3048C11.9349 20.2504 13.0119 20.5587 15.3571 20.4802M13.4524 14.4484C14.607 16.9778 15.5859 18.5414 17.2619 20.0424M17.2619 20.0424C17.8896 20.6045 18.6151 21.1579 19.4841 21.75M17.2619 20.0424C18.9114 19.8422 19.3257 19.7117 20.4365 18.5754C16.9445 16.3532 16.3095 14.4484 14.7222 11.9087M14.7222 11.9087H14.0873M14.7222 11.9087L15.9921 7.78175M9.32539 7.78175L10.5952 11.9087M10.5952 11.9087H11.8651M10.5952 11.9087C9.87093 15.1703 8.98945 16.7447 6.46824 18.8929M14.6297 6.5534L12.5 5.55952L10.5952 6.51191M14.6297 6.5534L17.2619 7.78175M14.6297 6.5534C14.6297 6.5534 14.7222 8.41667 12.8175 8.41667C10.9127 8.41667 10.5952 6.51191 10.5952 6.51191M8.05555 7.78175L10.5952 6.51191M11.5476 3.01984C11.5476 2.76869 11.6221 2.52318 11.7616 2.31436C11.9012 2.10553 12.0995 1.94277 12.3315 1.84666C12.5635 1.75055 12.8189 1.7254 13.0652 1.7744C13.3115 1.8234 13.5378 1.94434 13.7154 2.12193C13.893 2.29952 14.0139 2.52578 14.0629 2.77211C14.1119 3.01843 14.0868 3.27376 13.9906 3.50579C13.8945 3.73782 13.3075 4.36047 13.0986 4.5C12.8898 4.63953 13.0686 5.55952 12.8175 5.55952" stroke="#223369" stroke-width="1.2" stroke-linecap="round"/>
</svg>
