<svg width="36" height="36" viewBox="0 0 36 36" fill="none" xmlns="http://www.w3.org/2000/svg">
<rect width="36" height="36" rx="18" fill="#D70004"/>
<path d="M22.9198 25.9C23.1865 26.56 23.3265 27.2755 23.3332 28H12.6666C12.6743 27.2738 12.8198 26.5579 13.0933 25.9C13.3701 25.2246 13.7806 24.6295 14.2933 24.16L16.7199 21.88C17.0936 21.5276 17.394 21.0873 17.5999 20.59C17.8132 20.095 17.9212 19.5506 17.9199 19.0001H18.0799C18.0986 19.5551 18.2306 20.101 18.4666 20.59C18.6679 21.082 18.9639 21.517 19.3332 21.865L21.7065 24.16C22.2198 24.6325 22.6345 25.225 22.9198 25.9ZM11.5933 30.766C11.9 30.922 12.2231 31 12.5626 31H23.4372C23.7838 30.992 24.1105 30.914 24.4171 30.766C24.722 30.616 24.9927 30.405 25.2291 30.133C25.4656 29.86 25.6531 29.5515 25.7918 29.2075C25.9305 28.8625 25.9998 28.499 25.9998 28.117C25.9998 27.5 25.9407 26.9025 25.8225 26.3245C25.7051 25.7489 25.5376 25.1877 25.3225 24.649C25.109 24.1114 24.8401 23.6039 24.5211 23.137C24.1967 22.6625 23.8264 22.2298 23.4172 21.847L20.9905 19.5746C20.9153 19.5046 20.8548 19.4168 20.8133 19.3175C20.7717 19.2182 20.7502 19.1098 20.7502 19.0001C20.7502 18.8903 20.7717 18.7819 20.8133 18.6826C20.8548 18.5833 20.9153 18.4955 20.9905 18.4256L23.4172 16.1411C24.2384 15.3824 24.8969 14.4252 25.3438 13.3406C25.784 12.2557 26.0079 11.0756 25.9998 9.88309C25.9976 9.50617 25.9283 9.13357 25.7959 8.7873C25.6636 8.44104 25.4708 8.12814 25.2291 7.8671C24.989 7.60485 24.7108 7.39076 24.4065 7.2341C24.1027 7.07659 23.7717 6.99668 23.4372 7.00011H12.5626C12.216 7.00711 11.8898 7.08511 11.584 7.2341C11.2773 7.3841 11.0062 7.5951 10.7707 7.8671C10.5376 8.13723 10.3473 8.45025 10.208 8.7926C10.0693 9.1376 10 9.50109 10 9.88309C10.0071 11.1171 10.2293 12.2696 10.6667 13.3406C11.1128 14.4228 11.7678 15.3795 12.584 16.1411L15.0106 18.4256C15.0856 18.4957 15.1459 18.5835 15.1873 18.6828C15.2287 18.782 15.2502 18.8904 15.2502 19.0001C15.2502 19.1097 15.2287 19.2181 15.1873 19.3173C15.1459 19.4166 15.0856 19.5045 15.0106 19.5746L12.584 21.847C12.1758 22.2361 11.8053 22.6725 11.4787 23.149C10.8375 24.0895 10.3894 25.1781 10.1667 26.3365C10.0549 26.9216 9.99903 27.5185 10 28.117C10.0071 28.507 10.0765 28.8745 10.208 29.2195C10.3413 29.5625 10.5289 29.867 10.7707 30.133C11.0133 30.399 11.2876 30.61 11.5933 30.766ZM23.8745 29.395C23.7187 29.4643 23.5527 29.4999 23.3852 29.5H12.6146C12.4428 29.4976 12.2731 29.4579 12.1146 29.383C11.9636 29.3106 11.8257 29.2073 11.708 29.0785C11.5875 28.9495 11.4921 28.7937 11.428 28.621C11.3648 28.4426 11.3327 28.2521 11.3333 28.06C11.3361 27.0961 11.5244 26.1443 11.8853 25.27C12.246 24.3955 12.7763 23.6231 13.4373 23.0095L15.8639 20.7235C16.0933 20.5055 16.2706 20.248 16.3959 19.951C16.5195 19.652 16.5835 19.3261 16.5835 18.9963C16.5835 18.6665 16.5195 18.3406 16.3959 18.0416C16.2752 17.74 16.093 17.4748 15.8639 17.2676L13.4373 14.9936C13.1023 14.6881 12.8014 14.338 12.5413 13.9511C12.2887 13.5689 12.0691 13.1606 11.8853 12.7316C11.6988 12.299 11.5591 11.8427 11.4693 11.3726C11.3788 10.9024 11.3332 10.4227 11.3333 9.94159C11.3404 9.73159 11.3751 9.54409 11.4373 9.3791C11.4995 9.2151 11.5898 9.0626 11.708 8.9216C11.8227 8.78602 11.9612 8.67875 12.1146 8.6066C12.2733 8.5355 12.4426 8.49935 12.6133 8.5001H23.3838C23.5705 8.5151 23.7372 8.5541 23.8838 8.6171C24.0305 8.6801 24.166 8.7816 24.2905 8.9216C24.4101 9.05505 24.5048 9.21399 24.5691 9.38913C24.6335 9.56427 24.6661 9.75209 24.6651 9.94159C24.6659 10.9093 24.4774 11.8654 24.1131 12.7421C23.7513 13.6128 23.2211 14.3815 22.5612 14.9921L20.1345 17.2661C19.9052 17.4761 19.7279 17.7336 19.6025 18.0386C19.4788 18.3378 19.4146 18.664 19.4146 18.9941C19.4146 19.3242 19.4788 19.6503 19.6025 19.9495C19.7279 20.2465 19.9052 20.504 20.1345 20.722L22.5612 23.008C23.2412 23.648 23.762 24.402 24.1238 25.27C24.4847 26.137 24.6651 27.067 24.6651 28.06C24.6552 28.2518 24.6202 28.4408 24.5611 28.621C24.4998 28.7928 24.4076 28.9485 24.2905 29.0785C24.1704 29.2123 24.0287 29.3192 23.8731 29.3935" fill="white"/>
<rect x="19.5" y="4.5" width="9" height="9" rx="4.5" fill="#D70004"/>
<rect x="19.5" y="4.5" width="9" height="9" rx="4.5" stroke="white"/>
<path d="M25.1778 9.10558C24.9833 8.90502 24.6889 8.75301 24.2779 8.64082L24.2739 8.63973V7.31533C24.3117 7.32811 24.3478 7.34339 24.3821 7.36111C24.4999 7.42196 24.591 7.50273 24.6609 7.60809C24.6839 7.64276 24.7034 7.679 24.7195 7.71703C24.7788 7.85669 24.9018 7.9437 25.0352 7.93358L25.0374 7.93341C25.268 7.91592 25.4128 7.63054 25.3099 7.38934C25.278 7.31433 25.2398 7.24272 25.1955 7.17475C25.0623 6.97018 24.8853 6.80835 24.6694 6.69372C24.5468 6.62867 24.4144 6.58216 24.2739 6.55469V6.35811C24.2739 6.16033 24.1363 6 23.9666 6C23.797 6 23.6594 6.16033 23.6594 6.35811V6.54944C23.5071 6.57521 23.3655 6.62146 23.2365 6.68769C23.0175 6.80012 22.843 6.96068 22.7177 7.16491C22.5884 7.37569 22.5228 7.62128 22.5228 7.89489V7.90121C22.5228 8.27085 22.6293 8.57206 22.8393 8.7965C23.0231 8.99286 23.2919 9.14085 23.6594 9.2479V10.6909C23.6017 10.6748 23.548 10.6541 23.4985 10.6289C23.368 10.5624 23.2752 10.47 23.1975 10.3625C23.1677 10.3212 23.1451 10.2734 23.1281 10.2256C23.074 10.0741 22.9434 9.97956 22.8031 9.99158C22.5796 10.0107 22.4373 10.2817 22.5274 10.5208C22.5648 10.6199 22.6117 10.7133 22.6679 10.8005C22.8085 11.0187 22.9976 11.1885 23.23 11.3052C23.3621 11.3717 23.5059 11.4189 23.6594 11.4463V11.6419C23.6594 11.8397 23.797 12 23.9667 12C24.1363 12 24.2739 11.8397 24.2739 11.6419V11.4551C24.4471 11.4303 24.6066 11.3818 24.7501 11.3103C24.9804 11.1957 25.1642 11.0268 25.2964 10.8085C25.4315 10.5854 25.5 10.3201 25.5 10.0198V10.0166C25.5 9.63256 25.3916 9.32607 25.1778 9.10558ZM23.6594 8.46356C23.4575 8.38889 23.3535 8.31137 23.3001 8.25394C23.2168 8.16429 23.178 8.05019 23.178 7.89489V7.88857C23.178 7.77442 23.2043 7.67597 23.2585 7.58758C23.3166 7.49266 23.4002 7.41819 23.5139 7.35985C23.5586 7.33698 23.6072 7.31825 23.6594 7.30372V8.46356ZM24.8449 10.0293C24.8449 10.1696 24.8164 10.2871 24.758 10.3886C24.6985 10.4919 24.6106 10.572 24.4893 10.6334C24.426 10.6655 24.354 10.69 24.2739 10.7066V9.41972C24.5377 9.50506 24.6634 9.59342 24.7231 9.65629C24.8062 9.74369 24.8449 9.86122 24.8449 10.0261V10.0293Z" fill="white"/>
</svg>
