<svg width="36" height="36" viewBox="0 0 36 36" fill="none" xmlns="http://www.w3.org/2000/svg">
<g clip-path="url(#clip0_5286_20167)">
<path d="M36 18C36 8.05887 27.9411 0 18 0C8.05887 0 0 8.05887 0 18C0 27.9411 8.05887 36 18 36C27.9411 36 36 27.9411 36 18Z" fill="#223369"/>
<path d="M17.7086 12.3012V14.1999M17.7086 21.8V23.6988M15.8128 21.7941H18.661C19.7053 21.7941 20.5597 20.9397 20.5597 19.8953C20.5597 18.851 19.7053 17.9966 18.661 17.9966H16.7622C15.7179 17.9966 14.8635 17.1422 14.8635 16.0978C14.8635 15.0535 15.7179 14.1991 16.7622 14.1991H19.6103M17.7057 8.50879C12.4841 8.50879 8.21191 12.781 8.21191 18.0025C8.21191 23.2241 12.4841 27.4963 17.7057 27.4963C22.9272 27.4963 27.1994 23.2241 27.1994 18.0025V15.1544M23.4049 18.9519L27.2024 15.1544L30.9999 18.9519" stroke="white" stroke-width="1.44136" stroke-miterlimit="10" stroke-linecap="round" stroke-linejoin="round"/>
</g>
<defs>
<clipPath id="clip0_5286_20167">
<rect width="36" height="36" fill="white"/>
</clipPath>
</defs>
</svg>
