<svg width="36" height="36" viewBox="0 0 36 36" fill="none" xmlns="http://www.w3.org/2000/svg">
<rect width="36" height="36" rx="18" fill="#257CDB"/>
<path d="M17.5946 10.01C18.7946 10.01 19.9946 10.01 21.1946 10.01C21.5346 10.01 21.7246 10.21 21.7246 10.54C21.7246 10.74 21.7246 10.93 21.7246 11.13C21.7246 11.21 21.7546 11.23 21.8246 11.23C22.1246 11.23 22.4346 11.21 22.7346 11.25C23.7246 11.38 24.4646 11.89 24.9046 12.78C25.7046 14.4 24.7446 16.31 22.9846 16.68C22.6746 16.74 22.3646 16.73 22.0446 16.73C21.9546 16.73 21.8646 16.73 21.7746 16.73C21.7146 16.73 21.6946 16.75 21.6846 16.81C21.4846 18.09 20.8146 19.06 19.7146 19.74C19.5246 19.86 19.3246 19.95 19.1146 20.03C19.0646 20.05 19.0446 20.07 19.0446 20.12C19.0446 20.58 19.0446 21.03 19.0446 21.49C19.0446 21.57 19.0846 21.57 19.1446 21.57C19.6246 21.57 20.0946 21.57 20.5746 21.57C20.8746 21.57 21.0346 21.71 21.1046 22C21.3146 22.98 21.5246 23.96 21.7346 24.95C21.8046 25.29 21.5946 25.56 21.2346 25.56C20.0946 25.56 18.9646 25.56 17.8246 25.56C16.5546 25.56 15.2846 25.56 14.0146 25.56C13.8446 25.56 13.6946 25.53 13.5746 25.4C13.4646 25.27 13.4246 25.13 13.4646 24.96C13.6746 23.96 13.8846 22.96 14.1046 21.96C14.1546 21.71 14.3446 21.57 14.5946 21.56C15.0746 21.56 15.5646 21.56 16.0446 21.56C16.1246 21.56 16.1446 21.54 16.1446 21.45C16.1446 21.01 16.1446 20.56 16.1446 20.12C16.1446 20.06 16.1246 20.03 16.0646 20C14.6946 19.44 13.8446 18.44 13.5246 16.99C13.5146 16.93 13.4946 16.87 13.4946 16.81C13.4946 16.72 13.4546 16.72 13.3846 16.72C13.0546 16.72 12.7246 16.74 12.3946 16.7C11.2446 16.56 10.2746 15.66 10.0546 14.53C9.76464 13.05 10.6546 11.65 12.1146 11.29C12.4146 11.22 12.7246 11.21 13.0246 11.22C13.1446 11.22 13.2546 11.22 13.3746 11.22C13.4346 11.22 13.4546 11.2 13.4546 11.14C13.4546 10.93 13.4546 10.72 13.4546 10.51C13.4546 10.2 13.6546 10 13.9646 10C15.1746 10 16.3846 10 17.5946 10V10.01ZM17.5946 10.98C16.5746 10.98 15.5646 10.98 14.5446 10.98C14.458 10.98 14.4146 11.0233 14.4146 11.11C14.4146 12.81 14.4146 14.52 14.4146 16.22C14.4146 16.37 14.4246 16.52 14.4446 16.67C14.6146 17.89 15.4946 18.9 16.6846 19.22C16.9746 19.3 17.1046 19.46 17.1046 19.77C17.1046 20.34 17.1046 20.92 17.1046 21.49C17.1046 21.56 17.1246 21.59 17.1946 21.59C17.4446 21.59 17.6946 21.59 17.9446 21.59C18.0446 21.59 18.0746 21.57 18.0746 21.47C18.0746 20.9 18.0746 20.32 18.0746 19.75C18.0746 19.48 18.2146 19.31 18.4646 19.24C19.8446 18.87 20.7646 17.67 20.7646 16.24C20.7646 14.53 20.7646 12.83 20.7646 11.12C20.7646 11.02 20.7446 11 20.6446 11C19.6246 11 18.6146 11 17.5946 11V10.98ZM17.5946 24.59C18.5846 24.59 19.5746 24.59 20.5646 24.59C20.6546 24.59 20.6646 24.57 20.6446 24.48C20.5146 23.87 20.3846 23.25 20.2546 22.64C20.2346 22.56 20.2146 22.53 20.1246 22.53C18.4446 22.53 16.7746 22.53 15.0946 22.53C14.9946 22.53 14.9546 22.56 14.9346 22.66C14.8146 23.27 14.6846 23.88 14.5446 24.48C14.5246 24.57 14.5446 24.59 14.6346 24.59C15.6246 24.59 16.6046 24.59 17.5946 24.59ZM21.7346 13.98V15.58C21.7346 15.77 21.7346 15.77 21.9246 15.77C22.2046 15.77 22.4846 15.8 22.7646 15.74C23.6846 15.56 24.2946 14.75 24.2246 13.81C24.1646 13.04 23.5446 12.36 22.7846 12.23C22.4746 12.17 22.1546 12.21 21.8346 12.19C21.7546 12.19 21.7346 12.21 21.7346 12.29C21.7346 12.85 21.7346 13.42 21.7346 13.98ZM13.4546 13.98V13.56C13.4546 13.13 13.4546 12.71 13.4546 12.28C13.4546 12.24 13.4746 12.19 13.4046 12.19C13.0946 12.19 12.7846 12.16 12.4746 12.21C11.5346 12.37 10.8946 13.19 10.9746 14.14C11.0346 14.91 11.6346 15.58 12.3846 15.72C12.7046 15.78 13.0246 15.74 13.3446 15.76C13.4346 15.76 13.4646 15.74 13.4646 15.65C13.4646 15.09 13.4646 14.53 13.4646 13.97L13.4546 13.98Z" fill="white"/>
<path d="M19.7933 14.13C19.5333 14.32 19.3033 14.48 19.0733 14.65C18.8833 14.79 18.6933 14.93 18.5033 15.06C18.4433 15.1 18.4333 15.14 18.4533 15.22C18.6033 15.68 18.7533 16.14 18.9033 16.6C18.9133 16.63 18.9233 16.67 18.9433 16.73C18.7733 16.6 18.6133 16.49 18.4633 16.38C18.1933 16.18 17.9233 15.99 17.6533 15.79C17.5933 15.74 17.5533 15.74 17.4933 15.79C17.1033 16.08 16.7133 16.36 16.3133 16.65C16.2833 16.67 16.2533 16.69 16.2033 16.73C16.2733 16.53 16.3233 16.35 16.3833 16.17C16.4833 15.85 16.5933 15.53 16.6933 15.21C16.7133 15.14 16.7033 15.1 16.6433 15.06C16.2233 14.76 15.7933 14.45 15.3633 14.14C15.4033 14.11 15.4333 14.13 15.4633 14.13C15.9533 14.13 16.4533 14.13 16.9433 14.13C17.0133 14.13 17.0433 14.11 17.0633 14.04C17.2133 13.57 17.3633 13.11 17.5133 12.64C17.5233 12.61 17.5333 12.58 17.5433 12.54C17.5833 12.57 17.5833 12.6 17.5933 12.64C17.7433 13.1 17.8933 13.56 18.0333 14.03C18.0633 14.11 18.0933 14.13 18.1833 14.13C18.7033 14.13 19.2133 14.13 19.7633 14.13H19.7933Z" fill="white"/>
</svg>
