<svg width="36" height="36" viewBox="0 0 36 36" fill="none" xmlns="http://www.w3.org/2000/svg">
<rect width="36" height="36" rx="18" fill="#FA8216"/>
<path d="M24.4 17.9902V25.9804H11.6V17.9902M18 25.9804V13.9951M18 13.9951H14.4C13.8696 13.9951 13.3609 13.7846 12.9858 13.41C12.6107 13.0354 12.4 12.5273 12.4 11.9975C12.4 11.4678 12.6107 10.9597 12.9858 10.5851C13.3609 10.2105 13.8696 10 14.4 10C17.2 10 18 13.9951 18 13.9951ZM18 13.9951H21.6C22.1304 13.9951 22.6391 13.7846 23.0142 13.41C23.3893 13.0354 23.6 12.5273 23.6 11.9975C23.6 11.4678 23.3893 10.9597 23.0142 10.5851C22.6391 10.2105 22.1304 10 21.6 10C18.8 10 18 13.9951 18 13.9951ZM10 13.9951H26V17.9902H10V13.9951Z" stroke="white" stroke-width="1.21873" stroke-linecap="round" stroke-linejoin="round"/>
</svg>
