<svg width="40" height="40" viewBox="0 0 40 40" fill="none" xmlns="http://www.w3.org/2000/svg">
<path d="M20 40C8.956 40 0 31.044 0 20C0 8.956 8.956 0 20 0C31.044 0 40 8.956 40 20C40 31.044 31.044 40 20 40Z" fill="url(#paint0_linear_10_62796)"/>
<path fill-rule="evenodd" clip-rule="evenodd" d="M20.0001 8.80814C23.6441 8.80814 24.0761 8.82014 25.5161 8.88814C26.8481 8.94814 27.5721 9.17214 28.0521 9.36014C28.6881 9.60814 29.1441 9.90414 29.6201 10.3801C30.0961 10.8561 30.3921 11.3121 30.6401 11.9481C30.8281 12.4281 31.0481 13.1521 31.1121 14.4841C31.1761 15.9241 31.1921 16.3561 31.1921 20.0001C31.1921 23.6441 31.1801 24.0761 31.1121 25.5161C31.0521 26.8481 30.8281 27.5721 30.6401 28.0521C30.3921 28.6881 30.0961 29.1441 29.6201 29.6201C29.1441 30.0961 28.6881 30.3921 28.0521 30.6401C27.5721 30.8281 26.8481 31.0481 25.5161 31.1121C24.0761 31.1761 23.6441 31.1921 20.0001 31.1921C16.3561 31.1921 15.9241 31.1801 14.4841 31.1121C13.1521 31.0521 12.4281 30.8281 11.9481 30.6401C11.3121 30.3921 10.8561 30.0961 10.3801 29.6201C9.90412 29.1441 9.60812 28.6881 9.36012 28.0521C9.17212 27.5721 8.95212 26.8481 8.88812 25.5161C8.82412 24.0761 8.80812 23.6441 8.80812 20.0001C8.80812 16.3561 8.82012 15.9241 8.88812 14.4841C8.94812 13.1521 9.17212 12.4281 9.36012 11.9481C9.60812 11.3121 9.90412 10.8561 10.3801 10.3801C10.8561 9.90414 11.3121 9.60814 11.9481 9.36014C12.4281 9.17214 13.1521 8.95214 14.4841 8.88814C15.9241 8.82014 16.3561 8.80814 20.0001 8.80814ZM20.0001 6.34814C16.2921 6.34814 15.8281 6.36414 14.3721 6.43214C12.9201 6.50014 11.9281 6.72814 11.0561 7.06814C10.1601 7.41214 9.39612 7.88014 8.64012 8.64014C7.88012 9.40014 7.41612 10.1601 7.06412 11.0601C6.72812 11.9281 6.49612 12.9201 6.42812 14.3761C6.36012 15.8321 6.34412 16.2961 6.34412 20.0041C6.34412 23.7121 6.36012 24.1761 6.42812 25.6321C6.49612 27.0841 6.72412 28.0761 7.06412 28.9481C7.41212 29.8401 7.88012 30.6041 8.64012 31.3601C9.40012 32.1201 10.1601 32.5841 11.0601 32.9361C11.9281 33.2721 12.9201 33.5041 14.3761 33.5721C15.8321 33.6401 16.2961 33.6561 20.0041 33.6561C23.7121 33.6561 24.1761 33.6401 25.6321 33.5721C27.0841 33.5041 28.0761 33.2761 28.9481 32.9361C29.8401 32.5881 30.6041 32.1201 31.3601 31.3601C32.1201 30.6001 32.5841 29.8401 32.9361 28.9401C33.2721 28.0721 33.5041 27.0801 33.5721 25.6241C33.6401 24.1681 33.6561 23.7041 33.6561 19.9961C33.6561 16.2881 33.6401 15.8241 33.5721 14.3681C33.5041 12.9161 33.2761 11.9241 32.9361 11.0521C32.5881 10.1601 32.1201 9.39614 31.3601 8.64014C30.6001 7.88014 29.8401 7.41614 28.9401 7.06414C28.0721 6.72814 27.0801 6.49614 25.6241 6.42814C24.1721 6.36414 23.7081 6.34814 20.0001 6.34814ZM20.0002 12.988C16.1282 12.988 12.9882 16.128 12.9882 20C12.9882 23.872 16.1282 27.012 20.0002 27.012C23.8722 27.012 27.0122 23.872 27.0122 20C27.0122 16.128 23.8722 12.988 20.0002 12.988ZM20.0002 24.552C17.4882 24.552 15.4482 22.516 15.4482 20C15.4482 17.484 17.4882 15.448 20.0002 15.448C22.5122 15.448 24.5522 17.484 24.5522 20C24.5522 22.516 22.5122 24.552 20.0002 24.552ZM28.9282 12.7121C28.9282 13.6179 28.1939 14.3521 27.2882 14.3521C26.3824 14.3521 25.6482 13.6179 25.6482 12.7121C25.6482 11.8064 26.3824 11.0721 27.2882 11.0721C28.1939 11.0721 28.9282 11.8064 28.9282 12.7121Z" fill="white"/>
<defs>
<linearGradient id="paint0_linear_10_62796" x1="5.85786" y1="34.1421" x2="34.1421" y2="5.85786" gradientUnits="userSpaceOnUse">
<stop stop-color="#FFD521"/>
<stop offset="0.0551048" stop-color="#FFD020"/>
<stop offset="0.1241" stop-color="#FEC01E"/>
<stop offset="0.2004" stop-color="#FCA71B"/>
<stop offset="0.2821" stop-color="#FA8316"/>
<stop offset="0.3681" stop-color="#F85510"/>
<stop offset="0.4563" stop-color="#F51E09"/>
<stop offset="0.5" stop-color="#F30005"/>
<stop offset="0.5035" stop-color="#F20007"/>
<stop offset="0.5966" stop-color="#E1003B"/>
<stop offset="0.6879" stop-color="#D30067"/>
<stop offset="0.7757" stop-color="#C70088"/>
<stop offset="0.8589" stop-color="#BF00A0"/>
<stop offset="0.9357" stop-color="#BB00AF"/>
<stop offset="1" stop-color="#B900B4"/>
</linearGradient>
</defs>
</svg>
