<svg width="256" height="256" viewBox="0 0 256 256" fill="none" xmlns="http://www.w3.org/2000/svg">
<g clip-path="url(#clip0_10_67193)">
<rect width="256" height="256" rx="10" fill="#A8CBF1"/>
<path d="M234.439 163.272C288.282 109.429 285.685 19.5363 228.64 -37.5095C171.594 -94.5553 81.7008 -97.1519 27.858 -43.3092C-25.9847 10.5335 -23.388 100.426 33.6578 157.472C90.7036 214.518 180.597 217.115 234.439 163.272Z" fill="#A3F5F8"/>
<g filter="url(#filter0_f_10_67193)">
<circle cx="59.2233" cy="26.7463" r="17.194" fill="#FFDD64"/>
</g>
<circle cx="59.2233" cy="26.7463" r="17.194" fill="#FFDD64"/>
<path d="M70.5123 18.8551H4.94336C6.49335 16.2887 9.53575 14.662 12.98 13.6708C16.4243 12.6797 20.3728 12.7745 23.7307 13.9288C26.147 10.3255 29.9932 7.20829 34.8392 5.61788C39.6859 4.02746 45.5483 4.10715 50.0236 6.24782C54.499 8.38849 57.2375 12.6877 56.128 16.6517C57.7142 15.0656 60.4601 14.2187 63.0301 14.5233C65.6002 14.8275 69.6191 16.9757 70.5123 18.8551Z" fill="#E6FCFC"/>
<path d="M261.731 21.8412H197.927C200.423 18.7882 206.804 17.3303 210.937 19.032C213.698 14.5771 220.063 11.5995 226.473 11.7641C232.882 11.9286 238.976 15.2259 241.346 19.8128C244.107 17.7716 248.119 16.7786 251.909 17.1978C255.699 17.6165 259.828 19.2842 261.731 21.8412Z" fill="#E6FCFC"/>
<path d="M202.861 7.6959H113.994C115.031 3.07272 120.98 -1.50379 126.775 -2.95793C132.57 -4.41208 139.353 -3.20547 143.731 0.0583377C146.867 -2.36995 151.58 -3.52563 155.962 -2.94096C160.344 -2.35628 164.278 -0.0472815 166.168 3.05103C167.757 1.49127 170.568 0.734957 173.073 1.19327C175.578 1.65158 177.646 3.30046 178.152 5.24404C181.717 3.13873 186.338 2.12356 190.809 2.46494C195.281 2.80678 199.904 5.09268 202.861 7.6959Z" fill="#E6FCFC"/>
<path d="M143.835 32.3719H90.1016C90.7087 30.1171 92.7329 28.1485 95.434 27.1579C98.1352 26.1672 101.437 26.2087 104.094 27.2663C106.559 24.8423 110.868 23.6215 114.787 24.2373C118.706 24.8531 122.049 27.2762 123.081 30.2501C128.971 27.1225 138.738 28.5064 143.835 32.3719Z" fill="#E6FCFC"/>
<path d="M98.6791 17.5976H80.9111C82.9751 15.6479 85.9177 14.5564 89.1751 14.3574C92.4332 14.1589 96.242 15.9223 98.6791 17.5976Z" fill="#E6FCFC"/>
<path d="M245.314 8.41138C215.569 8.53491 167.66 11.6318 138.306 15.328C168.05 15.2045 215.959 12.1076 245.314 8.41138Z" fill="#E6FCFC"/>
<path d="M-15.2842 25.1784C11.4725 27.6246 54.9899 28.96 81.9144 28.1612C55.1578 25.715 11.6404 24.3797 -15.2842 25.1784Z" fill="#E6FCFC"/>
<path d="M111.577 52.7917C104.874 49.6462 96.9754 48.3566 89.1899 49.137C79.8574 50.0724 70.4343 48.0294 63.1089 43.4821L57.7948 40.1834C51.1182 36.0393 42.6735 33.9604 34.1112 34.3536L27.4983 34.6573C21.8497 34.9166 16.2526 34.0952 11.1774 32.3176C6.23093 40.257 2.59182 48.7697 0.467773 57.6902H122.018L111.577 52.7917Z" fill="#E6FCFC"/>
<path d="M226.319 30.9882C222.515 29.8419 218.215 30.2601 214.901 32.0981L197.468 41.7665C194.86 43.2126 191.465 43.5153 188.496 42.5662C186.183 41.8268 183.58 41.8391 181.28 42.6006L177.221 43.9439C174.653 44.7941 171.724 44.7063 169.249 43.7053L163.986 41.576C159.8 39.8828 154.743 40.1044 150.835 42.1526L137.581 49.098L147.129 46.9182C151.22 45.9842 155.649 46.682 158.934 48.7793L172.895 57.6918H259.379C256.671 46.3208 251.499 35.6142 244.301 25.9114L238.147 29.641C234.794 31.6728 230.293 32.1858 226.319 30.9882Z" fill="#E6FCFC"/>
<path d="M-1.91113 76.3958C-1.91113 79.7145 -1.69145 82.994 -1.26768 86.2279C0.67168 86.1676 2.64285 85.8679 4.47537 85.4477C8.97474 84.4166 13.3733 82.7923 18.0725 82.8206C21.0137 82.8384 23.908 83.5114 26.848 83.4466C34.115 83.286 40.0663 78.7486 47.2572 77.936C52.6275 77.3292 57.969 78.8654 63.3543 79.3883C70.5277 80.085 77.991 78.9206 84.2233 76.1325C88.3319 74.2947 87.9622 76.6029 92.1296 78.3622C96.297 80.1215 100.23 82.645 104.99 82.8457C107.885 82.9675 110.75 82.1924 113.644 82.3183C122.117 82.6874 128.185 90.4559 136.62 89.7455C142.147 89.2797 146.097 85.2529 151.498 84.2487C155.572 83.4913 159.833 84.568 163.649 85.8907C167.466 87.2133 171.229 88.8203 175.393 89.198C177.274 89.3687 179.908 89.3217 181.591 88.5565C183.131 87.8557 184.395 86.6065 185.957 85.8359C189.368 84.1529 193.327 83.1071 197.383 82.8571C203.324 82.4912 209.15 83.7897 214.569 85.5275C220.199 87.3333 225.077 89.8911 231.495 89.0251C237.971 88.1514 242.96 84.1068 249.256 82.6605C251.362 82.1764 253.581 82.0286 255.77 82.1741C255.916 80.2615 255.999 78.3357 255.999 76.3953C255.999 75.7643 255.984 75.1361 255.968 74.5078H-1.87992C-1.89553 75.137 -1.91113 75.7648 -1.91113 76.3958Z" fill="white"/>
<path d="M249.463 82.3689C243.147 83.9478 238.139 88.3614 231.642 89.3149C225.203 90.2599 220.309 87.4686 214.659 85.4978C209.222 83.6013 203.376 82.1842 197.415 82.5835C193.345 82.8564 189.373 83.9981 185.95 85.8344C184.383 86.6754 183.114 88.0392 181.568 88.8035C179.88 89.6385 177.237 89.6898 175.35 89.5036C171.171 89.0908 167.396 87.3371 163.566 85.8942C159.737 84.4512 155.462 83.2756 151.374 84.1022C145.954 85.1981 141.99 89.5927 136.445 90.1011C127.982 90.8764 121.893 82.3983 113.391 81.9955C110.487 81.858 107.613 82.704 104.708 82.5711C99.9318 82.3525 95.9851 79.5985 91.8035 77.678C87.6219 75.758 87.9929 73.239 83.8703 75.2447C77.6169 78.2874 70.1276 79.5581 62.9304 78.7978C57.5268 78.2272 52.1671 76.5502 46.7786 77.2129C39.5633 78.1002 33.5918 83.052 26.3 83.2268C23.3501 83.2975 20.4459 82.5631 17.4948 82.5437C12.7796 82.5123 8.36609 84.2854 3.85144 85.4107C2.01209 85.8693 0.0348179 86.1959 -1.91113 86.2621C-1.52688 89.4513 -0.966163 92.5972 -0.25066 95.6982L251.862 103.165C252.288 101.843 252.687 100.513 253.052 99.1712L26.5765 93.8903L254.438 93.3192C255.201 89.5549 255.726 85.7249 255.999 81.8381C253.803 81.6793 251.577 81.8406 249.463 82.3689Z" fill="#00B8C8"/>
<path d="M228.588 98.4504C229.001 96.6219 229.361 94.774 229.673 92.9092L51.2832 93.45L228.588 98.4504Z" fill="white"/>
<path d="M127.245 177.672C194.426 177.672 281.791 212.06 267.462 102.588L-15.2841 95.5227C-21.0155 206.329 56.4528 177.672 127.245 177.672Z" fill="#00E9F0"/>
<path d="M32.4938 63.0368C33.8513 62.511 35.0291 61.3256 36.4828 61.3973C37.9591 61.4699 39.0059 62.793 40.2101 63.6502C43.8436 66.2355 47.7397 63.802 51.0813 62.0489C53.0353 61.0239 55.3089 60.2331 57.4236 60.8654C58.9353 61.3171 60.2452 62.4667 61.8219 62.5318C63.4915 62.6001 64.923 61.4449 66.4474 60.7593C69.7127 59.2911 71.9326 63.5347 75.4562 62.6067C76.9622 62.2102 78.1117 61.0036 79.5211 60.3406C82.0809 59.1373 84.5135 60.4071 87.0945 60.7221C89.2045 60.9795 91.4159 60.2124 92.9135 58.7035C94.5949 57.0089 96.298 59.0525 98.4863 60.0073C100.675 60.9621 102.579 62.4634 104.703 63.5531C106.827 64.6423 109.369 65.3043 111.592 64.4367C113.152 63.8279 114.382 62.5332 115.968 61.9961C118.456 61.1531 121.146 62.3526 123.405 63.6926C125.665 65.0327 128.007 66.5995 130.634 66.5377C135.243 66.4293 138.388 61.4624 142.91 60.5641C145.159 60.1171 147.418 60.741 149.587 61.2931C151.589 61.8023 153.554 62.5162 155.591 61.7887C156.849 61.3398 157.981 60.6019 159.202 60.061C160.424 59.5202 161.817 59.1793 163.092 59.5791C164.051 59.88 164.834 60.5646 165.719 61.0427C167.393 61.9476 169.397 62.0838 171.277 61.7877C172.956 61.5237 174.536 60.5509 176.175 60.3279C177.274 60.1784 178.625 60.931 179.561 61.4624C181.828 62.7487 183.961 64.8535 186.712 64.9384C190.797 65.0643 194.105 60.3925 198.124 61.138C200.713 61.6184 202.628 64.282 205.262 64.3051C207.944 64.3287 209.841 61.6335 212.398 60.8225C214.298 60.2195 216.38 60.7245 218.209 61.5194C220.038 62.3144 221.743 63.397 223.637 64.0236C225.808 64.7422 228.166 64.7587 230.379 64.1915C230.123 62.0032 229.801 59.8357 229.408 57.6926H30.141C29.8081 59.5089 29.5195 61.3402 29.2852 63.1891C30.3574 63.4338 31.4753 63.4309 32.4938 63.0368Z" fill="white"/>
<path d="M-1.52426 68.2498C-1.61846 69.2272 -1.69706 70.208 -1.75586 71.1929H105.594L-1.52426 68.2498Z" fill="white"/>
<path d="M255.869 74.1149C255.845 73.1375 255.808 72.1633 255.749 71.193H114.595L255.529 68.3238C255.396 66.9371 255.218 65.5607 255.014 64.1901C252.199 64.7573 249.199 64.7408 246.435 64.0222C244.026 63.3956 241.855 62.313 239.528 61.518C237.2 60.723 234.552 60.218 232.133 60.8211C228.879 61.6326 226.466 64.3273 223.053 64.3037C219.702 64.2806 217.264 61.617 213.97 61.1365C208.855 60.3906 204.646 65.0628 199.447 64.9369C195.947 64.8521 193.233 62.7472 190.349 61.4609C189.156 60.9295 187.438 60.177 186.039 60.3265C183.954 60.5495 181.943 61.5222 179.806 61.7863C177.414 62.0819 174.864 61.9461 172.734 61.0413C171.609 60.5632 170.611 59.879 169.39 59.5777C167.769 59.1779 165.996 59.5188 164.442 60.0596C162.887 60.6004 161.446 61.3383 159.845 61.7872C157.253 62.5143 154.753 61.8009 152.206 61.2917C149.445 60.7395 146.571 60.1157 143.709 60.5627C137.955 61.4614 133.953 66.4283 128.087 66.5363C124.745 66.5981 121.764 65.0312 118.889 63.6912C116.014 62.3512 112.591 61.1516 109.424 61.9947C107.407 62.5322 105.842 63.827 103.857 64.4352C101.027 65.3028 97.7927 64.6408 95.0897 63.5516C92.3866 62.4624 89.9632 60.9607 87.1792 60.0058C84.3945 59.051 82.2279 57.0075 80.0877 58.7021C78.1827 60.211 75.368 60.9781 72.683 60.7207C69.3986 60.4057 66.3031 59.1359 63.0457 60.3392C61.2523 61.0017 59.7895 62.2088 57.873 62.6053C53.3886 63.5332 50.5643 59.2901 46.4093 60.7579C44.4695 61.4435 42.6472 62.5992 40.5232 62.5303C38.5174 62.4657 36.8506 61.3157 34.9264 60.864C32.2359 60.2322 29.3427 61.0224 26.8557 62.0475C22.6034 63.8011 17.6455 66.2345 13.0219 63.6488C11.4895 62.792 10.1569 61.4685 8.27884 61.3959C6.42842 61.3242 4.9302 62.5096 3.20278 63.0353C1.90676 63.4295 0.484143 63.4323 -0.880273 63.1862C-1.15088 64.8605 -1.36208 66.549 -1.52528 68.2479L105.593 71.1911H-1.75568C-1.81328 72.1619 -1.85648 73.1356 -1.87988 74.113H255.869V74.1149Z" fill="#4EF5F2"/>
<path d="M230.956 71.1931C230.911 70.2336 230.855 69.2764 230.783 68.324L120.03 71.1931H230.956Z" fill="white"/>
<path d="M260.776 157.612C251.518 161.232 245.311 167.486 235.935 164.553C232.728 163.55 230.004 160.617 227.012 158.682C221.953 155.411 220.941 157.165 215.88 160.664C215.106 161.199 208.607 159.473 208.389 160.664C208.129 162.091 208.852 163.529 209.706 164.352C210.561 165.175 211.573 165.633 212.386 166.535C214.566 168.953 211.714 166.067 210.194 169.363C208.3 173.47 208.03 171.157 204.72 171.88C200.799 172.736 198.459 166.535 188.285 169.363C175.893 164.578 168.363 169.641 155.954 164.944C132.776 164.944 116.356 171.265 95.2335 171.88C83.639 172.218 71.8333 168.466 60.5624 172.376C60.5624 176.717 83.1403 165.17 67.8206 164.352C65.0781 164.205 61.4187 168.382 59.2015 166.065C56.9842 163.748 57.0412 170.868 57.589 167.015C58.4234 161.154 49.7629 164.668 49.7629 164.668C49.7629 164.668 24.7362 165.265 24.8011 159.285C24.8476 154.985 22.2891 151.323 19.4208 150.055C16.5524 148.787 13.4556 149.407 10.5121 150.249C3.81586 152.168 -2.72031 155.213 -8.933 159.273C-41.075 287.523 68.2105 251.224 130.865 251.224C196.17 251.224 285.612 298.03 268.112 149.116C266.123 148.866 262.716 156.853 260.776 157.612Z" fill="white"/>
<path d="M198.03 169.748C183.384 174.627 167.783 176.643 152.379 175.614C145.931 175.184 139.94 173.89 133.443 174.625C127.171 175.334 121.053 176.991 114.833 178.021C106.869 179.341 98.3617 179.389 91.0334 175.607C84.1984 172.079 75.9299 170.201 68.2815 168.966C56.7247 167.1 44.6832 168.512 33.8125 172.84C34.2288 174.069 34.6744 175.284 35.1365 176.491C39.4197 174.537 43.926 173.072 48.5426 172.149C50.572 171.743 52.707 171.445 54.6845 172.055C56.662 172.665 58.4259 174.427 58.3939 176.497C58.3496 179.375 55.2201 181.081 52.5052 182.039C49.7902 182.996 46.5962 184.288 46.0214 187.109C45.6432 188.963 46.6659 190.907 48.1951 192.022C49.7237 193.137 51.6668 193.539 53.558 193.609C64.1199 194.003 72.7764 185.285 83.0488 182.797C90.8193 180.915 98.9586 182.72 106.952 182.558C121.515 182.262 134.176 175.353 148.814 179.22C157.37 181.481 165.389 185.471 173.932 187.774C176.572 188.486 179.327 189.037 182.03 188.625C184.312 188.277 186.882 187.125 188.188 185.149C189.236 183.563 189.224 181.15 187.721 179.986C187.16 179.552 186.462 179.332 185.874 178.936C185.285 178.54 184.786 177.847 184.965 177.161C185.115 176.587 185.676 176.23 186.21 175.972C189.699 174.288 194.316 174.633 197.804 176.207C199.868 177.138 201.745 178.549 203.956 179.032C210.42 180.443 215.66 173.691 222.043 171.949C223.38 171.584 224.768 171.483 226.14 171.603C226.414 170.759 226.677 169.91 226.93 169.056C217.43 166.56 206.734 166.849 198.03 169.748Z" fill="#FFD557"/>
<path d="M262.169 155.565C252.911 159.185 245.311 173.217 235.935 170.284C232.728 169.281 230.004 166.349 227.012 164.414C221.953 161.142 215.255 160.426 210.194 163.926C209.42 164.461 208.607 165.204 208.389 166.396C208.129 167.822 208.852 169.261 209.706 170.084C210.561 170.907 211.573 171.364 212.386 172.267C214.566 174.685 211.714 171.798 210.194 175.094C208.3 179.201 208.03 176.888 204.72 177.611C200.799 178.468 198.459 172.267 188.285 175.094C175.893 170.309 168.363 175.373 155.954 170.675C134.721 162.638 116.356 176.996 95.2335 177.611C83.639 177.949 71.8333 174.198 60.5624 178.107C45.6626 183.276 82.3 175.913 66.9803 175.095C64.2378 174.948 61.4187 174.114 59.2015 171.797C56.9842 169.479 57.0412 176.599 57.589 172.747C58.4234 166.886 49.7629 170.399 49.7629 170.399C49.7629 170.399 24.7362 170.997 24.8011 165.016C24.8476 160.716 22.2891 157.054 19.4208 155.787C16.5524 154.519 13.4557 155.138 10.5121 155.981C3.81586 157.899 -2.72031 160.944 -8.933 165.004C-41.0749 293.254 68.2105 256.956 130.865 256.956C196.17 256.956 285.612 303.762 268.112 154.847C266.123 154.597 264.109 154.806 262.169 155.565Z" fill="#FFB25B"/>
<path d="M100.935 236.382C94.9841 235.285 88.8987 236.65 82.8987 237.433C76.8987 238.216 70.2216 237.771 65.126 234.508C68.0253 234.672 70.8629 233.695 73.5406 232.572C76.2183 231.449 78.8621 230.153 81.7171 229.622C84.5721 229.091 87.7515 229.432 89.9804 231.293C92.5713 233.457 97.8773 234.952 100.935 236.382Z" fill="#FFB25B"/>
<path d="M100.136 242.099C99.5518 241.985 98.9469 241.969 98.3806 241.786C97.0726 241.364 96.19 240.133 94.9593 239.522C93.6905 238.891 92.1585 238.986 90.8237 239.46C89.4888 239.935 88.3086 240.755 87.1463 241.565C86.2349 242.2 84.877 242.993 84.877 244.007C84.877 245.055 88.7646 245.905 93.5608 245.905C98.3566 245.905 102.245 245.055 102.245 244.007C102.245 243.045 100.72 242.213 100.136 242.099Z" fill="#FFB25B"/>
<path d="M101.472 240.022C104.595 241.859 108.643 241.285 111.899 242.873C113.264 243.54 114.441 244.566 115.855 245.122C117.268 245.678 119.121 245.611 120.026 244.391C120.755 243.407 120.604 241.972 119.96 240.929C119.317 239.885 118.277 239.156 117.233 238.514C112.881 235.838 107.929 234.151 102.853 233.584C101.424 233.425 98.2379 232.781 97.9559 234.908C97.7018 236.827 100.006 239.16 101.472 240.022Z" fill="#FFB25B"/>
<path d="M127.594 244.825C127.594 245.421 126.354 245.905 124.824 245.905C123.294 245.905 122.054 245.421 122.054 244.825C122.054 244.228 123.294 243.745 124.824 243.745C126.354 243.745 127.594 244.228 127.594 244.825Z" fill="#FFB25B"/>
<path d="M113.448 246.014C113.448 246.454 112.503 246.81 111.337 246.81C110.17 246.81 109.225 246.454 109.225 246.014C109.225 245.575 110.17 245.219 111.337 245.219C112.503 245.219 113.448 245.575 113.448 246.014Z" fill="#FFB25B"/>
<path d="M116.985 248.166C117.864 248.166 118.576 247.862 118.576 247.488C118.576 247.113 117.864 246.81 116.985 246.81C116.106 246.81 115.394 247.113 115.394 247.488C115.394 247.862 116.106 248.166 116.985 248.166Z" fill="#FFB25B"/>
<path d="M83.0296 240.952C83.0296 241.802 81.144 242.491 78.818 242.491C76.492 242.491 74.6064 241.802 74.6064 240.952C74.6064 240.102 76.492 239.413 78.818 239.413C81.144 239.413 83.0296 240.102 83.0296 240.952Z" fill="#FFB25B"/>
<path d="M73.1047 239.974C73.9349 239.974 74.6079 239.696 74.6079 239.354C74.6079 239.013 73.9349 238.735 73.1047 238.735C72.2746 238.735 71.6016 239.013 71.6016 239.354C71.6016 239.696 72.2746 239.974 73.1047 239.974Z" fill="#FFB25B"/>
<path d="M82.0922 244.511C82.7758 244.511 83.3299 244.274 83.3299 243.981C83.3299 243.688 82.7758 243.45 82.0922 243.45C81.4086 243.45 80.8545 243.688 80.8545 243.981C80.8545 244.274 81.4086 244.511 82.0922 244.511Z" fill="#FFB25B"/>
<path d="M55.2408 192.572C53.9411 193.397 53.0344 195.059 53.5772 196.5C54.0128 197.656 55.2552 198.349 56.4819 198.491C57.7087 198.634 58.9384 198.326 60.135 198.021C61.4286 197.691 62.7698 197.338 63.7947 196.482C64.8196 195.627 65.4263 194.112 64.8292 192.918C63.3687 189.997 57.3737 191.217 55.2408 192.572Z" fill="#EF973F"/>
<path d="M62.9776 185.111C63.2626 185.28 63.6048 185.315 63.935 185.346C64.4857 185.398 65.037 185.449 65.5877 185.501C65.8438 185.525 66.1071 185.548 66.3529 185.475C66.5993 185.401 66.8277 185.207 66.8614 184.952C66.9084 184.598 66.5843 184.309 66.2698 184.139C65.5377 183.746 64.5646 183.598 63.7356 183.639C62.9632 183.677 61.9696 184.514 62.9776 185.111Z" fill="#EF973F"/>
<path d="M81.4229 212.866C82.0796 213.374 82.9743 213.404 83.804 213.415C85.0283 213.429 86.4111 213.379 87.2371 212.475C89.07 210.469 86.2773 207.892 84.1691 208.268C82.3405 208.594 78.9158 210.93 81.4229 212.866Z" fill="#EF973F"/>
<path d="M77.2632 217.859C78.532 217.859 79.5606 217.403 79.5606 216.842C79.5606 216.28 78.532 215.824 77.2632 215.824C75.9944 215.824 74.9658 216.28 74.9658 216.842C74.9658 217.403 75.9944 217.859 77.2632 217.859Z" fill="#EF973F"/>
<path d="M93.428 206.9C93.428 207.295 92.7682 207.616 91.9542 207.616C91.1402 207.616 90.4805 207.295 90.4805 206.9C90.4805 206.505 91.1402 206.184 91.9542 206.184C92.7682 206.184 93.428 206.505 93.428 206.9Z" fill="#EF973F"/>
<path d="M77.6768 206.182C77.6768 206.579 76.9537 206.899 76.062 206.899C75.1703 206.899 74.4473 206.578 74.4473 206.182C74.4473 205.786 75.1703 205.465 76.062 205.465C76.9537 205.465 77.6768 205.786 77.6768 206.182Z" fill="#EF973F"/>
<path d="M117.18 217.859C119.447 217.859 121.285 217.066 121.285 216.089C121.285 215.111 119.447 214.318 117.18 214.318C114.913 214.318 113.075 215.111 113.075 216.089C113.075 217.066 114.913 217.859 117.18 217.859Z" fill="#EF973F"/>
<path d="M130.179 212.12C130.179 212.836 129.2 213.417 127.991 213.417C126.782 213.417 125.803 212.836 125.803 212.12C125.803 211.404 126.782 210.823 127.991 210.823C129.2 210.823 130.179 211.404 130.179 212.12Z" fill="#EF973F"/>
<path d="M103.563 222.695C103.95 222.967 104.449 223.097 104.91 222.99C105.371 222.884 105.777 222.52 105.88 222.058C106.135 220.915 104.686 220.122 103.709 220.366C102.536 220.659 102.733 222.114 103.563 222.695Z" fill="#EF973F"/>
<path d="M116.264 207.839C116.264 208.226 115.769 208.54 115.159 208.54C114.549 208.54 114.055 208.226 114.055 207.839C114.055 207.452 114.549 207.138 115.159 207.138C115.769 207.139 116.264 207.452 116.264 207.839Z" fill="#EF973F"/>
<path d="M194.203 211.774C193.604 212.449 192.961 213.311 193.247 214.167C193.454 214.784 194.112 215.163 194.759 215.23C195.407 215.298 196.052 215.113 196.675 214.92C198.068 214.488 199.459 213.995 200.683 213.201C202.733 211.871 205.25 208.251 201.891 206.873C198.462 205.467 196.078 209.662 194.203 211.774Z" fill="#EF973F"/>
<path d="M207.643 210.393C208.139 210.767 208.849 210.517 209.391 210.213C210.579 209.544 212.618 206.815 209.986 206.761C208.574 206.731 206.008 209.16 207.643 210.393Z" fill="#EF973F"/>
<path d="M208.722 199.331C209.626 199.064 210.53 198.798 211.433 198.532C211.685 198.458 211.942 198.38 212.147 198.218C213.639 197.045 209.419 196.423 208.598 196.692C206.896 197.248 206.22 200.068 208.722 199.331Z" fill="#EF973F"/>
<path d="M171.072 232.645C170.718 232.858 170.336 233.105 170.22 233.501C170.075 233.996 170.433 234.529 170.9 234.746C171.368 234.964 171.908 234.939 172.421 234.883C174.547 234.649 176.619 233.935 178.437 232.808C179.421 232.199 180.829 231.143 180.814 229.838C180.802 228.866 179.913 228.439 179.043 228.416C177.703 228.38 176.542 229.362 175.454 230.015C173.994 230.892 172.533 231.769 171.072 232.645Z" fill="#EF973F"/>
<path d="M162.727 231.462C162.771 231.699 162.999 231.866 163.236 231.913C163.472 231.961 163.717 231.913 163.953 231.865C164.589 231.737 167.985 231.33 166.302 230.26C165.499 229.749 162.486 230.155 162.727 231.462Z" fill="#EF973F"/>
<path d="M182.649 222.275C182.83 222.555 182.224 223.266 181.297 223.862C180.371 224.459 179.473 224.716 179.293 224.436C179.113 224.156 179.719 223.446 180.645 222.849C181.572 222.253 182.469 221.996 182.649 222.275Z" fill="#EF973F"/>
<path d="M122.727 241.55C122.076 241.671 121.239 242.053 121.384 242.699C121.488 243.164 122.048 243.34 122.518 243.423C125.334 243.92 134.834 246.079 135.271 241.247C135.602 237.592 125.021 241.123 122.727 241.55Z" fill="#EF973F"/>
<path d="M143.351 242.335C144.474 242.335 145.384 241.931 145.384 241.431C145.384 240.932 144.474 240.528 143.351 240.528C142.228 240.528 141.317 240.932 141.317 241.431C141.317 241.931 142.228 242.335 143.351 242.335Z" fill="#EF973F"/>
<path d="M138.398 237.591C139.448 237.591 140.299 237.203 140.299 236.725C140.299 236.246 139.448 235.858 138.398 235.858C137.349 235.858 136.498 236.246 136.498 236.725C136.498 237.203 137.349 237.591 138.398 237.591Z" fill="#EF973F"/>
<path d="M178.086 190.182C178.442 190.46 178.804 190.746 179.05 191.125C179.296 191.504 179.408 191.999 179.226 192.413C178.949 193.04 178.151 193.225 177.465 193.234C175.9 193.256 171.122 192.14 172.063 189.668C173.044 187.086 176.813 189.185 178.086 190.182Z" fill="#EF973F"/>
<path d="M173.056 186.118C173.329 186.165 173.602 186.212 173.876 186.25C174.203 186.294 174.598 186.297 174.79 186.028C174.921 185.843 174.903 185.582 174.792 185.384C174.682 185.186 174.495 185.042 174.301 184.925C173.739 184.587 172.479 184.153 171.908 184.701C171.139 185.44 172.504 186.022 173.056 186.118Z" fill="#EF973F"/>
<path d="M219.378 179.566C219.055 179.707 218.738 179.882 218.509 180.15C218.281 180.417 218.154 180.792 218.255 181.129C218.358 181.476 218.682 181.722 219.028 181.829C219.373 181.937 219.743 181.928 220.105 181.92C221.502 181.885 222.9 181.85 224.297 181.816C224.582 181.809 224.879 181.799 225.127 181.659C225.564 181.415 225.713 180.814 225.538 180.345C225.362 179.877 224.93 179.542 224.463 179.366C223.71 179.081 222.857 179.144 222.068 179.095C221.151 179.039 220.22 179.199 219.378 179.566Z" fill="#EF973F"/>
<path d="M214.477 178.093C214.586 178.276 214.797 178.38 215.007 178.409C215.218 178.44 215.432 178.406 215.643 178.373C216.105 178.299 216.567 178.226 217.029 178.153C217.178 178.129 217.33 178.105 217.467 178.039C217.604 177.973 217.725 177.859 217.763 177.713C217.82 177.491 217.666 177.257 217.465 177.147C217.123 176.96 216.691 177.016 216.317 176.971C216.062 176.94 215.805 176.849 215.546 176.864C215.01 176.895 214.093 177.446 214.477 178.093Z" fill="#EF973F"/>
<path d="M229.145 183.361C229.414 183.502 229.736 183.52 230.032 183.452C230.143 183.427 230.256 183.388 230.34 183.31C230.965 182.731 229.891 181.86 229.311 181.888C228.479 181.928 228.515 183.029 229.145 183.361Z" fill="#EF973F"/>
<path d="M228.258 179.753C228.489 179.929 228.856 179.889 229.045 179.668C229.233 179.447 229.213 179.078 229.002 178.878C228.41 178.316 227.614 179.262 228.258 179.753Z" fill="#EF973F"/>
<path d="M36.4383 199.475C36.6932 199.663 36.9716 199.892 36.9927 200.208C37.0119 200.496 36.7938 200.759 36.5305 200.876C36.2672 200.994 35.9678 200.994 35.6798 200.976C34.062 200.871 29.4347 199.289 30.3053 196.917C31.1874 194.516 35.4237 198.727 36.4383 199.475Z" fill="#EF973F"/>
<path d="M35.2971 193.73C34.6036 192.77 32.7574 193.272 33.4576 194.532C34.0999 195.687 36.1442 194.903 35.2971 193.73Z" fill="#EF973F"/>
<path d="M190.673 191.624C180.259 194.047 170.927 199.392 161.949 204.886C152.971 210.381 144.039 216.16 133.969 219.627C121.44 223.941 107.703 224.45 94.448 222.943C83.8286 221.735 73.4364 219.28 63.123 216.584C65.7036 218.841 68.4002 220.968 71.2015 222.957C85.319 226.255 99.5738 229.101 114.042 229.422C131.267 229.804 149.027 226.356 163.28 216.678C169.254 212.622 174.481 207.574 180.155 203.107C185.83 198.641 192.151 194.674 199.242 193.309C204.455 192.306 210.155 192.942 214.739 195.469C215.22 194.73 215.695 193.986 216.157 193.233C208.398 189.869 199.083 189.667 190.673 191.624Z" fill="#FFD557"/>
<path d="M198.908 61.9901C212.285 81.372 217.937 105.248 218.87 128.779C219.804 152.311 216.304 175.767 212.796 199.054L232.457 205.743C233.516 180.666 234.57 155.434 231.239 130.557C227.908 105.68 219.922 80.9223 204.551 61.0801L198.908 61.9901Z" fill="#978093"/>
<path d="M232.456 205.744L212.796 199.055C213.503 194.362 214.207 189.663 214.878 184.956C221.661 183.023 228.031 179.651 233.446 175.131C233.312 185.338 232.887 195.554 232.456 205.744Z" fill="#645B79"/>
<path d="M198.908 61.9901L204.552 61.0801C210.71 69.0298 215.666 77.7771 219.629 86.9962C216.264 84.9597 212.81 83.0723 209.28 81.3363C206.516 74.5468 203.09 68.0493 198.908 61.9901Z" fill="#645B79"/>
<path d="M221.646 176.332C222.669 167.715 224.069 156.731 224.615 145.677C225.217 134.627 224.963 123.557 224.838 114.88C227.676 123.07 229.36 134.498 228.734 145.891C228.176 157.287 225.318 168.48 221.646 176.332Z" fill="#CEB49D"/>
<path d="M221.557 128.422C221.25 123.996 220.924 118.34 220.187 112.727C219.476 107.11 218.358 101.557 217.533 97.197C219.683 101.074 221.551 106.672 222.279 112.458C223.041 118.238 222.654 124.127 221.557 128.422Z" fill="#CEB49D"/>
<path d="M228.172 86.3208C221.158 78.6486 213.102 70.6127 204.107 62.4949C222.324 66.5144 238.836 77.8499 247.813 90.1102C255.746 100.942 259.29 114.433 257.225 125.568C254.853 121.182 252.049 116.648 248.862 112.016C248.99 109.677 249.117 107.366 249.243 105.085C248.688 106.741 248.123 108.428 247.548 110.147C246.113 108.117 244.603 106.061 243.014 103.981C243.189 101.287 243.181 98.557 242.971 95.7964C242.265 97.5366 241.544 99.3136 240.807 101.129C237.784 97.3012 234.493 93.3763 230.948 89.3893C230.491 86.8809 230.035 84.3757 229.579 81.8747C229.116 83.3354 228.647 84.8181 228.172 86.3208Z" fill="#00C6C1"/>
<path d="M249.72 63.4251C263.621 71.2088 273.579 87.6483 274.914 106.536C270.215 101.842 264.213 97.1312 257.729 92.6493C256.387 87.6304 254.424 82.9447 251.919 78.7623C251.778 81.9632 251.635 85.2072 251.49 88.4942C246.375 85.2051 241.12 82.0882 236.071 79.2446C234.135 74.8668 232.236 70.5719 230.374 66.3601C230.369 69.5589 230.364 72.8029 230.358 76.0921C215.965 68.3021 204.294 63.1182 204.294 63.1182C219.007 55.3325 236.368 55.9483 249.72 63.4251Z" fill="#009F9A"/>
<path d="M264.743 38.5607C260.003 38.7036 255.072 39.601 250.104 40.9882C248.019 39.5296 245.878 38.2349 243.727 37.142C244.912 38.692 246.103 40.2504 247.301 41.8183C245.618 42.3469 243.931 42.928 242.249 43.5491C240.614 42.2355 238.977 40.9209 237.338 39.6042C238.146 41.1962 239.032 42.8009 239.987 44.4087C221.748 51.5471 204.349 63.1002 204.349 63.1002C216.895 14.1599 264.743 38.5607 264.743 38.5607Z" fill="#00C6C1"/>
<path d="M105.074 56.956C105.074 56.956 155.524 14.6308 204.309 63.1129C204.309 63.1129 187.513 59.3792 165.613 56.9738C166.39 55.0571 167.167 53.1393 167.945 51.2225C165.89 52.8188 164.019 54.6431 162.336 56.6271C156.737 56.0607 150.855 55.5951 144.871 55.3062C146.85 52.0622 149.25 49.0746 152 46.4517C148.204 49.0368 144.646 51.9634 141.346 55.1569C129 54.7135 116.381 55.0834 105.074 56.956Z" fill="#009F9A"/>
<path d="M134.792 110.77C134.544 94.2045 143.148 77.7639 156.9 68.5259C170.653 59.2878 189.083 56.6166 204.324 63.1098C204.324 63.1098 196.635 67.1808 186.113 73.4039C185.799 71.194 185.727 68.9494 185.953 66.7279C184.785 69.6829 183.616 72.6368 182.447 75.5918C177.635 78.4901 172.393 81.753 167.117 85.2239C166.29 82.4098 165.463 79.5945 164.637 76.7793C164.227 80.4184 163.816 84.0575 163.406 87.6966C152.419 95.1156 141.687 103.278 134.792 110.77Z" fill="#00C6C1"/>
<path d="M176.469 102.188C177.658 85.4014 188.845 69.709 204.324 63.1086C201.935 70.6348 200.054 78.7043 198.703 87.0071C196.593 86.0025 194.482 84.9979 192.371 83.9933C194.055 86.5027 195.988 88.8377 198.105 90.9941C197.358 96.3051 196.83 101.685 196.534 107.071C193.163 105.069 189.792 103.068 186.42 101.066C189.074 104.754 192.495 107.876 196.384 110.224C195.93 122.108 196.598 133.914 198.533 144.805C184.139 136.088 175.279 118.974 176.469 102.188Z" fill="#009F9A"/>
<path d="M157.586 143.483C150.028 168.655 157.385 205.556 174.019 225.904C174.825 226.89 175.703 227.288 176.471 227.135L159.379 141.405C158.611 141.558 157.952 142.263 157.586 143.483Z" fill="#8D415F"/>
<path d="M161.832 142.636C161.026 141.65 160.148 141.252 159.379 141.405L176.472 227.135C177.24 226.982 177.898 226.277 178.265 225.057C185.823 199.886 178.466 162.985 161.832 142.636Z" fill="#D46571"/>
<path d="M174.003 207.629C174.927 212.262 175.064 216.139 174.31 216.29C173.556 216.44 172.195 212.806 171.272 208.174C170.349 203.541 170.211 199.664 170.965 199.513C171.719 199.363 173.079 202.997 174.003 207.629Z" fill="#E8936B"/>
<path d="M167.164 219.434C169.767 219.398 172.171 218.046 174.782 218.187C175.753 218.239 176.736 218.42 177.689 218.578C178.57 218.724 179.465 218.593 180.342 218.638C179.836 221.079 179.352 223.693 178.483 226.029C178.189 226.817 177.83 227.653 177.105 228.079C176.522 228.423 175.786 228.432 175.137 228.239C174.488 228.045 173.911 227.667 173.367 227.264C170.709 225.293 168.423 222.493 167.164 219.434Z" fill="#FFB25B"/>
<path d="M250.437 196.127C252.169 185.281 244.781 175.085 233.936 173.353C223.09 171.621 212.894 179.009 211.161 189.855C209.429 200.7 216.818 210.897 227.663 212.629C238.509 214.361 248.705 206.973 250.437 196.127Z" fill="#FBEED1"/>
<path d="M237.226 174.177C239.694 177.906 241.359 184.934 241.359 192.996C241.359 201.058 239.694 208.086 237.226 211.816C240.497 210.699 243.385 208.756 245.638 206.232C247.915 202.571 249.274 197.982 249.274 192.996C249.274 188.011 247.915 183.422 245.638 179.761C243.385 177.236 240.497 175.294 237.226 174.177Z" fill="#E8916A"/>
<path d="M224.993 192.996C224.993 184.105 227.018 176.469 229.913 173.132C227.049 173.258 224.345 173.991 221.921 175.203C217.394 179.115 214.429 185.623 214.429 192.996C214.429 200.369 217.394 206.877 221.921 210.789C224.345 212.001 227.049 212.734 229.913 212.86C227.018 209.523 224.993 201.887 224.993 192.996Z" fill="#E8916A"/>
<path d="M250.442 196.11C249.95 196.928 249.369 197.696 248.725 198.406C248.127 201.291 247.062 203.943 245.638 206.232C245.37 206.532 245.091 206.823 244.806 207.107C247.738 204.195 249.771 200.379 250.442 196.11Z" fill="#F7DD8C"/>
<path d="M214.765 197.226C213.102 195.262 211.817 192.988 211.069 190.551C210.971 191.353 210.914 192.168 210.914 192.996C210.914 200.787 215.396 207.527 221.921 210.789C218.283 207.645 215.657 202.824 214.765 197.226Z" fill="#F7DD8C"/>
<path d="M248.725 198.406C248.204 198.98 247.641 199.516 247.043 200.003C245.074 201.605 242.762 202.729 240.331 203.486C239.603 206.957 238.528 209.848 237.226 211.815C239.259 211.121 241.143 210.108 242.82 208.834C242.837 208.821 242.853 208.809 242.87 208.796C243.517 208.301 244.132 207.767 244.713 207.198C244.744 207.168 244.775 207.137 244.806 207.107C245.091 206.823 245.37 206.532 245.638 206.232C247.062 203.943 248.127 201.291 248.725 198.406Z" fill="#CC6164"/>
<path d="M219.786 201.497C217.895 200.368 216.191 198.91 214.765 197.226C215.657 202.824 218.283 207.645 221.92 210.789C224.344 212.001 227.048 212.734 229.912 212.86C228.331 211.038 227.011 207.933 226.137 204.043C223.907 203.515 221.76 202.674 219.786 201.497Z" fill="#CC6164"/>
<path d="M240.331 203.486C239.425 203.768 238.504 204.003 237.576 204.188C233.813 204.935 229.86 204.924 226.138 204.043C227.012 207.932 228.332 211.038 229.912 212.86C230.207 212.873 230.503 212.882 230.8 212.882C233.05 212.882 235.211 212.507 237.227 211.818L237.226 211.815C238.528 209.848 239.603 206.956 240.331 203.486Z" fill="#F7DD8C"/>
<path d="M241.088 178.937C240.969 178.937 240.849 178.902 240.745 178.829C238.668 177.368 236.352 176.402 233.859 175.958C233.535 175.9 233.319 175.59 233.377 175.266C233.434 174.941 233.744 174.728 234.069 174.783C236.734 175.258 239.211 176.291 241.432 177.853C241.701 178.042 241.766 178.414 241.576 178.684C241.46 178.849 241.275 178.937 241.088 178.937Z" fill="white"/>
<path d="M217.861 181.219C217.713 181.219 217.565 181.164 217.449 181.053C217.211 180.826 217.203 180.448 217.43 180.209C220.955 176.524 225.704 174.495 230.801 174.495C231.13 174.495 231.398 174.763 231.398 175.092C231.398 175.422 231.13 175.689 230.801 175.689C226.032 175.689 221.59 177.587 218.293 181.035C218.175 181.157 218.018 181.219 217.861 181.219Z" fill="white"/>
<path d="M213.931 187.583C213.865 187.583 213.797 187.572 213.731 187.548C213.42 187.437 213.258 187.096 213.369 186.785C213.807 185.558 214.377 184.373 215.065 183.263C215.238 182.983 215.607 182.897 215.886 183.07C216.166 183.244 216.253 183.612 216.079 183.892C215.436 184.93 214.902 186.038 214.493 187.186C214.406 187.43 214.176 187.583 213.931 187.583Z" fill="white"/>
<path d="M241.014 210.786C239.85 211.504 238.386 211.532 237.034 211.334C235.681 211.136 234.356 210.734 232.99 210.666C231.018 210.568 229.088 211.17 227.137 211.466C225.185 211.762 223.017 211.697 221.472 210.468C222.773 212.033 224.677 212.897 226.684 213.234C229.127 213.645 231.63 213.786 234.087 213.466C236.543 213.146 238.94 212.143 241.014 210.786Z" fill="#FFB25B"/>
<path d="M211.167 192.996H208.981V188.665C208.981 187.778 208.258 187.056 207.371 187.056H196.235C195.348 187.056 194.626 187.778 194.626 188.665V192.996H192.439V188.665C192.439 186.572 194.142 184.87 196.235 184.87H207.371C209.464 184.87 211.167 186.572 211.167 188.665V192.996Z" fill="#645B79"/>
<path d="M194.625 190.634H192.438V192.997H194.625V190.634Z" fill="#514B63"/>
<path d="M211.167 190.634H208.98V192.997H211.167V190.634Z" fill="#514B63"/>
<path d="M222.571 223.343H181.035C179.697 223.343 178.612 222.258 178.612 220.921V194.471C178.612 193.132 179.697 192.048 181.035 192.048H222.571C223.909 192.048 224.993 193.133 224.993 194.471V220.921C224.994 222.258 223.909 223.343 222.571 223.343Z" fill="#978093"/>
<path d="M182.02 191.611H181.036C179.459 191.611 178.176 192.894 178.176 194.471V195.13H182.02V191.611Z" fill="#645B79"/>
<path d="M225.43 195.13V194.47C225.43 192.894 224.147 191.61 222.57 191.61H221.586V195.13H225.43Z" fill="#645B79"/>
<path d="M221.586 223.781H222.57C224.147 223.781 225.43 222.498 225.43 220.92V220.261H221.586V223.781H221.586Z" fill="#645B79"/>
<path d="M178.175 220.261V220.92C178.175 222.498 179.458 223.781 181.035 223.781H182.019V220.261H178.175Z" fill="#645B79"/>
<path d="M194.581 191.829H190.063V223.562H194.581V191.829Z" fill="#645B79"/>
<path d="M213.541 191.829H209.023V223.562H213.541V191.829Z" fill="#645B79"/>
<path d="M226.351 223.951C225.273 222.561 223.292 222.244 221.54 222.398C219.788 222.553 218.053 223.068 216.301 222.916C214.434 222.755 212.703 221.845 210.845 221.603C207.277 221.137 203.744 223.164 200.17 222.747C198.08 222.503 196.127 221.431 194.023 221.381C191.625 221.323 189.376 222.596 186.982 222.75C185.446 222.848 183.92 222.482 182.383 222.391C180.845 222.3 179.168 222.546 178.076 223.631L179.578 224.549H225.43L226.351 223.951Z" fill="#FFB25B"/>
<path d="M178.612 225.082C192.848 225.082 204.389 223.768 204.389 222.147C204.389 220.526 192.848 219.212 178.612 219.212C164.376 219.212 152.835 220.526 152.835 222.147C152.835 223.768 164.376 225.082 178.612 225.082Z" fill="#FBEED1"/>
<path d="M166.884 218.858C166.834 219.296 166.807 219.742 166.807 220.194V221.378C166.807 222.121 172.092 222.723 178.612 222.723C185.132 222.723 190.418 222.121 190.418 221.378V220.194C190.418 219.742 190.39 219.296 190.34 218.858C189.676 219.528 184.681 220.05 178.613 220.05C172.544 220.05 167.547 219.528 166.884 218.858Z" fill="#D46571"/>
<path d="M178.612 208.388C172.544 208.388 167.547 212.967 166.884 218.858C167.547 219.529 172.544 220.05 178.612 220.05C184.68 220.05 189.676 219.529 190.34 218.858C189.676 212.967 184.68 208.388 178.612 208.388Z" fill="#FBEED1"/>
<path d="M188.147 218.451C188.591 218.204 189.153 217.984 189.586 218.252C190.018 218.518 190.075 219.132 189.956 219.626C189.837 220.119 189.591 220.591 189.591 221.098C189.591 221.556 189.79 221.987 189.886 222.435C189.981 222.882 189.938 223.42 189.572 223.694C189.134 224.023 188.513 223.799 188.018 223.566C187.411 223.28 186.803 222.993 186.196 222.707C185.857 222.548 185.509 222.381 185.256 222.105C184.53 221.311 185.165 220.688 185.772 220.145C186.498 219.495 187.295 218.925 188.147 218.451Z" fill="#D46571"/>
<path d="M185.287 220.622C185.27 220.896 185.332 221.175 185.486 221.403C185.697 221.716 186.034 221.918 186.365 222.099C186.949 222.418 187.55 222.705 188.165 222.959C188.36 223.039 188.559 223.117 188.769 223.134C188.978 223.15 189.203 223.098 189.351 222.949C189.576 222.724 189.565 222.354 189.468 222.052C189.372 221.75 189.205 221.467 189.162 221.152C189.103 220.723 189.283 220.299 189.487 219.917C189.673 219.569 189.881 219.223 189.974 218.842C190.03 219.094 190.016 219.375 189.955 219.626C189.836 220.119 189.591 220.591 189.591 221.098C189.59 221.556 189.79 221.987 189.885 222.435C189.98 222.882 189.937 223.42 189.571 223.694C189.133 224.023 188.513 223.799 188.017 223.566C187.41 223.28 186.803 222.993 186.195 222.707C185.857 222.548 185.509 222.381 185.256 222.105C184.734 221.533 184.918 221.05 185.287 220.622Z" fill="#8D415F"/>
<path d="M182.129 219.988C182.424 219.979 182.718 220.091 183.011 220.057C183.433 220.008 183.776 219.671 184.195 219.607C184.692 219.532 185.183 219.874 185.41 220.323C185.638 220.771 185.647 221.298 185.588 221.797C185.563 222.012 185.525 222.228 185.424 222.419C185.324 222.61 185.153 222.774 184.941 222.819C184.774 222.854 184.601 222.813 184.432 222.788C184.019 222.729 183.592 222.773 183.199 222.915C182.889 223.028 182.57 223.204 182.249 223.125C182.043 223.074 181.873 222.92 181.761 222.739C181.649 222.558 181.588 222.351 181.536 222.144C181.409 221.648 181.333 221.141 181.271 220.633C181.223 220.229 181.793 219.998 182.129 219.988Z" fill="#D46571"/>
<path d="M185.477 220.496C185.55 220.839 185.557 221.195 185.481 221.537C185.443 221.707 185.383 221.881 185.256 222.001C185.13 222.121 184.921 222.17 184.777 222.071C184.595 221.946 184.604 221.682 184.588 221.461C184.557 221.029 184.312 220.591 183.979 220.313C184.131 220.639 184.245 220.996 184.208 221.353C184.171 221.71 183.955 222.066 183.615 222.184C183.515 222.08 183.482 221.929 183.471 221.786C183.461 221.642 183.47 221.496 183.437 221.355C183.404 221.214 183.3 221.018 183.163 220.97C183.326 221.317 183.322 221.738 183.153 222.082C183.118 222.153 183.074 222.223 183.009 222.271C182.945 222.318 182.856 222.338 182.783 222.305C182.705 222.269 182.664 222.179 182.657 222.094C182.651 222.008 182.674 221.924 182.692 221.839C182.773 221.469 182.748 221.036 182.472 220.777C182.189 220.51 181.719 220.524 181.389 220.73C181.355 220.752 181.327 220.781 181.296 220.805C181.354 221.255 181.424 221.704 181.536 222.144C181.588 222.35 181.649 222.557 181.761 222.738C181.873 222.919 182.043 223.073 182.249 223.124C182.569 223.203 182.889 223.027 183.199 222.915C183.591 222.772 184.019 222.728 184.432 222.788C184.601 222.812 184.774 222.853 184.941 222.818C185.152 222.774 185.324 222.61 185.424 222.419C185.524 222.228 185.563 222.011 185.588 221.797C185.64 221.36 185.63 220.904 185.477 220.496Z" fill="#8D415F"/>
<path d="M178.761 219.061C178.287 218.873 177.702 218.727 177.307 219.049C176.913 219.369 176.936 219.985 177.118 220.459C177.3 220.933 177.605 221.369 177.67 221.872C177.73 222.325 177.588 222.779 177.551 223.235C177.514 223.691 177.626 224.219 178.025 224.443C178.502 224.713 179.088 224.41 179.549 224.114C180.114 223.752 180.68 223.39 181.244 223.028C181.559 222.825 181.883 222.615 182.098 222.309C182.716 221.427 182.005 220.892 181.334 220.432C180.531 219.882 179.666 219.42 178.761 219.061Z" fill="#D46571"/>
<path d="M181.877 220.843C181.93 221.113 181.905 221.397 181.782 221.644C181.612 221.981 181.305 222.225 180.999 222.447C180.462 222.839 179.903 223.201 179.325 223.532C179.143 223.637 178.955 223.74 178.749 223.784C178.544 223.828 178.314 223.805 178.147 223.676C177.896 223.482 177.859 223.114 177.915 222.802C177.972 222.489 178.1 222.187 178.102 221.87C178.105 221.437 177.873 221.039 177.621 220.687C177.391 220.366 177.14 220.05 176.999 219.684C176.975 219.941 177.026 220.218 177.118 220.459C177.3 220.933 177.605 221.369 177.67 221.872C177.73 222.325 177.588 222.779 177.551 223.235C177.514 223.691 177.626 224.219 178.025 224.443C178.502 224.713 179.088 224.41 179.549 224.114C180.114 223.752 180.68 223.39 181.244 223.028C181.56 222.825 181.883 222.615 182.098 222.309C182.544 221.675 182.299 221.22 181.877 220.843Z" fill="#8D415F"/>
<path d="M180.805 210.912C180.772 210.912 180.739 210.909 180.706 210.904C180.244 210.827 179.771 210.782 179.298 210.771C178.969 210.763 178.708 210.49 178.716 210.161C178.724 209.831 178.987 209.578 179.327 209.578C179.856 209.59 180.386 209.64 180.902 209.727C181.227 209.781 181.447 210.088 181.393 210.414C181.344 210.706 181.091 210.912 180.805 210.912Z" fill="white"/>
<path d="M169.961 215.783C169.852 215.783 169.742 215.753 169.643 215.691C169.365 215.515 169.282 215.146 169.457 214.868C170.459 213.283 171.837 211.963 173.443 211.051C174.406 210.503 175.452 210.1 176.551 209.854C176.873 209.784 177.192 209.984 177.264 210.306C177.336 210.628 177.133 210.947 176.812 211.019C175.828 211.239 174.893 211.599 174.032 212.088C172.596 212.905 171.363 214.086 170.466 215.505C170.353 215.685 170.159 215.783 169.961 215.783Z" fill="white"/>
<path d="M203.683 214.749C203.304 217.146 203.532 219.593 203.761 222.01C203.892 223.388 204.026 224.781 204.482 226.089C204.937 227.396 205.754 228.628 206.96 229.308C208.166 229.987 209.794 230.004 210.861 229.122C211.865 228.293 212.184 226.915 212.444 225.64C213.119 222.334 213.793 219.029 214.467 215.724C214.739 214.392 215.01 213.01 214.705 211.685C214.369 210.226 213.303 208.955 211.925 208.369C207.302 206.403 204.318 210.75 203.683 214.749Z" fill="#00656C"/>
<path d="M207.984 208.621C209.141 208.104 210.418 208.135 211.779 208.713C213.049 209.254 214.031 210.425 214.341 211.769C214.634 213.038 214.351 214.425 214.101 215.649L212.078 225.565C211.811 226.875 211.499 228.111 210.624 228.834C210.456 228.972 210.267 229.089 210.061 229.181C209.193 229.569 208.048 229.491 207.144 228.982C206.136 228.413 205.316 227.342 204.836 225.965C204.392 224.693 204.261 223.311 204.134 221.974C203.91 219.614 203.678 217.173 204.053 214.808C204.611 211.29 206.519 209.277 207.984 208.621Z" fill="#009F9A"/>
<path d="M213.603 218.09L214.101 215.649C214.136 215.476 214.171 215.299 214.206 215.121C210.805 215.511 207.376 215.672 203.952 215.601C203.871 216.382 203.845 217.168 203.858 217.956C203.86 218.133 203.87 218.311 203.876 218.489C207.123 218.565 210.373 218.429 213.603 218.09Z" fill="#00C6C1"/>
<path d="M214.414 212.184C214.394 212.045 214.373 211.906 214.341 211.769C214.133 210.865 213.616 210.044 212.916 209.436C210.738 209.656 208.553 209.783 206.365 209.815C205.694 210.514 205.059 211.476 204.6 212.713C207.878 212.747 211.158 212.572 214.414 212.184Z" fill="#00C6C1"/>
<path d="M212.392 224.024L212.997 221.06C210.034 221.342 207.055 221.453 204.079 221.387C204.097 221.583 204.115 221.78 204.134 221.974C204.207 222.74 204.283 223.52 204.416 224.287C207.077 224.339 209.741 224.25 212.392 224.024Z" fill="#00C6C1"/>
<path d="M205.401 227.188C205.865 227.975 206.459 228.597 207.144 228.982C208.048 229.492 209.193 229.57 210.061 229.182C210.266 229.09 210.455 228.973 210.623 228.834C211.172 228.381 211.499 227.726 211.733 226.978C209.626 227.135 207.514 227.205 205.401 227.188Z" fill="#00C6C1"/>
<path d="M213.071 216.825C212.961 216.773 210.6 215.59 210.861 211.43C210.949 211.013 210.998 210.586 211.005 210.158C211.005 210.154 211.004 210.15 211.003 210.146C211.003 210.132 211.001 210.118 211 210.104C210.998 210.091 210.997 210.078 210.995 210.065C210.991 210.051 210.987 210.037 210.982 210.024C210.979 210.012 210.975 210.001 210.971 209.99C210.964 209.974 210.956 209.96 210.947 209.945C210.942 209.938 210.939 209.93 210.934 209.923C210.922 209.905 210.908 209.888 210.894 209.872C210.891 209.87 210.889 209.867 210.886 209.864C210.869 209.846 210.849 209.83 210.829 209.815L210.828 209.814C210.807 209.8 210.785 209.788 210.761 209.777C210.76 209.776 210.759 209.775 210.757 209.775C210.738 209.766 210.717 209.759 210.695 209.754C210.688 209.753 210.682 209.751 210.676 209.749C210.67 209.748 210.666 209.745 210.66 209.745C210.648 209.743 210.637 209.743 210.625 209.743C210.616 209.742 210.608 209.74 210.599 209.74C210.595 209.74 210.591 209.74 210.587 209.741C210.574 209.741 210.562 209.743 210.549 209.744C210.534 209.745 210.519 209.747 210.504 209.75C210.495 209.752 210.485 209.756 210.476 209.759C210.459 209.764 210.442 209.769 210.426 209.776C210.419 209.779 210.413 209.783 210.406 209.786C210.389 209.795 210.373 209.804 210.357 209.815C210.351 209.819 210.346 209.824 210.34 209.829C210.325 209.84 210.311 209.852 210.298 209.865C210.292 209.872 210.286 209.879 210.28 209.886C210.269 209.899 210.259 209.912 210.249 209.926C210.243 209.935 210.239 209.944 210.234 209.954C210.226 209.967 210.218 209.981 210.212 209.996C210.208 210.007 210.205 210.018 210.201 210.029C210.197 210.044 210.192 210.059 210.189 210.075C210.188 210.078 210.187 210.081 210.186 210.085C210.114 210.518 210.069 210.925 210.043 211.313C209.799 212.418 209.24 213.449 208.433 214.249C207.345 215.327 205.844 215.95 204.313 215.96C204.086 215.961 203.902 216.147 203.903 216.374C203.905 216.592 204.075 216.77 204.288 216.783C204.298 216.784 204.308 216.784 204.318 216.784C206.063 216.773 207.774 216.063 209.013 214.835C209.443 214.408 209.81 213.923 210.109 213.399C210.576 216.536 212.611 217.522 212.722 217.574C212.77 217.595 212.819 217.608 212.868 217.611C213.032 217.622 213.193 217.532 213.268 217.374C213.364 217.168 213.275 216.923 213.071 216.825Z" fill="#00656C"/>
<path d="M226.467 216.855C226.542 219.281 226.006 221.679 225.473 224.047C225.169 225.398 224.86 226.763 224.243 228.002C223.626 229.241 222.66 230.361 221.378 230.882C220.096 231.404 218.479 231.215 217.531 230.206C216.641 229.256 216.498 227.849 216.401 226.551C216.149 223.187 215.898 219.823 215.646 216.459C215.545 215.103 215.45 213.698 215.92 212.423C216.438 211.018 217.656 209.891 219.097 209.484C223.932 208.118 226.343 212.807 226.467 216.855Z" fill="#00656C"/>
<path d="M222.975 210.232C221.892 209.573 220.621 209.442 219.198 209.844C217.87 210.22 216.749 211.257 216.271 212.552C215.82 213.774 215.926 215.186 216.019 216.431L216.774 226.523C216.874 227.856 217.027 229.121 217.804 229.949C217.953 230.108 218.126 230.248 218.318 230.365C219.13 230.86 220.276 230.927 221.237 230.535C222.31 230.099 223.258 229.14 223.908 227.835C224.509 226.629 224.813 225.274 225.108 223.964C225.628 221.651 226.167 219.259 226.094 216.865C225.984 213.305 224.345 211.067 222.975 210.232Z" fill="#009F9A"/>
<path d="M216.205 218.916L216.02 216.431C216.007 216.255 215.993 216.075 215.981 215.894C219.307 216.711 222.688 217.303 226.093 217.665C226.075 218.45 226.002 219.233 225.889 220.012C225.864 220.189 225.832 220.364 225.804 220.539C222.574 220.205 219.367 219.66 216.205 218.916Z" fill="#00C6C1"/>
<path d="M216.147 212.954C216.184 212.819 216.223 212.684 216.272 212.552C216.593 211.681 217.209 210.933 217.98 210.418C220.112 210.911 222.265 211.313 224.431 211.621C225.009 212.399 225.517 213.434 225.816 214.718C222.56 214.338 219.328 213.75 216.147 212.954Z" fill="#00C6C1"/>
<path d="M216.656 224.955L216.431 221.938C219.335 222.592 222.276 223.078 225.236 223.388C225.193 223.58 225.151 223.773 225.108 223.965C224.939 224.715 224.765 225.479 224.536 226.223C221.89 225.939 219.258 225.514 216.656 224.955Z" fill="#00C6C1"/>
<path d="M223.192 228.976C222.633 229.698 221.965 230.24 221.237 230.536C220.276 230.927 219.13 230.86 218.318 230.366C218.126 230.249 217.953 230.109 217.804 229.95C217.317 229.431 217.075 228.74 216.938 227.968C219.007 228.39 221.094 228.727 223.192 228.976Z" fill="#00C6C1"/>
<path d="M216.893 217.728C217.009 217.69 219.501 216.815 219.767 212.655C219.732 212.23 219.738 211.801 219.785 211.375C219.785 211.371 219.787 211.368 219.787 211.364C219.789 211.35 219.793 211.336 219.796 211.322C219.8 211.309 219.802 211.296 219.806 211.284C219.811 211.27 219.817 211.257 219.824 211.244C219.829 211.233 219.833 211.223 219.839 211.213C219.848 211.198 219.858 211.184 219.869 211.171C219.874 211.164 219.879 211.157 219.884 211.151C219.899 211.135 219.915 211.12 219.931 211.106C219.934 211.104 219.936 211.101 219.939 211.099C219.959 211.083 219.98 211.069 220.003 211.058L220.004 211.057C220.026 211.045 220.05 211.036 220.074 211.028C220.076 211.028 220.077 211.027 220.079 211.027C220.1 211.021 220.121 211.017 220.144 211.014C220.15 211.013 220.156 211.012 220.163 211.011C220.169 211.011 220.174 211.009 220.18 211.009C220.191 211.008 220.203 211.01 220.215 211.011C220.223 211.011 220.232 211.01 220.241 211.011C220.245 211.011 220.248 211.013 220.252 211.013C220.265 211.015 220.277 211.019 220.29 211.021C220.304 211.025 220.32 211.028 220.333 211.033C220.343 211.036 220.351 211.041 220.36 211.045C220.376 211.052 220.392 211.059 220.407 211.068C220.413 211.072 220.419 211.077 220.426 211.081C220.441 211.092 220.457 211.103 220.471 211.116C220.476 211.121 220.481 211.126 220.486 211.132C220.499 211.145 220.512 211.159 220.523 211.173C220.529 211.18 220.533 211.188 220.538 211.196C220.547 211.21 220.557 211.225 220.564 211.24C220.569 211.249 220.572 211.259 220.576 211.269C220.582 211.284 220.588 211.299 220.592 211.315C220.595 211.325 220.596 211.337 220.598 211.348C220.601 211.364 220.604 211.379 220.605 211.395C220.606 211.399 220.606 211.402 220.607 211.405C220.623 211.844 220.616 212.254 220.594 212.642C220.697 213.769 221.12 214.862 221.821 215.758C222.763 216.964 224.174 217.772 225.691 217.975C225.917 218.005 226.075 218.212 226.045 218.438C226.016 218.654 225.825 218.808 225.611 218.795C225.601 218.794 225.592 218.793 225.582 218.792C223.853 218.561 222.245 217.64 221.171 216.265C220.798 215.788 220.495 215.26 220.264 214.703C219.405 217.755 217.262 218.477 217.145 218.514C217.096 218.53 217.045 218.535 216.996 218.532C216.832 218.522 216.683 218.413 216.629 218.247C216.56 218.031 216.678 217.799 216.893 217.728Z" fill="#00656C"/>
<path d="M202.896 226.667C205.32 225.501 208.127 225.429 210.801 225.705C213.476 225.98 216.119 226.58 218.806 226.678C222.222 226.803 225.666 226.098 228.759 224.641C227.939 226.422 226.945 228.398 225.257 229.396C223.871 230.215 222.185 230.295 220.576 230.354C218.684 230.422 216.791 230.492 214.899 230.561C212.761 230.639 210.593 230.713 208.512 230.22C206.431 229.727 203.979 228.512 202.896 226.667Z" fill="#FFB25B"/>
<g filter="url(#filter1_d_10_67193)">
<path fill-rule="evenodd" clip-rule="evenodd" d="M187 89.5358C187 105.296 174.27 118.072 158.566 118.072C142.863 118.072 130.133 105.296 130.133 89.5358C130.133 73.7759 142.863 61 158.566 61C174.27 61 187 73.7759 187 89.5358ZM150.172 132.407C150.172 141.788 142.594 149.393 133.247 149.393C123.899 149.393 116.322 141.788 116.322 132.407C116.322 123.026 123.899 115.422 133.247 115.422C142.594 115.422 150.172 123.026 150.172 132.407ZM121.806 88.313C121.806 96.0988 118.459 103.1 113.132 107.948H113.275C113.275 107.948 108.169 113.009 105.616 119.756C103.062 126.504 103.062 132.408 103.062 132.408H95.4028H87.7431C87.7431 132.408 87.7431 126.504 85.1898 119.756C82.6366 113.009 77.5301 107.948 77.5301 107.948H77.6737C72.346 103.1 69 96.0988 69 88.313C69 73.6789 80.8209 61.8155 95.4028 61.8155C109.985 61.8155 121.806 73.6789 121.806 88.313ZM113.132 156.867C118.459 161.715 121.806 168.717 121.806 176.502C121.806 191.137 109.985 203 95.4028 203C80.8209 203 69 191.137 69 176.502C69 168.717 72.346 161.715 77.6737 156.867H77.5301C77.5301 156.867 82.6366 151.807 85.1898 145.059C87.7431 138.312 87.7431 132.408 87.7431 132.408H95.4028H103.062C103.062 132.408 103.062 138.312 105.616 145.059C108.169 151.807 113.275 156.867 113.275 156.867H113.132Z" fill="white"/>
</g>
</g>
<rect x="0.5" y="0.5" width="255" height="255" rx="9.5" stroke="#D3D6E1"/>
<defs>
<filter id="filter0_f_10_67193" x="37.0293" y="4.55225" width="44.3877" height="44.3882" filterUnits="userSpaceOnUse" color-interpolation-filters="sRGB">
<feFlood flood-opacity="0" result="BackgroundImageFix"/>
<feBlend mode="normal" in="SourceGraphic" in2="BackgroundImageFix" result="shape"/>
<feGaussianBlur stdDeviation="2.5" result="effect1_foregroundBlur_10_67193"/>
</filter>
<filter id="filter1_d_10_67193" x="65" y="61" width="126" height="150" filterUnits="userSpaceOnUse" color-interpolation-filters="sRGB">
<feFlood flood-opacity="0" result="BackgroundImageFix"/>
<feColorMatrix in="SourceAlpha" type="matrix" values="0 0 0 0 0 0 0 0 0 0 0 0 0 0 0 0 0 0 127 0" result="hardAlpha"/>
<feOffset dy="4"/>
<feGaussianBlur stdDeviation="2"/>
<feComposite in2="hardAlpha" operator="out"/>
<feColorMatrix type="matrix" values="0 0 0 0 0 0 0 0 0 0 0 0 0 0 0 0 0 0 0.25 0"/>
<feBlend mode="normal" in2="BackgroundImageFix" result="effect1_dropShadow_10_67193"/>
<feBlend mode="normal" in="SourceGraphic" in2="effect1_dropShadow_10_67193" result="shape"/>
</filter>
<clipPath id="clip0_10_67193">
<rect width="256" height="256" rx="10" fill="white"/>
</clipPath>
</defs>
</svg>
