<svg width="101" height="101" viewBox="0 0 101 101" fill="none" xmlns="http://www.w3.org/2000/svg">
<g opacity="0.2">
<path d="M16.8333 47.6233V81.29C16.8333 83.5222 17.7201 85.663 19.2985 87.2414C20.877 88.8199 23.0178 89.7066 25.25 89.7066H75.75C77.9822 89.7066 80.1231 88.8199 81.7015 87.2414C83.2799 85.663 84.1667 83.5222 84.1667 81.29V47.6233" stroke="#257CDB" stroke-width="3.5" stroke-linecap="round" stroke-linejoin="round"/>
<path d="M50.5 24.4775C50.5 20.571 48.9482 16.8246 46.1859 14.0624C43.4237 11.3001 39.6773 9.74829 35.7708 9.74829C32.9805 9.74829 30.3045 10.8567 28.3315 12.8298C26.3584 14.8028 25.25 17.4788 25.25 20.2691C25.25 23.0594 26.3584 25.7354 28.3315 27.7085C30.3045 29.6815 32.9805 30.79 35.7708 30.79H50.5M50.5 24.4775V30.79M50.5 24.4775C50.5 20.571 52.0518 16.8246 54.8141 14.0624C57.5763 11.3001 61.3228 9.74829 65.2292 9.74829C68.0195 9.74829 70.6955 10.8567 72.6685 12.8298C74.6416 14.8028 75.75 17.4788 75.75 20.2691C75.75 21.6507 75.4779 23.0188 74.9491 24.2953C74.4204 25.5717 73.6455 26.7315 72.6685 27.7085C71.6916 28.6854 70.5318 29.4604 69.2553 29.9891C67.9789 30.5178 66.6108 30.79 65.2292 30.79H50.5" stroke="#257CDB" stroke-width="3.5" stroke-linejoin="round"/>
<path d="M50.5 47.6234V89.7067M12.625 30.79H88.375V47.6234H12.625V30.79Z" stroke="#257CDB" stroke-width="3.5" stroke-linecap="round" stroke-linejoin="round"/>
</g>
</svg>
