<svg width="24" height="24" viewBox="0 0 26 24" fill="none" xmlns="http://www.w3.org/2000/svg">
<path d="M13.0946 22C18.7577 22 23.361 17.5161 23.361 12C23.361 6.48387 18.7577 2 13.0946 2C7.43147 2 2.82812 6.48387 2.82812 12C2.82812 17.5161 7.43147 22 13.0946 22ZM5.14636 15.9839L9.31917 15.9516C9.78282 17.5806 10.5611 19.1613 11.6208 20.5806C8.78929 20.129 6.42138 18.371 5.14636 15.9839ZM10.3789 9.25806H15.5784C15.9592 11.0323 15.9592 12.8548 15.6115 14.629L10.3789 14.6613C9.99808 12.871 9.99808 11.0323 10.3789 9.25806ZM12.9787 20.2097C11.9355 18.9032 11.1738 17.4677 10.7101 15.9516L15.2638 15.9194C14.7836 17.4355 14.0219 18.8871 12.9787 20.2097ZM14.3034 20.629C15.3962 19.1774 16.1745 17.5806 16.6382 15.9032L21.0925 15.871C19.8009 18.4032 17.284 20.2258 14.3034 20.629ZM22.0363 12C22.0363 12.9032 21.8873 13.7742 21.6389 14.5806L16.9528 14.6129C17.284 12.8387 17.2674 11.0323 16.9197 9.25806H21.5727C21.8707 10.1129 22.0363 11.0484 22.0363 12ZM21.0097 7.96774H16.605C16.1248 6.35484 15.3631 4.79032 14.3034 3.37097C17.2343 3.75806 19.7015 5.51613 21.0097 7.96774ZM15.2307 7.96774H10.7267C11.2069 6.48387 11.952 5.08065 12.9787 3.79032C14.0053 5.08065 14.7505 6.48387 15.2307 7.96774ZM11.6208 3.41935C10.5776 4.82258 9.81594 6.35484 9.35229 7.96774H5.17947C6.4545 5.59677 8.80585 3.87097 11.6208 3.41935ZM9.03767 9.25806C8.68994 11.0484 8.68994 12.871 9.02111 14.6613L4.59992 14.6935C4.30186 13.8387 4.15283 12.9355 4.15283 12C4.15283 11.0484 4.31842 10.1129 4.61647 9.25806H9.03767Z" fill="#3A3A3A"/>
</svg>